#define adev_0s_width 50
#define adev_0s_height 50
static char adev_0s_bits[] = {
   0x00, 0x00, 0x00, 0x00, 0x00, 0x00, 0x00, 0x00, 0x00, 0x00, 0x00, 0x00,
   0x00, 0x00, 0x48, 0x92, 0x24, 0x49, 0x92, 0x24, 0x00, 0x00, 0x00, 0x00,
   0x00, 0x00, 0x00, 0x01, 0x00, 0x00, 0x00, 0x00, 0x00, 0x00, 0x00, 0x24,
   0x49, 0x92, 0x24, 0x49, 0x12, 0x00, 0x80, 0xff, 0xff, 0xff, 0xff, 0x87,
   0x00, 0x80, 0xff, 0xff, 0xff, 0xff, 0x07, 0x00 0xa4, 0xff, 0xff, 0xff,
   0xff, 0x27, 0x00, 0x80, 0x03, 0x00, 0x00, 0x00, 0x07, 0x01, 0x80, 0x03,
   0x00, 0x00, 0x00, 0x07, 0x00, 0xa4, 0x03, 0x00, 0x00, 0x00, 0x27, 0x00,
   0x80, 0x03, 0x00, 0x00, 0x00, 0x07, 0x00, 0x80, 0x03, 0x00, 0x00, 0x40,
   0x87, 0x00, 0xa4, 0x03, 0x00, 0x00, 0xf0, 0x7f, 0x00, 0x80, 0x03, 0x00,
   0x00, 0xf0, 0x7f, 0x00 0x80, 0x03, 0x00, 0x00, 0x41, 0x87, 0x00, 0xa4,
   0x03, 0x00, 0x40, 0x00, 0x27, 0x00, 0x80, 0x03, 0x00, 0x00, 0x00, 0x07,
   0x00, 0x80, 0x03, 0x00, 0x10, 0x00, 0x07, 0x01, 0xa4, 0x03, 0x00, 0x04,
   0x00, 0x17, 0x00, 0x80, 0x03, 0x00, 0x01, 0x00, 0x07, 0x00, 0x80, 0x03,
   0x40, 0x00, 0x00, 0x47, 0x00, 0xac, 0x03, 0xe0, 0x00, 0x00, 0x07, 0x00
   0xfe, 0xff, 0xff, 0x00, 0x00, 0x27, 0x01, 0xfe, 0xff, 0xff, 0x03, 0x00,
   0x07, 0x00, 0x88, 0x03, 0x80, 0x07, 0x00, 0x07, 0x00, 0x80, 0x03, 0x00,
   0x0e, 0x00, 0x97, 0x00, 0xa4, 0x03, 0x00, 0x3c, 0x00, 0x07, 0x00, 0x80,
   0x03, 0x00, 0x78, 0x00, 0x07, 0x00, 0x80, 0x03, 0x00, 0xe0, 0x01, 0x27,
   0x01, 0xa4, 0x03, 0x00, 0xc0, 0x03, 0x07, 0x00 0x80, 0x03, 0x00, 0x00,
   0x43, 0x07, 0x00, 0x80, 0x03, 0x00, 0x00, 0xf0, 0xff, 0x01, 0xa4, 0x03,
   0x00, 0x00, 0xf0, 0xff, 0x00, 0x80, 0x03, 0x60, 0x00, 0x40, 0x47, 0x00,
   0x80, 0x03, 0xf0, 0x00, 0x00, 0x17, 0x00, 0xa4, 0x03, 0xf0, 0x00, 0x00,
   0x07, 0x00, 0x80, 0x03, 0xf8, 0x01, 0x00, 0x07, 0x01, 0x80, 0x03, 0x78,
   0x01, 0x00, 0x47, 0x00 0xa4, 0xff, 0xff, 0xff, 0xff, 0x07, 0x00, 0x80,
   0xff, 0xff, 0xff, 0xff, 0x17, 0x00, 0x80, 0xff, 0xff, 0xff, 0xff, 0x07,
   0x01, 0x24, 0x00, 0x60, 0x00, 0x00, 0x40, 0x00, 0x00, 0x49, 0x62, 0x00,
   0x00, 0x04, 0x00, 0x00, 0x00, 0x60, 0x20, 0x49, 0x00, 0x00, 0x24, 0x00,
   0x60, 0x08, 0x00, 0x22, 0x00, 0x00, 0x49, 0x62, 0x00, 0x80, 0x00, 0x01
   0x00, 0x00, 0x10, 0x80, 0x24, 0x00, 0x00, 0x24, 0x00, 0x00, 0x12, 0x00,
   0x48, 0x00};
