#define adev_0e_width 50
#define adev_0e_height 50
static char adev_0e_bits[] = {
   0x00, 0x00, 0x00, 0x00, 0x00, 0x00, 0x00, 0x00, 0x00, 0x00, 0x00, 0x00,
   0x00, 0x00, 0x48, 0x92, 0x24, 0x49, 0x4e, 0x92, 0x00, 0x00, 0xc0, 0x00,
   0x00, 0x06, 0x00, 0x00, 0x00, 0xc0, 0x00, 0x00, 0x07, 0x00, 0x00, 0x24,
   0xc9, 0x24, 0x49, 0x26, 0x49, 0x00, 0x00, 0xc0, 0x00, 0x00, 0x06, 0x00,
   0x00, 0xc0, 0xff, 0xff, 0xff, 0xff, 0x07, 0x01 0xe4, 0xff, 0xff, 0xff,
   0xff, 0x17, 0x00, 0xc0, 0xff, 0xff, 0xff, 0xff, 0x07, 0x00, 0xc0, 0xc1,
   0x00, 0x00, 0x06, 0x47, 0x00, 0xc4, 0xe1, 0x01, 0x00, 0x0f, 0x17, 0x00,
   0xe0, 0xc1, 0x00, 0x00, 0x06, 0x07, 0x01, 0xc0, 0xc1, 0x00, 0x00, 0x06,
   0x07, 0x00, 0xc4, 0x01, 0x00, 0x00, 0x00, 0x27, 0x00, 0xc0, 0x01, 0x00,
   0x00, 0x00, 0x07, 0x00 0xd0, 0x01, 0x00, 0x80, 0x01, 0x17, 0x01, 0xc4,
   0x01, 0x01, 0xc0, 0x01, 0x07, 0x00, 0xc0, 0x01, 0x00, 0xc0, 0x00, 0x47,
   0x00, 0xc0, 0x01, 0x02, 0xe0, 0x00, 0x17, 0x00, 0xe4, 0x01, 0x00, 0x70,
   0x00, 0x07, 0x00, 0xc0, 0x01, 0x08, 0x30, 0x00, 0x07, 0x01, 0xc0, 0x01,
   0x00, 0x38, 0x00, 0x27, 0x00, 0xc4, 0x01, 0x10, 0x1c, 0x00, 0x07, 0x00
   0xe0, 0x01, 0x00, 0x0e, 0x00, 0x17, 0x01, 0xc0, 0x01, 0x20, 0x06, 0xc0,
   0x07, 0x00, 0xc4, 0x01, 0x80, 0x07, 0xf0, 0x47, 0x00, 0xc0, 0x01, 0xc0,
   0x03, 0xf8, 0xff, 0x00, 0xd0, 0x01, 0x80, 0x03, 0xf8, 0xff, 0x00, 0xc4,
   0x01, 0x00, 0x03, 0x70, 0x07, 0x00, 0xc0, 0x01, 0x00, 0x03, 0xc0, 0x07,
   0x00, 0xc0, 0x01, 0x00, 0x03, 0x00, 0x07, 0x00 0xc8, 0x01, 0x00, 0x03,
   0x00, 0x87, 0x00, 0xc0, 0x01, 0x00, 0x03, 0x00, 0x27, 0x00, 0xc4, 0x01,
   0x00, 0x03, 0x00, 0x07, 0x00, 0xe0, 0x01, 0x00, 0x03, 0x00, 0x07, 0x00,
   0xc0, 0x01, 0x00, 0x03, 0x00, 0x47, 0x00, 0xc4, 0x01, 0x00, 0x03, 0x00,
   0x07, 0x02, 0xc0, 0x01, 0x00, 0x03, 0x00, 0x17, 0x00, 0xd0, 0x01, 0x00,
   0x03, 0x00, 0x87, 0x00 0xc4, 0xff, 0xff, 0xff, 0xff, 0x07, 0x00, 0xc0,
   0xff, 0xff, 0xff, 0xff, 0x07, 0x00, 0xc0, 0xff, 0xff, 0xff, 0xff, 0x97,
   0x00, 0x08, 0x00, 0x00, 0x03, 0x00, 0x00, 0x00, 0x40, 0x92, 0x24, 0x4b,
   0x12, 0x02, 0x00, 0x04, 0x00, 0x00, 0x03, 0x80, 0x20, 0x01, 0x00, 0x00,
   0x80, 0x07, 0x00, 0x00, 0x00, 0x90, 0x24, 0x49, 0x4b, 0x12, 0x04, 0x00
   0x04, 0x00, 0x00, 0x03, 0x80, 0x20, 0x01, 0x00, 0x00, 0x00, 0x00, 0x00,
   0x00, 0x00};
