#define adev_0w_width 50
#define adev_0w_height 50
static char adev_0w_bits[] = {
   0x00, 0x00, 0x00, 0x00, 0x00, 0x00, 0x00, 0x00, 0x00, 0x00, 0x03, 0x00,
   0x00, 0x00, 0x48, 0x92, 0x24, 0x4b, 0x92, 0x24, 0x00, 0x00, 0x00, 0x80,
   0x07, 0x00, 0x00, 0x01, 0x00, 0x00, 0x00, 0x03, 0x00, 0x00, 0x00, 0x24,
   0x49, 0x92, 0x93, 0x24, 0x49, 0x00, 0x00, 0x00, 0x00, 0x03, 0x00, 0x00,
   0x00, 0x80, 0xff, 0xff, 0xff, 0xff, 0x0f, 0x00 0xa4, 0xff, 0xff, 0xff,
   0xff, 0x2f, 0x01, 0x80, 0xff, 0xff, 0xff, 0xff, 0x0f, 0x00, 0x80, 0x03,
   0x00, 0x03, 0x00, 0x0e, 0x00, 0xa4, 0x03, 0x00, 0x03, 0x00, 0x2e, 0x01,
   0x80, 0x03, 0x00, 0x03, 0x00, 0x0e, 0x00, 0x80, 0x03, 0x00, 0x03, 0x00,
   0x0e, 0x00, 0xa4, 0x03, 0x00, 0x03, 0x00, 0x2e, 0x00, 0x80, 0x03, 0x00,
   0x03, 0x00, 0x0e, 0x01 0x80, 0x03, 0x00, 0x03, 0x00, 0x0e, 0x00, 0xa4,
   0x03, 0x00, 0x03, 0x00, 0x2e, 0x00, 0x80, 0x03, 0x00, 0x03, 0x00, 0x0e,
   0x01, 0x80, 0x0f, 0x00, 0x03, 0x00, 0x0e, 0x00, 0xa4, 0x3f, 0x00, 0x03,
   0x00, 0x2e, 0x00, 0xfc, 0x7f, 0x00, 0x07, 0x00, 0x0e, 0x01, 0xfc, 0x7f,
   0x00, 0x0f, 0x00, 0x0e, 0x00, 0x80, 0x1f, 0x80, 0x07, 0x00, 0x2e, 0x00
   0x80, 0x07, 0x80, 0x11, 0x00, 0x0e, 0x00, 0x84, 0x03, 0xc0, 0x01, 0x00,
   0x8e, 0x00, 0x80, 0x03, 0xe0, 0x20, 0x00, 0x2e, 0x00, 0x90, 0x03, 0x70,
   0x00, 0x00, 0x0e, 0x00, 0x84, 0x03, 0x30, 0x40, 0x00, 0x0e, 0x00, 0x80,
   0x03, 0x38, 0x00, 0x00, 0x2e, 0x01, 0xa0, 0x03, 0x1c, 0x00, 0x01, 0x0e,
   0x00, 0x88, 0x03, 0x0c, 0x00, 0x00, 0x0e, 0x00 0x80, 0x03, 0x0e, 0x00,
   0x02, 0x2e, 0x01, 0x84, 0x03, 0x06, 0x00, 0x00, 0x0e, 0x00, 0xc0, 0x03,
   0x00, 0x00, 0x00, 0x0e, 0x00, 0x80, 0x03, 0x00, 0x00, 0x00, 0x2e, 0x00,
   0x84, 0x83, 0x01, 0x00, 0x0c, 0x0e, 0x01, 0xa0, 0x83, 0x01, 0x00, 0x0c,
   0x0e, 0x00, 0x80, 0xc3, 0x03, 0x00, 0x1e, 0x2e, 0x00, 0x84, 0x83, 0x01,
   0x00, 0x0c, 0x0e, 0x01 0xa0, 0xff, 0xff, 0xff, 0xff, 0x0f, 0x00, 0x80,
   0xff, 0xff, 0xff, 0xff, 0x2f, 0x00, 0x84, 0xff, 0xff, 0xff, 0xff, 0x0f,
   0x01, 0x20, 0x80, 0x01, 0x00, 0x0c, 0x00, 0x00, 0x00, 0x89, 0x11, 0x22,
   0x4e, 0x12, 0x00, 0x04, 0xc0, 0x85, 0x00, 0x0c, 0x80, 0x00, 0x20, 0x80,
   0x01, 0x80, 0x0c, 0x00, 0x00, 0x00, 0x89, 0x01, 0x08, 0x90, 0x24, 0x00
   0x04, 0x00, 0x48, 0x42, 0x04, 0x00, 0x01, 0x20, 0x20, 0x01, 0x00, 0x00,
   0x00, 0x00};
