#define afun_0s_width 50
#define afun_0s_height 50
static char afun_0s_bits[] = {
   0x00, 0x00, 0x00, 0x00, 0x00, 0x00, 0x00, 0x00, 0x00, 0x00, 0x00, 0x00,
   0x00, 0x00, 0x48, 0x92, 0x24, 0x49, 0x92, 0x24, 0x00, 0x00, 0x00, 0x00,
   0x00, 0x00, 0x00, 0x01, 0xf8, 0xff, 0xff, 0xff, 0xff, 0x7f, 0x00, 0xfc,
   0xff, 0xff, 0xff, 0xff, 0x7f, 0x00, 0xf8, 0xff, 0xff, 0xff, 0xff, 0x7f,
   0x01, 0x38, 0x00, 0x00, 0x00, 0x00, 0x70, 0x00 0x38, 0x00, 0x00, 0x00,
   0x00, 0x70, 0x00, 0x3c, 0x00, 0x00, 0x80, 0x01, 0x70, 0x00, 0x38, 0x00,
   0x00, 0x80, 0x01, 0x70, 0x01, 0x38, 0x00, 0x00, 0x80, 0x01, 0x70, 0x00,
   0x38, 0x00, 0x00, 0x80, 0x01, 0x70, 0x00, 0x3c, 0x00, 0x00, 0x80, 0x01,
   0x70, 0x01, 0x38, 0x00, 0x00, 0x80, 0x01, 0x70, 0x00, 0x38, 0x00, 0x00,
   0x80, 0x01, 0x70, 0x00 0x38, 0x00, 0x00, 0x80, 0x01, 0x70, 0x00, 0x3c,
   0x04, 0x00, 0x80, 0x01, 0x70, 0x01, 0xb8, 0xff, 0xff, 0xff, 0xff, 0x73,
   0x00, 0xb8, 0xff, 0xff, 0xff, 0xff, 0x73, 0x00, 0x38, 0x04, 0x00, 0x80,
   0x01, 0x70, 0x01, 0x3c, 0x00, 0x00, 0x80, 0x01, 0x70, 0x00, 0x38, 0x00,
   0x00, 0x80, 0x01, 0x70, 0x00, 0x38, 0x00, 0x00, 0x80, 0x01, 0x70, 0x00
   0x38, 0x00, 0x00, 0x80, 0x01, 0x70, 0x01, 0x3c, 0x00, 0xc0, 0x8f, 0x01,
   0x70, 0x00, 0x3f, 0x00, 0xf0, 0xff, 0x01, 0xf0, 0x03, 0x3f, 0x00, 0x78,
   0xf8, 0x0f, 0xf0, 0x03, 0x38, 0x00, 0x1e, 0x80, 0xff, 0x70, 0x00, 0x38,
   0x00, 0x0f, 0x80, 0xf9, 0x70, 0x01, 0x38, 0xc0, 0x03, 0x80, 0x01, 0x70,
   0x00, 0x3c, 0xe0, 0x01, 0x80, 0x01, 0x70, 0x00 0xb8, 0x7f, 0x00, 0x80,
   0x01, 0x70, 0x00, 0xb8, 0x3f, 0x00, 0x80, 0x01, 0x70, 0x01, 0x38, 0x00,
   0x00, 0x80, 0x01, 0x70, 0x00, 0x3c, 0x00, 0x00, 0x80, 0x01, 0x70, 0x00,
   0x38, 0x00, 0x00, 0x80, 0x01, 0x70, 0x01, 0x38, 0x00, 0x00, 0x80, 0x01,
   0x70, 0x00, 0x38, 0x00, 0x00, 0xc0, 0x03, 0x70, 0x00, 0x3c, 0x00, 0x00,
   0x80, 0x01, 0x70, 0x00 0x38, 0x00, 0x00, 0x80, 0x01, 0x70, 0x01, 0x38,
   0x00, 0x00, 0x00, 0x00, 0x70, 0x00, 0x38, 0x00, 0x00, 0x00, 0x00, 0x70,
   0x00, 0x3c, 0x00, 0x00, 0x00, 0x00, 0x70, 0x01, 0x38, 0x00, 0x00, 0x00,
   0x00, 0x70, 0x00, 0xf8, 0xff, 0xff, 0xff, 0xff, 0x7f, 0x00, 0xf8, 0xff,
   0xff, 0xff, 0xff, 0x7f, 0x00, 0xfc, 0xff, 0xff, 0xff, 0xff, 0x7f, 0x01
   0x00, 0x00, 0x00, 0x00, 0x00, 0x00, 0x00, 0x80, 0x10, 0x11, 0x11, 0x91,
   0x24, 0x00};
