#define aint_0s_width 50
#define aint_0s_height 50
static char aint_0s_bits[] = {
   0x00, 0x00, 0x00, 0x00, 0x00, 0x00, 0x00, 0x00, 0x00, 0x00, 0x00, 0x00,
   0x00, 0x00, 0x48, 0x92, 0x24, 0x49, 0x92, 0x24, 0x00, 0x00, 0x00, 0x00,
   0x00, 0x00, 0x00, 0x01, 0x00, 0x00, 0x00, 0x00, 0x00, 0x00, 0x00, 0xe4,
   0xff, 0xff, 0xff, 0xff, 0x1f, 0x00, 0xe0, 0xff, 0xff, 0xff, 0xff, 0x8f,
   0x00, 0xe8, 0xff, 0xff, 0xff, 0xff, 0x0f, 0x00 0xe0, 0x00, 0x00, 0x00,
   0x00, 0x2e, 0x00, 0xe0, 0x00, 0x00, 0x00, 0x00, 0x0e, 0x01, 0xe4, 0x00,
   0x00, 0x00, 0x00, 0x0e, 0x00, 0xe0, 0x00, 0x00, 0x00, 0x00, 0x1e, 0x00,
   0xe8, 0x00, 0x00, 0x00, 0x00, 0x8e, 0x00, 0xe0, 0x00, 0x00, 0x80, 0x07,
   0x0e, 0x00, 0xe0, 0x00, 0x00, 0xe0, 0x07, 0x2e, 0x00, 0xe4, 0x00, 0x00,
   0x60, 0x00, 0x0e, 0x01 0xe0, 0x00, 0x00, 0x78, 0x00, 0x0e, 0x00, 0xe8,
   0x00, 0x00, 0x18, 0x00, 0x1e, 0x00, 0xe0, 0x00, 0x00, 0x18, 0x00, 0x8e,
   0x00, 0xe0, 0x00, 0x00, 0x0c, 0x00, 0x0e, 0x00, 0xe4, 0x00, 0x00, 0x0e,
   0x00, 0x2e, 0x00, 0xe0, 0x00, 0x00, 0x06, 0x00, 0x0e, 0x01, 0xe8, 0x80,
   0x3d, 0x06, 0x00, 0x0e, 0x00, 0xe0, 0x00, 0x6d, 0x07, 0x00, 0x1e, 0x00
   0xff, 0x00, 0x6d, 0x07, 0x00, 0xfe, 0x01, 0xff, 0x80, 0x3f, 0x07, 0x00,
   0xfe, 0x01, 0xe0, 0x00, 0x8d, 0x03, 0x00, 0x0e, 0x01, 0xe4, 0x00, 0x8c,
   0x03, 0x00, 0x2e, 0x00, 0xe0, 0x00, 0x80, 0x01, 0x00, 0x0e, 0x00, 0xf0,
   0x00, 0x80, 0x01, 0x00, 0x8e, 0x00, 0xe4, 0x00, 0x80, 0x01, 0x00, 0x1e,
   0x00, 0xe0, 0x00, 0xc0, 0x00, 0x00, 0x0e, 0x00 0xe0, 0x00, 0xe0, 0x00,
   0x00, 0x8e, 0x00, 0xe8, 0x00, 0x60, 0x00, 0x00, 0x2e, 0x00, 0xe0, 0x00,
   0x3e, 0x00, 0x00, 0x0e, 0x00, 0xe4, 0x00, 0x1e, 0x00, 0x00, 0x0e, 0x00,
   0xe0, 0x00, 0x00, 0x00, 0x00, 0x9e, 0x00, 0xe0, 0x00, 0x00, 0x00, 0x00,
   0x0e, 0x00, 0xe4, 0x00, 0x00, 0x00, 0x00, 0x0e, 0x00, 0xe0, 0x00, 0x00,
   0x00, 0x00, 0x2e, 0x01 0xf0, 0x00, 0x00, 0x00, 0x00, 0x0e, 0x00, 0xe4,
   0xff, 0xff, 0xff, 0xff, 0x0f, 0x00, 0xe0, 0xff, 0xff, 0xff, 0xff, 0x9f,
   0x00, 0xe0, 0xff, 0xff, 0xff, 0xff, 0x0f, 0x00, 0x08, 0x00, 0x88, 0x88,
   0x24, 0x01, 0x00, 0x80, 0x24, 0x01, 0x00, 0x00, 0x48, 0x00, 0x04, 0x00,
   0x20, 0x22, 0x00, 0x00, 0x00, 0x20, 0x00, 0x04, 0x00, 0x49, 0x02, 0x01
   0x00, 0x92, 0x00, 0x08, 0x00, 0x20, 0x00, 0x84, 0x00, 0x20, 0x01, 0x00,
   0x08, 0x00};
