#define aint_0e_width 50
#define aint_0e_height 50
static char aint_0e_bits[] = {
   0x00, 0x00, 0x00, 0x00, 0x00, 0x00, 0x00, 0x00, 0x00, 0x00, 0x03, 0x00,
   0x00, 0x00, 0x48, 0x92, 0x24, 0x4b, 0x92, 0x24, 0x00, 0x00, 0x00, 0x00,
   0x03, 0x00, 0x00, 0x01, 0x00, 0x00, 0x80, 0x03, 0x00, 0x00, 0x00, 0x24,
   0x49, 0x12, 0x93, 0x24, 0x49, 0x00, 0xe0, 0xff, 0xff, 0xff, 0xff, 0x0f,
   0x00, 0xe0, 0xff, 0xff, 0xff, 0xff, 0x0f, 0x00 0xe4, 0xff, 0xff, 0xff,
   0xff, 0x8f, 0x00, 0xe0, 0x00, 0x00, 0x00, 0x00, 0x0e, 0x00, 0xf0, 0x00,
   0x00, 0x00, 0x00, 0x2e, 0x00, 0xe4, 0x00, 0x00, 0x00, 0x00, 0x0e, 0x01,
   0xe0, 0x00, 0x00, 0x00, 0x00, 0x0e, 0x00, 0xe0, 0x00, 0x00, 0x00, 0x00,
   0x4e, 0x00, 0xe4, 0x00, 0x00, 0x00, 0x00, 0x0e, 0x00, 0xe0, 0x60, 0x00,
   0x00, 0x00, 0x0e, 0x00 0xe0, 0x60, 0x00, 0x00, 0x00, 0x4e, 0x00, 0xe4,
   0x60, 0x00, 0x00, 0x00, 0x0e, 0x02, 0xe0, 0x60, 0x00, 0x00, 0x00, 0x8e,
   0x00, 0xf0, 0xc0, 0x01, 0x00, 0x00, 0x2e, 0x00, 0xe4, 0xc0, 0x01, 0x00,
   0x00, 0x0e, 0x00, 0xe0, 0x00, 0x07, 0x00, 0x00, 0x0e, 0x00, 0xe0, 0x00,
   0x1f, 0x00, 0x00, 0x8e, 0x00, 0xe8, 0x00, 0xf8, 0x03, 0x00, 0x2e, 0x00
   0xe0, 0x00, 0xf0, 0x0f, 0x00, 0x0e, 0x00, 0xe4, 0x00, 0x80, 0x7f, 0x00,
   0x0e, 0x00, 0xe0, 0x00, 0x00, 0xfc, 0x01, 0x8e, 0x00, 0xe0, 0x00, 0x80,
   0x81, 0x03, 0x2e, 0x00, 0xe4, 0x00, 0xc0, 0x03, 0x07, 0x0e, 0x00, 0xe0,
   0x00, 0x40, 0x02, 0x0c, 0x0e, 0x00, 0xf0, 0x00, 0xc0, 0x0f, 0x0c, 0x8e,
   0x00, 0xe4, 0x00, 0xc0, 0x0f, 0x0c, 0x2e, 0x00 0xe0, 0x00, 0x00, 0x02,
   0x0c, 0x0e, 0x00, 0xe0, 0x00, 0xc0, 0x07, 0x00, 0x0e, 0x00, 0xe8, 0x00,
   0x40, 0x02, 0x00, 0x4e, 0x00, 0xe0, 0x00, 0x00, 0x00, 0x00, 0x0e, 0x00,
   0xe4, 0x00, 0x00, 0x00, 0x00, 0x0e, 0x01, 0xe0, 0x00, 0x00, 0x00, 0x00,
   0x2e, 0x00, 0xe0, 0x00, 0x00, 0x00, 0x00, 0x0e, 0x00, 0xe4, 0x00, 0x00,
   0x00, 0x00, 0x0e, 0x01 0xe0, 0x00, 0x00, 0x00, 0x00, 0x4e, 0x00, 0xf0,
   0x00, 0x00, 0x00, 0x00, 0x0e, 0x00, 0xe4, 0xff, 0xff, 0xff, 0xff, 0x0f,
   0x00, 0xe0, 0xff, 0xff, 0xff, 0xff, 0x2f, 0x01, 0xe0, 0xff, 0xff, 0xff,
   0xff, 0x0f, 0x00, 0x08, 0x00, 0x00, 0x03, 0x00, 0x00, 0x00, 0x80, 0x48,
   0x22, 0x43, 0x00, 0x24, 0x01, 0x04, 0x00, 0x00, 0x0b, 0x92, 0x00, 0x00
   0x20, 0x02, 0x08, 0x03, 0x00, 0x00, 0x00, 0x00, 0x90, 0x40, 0x23, 0x00,
   0x92, 0x00};
