#define aint_0n_width 50
#define aint_0n_height 50
static char aint_0n_bits[] = {
   0x00, 0x00, 0x00, 0x00, 0x00, 0x00, 0x00, 0x00, 0x00, 0x00, 0x00, 0x00,
   0x00, 0x00, 0x48, 0x92, 0x24, 0x49, 0x92, 0x24, 0x00, 0x00, 0x00, 0x00,
   0x00, 0x00, 0x00, 0x01, 0x00, 0x00, 0x00, 0x00, 0x00, 0x00, 0x00, 0x24,
   0x49, 0x92, 0x24, 0x49, 0x12, 0x00, 0xc0, 0xff, 0xff, 0xff, 0xff, 0x9f,
   0x00, 0xc0, 0xff, 0xff, 0xff, 0xff, 0x1f, 0x00 0xe4, 0xff, 0xff, 0xff,
   0xff, 0x1f, 0x00, 0xc0, 0x01, 0x00, 0x00, 0x00, 0x9c, 0x00, 0xc0, 0x01,
   0x00, 0x00, 0x00, 0x1c, 0x00, 0xc4, 0x01, 0x00, 0x00, 0x00, 0x1c, 0x00,
   0xe0, 0x01, 0x00, 0x00, 0x00, 0x5c, 0x00, 0xc0, 0x01, 0x00, 0x00, 0x00,
   0x1c, 0x00, 0xc4, 0x01, 0x00, 0xe0, 0x01, 0x1c, 0x01, 0xc0, 0x01, 0x00,
   0xf0, 0x01, 0x1c, 0x00 0xd0, 0x01, 0x00, 0x18, 0x00, 0x9c, 0x00, 0xc4,
   0x01, 0x00, 0x1c, 0x00, 0x1c, 0x00, 0xc0, 0x01, 0x00, 0x0c, 0x00, 0x1c,
   0x00, 0xc0, 0x01, 0x00, 0x06, 0x00, 0x5c, 0x00, 0xe4, 0x01, 0x00, 0x06,
   0x00, 0x1c, 0x00, 0xc0, 0x01, 0x00, 0x06, 0x00, 0x1c, 0x01, 0xc0, 0x01,
   0x00, 0xc7, 0x00, 0x1c, 0x00, 0xc4, 0x01, 0x00, 0xc7, 0x02, 0x9c, 0x00
   0xfe, 0x01, 0x80, 0xf3, 0x07, 0xfc, 0x03, 0xfe, 0x01, 0x80, 0xdb, 0x02,
   0xfc, 0x03, 0xc0, 0x01, 0x80, 0xdb, 0x02, 0x1c, 0x00, 0xd0, 0x01, 0x80,
   0xf1, 0x06, 0x1c, 0x00, 0xc4, 0x01, 0x80, 0x01, 0x00, 0x9c, 0x00, 0xc0,
   0x01, 0xc0, 0x01, 0x00, 0x1c, 0x00, 0xc0, 0x01, 0xc0, 0x00, 0x00, 0x1c,
   0x00, 0xe4, 0x01, 0x60, 0x00, 0x00, 0x5c, 0x00 0xc0, 0x01, 0x60, 0x00,
   0x00, 0x1c, 0x02, 0xc0, 0x01, 0x78, 0x00, 0x00, 0x1c, 0x00, 0xc4, 0x01,
   0x18, 0x00, 0x00, 0x9c, 0x00, 0xe0, 0x81, 0x1f, 0x00, 0x00, 0x1c, 0x00,
   0xc0, 0x81, 0x07, 0x00, 0x00, 0x1c, 0x00, 0xc4, 0x01, 0x00, 0x00, 0x00,
   0x5c, 0x00, 0xc0, 0x01, 0x00, 0x00, 0x00, 0x1c, 0x00, 0xd0, 0x01, 0x00,
   0x00, 0x00, 0x1c, 0x01 0xc4, 0x01, 0x00, 0x00, 0x00, 0x1c, 0x00, 0xc0,
   0x01, 0x00, 0x00, 0x00, 0x5c, 0x00, 0xc0, 0xff, 0xff, 0xff, 0xff, 0x1f,
   0x00, 0xc8, 0xff, 0xff, 0xff, 0xff, 0x1f, 0x00, 0xc0, 0xff, 0xff, 0xff,
   0xff, 0x9f, 0x00, 0x44, 0x00, 0x00, 0x00, 0x00, 0x00, 0x00, 0x00, 0x12,
   0x11, 0x41, 0x00, 0x10, 0x00, 0x10, 0x00, 0x00, 0x08, 0x92, 0x84, 0x00
   0x04, 0x40, 0x44, 0x00, 0x00, 0x00, 0x00, 0x80, 0x04, 0x00, 0x20, 0x00,
   0x00, 0x00};
