#define aint_0w_width 50
#define aint_0w_height 50
static char aint_0w_bits[] = {
   0x00, 0x00, 0x00, 0x03, 0x00, 0x00, 0x00, 0x00, 0x00, 0x00, 0x03, 0x00,
   0x00, 0x00, 0x48, 0x92, 0x24, 0x93, 0x24, 0x49, 0x00, 0x00, 0x00, 0x00,
   0x03, 0x00, 0x00, 0x00, 0x00, 0x00, 0x00, 0x07, 0x00, 0x00, 0x01, 0xe4,
   0xff, 0xff, 0xff, 0xff, 0x3f, 0x00, 0xc0, 0xff, 0xff, 0xff, 0xff, 0x1f,
   0x00, 0xc0, 0xff, 0xff, 0xff, 0xff, 0x1f, 0x01 0xe4, 0x01, 0x00, 0x00,
   0x00, 0x5c, 0x00, 0xc0, 0x01, 0x00, 0x00, 0x00, 0x1c, 0x00, 0xc0, 0x01,
   0x00, 0x00, 0x00, 0x1c, 0x00, 0xc4, 0x01, 0x00, 0x00, 0x00, 0x3c, 0x01,
   0xe0, 0x01, 0x00, 0x00, 0x00, 0x1c, 0x00, 0xc0, 0x01, 0x00, 0x00, 0x00,
   0x1c, 0x00, 0xc4, 0x01, 0x00, 0x00, 0x00, 0x5c, 0x00, 0xc0, 0x01, 0x00,
   0x09, 0x00, 0x1c, 0x00 0xd0, 0x01, 0x80, 0x0f, 0x00, 0x1c, 0x01, 0xc4,
   0xc1, 0x00, 0x01, 0x00, 0x3c, 0x00, 0xc0, 0xc1, 0xc0, 0x0f, 0x00, 0x1c,
   0x00, 0xc0, 0xc1, 0xc0, 0x0f, 0x00, 0x1c, 0x01, 0xe4, 0xc1, 0x00, 0x09,
   0x00, 0x5c, 0x00, 0xc0, 0x81, 0x03, 0x0f, 0x00, 0x1c, 0x00, 0xc0, 0x01,
   0x07, 0x06, 0x00, 0x1c, 0x00, 0xc4, 0x01, 0xfe, 0x00, 0x00, 0x5c, 0x00
   0xe0, 0x01, 0xf8, 0x07, 0x00, 0x1c, 0x00, 0xc0, 0x01, 0xc0, 0x3f, 0x00,
   0x1c, 0x01, 0xc4, 0x01, 0x00, 0x7f, 0x00, 0x3c, 0x00, 0xc0, 0x01, 0x00,
   0xe0, 0x03, 0x1c, 0x00, 0xd0, 0x01, 0x00, 0x80, 0x03, 0x1c, 0x01, 0xc4,
   0x01, 0x00, 0x00, 0x0e, 0x5c, 0x00, 0xc0, 0x01, 0x00, 0x00, 0x0e, 0x1c,
   0x00, 0xc0, 0x01, 0x00, 0x00, 0x18, 0x1c, 0x00 0xc8, 0x01, 0x00, 0x00,
   0x18, 0x5c, 0x00, 0xc0, 0x01, 0x00, 0x00, 0x18, 0x1c, 0x00, 0xc4, 0x01,
   0x00, 0x00, 0x18, 0x1c, 0x01, 0xe0, 0x01, 0x00, 0x00, 0x00, 0x5c, 0x00,
   0xc0, 0x01, 0x00, 0x00, 0x00, 0x1c, 0x00, 0xc4, 0x01, 0x00, 0x00, 0x00,
   0x1c, 0x00, 0xc0, 0x01, 0x00, 0x00, 0x00, 0x3c, 0x01, 0xd0, 0x01, 0x00,
   0x00, 0x00, 0x1c, 0x00 0xc4, 0x01, 0x00, 0x00, 0x00, 0x1c, 0x00, 0xc0,
   0xff, 0xff, 0xff, 0xff, 0x9f, 0x00, 0xc0, 0xff, 0xff, 0xff, 0xff, 0x1f,
   0x00, 0xc8, 0xff, 0xff, 0xff, 0xff, 0x3f, 0x00, 0x40, 0x00, 0x00, 0x03,
   0x84, 0x00, 0x01, 0x04, 0x24, 0x49, 0x4b, 0x20, 0x04, 0x00, 0x00, 0x01,
   0x00, 0x03, 0x02, 0x20, 0x00, 0x10, 0x00, 0x00, 0x83, 0x00, 0x00, 0x00
   0x04, 0x48, 0x92, 0x0b, 0x90, 0x84, 0x00, 0x80, 0x00, 0x00, 0x00, 0x00,
   0x20, 0x00};
