#define amol_0w_width 50
#define amol_0w_height 50
static char amol_0w_bits[] = {
   0x00, 0x00, 0x00, 0x03, 0x00, 0x00, 0x00, 0x00, 0x00, 0x00, 0x03, 0x00,
   0x00, 0x00, 0x48, 0x92, 0xa4, 0x27, 0x49, 0x92, 0x00, 0x00, 0x00, 0xc0,
   0x0f, 0x00, 0x00, 0x00, 0x00, 0x00, 0x00, 0x03, 0x00, 0x00, 0x00, 0x24,
   0x49, 0x12, 0x4b, 0x92, 0x24, 0x01, 0x00, 0x00, 0x80, 0x03, 0x00, 0x00,
   0x00, 0x00, 0xfe, 0xff, 0xff, 0xff, 0x0f, 0x00 0x24, 0xff, 0xff, 0xff,
   0xff, 0x2f, 0x00, 0x00, 0xfe, 0xff, 0xff, 0xff, 0x0f, 0x01, 0x00, 0x0e,
   0x00, 0x00, 0x00, 0x0e, 0x00, 0x24, 0x0e, 0x00, 0x00, 0x00, 0x2e, 0x00,
   0x00, 0x0f, 0x00, 0x00, 0x00, 0x0e, 0x01, 0x40, 0x0e, 0x00, 0x00, 0x00,
   0x0e, 0x00, 0x04, 0x0e, 0x00, 0x00, 0x00, 0x2e, 0x00, 0x00, 0x0e, 0x00,
   0x00, 0x00, 0x0e, 0x00 0x90, 0x0e, 0x00, 0x00, 0x00, 0x8e, 0x00, 0x04,
   0x0e, 0x00, 0x00, 0x00, 0x2e, 0x00, 0x00, 0x0e, 0x30, 0x00, 0x00, 0x0e,
   0x00, 0x40, 0x0e, 0x70, 0xc0, 0x00, 0x0e, 0x00, 0x04, 0x0e, 0xe0, 0xe0,
   0x00, 0x2e, 0x01, 0x00, 0x1f, 0xc0, 0x71, 0x00, 0x0e, 0x00, 0x10, 0x3e,
   0x80, 0x3b, 0x00, 0x0e, 0x00, 0xfc, 0xff, 0x00, 0x1f, 0x00, 0x2e, 0x01
   0xfc, 0xff, 0x00, 0x0e, 0x00, 0x0e, 0x00, 0x00, 0x3e, 0x00, 0x0f, 0x00,
   0x0e, 0x00, 0x44, 0x1e, 0x80, 0x1f, 0x00, 0x2e, 0x00, 0x00, 0x0e, 0xc0,
   0x39, 0x00, 0x0e, 0x01, 0x10, 0x0e, 0xe0, 0x70, 0x00, 0x0e, 0x00, 0x04,
   0x0f, 0x70, 0xe0, 0x00, 0x2e, 0x00, 0x00, 0x0e, 0x30, 0xc0, 0x00, 0x0e,
   0x01, 0x40, 0x0e, 0x00, 0x00, 0x00, 0x0e, 0x00 0x08, 0x0e, 0x00, 0x00,
   0x00, 0x2e, 0x00, 0x00, 0x0e, 0x00, 0x00, 0x00, 0x0e, 0x01, 0x44, 0x0e,
   0x00, 0x03, 0x00, 0x0e, 0x00, 0x00, 0x0e, 0x80, 0x07, 0x00, 0x2e, 0x00,
   0x80, 0x0e, 0xc0, 0x0f, 0x00, 0x0e, 0x00, 0x24, 0xfe, 0xff, 0xff, 0xff,
   0x8f, 0x00, 0x00, 0xfe, 0xff, 0xff, 0xff, 0x2f, 0x00, 0x00, 0xfe, 0xff,
   0xff, 0xff, 0x0f, 0x00 0x24, 0x01, 0x00, 0x03, 0x00, 0x00, 0x00, 0x00,
   0x48, 0x12, 0x13, 0x91, 0x24, 0x01, 0x00, 0x00, 0x80, 0x03, 0x00, 0x00,
   0x00, 0x24, 0x01, 0x00, 0x23, 0x04, 0x00, 0x00, 0x00, 0x48, 0x12, 0x0b,
   0x21, 0x49, 0x00, 0x00, 0x00, 0x00, 0x03, 0x00, 0x00, 0x00, 0x24, 0x01,
   0x40, 0x03, 0x00, 0x00, 0x01, 0x00, 0x48, 0x12, 0x24, 0x49, 0x12, 0x00
   0x00, 0x00, 0x00, 0x00, 0x00, 0x80, 0x00, 0x24, 0x01, 0x80, 0x00, 0x00,
   0x00, 0x00};
