#define amol_0e_width 50
#define amol_0e_height 50
static char amol_0e_bits[] = {
   0x00, 0x00, 0x00, 0x00, 0x00, 0x00, 0x00, 0x00, 0x00, 0x00, 0x00, 0x00,
   0x00, 0x00, 0x48, 0x92, 0x24, 0x49, 0x92, 0x24, 0x00, 0x00, 0x00, 0x00,
   0x03, 0x00, 0x00, 0x01, 0x00, 0x00, 0x00, 0x03, 0x00, 0x00, 0x00, 0x24,
   0x49, 0x12, 0x93, 0x24, 0x49, 0x00, 0x00, 0x00, 0x80, 0x03, 0x00, 0x00,
   0x00, 0x00, 0x00, 0x00, 0x03, 0x00, 0x00, 0x01 0x24, 0x49, 0x12, 0x4b,
   0x92, 0x24, 0x00, 0x00, 0x00, 0x00, 0x03, 0x00, 0x00, 0x00, 0xc0, 0xff,
   0xff, 0xff, 0xff, 0x01, 0x01, 0xe4, 0xff, 0xff, 0xff, 0xff, 0x25, 0x00,
   0xc0, 0xff, 0xff, 0xff, 0xff, 0x01, 0x00, 0xc0, 0x01, 0xc0, 0x0f, 0xc0,
   0x01, 0x01, 0xc4, 0x01, 0x80, 0x07, 0xc0, 0x25, 0x00, 0xe0, 0x01, 0x00,
   0x03, 0xc0, 0x01, 0x00 0xc0, 0x01, 0x00, 0x00, 0xc0, 0x01, 0x01, 0xc4,
   0x01, 0x00, 0x00, 0xc0, 0x25, 0x00, 0xc0, 0x01, 0x00, 0x00, 0xc0, 0x01,
   0x00, 0xd0, 0x01, 0x0c, 0x30, 0xc0, 0x81, 0x00, 0xc4, 0x01, 0x1c, 0x38,
   0xc0, 0x25, 0x00, 0xc0, 0x01, 0x38, 0x1c, 0xc0, 0x01, 0x00, 0xc0, 0x01,
   0x70, 0x0e, 0xc0, 0x01, 0x00, 0xe4, 0x01, 0xe0, 0x07, 0xe0, 0x25, 0x01
   0xc0, 0x01, 0xc0, 0x03, 0xf0, 0x01, 0x00, 0xc0, 0x01, 0xc0, 0x01, 0xfc,
   0xff, 0x00, 0xc4, 0x01, 0xe0, 0x03, 0xfc, 0xff, 0x00, 0xe0, 0x01, 0x70,
   0x07, 0xf0, 0x01, 0x00, 0xc0, 0x01, 0x38, 0x0e, 0xe0, 0x25, 0x00, 0xc4,
   0x01, 0x1c, 0x1c, 0xc0, 0x01, 0x01, 0xc0, 0x01, 0x0c, 0x38, 0xc0, 0x01,
   0x00, 0xd0, 0x01, 0x00, 0x30, 0xc0, 0x25, 0x00 0xc4, 0x01, 0x00, 0x00,
   0xc0, 0x01, 0x01, 0xc0, 0x01, 0x00, 0x00, 0xc0, 0x01, 0x00, 0xc0, 0x01,
   0x00, 0x00, 0xc0, 0x25, 0x00, 0xc8, 0x01, 0x00, 0x00, 0xc0, 0x01, 0x01,
   0xc0, 0x01, 0x00, 0x00, 0xc0, 0x41, 0x00, 0xc4, 0x01, 0x00, 0x00, 0xc0,
   0x05, 0x00, 0xe0, 0x01, 0x00, 0x00, 0xc0, 0x21, 0x00, 0xc0, 0x01, 0x00,
   0x00, 0xc0, 0x09, 0x00 0xc4, 0xff, 0xff, 0xff, 0xff, 0x01, 0x01, 0xc0,
   0xff, 0xff, 0xff, 0xff, 0x03, 0x00, 0xd0, 0xff, 0xff, 0xff, 0xff, 0x21,
   0x00, 0x04, 0x00, 0x00, 0x03, 0x00, 0x00, 0x00, 0x80, 0x24, 0x49, 0x4b,
   0x92, 0x84, 0x00, 0x00, 0x00, 0x00, 0x03, 0x00, 0x20, 0x00, 0x08, 0x00,
   0xc0, 0x0f, 0x00, 0x00, 0x00, 0x40, 0x92, 0xa4, 0x27, 0x49, 0x02, 0x01
   0x04, 0x00, 0x00, 0x03, 0x00, 0x10, 0x00, 0x00, 0x00, 0x00, 0x0b, 0x00,
   0x04, 0x00};
