#define amol_0s_width 50
#define amol_0s_height 50
static char amol_0s_bits[] = {
   0x00, 0x00, 0x00, 0x00, 0x00, 0x00, 0x00, 0x00, 0x00, 0x00, 0x00, 0x00,
   0x00, 0x00, 0x48, 0x92, 0x24, 0x49, 0x92, 0x24, 0x00, 0x00, 0x00, 0x00,
   0x00, 0x00, 0x00, 0x01, 0x00, 0x00, 0x00, 0x00, 0x00, 0x00, 0x00, 0x24,
   0x49, 0x92, 0x24, 0x49, 0x12, 0x00, 0x80, 0xff, 0xff, 0xff, 0xff, 0x80,
   0x00, 0x80, 0xff, 0xff, 0xff, 0xff, 0x00, 0x00 0xa4, 0xff, 0xff, 0xff,
   0xff, 0x08, 0x00, 0x80, 0x03, 0x00, 0x00, 0xe0, 0x40, 0x00, 0x80, 0x03,
   0x00, 0x00, 0xe0, 0x02, 0x01, 0xa4, 0x03, 0x00, 0x00, 0xe0, 0x10, 0x00,
   0x80, 0x03, 0x00, 0x00, 0xe0, 0x00, 0x00, 0x80, 0x03, 0x00, 0x00, 0xe0,
   0x40, 0x00, 0xa4, 0x03, 0x00, 0x00, 0xe0, 0x12, 0x00, 0x80, 0x03, 0x00,
   0x00, 0xe0, 0x00, 0x00 0x80, 0x03, 0x00, 0x00, 0xe0, 0x80, 0x00, 0xa4,
   0x03, 0x00, 0x00, 0xe0, 0x24, 0x00, 0x80, 0x03, 0x18, 0x60, 0xe0, 0x00,
   0x00, 0x80, 0x03, 0x38, 0x70, 0xe0, 0x00, 0x00, 0xa4, 0x03, 0x70, 0x38,
   0xe0, 0x92, 0x00, 0x80, 0x03, 0xe0, 0x1c, 0xe0, 0x00, 0x00, 0x88, 0x03,
   0xc0, 0x0f, 0xf0, 0x00, 0x00, 0xac, 0x03, 0x80, 0x07, 0xf8, 0x24, 0x01
   0xff, 0x03, 0xc0, 0x07, 0xfc, 0x7f, 0x00, 0xff, 0x03, 0xe0, 0x0e, 0xfc,
   0x7f, 0x00, 0x8c, 0x03, 0x70, 0x1c, 0xf8, 0x00, 0x00, 0xa8, 0x03, 0x38,
   0x38, 0xf0, 0x80, 0x00, 0x84, 0x03, 0x1c, 0x70, 0xe0, 0x24, 0x00, 0x80,
   0x03, 0x0c, 0x60, 0xe0, 0x00, 0x00, 0xa0, 0x03, 0x00, 0x00, 0xe0, 0x00,
   0x00, 0x84, 0x03, 0x00, 0x00, 0xe0, 0x92, 0x00 0x80, 0x03, 0x00, 0x00,
   0xe0, 0x00, 0x00, 0xa0, 0x03, 0x00, 0x00, 0xe0, 0x00, 0x00, 0x84, 0x03,
   0x80, 0x01, 0xe0, 0x24, 0x01, 0x80, 0x03, 0x80, 0x01, 0xe0, 0x00, 0x00,
   0xa0, 0x03, 0xc0, 0x03, 0xe0, 0x00, 0x00, 0x84, 0x03, 0xe0, 0x07, 0xe0,
   0x92, 0x00, 0x80, 0xff, 0xff, 0xff, 0xff, 0x00, 0x00, 0x90, 0xff, 0xff,
   0xff, 0xff, 0x00, 0x00 0x84, 0xff, 0xff, 0xff, 0xff, 0x24, 0x01, 0x00,
   0x01, 0x80, 0x01, 0x00, 0x00, 0x00, 0x40, 0x90, 0xa4, 0x11, 0x40, 0x00,
   0x00, 0x08, 0x00, 0x80, 0x85, 0x04, 0x92, 0x00, 0x00, 0x04, 0x80, 0x01,
   0x20, 0x00, 0x00, 0x44, 0x20, 0x89, 0x01, 0x08, 0x00, 0x00, 0x00, 0x00,
   0xc0, 0x49, 0x02, 0x49, 0x00, 0x10, 0x09, 0x80, 0x01, 0x00, 0x00, 0x02
   0x04, 0x40, 0x12, 0x00, 0x20, 0x80, 0x00, 0x00, 0x00, 0x00, 0x24, 0x09,
   0x09, 0x00};
