#define amol_0n_width 50
#define amol_0n_height 50
static char amol_0n_bits[] = {
   0x00, 0x00, 0x00, 0x00, 0x00, 0x00, 0x00, 0x00, 0x00, 0x00, 0x00, 0x00,
   0x00, 0x00, 0x48, 0x92, 0x24, 0x27, 0x49, 0x92, 0x00, 0x00, 0x00, 0x00,
   0x06, 0x00, 0x00, 0x00, 0x00, 0x00, 0x00, 0x06, 0x00, 0x00, 0x00, 0x24,
   0x49, 0x12, 0x26, 0x49, 0x92, 0x00, 0x00, 0x00, 0x80, 0x06, 0x00, 0x00,
   0x00, 0x00, 0x00, 0x00, 0x16, 0x00, 0x00, 0x00 0x24, 0x49, 0x12, 0x06,
   0x49, 0x92, 0x00, 0x00, 0xfc, 0xff, 0xff, 0xff, 0x07, 0x00, 0x00, 0xfc,
   0xff, 0xff, 0xff, 0x07, 0x00, 0x24, 0xfd, 0xff, 0xff, 0xff, 0x27, 0x01,
   0x00, 0x1c, 0x80, 0x1f, 0x00, 0x07, 0x00, 0x00, 0x1c, 0x00, 0x0f, 0x00,
   0x07, 0x00, 0x24, 0x1d, 0x00, 0x06, 0x00, 0x27, 0x01, 0x00, 0x1c, 0x00,
   0x06, 0x00, 0x07, 0x00 0x00, 0x1c, 0x00, 0x00, 0x00, 0x07, 0x00, 0x24,
   0x1d, 0x00, 0x00, 0x00, 0x97, 0x00, 0x00, 0x1c, 0x00, 0x00, 0x00, 0x07,
   0x00, 0x00, 0x1c, 0x00, 0x00, 0x00, 0x07, 0x00, 0x24, 0x1d, 0x18, 0xc0,
   0x00, 0x27, 0x01, 0x00, 0x1c, 0x38, 0xe0, 0x00, 0x07, 0x00, 0x00, 0x3c,
   0x70, 0x70, 0x00, 0x47, 0x00, 0x24, 0x7d, 0xe0, 0x38, 0x00, 0xd7, 0x00
   0xf8, 0xff, 0xc0, 0x1d, 0x00, 0xff, 0x03, 0xf8, 0xff, 0x80, 0x0f, 0x00,
   0xff, 0x03, 0x00, 0x7c, 0x80, 0x07, 0x00, 0xc7, 0x00, 0x04, 0x3c, 0xc0,
   0x0f, 0x00, 0x47, 0x01, 0x20, 0x1d, 0xe0, 0x1c, 0x00, 0x17, 0x00, 0x00,
   0x1c, 0x70, 0x38, 0x00, 0x07, 0x00, 0x04, 0x1c, 0x38, 0x70, 0x00, 0x47,
   0x00, 0x20, 0x1d, 0x18, 0x60, 0x00, 0x17, 0x00 0x00, 0x1c, 0x00, 0x00,
   0x00, 0x07, 0x01, 0x04, 0x1c, 0x00, 0x00, 0x00, 0x07, 0x00, 0x20, 0x1d,
   0x00, 0x00, 0x00, 0x27, 0x00, 0x00, 0x1c, 0x00, 0x00, 0x00, 0x07, 0x00,
   0x04, 0x1c, 0x00, 0x00, 0x00, 0x17, 0x01, 0x20, 0x1d, 0x00, 0x00, 0x00,
   0x07, 0x00, 0x00, 0x1c, 0x00, 0x00, 0x00, 0x47, 0x00, 0x04, 0x1c, 0x00,
   0x00, 0x00, 0x17, 0x00 0x20, 0x1d, 0x00, 0x00, 0x00, 0x07, 0x00, 0x00,
   0xfc, 0xff, 0xff, 0xff, 0x07, 0x01, 0x04, 0xfc, 0xff, 0xff, 0xff, 0x27,
   0x00, 0x20, 0xfd, 0xff, 0xff, 0xff, 0x07, 0x00, 0x00, 0x00, 0x00, 0x00,
   0x00, 0x08, 0x01, 0x04, 0x24, 0x49, 0x12, 0x11, 0x41, 0x00, 0x20, 0x01,
   0x00, 0x00, 0x00, 0x00, 0x00, 0x00, 0x00, 0x02, 0x40, 0x44, 0x08, 0x00
   0x04, 0x48, 0x90, 0x04, 0x00, 0x82, 0x00, 0x20, 0x01, 0x00, 0x00, 0x01,
   0x00, 0x00};
