#define amxi_0s_width 50
#define amxi_0s_height 50
static char amxi_0s_bits[] = {
   0x00, 0x00, 0x00, 0x00, 0x00, 0x00, 0x00, 0x00, 0x00, 0x00, 0x00, 0x00,
   0x00, 0x00, 0x48, 0x92, 0x24, 0x49, 0x92, 0x24, 0x00, 0xf8, 0xff, 0xff,
   0xff, 0xff, 0x7f, 0x01, 0xf8, 0xff, 0xff, 0xff, 0xff, 0x7f, 0x00, 0xfc,
   0xff, 0xff, 0xff, 0xff, 0x7f, 0x00, 0x38, 0x00, 0x00, 0x00, 0x00, 0x70,
   0x00, 0x38, 0x00, 0x00, 0x00, 0x00, 0x70, 0x00 0x38, 0x00, 0x00, 0x00,
   0x00, 0x70, 0x01, 0x3c, 0x00, 0x00, 0x00, 0x00, 0x70, 0x00, 0x38, 0x00,
   0x00, 0x00, 0x00, 0x70, 0x00, 0x38, 0x00, 0x00, 0x00, 0x00, 0x70, 0x00,
   0x38, 0x00, 0x00, 0x00, 0x00, 0x70, 0x00, 0x3c, 0x00, 0x00, 0x00, 0x00,
   0x70, 0x01, 0x38, 0x00, 0x00, 0x00, 0x00, 0x70, 0x00, 0x38, 0x00, 0x00,
   0x00, 0x00, 0x70, 0x00 0x38, 0x00, 0xf3, 0xac, 0x05, 0x70, 0x00, 0x3c,
   0x00, 0xde, 0xa7, 0x05, 0x70, 0x00, 0x38, 0x00, 0x8e, 0xa6, 0x07, 0xf0,
   0x03, 0x38, 0x00, 0x8e, 0xa7, 0x06, 0xf0, 0x03, 0x38, 0x00, 0x9e, 0xe3,
   0x06, 0x70, 0x00, 0x3c, 0x00, 0x33, 0x63, 0x06, 0x70, 0x00, 0x38, 0x00,
   0x00, 0x00, 0x00, 0x70, 0x01, 0x38, 0x00, 0x00, 0x00, 0x00, 0x70, 0x00
   0x38, 0x00, 0x00, 0x00, 0x00, 0x70, 0x00, 0x3f, 0x00, 0x00, 0x00, 0x00,
   0x70, 0x00, 0x3f, 0x00, 0x00, 0x00, 0x00, 0x70, 0x00, 0x38, 0x00, 0x00,
   0x00, 0x00, 0x70, 0x01, 0x3c, 0x00, 0x00, 0x00, 0x00, 0x70, 0x00, 0x38,
   0x00, 0x00, 0x00, 0x00, 0x70, 0x00, 0x38, 0x00, 0x00, 0x00, 0x00, 0x70,
   0x00, 0x38, 0x00, 0x00, 0x00, 0x00, 0x70, 0x00 0x3c, 0x80, 0x0d, 0x61,
   0x1b, 0x70, 0x01, 0x38, 0x80, 0x0d, 0x61, 0x1b, 0x70, 0x00, 0x38, 0x80,
   0x0d, 0x61, 0x1b, 0x70, 0x00, 0x38, 0x80, 0x0f, 0xc1, 0x1f, 0x70, 0x00,
   0x3c, 0x00, 0x00, 0x00, 0x00, 0x70, 0x00, 0x38, 0x00, 0x00, 0x01, 0x00,
   0xf0, 0x03, 0x38, 0x00, 0x00, 0x00, 0x00, 0xf0, 0x03, 0x38, 0x00, 0x00,
   0x00, 0x00, 0x70, 0x00 0x3c, 0x00, 0x00, 0x00, 0x00, 0x70, 0x00, 0x38,
   0x00, 0x00, 0x18, 0x00, 0x70, 0x01, 0x38, 0x00, 0x00, 0x18, 0x00, 0x70,
   0x00, 0x38, 0x00, 0x00, 0x3c, 0x00, 0x70, 0x00, 0x3c, 0x00, 0x00, 0x7e,
   0x00, 0x70, 0x00, 0xf8, 0xff, 0xff, 0xff, 0xff, 0x7f, 0x00, 0xf8, 0xff,
   0xff, 0xef, 0xff, 0x7f, 0x01, 0xf8, 0xff, 0xff, 0xff, 0xff, 0x7f, 0x00
   0x04, 0x00, 0x00, 0x18, 0x00, 0x00, 0x00, 0x80, 0x10, 0x02, 0x18, 0x00,
   0x80, 0x00};
