#define amxi_0w_width 50
#define amxi_0w_height 50
static char amxi_0w_bits[] = {
   0x00, 0x00, 0x80, 0x01, 0x00, 0x00, 0x00, 0x00, 0x00, 0x80, 0x01, 0x00,
   0x00, 0x00, 0x48, 0x92, 0xa4, 0x49, 0x92, 0x24, 0x00, 0xfc, 0xff, 0xff,
   0xff, 0xff, 0x7f, 0x01, 0xfc, 0xff, 0xff, 0xff, 0xff, 0x7f, 0x00, 0xfc,
   0xff, 0xff, 0xff, 0xff, 0x7f, 0x00, 0x1c, 0x00, 0x00, 0x00, 0x00, 0x70,
   0x00, 0x1c, 0x00, 0x00, 0x00, 0x00, 0x70, 0x00 0x1c, 0x00, 0x00, 0x00,
   0x00, 0x70, 0x01, 0x1c, 0x00, 0x00, 0x00, 0x00, 0x70, 0x00, 0x1e, 0x00,
   0x00, 0x00, 0x00, 0x70, 0x00, 0x1c, 0x00, 0x00, 0x00, 0x00, 0x70, 0x00,
   0x1c, 0x00, 0x00, 0x00, 0x00, 0x70, 0x00, 0x1c, 0x00, 0x00, 0x00, 0x00,
   0x70, 0x01, 0x1c, 0x00, 0x00, 0x00, 0x00, 0x70, 0x00, 0x1c, 0xc0, 0x03,
   0x00, 0x00, 0x70, 0x00 0x1c, 0xc0, 0x03, 0x10, 0x02, 0x70, 0x00, 0x1c,
   0x40, 0x00, 0xf0, 0x03, 0x70, 0x00, 0x1c, 0xc0, 0x03, 0xe0, 0x01, 0x70,
   0x01, 0x1c, 0xc0, 0x03, 0xe0, 0x01, 0x70, 0x00, 0x1c, 0x00, 0x00, 0x30,
   0x03, 0x70, 0x00, 0x1e, 0x00, 0x00, 0x10, 0x02, 0x70, 0x00, 0x1c, 0x00,
   0x00, 0x00, 0x03, 0x70, 0x00, 0x1c, 0x00, 0x00, 0xe0, 0x03, 0x70, 0x01
   0x1c, 0xd0, 0x03, 0x70, 0x01, 0x70, 0x00, 0x3c, 0x00, 0x00, 0xf0, 0x01,
   0x70, 0x00, 0x7c, 0x00, 0x00, 0xc0, 0x03, 0x70, 0x00, 0xff, 0x01, 0x00,
   0x00, 0x02, 0x70, 0x00, 0xff, 0x01, 0x00, 0x00, 0x00, 0x70, 0x01, 0x7c,
   0x80, 0x03, 0xf0, 0x03, 0x70, 0x00, 0x3c, 0xc0, 0x03, 0x30, 0x00, 0x70,
   0x00, 0x1c, 0x40, 0x00, 0xe0, 0x03, 0x70, 0x00 0x1c, 0xc0, 0x03, 0x80,
   0x03, 0x70, 0x00, 0x1c, 0xc0, 0x03, 0xf0, 0x00, 0x70, 0x01, 0x1c, 0x40,
   0x00, 0xf0, 0x03, 0x70, 0x00, 0x1c, 0xc0, 0x03, 0x00, 0x00, 0x70, 0x00,
   0x1c, 0xc0, 0x03, 0x00, 0x00, 0x70, 0x00, 0x1c, 0x00, 0x00, 0x00, 0x00,
   0x70, 0x00, 0x1c, 0x00, 0x00, 0x00, 0x00, 0x70, 0x01, 0x1c, 0x00, 0x00,
   0x00, 0x00, 0x70, 0x00 0x1e, 0x00, 0x00, 0x00, 0x00, 0x70, 0x00, 0x1c,
   0x00, 0x00, 0x00, 0x00, 0x70, 0x00, 0x1c, 0x00, 0x00, 0x00, 0x00, 0x70,
   0x00, 0x1c, 0x00, 0x00, 0x00, 0x00, 0x70, 0x01, 0xfc, 0xff, 0xff, 0xff,
   0xff, 0x7f, 0x00, 0xfc, 0xff, 0xff, 0xff, 0xff, 0x7f, 0x00, 0xfc, 0xff,
   0xff, 0xff, 0xff, 0x7f, 0x00, 0x04, 0x18, 0x00, 0xc0, 0x00, 0x00, 0x01
   0x40, 0x18, 0x00, 0xc0, 0x00, 0x40, 0x00, 0x10, 0x9a, 0x24, 0xc9, 0x92,
   0x04, 0x00};
