#define apro_0n_width 50
#define apro_0n_height 50
static char apro_0n_bits[] = {
   0x00, 0x00, 0x40, 0x00, 0x00, 0x00, 0x00, 0xd0, 0xff, 0xfb, 0x00, 0x00,
   0x00, 0x00, 0xd8, 0xde, 0x5b, 0x24, 0x49, 0x92, 0x00, 0xd0, 0xde, 0x5b,
   0x01, 0x00, 0x00, 0x00, 0xd0, 0xfe, 0xde, 0x00, 0x00, 0x00, 0x00, 0x84,
   0x18, 0x11, 0x90, 0x24, 0x49, 0x00, 0xe0, 0x3b, 0x80, 0x04, 0x00, 0x00,
   0x00, 0xc0, 0x0f, 0x04, 0x00, 0x00, 0x00, 0x01 0xc4, 0x3e, 0x41, 0x40,
   0x92, 0x24, 0x00, 0xc0, 0xf8, 0x00, 0x04, 0x00, 0x00, 0x00, 0xd8, 0xe0,
   0x13, 0x00, 0x00, 0x00, 0x01, 0xff, 0x80, 0x8f, 0x90, 0x24, 0x49, 0x00,
   0xff, 0x00, 0x3e, 0x04, 0x00, 0x00, 0x00, 0xc8, 0x00, 0xf8, 0x00, 0x00,
   0x00, 0x00, 0xc0, 0x00, 0xe0, 0x23, 0x49, 0x92, 0x00, 0xe4, 0x00, 0x80,
   0x0f, 0x00, 0x00, 0x00 0xc0, 0x00, 0x00, 0x3e, 0x00, 0x00, 0x00, 0xc0,
   0x00, 0x00, 0xf8, 0x49, 0x92, 0x00, 0xc4, 0x00, 0x00, 0xe0, 0x03, 0x00,
   0x00, 0xe0, 0x00, 0xc0, 0x87, 0x0f, 0x00, 0x00, 0xc0, 0x00, 0xe0, 0x07,
   0x7e, 0x92, 0x00, 0xc4, 0x00, 0x70, 0x00, 0xf8, 0x10, 0x00, 0xc0, 0x00,
   0x30, 0x00, 0xe0, 0xff, 0x00, 0xd0, 0x00, 0x18, 0x00, 0x80, 0xff, 0x00
   0xc4, 0x00, 0x1c, 0x00, 0xe0, 0xff, 0x00, 0xc0, 0x00, 0x0e, 0x00, 0xf8,
   0x10, 0x01, 0xc0, 0x00, 0x06, 0x00, 0x3e, 0x44, 0x00, 0xe4, 0xf0, 0x03,
   0x80, 0x0f, 0x01, 0x00, 0xc8, 0xf0, 0x03, 0xe0, 0x23, 0x00, 0x00, 0xff,
   0x00, 0x00, 0xf8, 0x08, 0x90, 0x00, 0xff, 0x00, 0x00, 0x3e, 0x02, 0x02,
   0x00, 0xc8, 0x00, 0x80, 0x8f, 0x80, 0x00, 0x00 0xc0, 0x00, 0xe0, 0x23,
   0x20, 0x90, 0x00, 0xe4, 0x00, 0xf8, 0x08, 0x08, 0x00, 0x00, 0xc0, 0x00,
   0x3e, 0x02, 0x02, 0x02, 0x00, 0xc0, 0x80, 0x8f, 0x00, 0x00, 0x90, 0x00,
   0xc4, 0xe0, 0x23, 0x40, 0x40, 0x00, 0x00, 0xe0, 0xf8, 0x08, 0x10, 0x12,
   0x02, 0x00, 0xc0, 0x3e, 0x02, 0x04, 0x00, 0x90, 0x00, 0xc4, 0x8f, 0x00,
   0x01, 0x00, 0x00, 0x00 0xc0, 0x03, 0x40, 0x40, 0x92, 0x04, 0x00, 0x10,
   0x50, 0x10, 0x00, 0x00, 0x20, 0x01, 0x84, 0x04, 0x02, 0x08, 0x00, 0x00,
   0x00, 0xf0, 0xde, 0x1f, 0x42, 0x92, 0x04, 0x00, 0xd8, 0x5c, 0x9b, 0x00,
   0x00, 0x20, 0x01, 0xd8, 0x5b, 0x1b, 0x00, 0x00, 0x00, 0x00, 0xf4, 0x5f,
   0x1b, 0x48, 0x92, 0x04, 0x00, 0xd8, 0x00, 0x20, 0x01, 0x00, 0x20, 0x01
   0x70, 0x92, 0x04, 0x00, 0x00, 0x00, 0x00, 0x84, 0x00, 0x00, 0x48, 0x92,
   0x04, 0x00};
