#define apro_0e_width 50
#define apro_0e_height 50
static char apro_0e_bits[] = {
   0x00, 0x18, 0x00, 0x60, 0x00, 0x00, 0x00, 0x00, 0x18, 0x00, 0x60, 0x00,
   0x00, 0x00, 0x48, 0x9a, 0x24, 0x69, 0x92, 0x24, 0x00, 0x00, 0x3c, 0x00,
   0xf0, 0x00, 0xb0, 0x01, 0x1e, 0x18, 0x00, 0x60, 0x00, 0xf8, 0x01, 0x20,
   0x59, 0x92, 0x64, 0x49, 0x4a, 0x01, 0xde, 0xff, 0xff, 0xff, 0xff, 0xf9,
   0x01, 0xde, 0xff, 0xff, 0xff, 0xff, 0xf9, 0x00 0xca, 0x00, 0x00, 0x00,
   0x80, 0x61, 0x00, 0xde, 0x01, 0x00, 0x00, 0xc0, 0x79, 0x01, 0x9e, 0x01,
   0x00, 0x00, 0xc0, 0x5c, 0x00, 0xfe, 0x03, 0x00, 0x00, 0xe0, 0x78, 0x00,
   0x7e, 0x03, 0x00, 0x18, 0x60, 0x78, 0x00, 0x12, 0x07, 0x00, 0x18, 0x70,
   0x02, 0x01, 0x5e, 0x06, 0x00, 0x18, 0x30, 0x7a, 0x00, 0x1e, 0x0e, 0x00,
   0x18, 0x38, 0x00, 0x00 0x0e, 0x0d, 0x00, 0x18, 0x98, 0xf8, 0x00, 0x3e,
   0x1c, 0x00, 0x1e, 0x1c, 0x7c, 0x00, 0x10, 0x18, 0x00, 0x07, 0x0c, 0x08,
   0x00, 0x1e, 0x39, 0x80, 0x03, 0x4e, 0xfa, 0x00, 0x5e, 0x30, 0xe0, 0x01,
   0x06, 0x78, 0x00, 0x12, 0x78, 0x70, 0x00, 0x27, 0x00, 0x00, 0x1f, 0x60,
   0x38, 0x00, 0x03, 0x12, 0x01, 0x12, 0xe1, 0x18, 0x80, 0x83, 0x00, 0x00
   0x08, 0xc8, 0x18, 0x80, 0x09, 0x40, 0x00, 0x40, 0xc0, 0x19, 0xc0, 0x01,
   0x08, 0x00, 0x00, 0x84, 0x19, 0xc0, 0x20, 0x01, 0x00, 0x04, 0xa1, 0x03,
   0xe0, 0x04, 0x40, 0x00, 0x20, 0x00, 0x03, 0x60, 0x00, 0x04, 0x02, 0x08,
   0x00, 0x07, 0x70, 0x90, 0x80, 0x00, 0x00, 0x92, 0x06, 0x30, 0x01, 0x10,
   0x00, 0x40, 0x00, 0x0e, 0x38, 0x08, 0x02, 0x00 0x04, 0x00, 0x0c, 0x18,
   0x82, 0x80, 0x00, 0x00, 0x49, 0x1e, 0x5c, 0x00, 0x10, 0x00, 0x10, 0x00,
   0x18, 0x0c, 0x20, 0x00, 0x00, 0x84, 0x00, 0x38, 0x0e, 0x04, 0x82, 0x00,
   0x00, 0x48, 0x32, 0x26, 0x81, 0x10, 0x00, 0x20, 0x00, 0x70, 0x07, 0x20,
   0x00, 0x00, 0x04, 0x02, 0x60, 0x13, 0x00, 0x40, 0x00, 0x80, 0x90, 0xe4,
   0x03, 0x09, 0x12, 0x00 0x20, 0x00, 0xe0, 0x45, 0x80, 0x00, 0x02, 0x04,
   0x00, 0xc0, 0x01, 0x20, 0x80, 0x00, 0x00, 0x92, 0xc4, 0x01, 0x04, 0x08,
   0x00, 0x20, 0x00, 0xc0, 0x49, 0x00, 0x00, 0x00, 0x04, 0x00, 0xf0, 0x03,
   0x20, 0x21, 0x00, 0x80, 0x24, 0xc1, 0x01, 0x09, 0x08, 0x01, 0x20, 0x00,
   0xc8, 0x25, 0x00, 0x00, 0x00, 0x04, 0x00, 0xc2, 0x01, 0x80, 0x00, 0x00
   0x00, 0x92, 0x00, 0x80, 0x24, 0x24, 0x01, 0x20, 0x00, 0x20, 0x09, 0x00,
   0x00, 0x00};
