#define apro_0w_width 50
#define apro_0w_height 50
static char apro_0w_bits[] = {
   0x00, 0x00, 0x00, 0x00, 0x00, 0x00, 0x00, 0x00, 0x00, 0x00, 0x00, 0x00,
   0x00, 0x00, 0x48, 0x92, 0xe4, 0x25, 0x49, 0x92, 0x00, 0x00, 0x00, 0xc0,
   0x01, 0x00, 0x00, 0x00, 0x00, 0x00, 0xc0, 0x01, 0x00, 0x00, 0x00, 0x24,
   0x49, 0xf2, 0x4b, 0x92, 0x24, 0x01, 0x00, 0x00, 0xc0, 0x01, 0x00, 0x00,
   0x00, 0x00, 0x00, 0xc0, 0x01, 0x00, 0x00, 0x00 0x24, 0x49, 0xe2, 0x25,
   0x49, 0x92, 0x00, 0x00, 0x00, 0xc0, 0x01, 0x00, 0x00, 0x00, 0x00, 0x00,
   0xe8, 0x03, 0x00, 0x00, 0x00, 0x24, 0x49, 0x62, 0x4b, 0x92, 0x24, 0x01,
   0x00, 0x00, 0x70, 0x07, 0x00, 0x00, 0x00, 0x00, 0x00, 0x30, 0x06, 0x00,
   0x00, 0x00, 0x24, 0x49, 0x3a, 0x2e, 0x49, 0x92, 0x00, 0x00, 0x00, 0x18,
   0x0c, 0x00, 0x00, 0x00 0x00, 0x00, 0x1c, 0x1c, 0x00, 0x00, 0x00, 0x24,
   0x49, 0x0e, 0x58, 0x92, 0x24, 0x01, 0x00, 0x00, 0x0e, 0x38, 0x00, 0x00,
   0x00, 0x00, 0x10, 0x06, 0x30, 0x00, 0x00, 0x00, 0x24, 0x81, 0x07, 0x70,
   0x49, 0x92, 0x00, 0x00, 0x08, 0x03, 0x60, 0x00, 0x00, 0x00, 0x00, 0x82,
   0x03, 0xe0, 0x00, 0x00, 0x00, 0x24, 0x80, 0x19, 0xc0, 0x92, 0x24, 0x01
   0x00, 0xe1, 0x19, 0xc0, 0x01, 0x00, 0x00, 0x40, 0xc0, 0x18, 0x80, 0x01,
   0x08, 0x00, 0x1a, 0xe8, 0x18, 0x80, 0x4b, 0x42, 0x00, 0x1f, 0x60, 0x38,
   0x00, 0x03, 0x00, 0x00, 0x02, 0x71, 0x70, 0x00, 0x07, 0x00, 0x01, 0x5e,
   0x30, 0xe0, 0x01, 0x96, 0x7c, 0x00, 0x1e, 0x38, 0x80, 0x03, 0x0e, 0x78,
   0x00, 0x10, 0x1a, 0x00, 0x07, 0x0c, 0x48, 0x00 0x3e, 0x1c, 0x00, 0x1e,
   0x5c, 0x7a, 0x00, 0x0e, 0x0c, 0x00, 0x18, 0x18, 0x78, 0x00, 0x9e, 0x0e,
   0x00, 0x18, 0x38, 0x00, 0x01, 0x1e, 0x06, 0x00, 0x18, 0xb0, 0x7a, 0x00,
   0x32, 0x07, 0x00, 0x18, 0x70, 0x24, 0x00, 0x7e, 0x03, 0x00, 0x18, 0x60,
   0x78, 0x00, 0xfe, 0x03, 0x00, 0x00, 0xe0, 0x78, 0x01, 0x9e, 0x01, 0x00,
   0x00, 0xc0, 0x5a, 0x00 0xde, 0x01, 0x00, 0x00, 0xc0, 0x69, 0x00, 0xe2,
   0x00, 0x00, 0x00, 0x80, 0x61, 0x00, 0xde, 0xff, 0xff, 0xff, 0xff, 0xfd,
   0x01, 0xde, 0xff, 0xff, 0xff, 0xff, 0xf9, 0x01, 0x00, 0x18, 0x00, 0x60,
   0x00, 0x48, 0x01, 0x3e, 0x59, 0x92, 0x64, 0x92, 0xf8, 0x01, 0x04, 0x3c,
   0x00, 0xf0, 0x00, 0xb4, 0x00, 0x00, 0x18, 0x00, 0x60, 0x00, 0x40, 0x00
   0x20, 0x59, 0x92, 0xe4, 0x24, 0x11, 0x00, 0x04, 0x18, 0x00, 0x60, 0x00,
   0x00, 0x01};
