#define apro_0s_width 50
#define apro_0s_height 50
static char apro_0s_bits[] = {
   0x00, 0x00, 0x00, 0x08, 0x00, 0x00, 0x00, 0x00, 0x00, 0x00, 0x7c, 0xff,
   0x2f, 0x00, 0x48, 0x92, 0x24, 0x69, 0xef, 0xad, 0x00, 0x00, 0x00, 0x00,
   0x68, 0xef, 0x2d, 0x00, 0x00, 0x00, 0x00, 0xec, 0xfd, 0x2d, 0x00, 0x24,
   0x49, 0x92, 0x88, 0x70, 0x92, 0x00, 0x00, 0x00, 0x00, 0x00, 0x64, 0x0f,
   0x00, 0x00, 0x00, 0x00, 0x22, 0xc0, 0x0f, 0x00 0x24, 0x49, 0x92, 0x00,
   0xf1, 0x4d, 0x00, 0x00, 0x00, 0x00, 0x00, 0x7c, 0x0c, 0x00, 0x00, 0x00,
   0x00, 0x48, 0x1f, 0x4c, 0x01, 0x24, 0x49, 0x92, 0xc0, 0x07, 0xfc, 0x03,
   0x00, 0x00, 0x00, 0xf0, 0x01, 0xfc, 0x03, 0x00, 0x00, 0x00, 0x7e, 0x00,
   0x4c, 0x00, 0x24, 0x49, 0x92, 0x1f, 0x00, 0x2c, 0x00, 0x00, 0x00, 0xc0,
   0x07, 0x00, 0x0c, 0x01 0x00, 0x00, 0xf0, 0x01, 0x00, 0x0c, 0x00, 0x24,
   0x49, 0x7e, 0x00, 0x00, 0x2c, 0x00, 0x00, 0x00, 0x1f, 0x00, 0x00, 0x0c,
   0x01, 0x00, 0xd0, 0x87, 0x0f, 0x00, 0x0c, 0x00, 0x24, 0xf1, 0x81, 0x1f,
   0x00, 0x2c, 0x00, 0x20, 0x7c, 0x00, 0x38, 0x00, 0x0c, 0x00, 0xfc, 0x1f,
   0x00, 0x30, 0x00, 0x8c, 0x00, 0xfc, 0x07, 0x00, 0x60, 0x00, 0x2c, 0x00
   0xfc, 0x1f, 0x00, 0xe0, 0x00, 0x0c, 0x00, 0x24, 0x7c, 0x00, 0xc0, 0x01,
   0x0c, 0x00, 0x40, 0xf2, 0x01, 0x80, 0x01, 0x4c, 0x00, 0x10, 0xc0, 0x07,
   0x00, 0x3f, 0x0c, 0x02, 0x04, 0x08, 0x1f, 0x00, 0x3f, 0x6c, 0x00, 0x00,
   0x41, 0x7c, 0x00, 0x00, 0xfc, 0x03, 0x40, 0x00, 0xf2, 0x01, 0x00, 0xfc,
   0x03, 0x08, 0x10, 0xc0, 0x07, 0x00, 0x4c, 0x00 0x00, 0x84, 0x10, 0x1f,
   0x00, 0x0c, 0x00, 0x84, 0x00, 0x00, 0x7c, 0x00, 0x2c, 0x01, 0x20, 0x00,
   0x42, 0xf2, 0x01, 0x0c, 0x00, 0x00, 0x48, 0x10, 0xc0, 0x07, 0x0c, 0x00,
   0x04, 0x02, 0x00, 0x10, 0x1f, 0x4c, 0x00, 0x40, 0x00, 0x82, 0x04, 0x7c,
   0x0c, 0x00, 0x10, 0x20, 0x10, 0x80, 0xf0, 0x2d, 0x01, 0x04, 0x04, 0x01,
   0x00, 0xc4, 0x0f, 0x00 0x00, 0x01, 0x80, 0x48, 0x00, 0x0f, 0x00, 0x40,
   0x20, 0x24, 0x00, 0x28, 0x20, 0x00, 0x08, 0x00, 0x01, 0x04, 0x09, 0x09,
   0x01, 0x00, 0x04, 0x00, 0xe1, 0xeb, 0x3d, 0x00, 0x84, 0x20, 0x10, 0x60,
   0xeb, 0x6c, 0x00, 0x20, 0x00, 0x01, 0x70, 0x6b, 0x6f, 0x00, 0x00, 0x04,
   0x40, 0x62, 0xeb, 0x3f, 0x01, 0x04, 0x20, 0x04, 0x00, 0x02, 0x6c, 0x00
   0x40, 0x00, 0x21, 0x90, 0x90, 0x38, 0x00, 0x10, 0x02, 0x00, 0x02, 0x00,
   0x44, 0x00};
