#define asom_0s_width 50
#define asom_0s_height 50
static char asom_0s_bits[] = {
   0x00, 0x00, 0x00, 0x00, 0x00, 0x00, 0x00, 0x00, 0x00, 0x00, 0x00, 0x00,
   0x00, 0x00, 0x48, 0x92, 0x24, 0x49, 0x92, 0x24, 0x00, 0x00, 0x00, 0x00,
   0x00, 0x00, 0x00, 0x01, 0xf0, 0xff, 0xff, 0xff, 0xff, 0x3f, 0x00, 0xf4,
   0xff, 0xff, 0xff, 0xff, 0x3f, 0x00, 0xf0, 0xff, 0xff, 0xff, 0xff, 0xbf,
   0x00, 0x70, 0x00, 0x00, 0x00, 0x00, 0x38, 0x00 0x74, 0x00, 0x00, 0x00,
   0x00, 0x38, 0x00, 0x70, 0x00, 0x00, 0x00, 0x00, 0xb8, 0x00, 0x70, 0x00,
   0x00, 0x00, 0x00, 0x38, 0x00, 0x74, 0x00, 0x00, 0x00, 0x00, 0x38, 0x00,
   0x70, 0x00, 0x00, 0x00, 0x00, 0xb8, 0x00, 0x70, 0x00, 0x00, 0x00, 0x00,
   0x38, 0x00, 0x74, 0x00, 0x00, 0x00, 0x00, 0x38, 0x00, 0x70, 0x00, 0xff,
   0xff, 0x01, 0xb8, 0x00 0x70, 0x00, 0xff, 0xff, 0x01, 0xfe, 0x03, 0x74,
   0x00, 0x00, 0xc0, 0x00, 0xfe, 0x03, 0x70, 0x00, 0x00, 0x60, 0x00, 0x38,
   0x00, 0x70, 0x00, 0x00, 0x70, 0x00, 0x38, 0x00, 0x74, 0x00, 0x00, 0x38,
   0x00, 0xb8, 0x00, 0x70, 0x00, 0x00, 0x18, 0x00, 0x38, 0x00, 0x70, 0x00,
   0x00, 0x0c, 0x00, 0x38, 0x00, 0x74, 0x00, 0x00, 0x0e, 0x00, 0xb8, 0x00
   0x74, 0x00, 0x00, 0x06, 0x00, 0x38, 0x00, 0xff, 0x01, 0x00, 0x06, 0x00,
   0x38, 0x00, 0xff, 0x01, 0x00, 0x0e, 0x00, 0xb8, 0x00, 0x74, 0x00, 0x00,
   0x0c, 0x00, 0x38, 0x00, 0x70, 0x00, 0x00, 0x18, 0x00, 0x38, 0x00, 0x74,
   0x00, 0x00, 0x38, 0x00, 0xb8, 0x00, 0x70, 0x00, 0x00, 0x70, 0x00, 0x38,
   0x00, 0x70, 0x00, 0x00, 0x60, 0x00, 0x38, 0x00 0x74, 0x00, 0x00, 0xc0,
   0x00, 0xb8, 0x00, 0x70, 0x00, 0x00, 0xc0, 0x01, 0x38, 0x00, 0x70, 0x00,
   0xfe, 0xff, 0x01, 0x38, 0x00, 0x74, 0x00, 0xfe, 0xff, 0x01, 0xb8, 0x00,
   0x70, 0x00, 0x00, 0x00, 0x00, 0xfe, 0x03, 0x70, 0x00, 0x00, 0x00, 0x00,
   0xfe, 0x03, 0x74, 0x00, 0x00, 0x00, 0x00, 0x38, 0x00, 0x70, 0x00, 0x00,
   0x00, 0x00, 0x38, 0x00 0x70, 0x00, 0x00, 0x00, 0x00, 0xb8, 0x00, 0x74,
   0x00, 0x00, 0x00, 0x00, 0x38, 0x00, 0x70, 0x00, 0x00, 0x00, 0x00, 0x38,
   0x00, 0x70, 0x00, 0x00, 0x00, 0x00, 0xb8, 0x00, 0xf4, 0xff, 0xff, 0xff,
   0xff, 0x3f, 0x00, 0xf0, 0xff, 0xff, 0xff, 0xff, 0x3f, 0x00, 0xf0, 0xff,
   0xff, 0xff, 0xff, 0xbf, 0x00, 0x04, 0x00, 0x00, 0x00, 0x00, 0x00, 0x00
   0x20, 0x49, 0x92, 0x24, 0x49, 0x12, 0x00, 0x00, 0x00, 0x00, 0x00, 0x00,
   0x80, 0x00};
