#define asom_0n_width 50
#define asom_0n_height 50
static char asom_0n_bits[] = {
   0x00, 0x00, 0x00, 0x00, 0x00, 0x00, 0x00, 0x00, 0x00, 0x00, 0x00, 0x00,
   0x00, 0x00, 0x48, 0x92, 0x24, 0x49, 0x92, 0x24, 0x00, 0xf0, 0xff, 0xff,
   0xff, 0xff, 0x3f, 0x01, 0xf0, 0xff, 0xff, 0xff, 0xff, 0x3f, 0x00, 0xf4,
   0xff, 0xff, 0xff, 0xff, 0x3f, 0x00, 0x70, 0x00, 0x00, 0x00, 0x00, 0x38,
   0x01, 0x70, 0x00, 0x00, 0x00, 0x00, 0x38, 0x00 0x74, 0x00, 0x00, 0x00,
   0x00, 0x38, 0x00, 0x70, 0x00, 0x00, 0x00, 0x00, 0x38, 0x01, 0x70, 0x00,
   0x00, 0x00, 0x00, 0x38, 0x00, 0x74, 0x00, 0x00, 0x00, 0x00, 0x38, 0x00,
   0xff, 0x01, 0x00, 0x00, 0x00, 0xb8, 0x00, 0xff, 0x01, 0x00, 0x00, 0x00,
   0x38, 0x00, 0x70, 0x00, 0xfe, 0xff, 0x01, 0x38, 0x00, 0x70, 0x00, 0xfe,
   0xff, 0x01, 0x38, 0x01 0x74, 0x00, 0x0e, 0x00, 0x00, 0x38, 0x00, 0x70,
   0x00, 0x0c, 0x00, 0x00, 0x38, 0x00, 0x70, 0x00, 0x18, 0x00, 0x00, 0x38,
   0x01, 0x74, 0x00, 0x38, 0x00, 0x00, 0x38, 0x00, 0x70, 0x00, 0x70, 0x00,
   0x00, 0x38, 0x00, 0x70, 0x00, 0x60, 0x00, 0x00, 0xb8, 0x00, 0x74, 0x00,
   0xc0, 0x00, 0x00, 0xb8, 0x00, 0x70, 0x00, 0xc0, 0x01, 0x00, 0xfe, 0x03
   0x70, 0x00, 0x80, 0x01, 0x00, 0xfe, 0x03, 0x74, 0x00, 0x80, 0x01, 0x00,
   0xb8, 0x00, 0x70, 0x00, 0xc0, 0x01, 0x00, 0x38, 0x00, 0x70, 0x00, 0xc0,
   0x00, 0x00, 0x38, 0x01, 0x74, 0x00, 0x60, 0x00, 0x00, 0x38, 0x00, 0x70,
   0x00, 0x70, 0x00, 0x00, 0x38, 0x00, 0x70, 0x00, 0x38, 0x00, 0x00, 0x38,
   0x01, 0x74, 0x00, 0x18, 0x00, 0x00, 0x38, 0x00 0xff, 0x01, 0x0c, 0x00,
   0x00, 0x38, 0x00, 0xff, 0x01, 0xfe, 0xff, 0x03, 0xb8, 0x00, 0x70, 0x00,
   0xfe, 0xff, 0x03, 0x38, 0x00, 0x70, 0x00, 0x00, 0x00, 0x00, 0x38, 0x00,
   0x78, 0x00, 0x00, 0x00, 0x00, 0x38, 0x01, 0x70, 0x00, 0x00, 0x00, 0x00,
   0x38, 0x00, 0x74, 0x00, 0x00, 0x00, 0x00, 0x38, 0x00, 0x70, 0x00, 0x00,
   0x00, 0x00, 0x38, 0x01 0x70, 0x00, 0x00, 0x00, 0x00, 0x38, 0x00, 0x70,
   0x00, 0x00, 0x00, 0x00, 0x38, 0x00, 0x74, 0x00, 0x00, 0x00, 0x00, 0xb8,
   0x00, 0xf0, 0xff, 0xff, 0xff, 0xff, 0x3f, 0x00, 0xf0, 0xff, 0xff, 0xff,
   0xff, 0x3f, 0x00, 0xf4, 0xff, 0xff, 0xff, 0xff, 0x3f, 0x01, 0x00, 0x00,
   0x00, 0x00, 0x00, 0x00, 0x00, 0x90, 0x88, 0x88, 0x10, 0x00, 0x20, 0x00
   0x04, 0x00, 0x00, 0x84, 0x24, 0x09, 0x00, 0x00, 0x22, 0x22, 0x00, 0x00,
   0x80, 0x00};
