#define asom_1s_width 60
#define asom_1s_height 60
static char asom_1s_bits[] = {
   0x00, 0x00, 0x00, 0x00, 0x00, 0x00, 0x00, 0x00, 0x00, 0x00, 0x00, 0x00,
   0x00, 0x00, 0x00, 0x00, 0x48, 0x92, 0x24, 0x49, 0x92, 0x24, 0x49, 0x02,
   0x00, 0x00, 0x00, 0x00, 0x00, 0x00, 0x00, 0x00, 0x00, 0x00, 0x00, 0x00,
   0x00, 0x00, 0x00, 0x00, 0x24, 0x49, 0x92, 0xf4, 0x49, 0x92, 0x24, 0x01,
   0x00, 0x00, 0x80, 0xff, 0x1f, 0x00, 0x00, 0x00, 0x00, 0x00, 0xf8, 0xff,
   0xff, 0x00, 0x00, 0x04 0x24, 0x49, 0xfe, 0xff, 0xff, 0x25, 0x49, 0x00,
   0x00, 0x00, 0xff, 0xff, 0xff, 0x07, 0x00, 0x00, 0x00, 0x80, 0xff, 0x87,
   0xff, 0x0f, 0x00, 0x01, 0x24, 0xe9, 0x3f, 0x00, 0xf0, 0xbf, 0x24, 0x00,
   0x00, 0xf0, 0x1f, 0x00, 0xc0, 0x7f, 0x00, 0x04, 0x00, 0xf8, 0x07, 0x00,
   0x00, 0xff, 0x80, 0x00, 0x24, 0xf9, 0x03, 0x80, 0x0f, 0xfe, 0x12, 0x00,
   0x00, 0xfc, 0x00, 0xff, 0x7f, 0xf8, 0x01, 0x04 0x00, 0x7e, 0x80, 0xff,
   0xff, 0xf0, 0x83, 0x00, 0x24, 0x7f, 0x00, 0xff, 0x7f, 0xf0, 0x13, 0x00,
   0x00, 0x3f, 0x80, 0xff, 0xff, 0xe0, 0x07, 0x04, 0x80, 0x1f, 0x00, 0xff,
   0x7f, 0xc0, 0x4f, 0x00, 0xa4, 0x1f, 0x00, 0x00, 0x78, 0xc0, 0x0f, 0x00,
   0x80, 0x0f, 0x00, 0x00, 0x3c, 0x80, 0x0f, 0x01, 0x80, 0x07, 0x00, 0x00,
   0x1e, 0x00, 0x2f, 0x00, 0xe4, 0x07, 0x00, 0x00, 0x0f, 0x00, 0x1f, 0x04
   0xc0, 0x07, 0x00, 0x80, 0x07, 0x00, 0x9f, 0x00, 0xc0, 0x07, 0x00, 0xe0,
   0x03, 0x00, 0x1f, 0x00, 0xc4, 0x07, 0x00, 0xf0, 0x01, 0x00, 0x1f, 0x02,
   0xe0, 0x03, 0x00, 0xf0, 0x00, 0x00, 0x5e, 0x00, 0xe0, 0x03, 0x00, 0xe0,
   0x00, 0x00, 0x3e, 0x00, 0xe4, 0x03, 0x00, 0xe0, 0x01, 0x00, 0x3e, 0x02,
   0xe0, 0x03, 0x00, 0xc0, 0x01, 0x00, 0xbe, 0x00, 0xe0, 0x07, 0x00, 0xc0,
   0x03, 0x00, 0x3f, 0x00 0xe4, 0x07, 0x00, 0x80, 0x03, 0x00, 0x1f, 0x00,
   0xc0, 0x07, 0x00, 0x80, 0x07, 0x00, 0x9f, 0x04, 0xc0, 0x07, 0x00, 0x00,
   0x07, 0x00, 0x1f, 0x00, 0xc4, 0x07, 0x00, 0x00, 0x0f, 0x00, 0x1f, 0x00,
   0xe0, 0x0f, 0x00, 0xff, 0x0f, 0x80, 0x5f, 0x02, 0x80, 0x0f, 0x80, 0xff,
   0x1f, 0x80, 0x0f, 0x00, 0x84, 0x1f, 0x00, 0xff, 0x1f, 0xc0, 0x0f, 0x00,
   0xa0, 0x1f, 0x80, 0xff, 0x1f, 0xc0, 0x2f, 0x01 0x00, 0x3f, 0x00, 0xff,
   0x0f, 0xe0, 0x07, 0x08, 0x04, 0x7e, 0x00, 0x00, 0x00, 0xf0, 0x03, 0x02,
   0x20, 0x7f, 0x00, 0x00, 0x00, 0xf0, 0x4b, 0x00, 0x00, 0xfc, 0x00, 0x00,
   0x00, 0xf8, 0x01, 0x00, 0x04, 0xf8, 0x03, 0x00, 0x00, 0xfe, 0x00, 0x01,
   0x20, 0xfa, 0x07, 0x00, 0x00, 0xff, 0x24, 0x00, 0x00, 0xf0, 0x1f, 0x00,
   0xc0, 0x7f, 0x00, 0x04, 0x84, 0xe0, 0x3f, 0x00, 0xf0, 0x3f, 0x81, 0x00
   0x20, 0x88, 0xff, 0x87, 0xff, 0x0f, 0x08, 0x00, 0x00, 0x00, 0xff, 0xff,
   0xff, 0x47, 0x00, 0x04, 0x04, 0x21, 0xfc, 0xff, 0xff, 0x11, 0x90, 0x00,
   0x20, 0x08, 0xf9, 0xff, 0xff, 0x04, 0x02, 0x00, 0x00, 0x00, 0x80, 0xff,
   0x1f, 0x00, 0x00, 0x02, 0x04, 0x41, 0x24, 0xf0, 0x40, 0x40, 0x48, 0x00,
   0x20, 0x08, 0x00, 0x01, 0x12, 0x12, 0x02, 0x00, 0x00, 0x00, 0x00, 0x48,
   0x00, 0x00, 0x00, 0x02 0x84, 0x40, 0x12, 0x00, 0x00, 0x00, 0x20, 0x00,
   0x20, 0x04, 0x80, 0x04, 0x49, 0x92, 0x04, 0x01, 0x00, 0x20, 0x20, 0x20,
   0x00, 0x00, 0x00, 0x00, 0x04, 0x08, 0x02, 0x00, 0x00, 0x00, 0x10, 0x04};
