#define asom_1e_width 60
#define asom_1e_height 60
static char asom_1e_bits[] = {
   0x00, 0x00, 0x00, 0x00, 0x00, 0x00, 0x00, 0x00, 0x00, 0x00, 0x00, 0x00,
   0x00, 0x00, 0x00, 0x00, 0x48, 0x92, 0x24, 0x49, 0x92, 0x24, 0x49, 0x02,
   0x00, 0x00, 0x00, 0x00, 0x00, 0x00, 0x00, 0x00, 0x00, 0x00, 0x00, 0x00,
   0x00, 0x00, 0x00, 0x00, 0x24, 0x49, 0x92, 0x24, 0x49, 0x92, 0x24, 0x01,
   0x00, 0x00, 0x00, 0xf0, 0x00, 0x00, 0x00, 0x00, 0x00, 0x00, 0x80, 0xff,
   0x1f, 0x00, 0x00, 0x04 0x24, 0x49, 0xfa, 0xff, 0xff, 0x49, 0x92, 0x00,
   0x00, 0x00, 0xfc, 0xff, 0xff, 0x01, 0x00, 0x00, 0x00, 0x00, 0xff, 0xff,
   0xff, 0x07, 0x00, 0x04, 0x24, 0xc9, 0xff, 0x87, 0xff, 0x2f, 0x49, 0x00,
   0x00, 0xe0, 0x3f, 0x00, 0xf0, 0x3f, 0x00, 0x00, 0x00, 0xf0, 0x1f, 0x00,
   0xc0, 0x7f, 0x00, 0x01, 0x24, 0xf9, 0x07, 0x00, 0x00, 0xff, 0x12, 0x00,
   0x00, 0xfc, 0x03, 0x00, 0x00, 0xfe, 0x80, 0x04 0x00, 0xfc, 0x00, 0x00,
   0x00, 0xf8, 0x01, 0x00, 0x24, 0x7f, 0x00, 0x00, 0x00, 0xf0, 0x0b, 0x00,
   0x00, 0x7e, 0x00, 0x00, 0x00, 0xf0, 0x43, 0x02, 0x00, 0x3f, 0x00, 0x00,
   0x00, 0xe0, 0x07, 0x00, 0xa4, 0x1f, 0x05, 0x00, 0x00, 0xc0, 0x1f, 0x00,
   0x80, 0x9f, 0x1f, 0x00, 0x00, 0xc0, 0x8f, 0x04, 0x80, 0x8f, 0x3f, 0x00,
   0x00, 0x80, 0x0f, 0x00, 0xe4, 0x8f, 0x7f, 0x00, 0xe0, 0x80, 0x1f, 0x00
   0xc0, 0xc7, 0xff, 0x00, 0xf8, 0x01, 0x5f, 0x02, 0xc0, 0xc7, 0xef, 0x01,
   0xfe, 0x01, 0x1f, 0x00, 0xc4, 0xc7, 0xcf, 0x83, 0xff, 0x01, 0x1f, 0x00,
   0xe0, 0xc7, 0x8f, 0xe7, 0xff, 0x01, 0x5f, 0x02, 0xe0, 0xc7, 0x0f, 0xff,
   0xf3, 0x01, 0x3f, 0x00, 0xe4, 0x83, 0x0f, 0xfe, 0xf0, 0x01, 0x3e, 0x00,
   0xe0, 0x83, 0x0f, 0x3e, 0xf0, 0x01, 0x3e, 0x01, 0xe0, 0x83, 0x0f, 0x0c,
   0xf0, 0x01, 0x3e, 0x08 0xe4, 0x83, 0x0f, 0x00, 0xf0, 0x01, 0x5e, 0x00,
   0xc0, 0x87, 0x0f, 0x00, 0xf0, 0x01, 0x1f, 0x02, 0xc0, 0x87, 0x0f, 0x00,
   0xf0, 0x01, 0x1f, 0x00, 0xc4, 0x87, 0x0f, 0x00, 0xf0, 0x01, 0x9f, 0x00,
   0xe0, 0x07, 0x05, 0x00, 0xa0, 0x00, 0x1f, 0x00, 0x80, 0x07, 0x00, 0x00,
   0x00, 0x00, 0x2f, 0x02, 0x84, 0x0f, 0x00, 0x00, 0x00, 0x80, 0x0f, 0x00,
   0xa0, 0x1f, 0x00, 0x00, 0x00, 0xc0, 0x0f, 0x00 0x80, 0x1f, 0x00, 0x00,
   0x00, 0xc0, 0x4f, 0x02, 0x04, 0x3f, 0x00, 0x00, 0x00, 0xe0, 0x17, 0x00,
   0x20, 0x7e, 0x00, 0x00, 0x00, 0xf0, 0x03, 0x00, 0x00, 0x7f, 0x00, 0x00,
   0x00, 0xf0, 0x83, 0x04, 0x04, 0xfc, 0x00, 0x00, 0x00, 0xf8, 0x09, 0x00,
   0x20, 0xf8, 0x03, 0x00, 0x00, 0xfe, 0x00, 0x00, 0x00, 0xfa, 0x07, 0x00,
   0x00, 0xff, 0x22, 0x01, 0x84, 0xf0, 0x1f, 0x00, 0xc0, 0x7f, 0x00, 0x00
   0x20, 0xe0, 0x3f, 0x00, 0xf0, 0x3f, 0x08, 0x04, 0x00, 0x88, 0xff, 0x87,
   0xff, 0x8f, 0x40, 0x00, 0x04, 0x02, 0xff, 0xff, 0xff, 0x27, 0x00, 0x02,
   0x20, 0x40, 0xfc, 0xff, 0xff, 0x01, 0x12, 0x00, 0x00, 0x00, 0xfa, 0xff,
   0xff, 0x04, 0x80, 0x00, 0x84, 0x24, 0x80, 0xff, 0x1f, 0x20, 0x00, 0x00,
   0x20, 0x00, 0x20, 0xf0, 0x40, 0x08, 0x09, 0x02, 0x00, 0x80, 0x04, 0x02,
   0x12, 0x02, 0x40, 0x00 0x04, 0x12, 0x80, 0x90, 0x00, 0x00, 0x10, 0x00,
   0x20, 0x00, 0x20, 0x00, 0x00, 0x20, 0x01, 0x02, 0x00, 0x80, 0x04, 0x00,
   0x90, 0x04, 0x80, 0x00, 0x84, 0x24, 0x00, 0x24, 0x02, 0x00, 0x24, 0x00};
