#define asom_1n_width 60
#define asom_1n_height 60
static char asom_1n_bits[] = {
   0x00, 0x00, 0x00, 0x00, 0x00, 0x00, 0x00, 0x00, 0x00, 0x00, 0x00, 0x00,
   0x00, 0x00, 0x00, 0x00, 0x48, 0x92, 0x24, 0x49, 0x92, 0x24, 0x49, 0x02,
   0x00, 0x00, 0x00, 0x00, 0x00, 0x00, 0x00, 0x00, 0x00, 0x00, 0x00, 0x00,
   0x00, 0x00, 0x00, 0x00, 0x24, 0x49, 0x92, 0x24, 0x49, 0x92, 0x24, 0x01,
   0x00, 0x00, 0x00, 0xf0, 0x00, 0x00, 0x00, 0x00, 0x00, 0x00, 0x80, 0xff,
   0x1f, 0x00, 0x00, 0x04 0x24, 0x49, 0xf2, 0xff, 0xff, 0x93, 0x24, 0x01,
   0x00, 0x00, 0xf8, 0xff, 0xff, 0x03, 0x00, 0x00, 0x00, 0x00, 0xfe, 0xff,
   0xff, 0x0f, 0x00, 0x00, 0x24, 0x49, 0xff, 0x1f, 0xfe, 0x5f, 0x92, 0x00,
   0x00, 0xc0, 0xff, 0x00, 0xc0, 0x7f, 0x00, 0x04, 0x00, 0xe0, 0x3f, 0x00,
   0x80, 0xff, 0x00, 0x00, 0x24, 0xf9, 0x0f, 0x00, 0x00, 0xfe, 0x25, 0x01,
   0x00, 0xf0, 0x07, 0x00, 0x00, 0xfc, 0x01, 0x00 0x00, 0xf8, 0x01, 0x00,
   0x00, 0xf0, 0x03, 0x04, 0x24, 0xfd, 0x00, 0x00, 0x00, 0xe0, 0x97, 0x00,
   0x00, 0xfc, 0x00, 0x00, 0x00, 0xe0, 0x07, 0x00, 0x00, 0x7e, 0x00, 0xff,
   0x0f, 0xc0, 0x0f, 0x04, 0x24, 0x3f, 0x80, 0xff, 0x1f, 0x80, 0x3f, 0x01,
   0x00, 0x3f, 0x80, 0xff, 0x0f, 0x80, 0x1f, 0x00, 0x40, 0x1f, 0x80, 0xff,
   0x1f, 0x00, 0x1f, 0x00, 0x84, 0x1f, 0x00, 0xff, 0x0f, 0x00, 0xbf, 0x00
   0x80, 0x0f, 0x00, 0x0f, 0x00, 0x00, 0x3e, 0x04, 0x90, 0x0f, 0x00, 0x0e,
   0x00, 0x00, 0x3e, 0x00, 0x84, 0x0f, 0x00, 0x1e, 0x00, 0x00, 0xbe, 0x00,
   0x80, 0x0f, 0x00, 0x1c, 0x00, 0x00, 0x3e, 0x04, 0xe0, 0x0f, 0x00, 0x3c,
   0x00, 0x00, 0x7e, 0x00, 0xc4, 0x07, 0x00, 0x38, 0x00, 0x00, 0x7c, 0x01,
   0xc0, 0x07, 0x00, 0x78, 0x00, 0x00, 0x7c, 0x00, 0xc0, 0x07, 0x00, 0x70,
   0x00, 0x00, 0x7c, 0x00 0xa4, 0x07, 0x00, 0xf0, 0x00, 0x00, 0x3c, 0x01,
   0x80, 0x0f, 0x00, 0xf8, 0x00, 0x00, 0x3e, 0x08, 0x80, 0x0f, 0x00, 0x7c,
   0x00, 0x00, 0xbe, 0x00, 0xa4, 0x0f, 0x00, 0x1e, 0x00, 0x00, 0x3e, 0x00,
   0x80, 0x0f, 0x00, 0x0f, 0x00, 0x00, 0x3e, 0x02, 0x00, 0x0f, 0x80, 0x07,
   0x00, 0x00, 0x9e, 0x00, 0x24, 0x1f, 0xc0, 0x03, 0x00, 0x00, 0x1f, 0x00,
   0x00, 0x3f, 0xe0, 0x01, 0x00, 0x80, 0x5f, 0x00 0x80, 0x3f, 0xe0, 0xff,
   0x0f, 0x80, 0x1f, 0x04, 0x24, 0x7e, 0xf0, 0xff, 0x1f, 0xc0, 0x0f, 0x00,
   0x00, 0xfc, 0xe0, 0xff, 0x0f, 0xe0, 0x27, 0x01, 0x00, 0xfc, 0xf0, 0xff,
   0x1f, 0xe0, 0x07, 0x00, 0x24, 0xf9, 0xe1, 0xff, 0x0f, 0xf0, 0x0b, 0x04,
   0x00, 0xf0, 0x07, 0x1f, 0x00, 0xfc, 0x41, 0x00, 0x00, 0xf4, 0x0f, 0x00,
   0x00, 0xfe, 0x01, 0x00, 0x24, 0xe1, 0x3f, 0x00, 0x80, 0xff, 0x12, 0x01
   0x00, 0xc0, 0xff, 0x00, 0xc0, 0x7f, 0x00, 0x00, 0x00, 0x48, 0xff, 0x1f,
   0xfe, 0x1f, 0x00, 0x02, 0x24, 0x01, 0xfe, 0xff, 0xff, 0x4f, 0x92, 0x00,
   0x00, 0x00, 0xf8, 0xff, 0xff, 0x13, 0x00, 0x00, 0x00, 0x48, 0xf2, 0xff,
   0xff, 0x01, 0x00, 0x00, 0x24, 0x01, 0xa0, 0xff, 0x1f, 0x82, 0x24, 0x01,
   0x00, 0x00, 0x08, 0xf0, 0x20, 0x10, 0x00, 0x08, 0x00, 0x24, 0x01, 0x09,
   0x09, 0x04, 0x00, 0x00 0x24, 0x01, 0x00, 0x40, 0x80, 0x00, 0x49, 0x02,
   0x00, 0x00, 0x24, 0x00, 0x00, 0x40, 0x00, 0x00, 0x00, 0x90, 0x00, 0x09,
   0x24, 0x04, 0x00, 0x00, 0x24, 0x01, 0x00, 0x40, 0x00, 0x00, 0x92, 0x04};
