#define asom_0w_width 50
#define asom_0w_height 50
static char asom_0w_bits[] = {
   0x00, 0x00, 0x80, 0x01, 0x00, 0x00, 0x00, 0x00, 0x00, 0x80, 0x01, 0x00,
   0x00, 0x00, 0x48, 0x92, 0xe4, 0x93, 0x24, 0x49, 0x00, 0x00, 0x00, 0x80,
   0x01, 0x00, 0x00, 0x00, 0xf8, 0xff, 0xff, 0xff, 0xff, 0x3f, 0x01, 0xfc,
   0xff, 0xff, 0xff, 0xff, 0x3f, 0x00, 0xf8, 0xff, 0xff, 0xff, 0xff, 0x3f,
   0x00, 0x38, 0x00, 0x80, 0x01, 0x00, 0xb8, 0x00 0x38, 0x00, 0x80, 0x01,
   0x00, 0x38, 0x00, 0x3c, 0x00, 0x00, 0x00, 0x00, 0x38, 0x00, 0x38, 0x00,
   0x00, 0x00, 0x00, 0xb8, 0x00, 0x38, 0x00, 0x00, 0x00, 0x00, 0x38, 0x00,
   0x38, 0x00, 0x00, 0x00, 0x00, 0x38, 0x00, 0x3c, 0x00, 0x00, 0x00, 0x00,
   0xb8, 0x00, 0x38, 0x00, 0x00, 0x00, 0x00, 0x38, 0x00, 0x38, 0x00, 0x00,
   0x00, 0x00, 0x38, 0x00 0x38, 0x00, 0x00, 0x00, 0x06, 0xb8, 0x00, 0x3c,
   0xc0, 0x00, 0x00, 0x06, 0x38, 0x00, 0x38, 0xc0, 0x00, 0x00, 0x06, 0x38,
   0x00, 0x38, 0xc0, 0x00, 0x00, 0x06, 0xb8, 0x00, 0x38, 0xc0, 0x00, 0x00,
   0x06, 0x38, 0x00, 0x3c, 0xc0, 0x00, 0x00, 0x06, 0x38, 0x00, 0x38, 0xc0,
   0x00, 0x00, 0x06, 0xb8, 0x00, 0x38, 0xc0, 0x00, 0x00, 0x06, 0x38, 0x00
   0x38, 0xc0, 0x00, 0x00, 0x06, 0x38, 0x00, 0x3c, 0xc0, 0x80, 0x07, 0x06,
   0xb8, 0x00, 0x38, 0xc0, 0xc0, 0x0f, 0x06, 0x38, 0x00, 0x38, 0xc0, 0xf0,
   0x3c, 0x06, 0x38, 0x00, 0x38, 0xc0, 0x38, 0x70, 0x06, 0xb8, 0x00, 0x3c,
   0xc0, 0x1c, 0xe0, 0x06, 0x38, 0x00, 0x38, 0xc0, 0x0f, 0xc0, 0x07, 0x38,
   0x00, 0x38, 0xc0, 0x03, 0x00, 0x07, 0xb8, 0x00 0x38, 0xc0, 0x01, 0x00,
   0x06, 0x38, 0x00, 0x3c, 0x00, 0x00, 0x00, 0x00, 0x38, 0x00, 0x38, 0x00,
   0x00, 0x00, 0x00, 0xb8, 0x00, 0x38, 0x00, 0x00, 0x00, 0x00, 0x38, 0x00,
   0x38, 0x00, 0x00, 0x00, 0x00, 0x38, 0x00, 0x3c, 0x00, 0x00, 0x00, 0x00,
   0xb8, 0x00, 0x38, 0x00, 0x00, 0x00, 0x00, 0x38, 0x00, 0x38, 0x00, 0x00,
   0x00, 0x00, 0x38, 0x00 0x38, 0x00, 0x00, 0x00, 0x00, 0xb8, 0x00, 0x3c,
   0x30, 0x00, 0x00, 0x03, 0x38, 0x00, 0x38, 0x30, 0x00, 0x00, 0x03, 0x38,
   0x00, 0xf8, 0xff, 0xff, 0xff, 0xff, 0xbf, 0x00, 0xf8, 0xff, 0xff, 0xff,
   0xff, 0x3f, 0x00, 0xfc, 0xff, 0xff, 0xff, 0xff, 0x3f, 0x00, 0x00, 0x30,
   0x00, 0x00, 0x03, 0x40, 0x00, 0x80, 0x30, 0x11, 0x11, 0x4b, 0x12, 0x00
   0x24, 0x34, 0x00, 0x80, 0x03, 0x00, 0x01, 0x00, 0xb0, 0x40, 0x04, 0x03,
   0x00, 0x00};
