#define asom_0e_width 50
#define asom_0e_height 50
static char asom_0e_bits[] = {
   0x00, 0x00, 0x03, 0x00, 0x30, 0x00, 0x00, 0x00, 0x00, 0x03, 0x00, 0x30,
   0x00, 0x00, 0x48, 0x12, 0x93, 0x24, 0x31, 0x49, 0x00, 0x00, 0x80, 0x03,
   0x00, 0x38, 0x00, 0x00, 0xf0, 0xff, 0xff, 0xff, 0xff, 0x7f, 0x01, 0xf4,
   0xff, 0xff, 0xff, 0xff, 0x7f, 0x00, 0xf0, 0xff, 0xff, 0xff, 0xff, 0x7f,
   0x00, 0x70, 0x00, 0x03, 0x00, 0x30, 0x70, 0x00 0x74, 0x00, 0x03, 0x00,
   0x30, 0x70, 0x01, 0x70, 0x00, 0x00, 0x00, 0x00, 0x70, 0x00, 0x70, 0x00,
   0x00, 0x00, 0x00, 0x70, 0x00, 0x74, 0x00, 0x00, 0x00, 0x00, 0x70, 0x01,
   0x70, 0x00, 0x00, 0x00, 0x00, 0x70, 0x00, 0x70, 0x00, 0x00, 0x00, 0x00,
   0x70, 0x00, 0x74, 0x00, 0x00, 0x00, 0x00, 0x70, 0x00, 0x70, 0x00, 0x00,
   0x00, 0x00, 0x70, 0x01 0x70, 0x00, 0x00, 0x00, 0x00, 0x70, 0x00, 0x74,
   0x80, 0x01, 0x00, 0x0e, 0x70, 0x00, 0x70, 0x80, 0x03, 0x00, 0x0f, 0x70,
   0x01, 0x70, 0x80, 0x0f, 0xc0, 0x0f, 0x70, 0x00, 0x74, 0x80, 0x1d, 0xe0,
   0x0c, 0x70, 0x00, 0x70, 0x80, 0x39, 0x70, 0x0c, 0x70, 0x00, 0x70, 0x80,
   0xf1, 0x3c, 0x0c, 0x70, 0x01, 0x74, 0x80, 0xc1, 0x0f, 0x0c, 0x70, 0x00
   0x70, 0x80, 0x81, 0x07, 0x0c, 0x70, 0x00, 0x70, 0x80, 0x01, 0x00, 0x0c,
   0x70, 0x00, 0x74, 0x80, 0x01, 0x00, 0x0c, 0x70, 0x01, 0x70, 0x80, 0x01,
   0x00, 0x0c, 0x70, 0x00, 0x70, 0x80, 0x01, 0x00, 0x0c, 0x70, 0x00, 0x74,
   0x80, 0x01, 0x00, 0x0c, 0x70, 0x01, 0x70, 0x80, 0x01, 0x00, 0x0c, 0x70,
   0x00, 0x70, 0x80, 0x01, 0x00, 0x0c, 0x70, 0x00 0x74, 0x80, 0x01, 0x00,
   0x0c, 0x70, 0x00, 0x70, 0x80, 0x01, 0x00, 0x00, 0x70, 0x01, 0x70, 0x00,
   0x00, 0x00, 0x00, 0x70, 0x00, 0x74, 0x00, 0x00, 0x00, 0x00, 0x70, 0x00,
   0x70, 0x00, 0x00, 0x00, 0x00, 0x70, 0x00, 0x70, 0x00, 0x00, 0x00, 0x00,
   0x70, 0x01, 0x74, 0x00, 0x00, 0x00, 0x00, 0x70, 0x00, 0x70, 0x00, 0x00,
   0x00, 0x00, 0x70, 0x00 0x70, 0x00, 0x00, 0x00, 0x00, 0x70, 0x01, 0x74,
   0x00, 0x00, 0x06, 0x00, 0x70, 0x00, 0x70, 0x00, 0x00, 0x06, 0x00, 0x70,
   0x00, 0xf0, 0xff, 0xff, 0xff, 0xff, 0x7f, 0x00, 0xf4, 0xff, 0xff, 0xff,
   0xff, 0x7f, 0x01, 0xf0, 0xff, 0xff, 0xff, 0xff, 0x7f, 0x00, 0x00, 0x00,
   0x00, 0x06, 0x00, 0x00, 0x00, 0x24, 0x49, 0x92, 0x2f, 0x22, 0x22, 0x01
   0x00, 0x00, 0x00, 0x06, 0x00, 0x00, 0x00, 0x00, 0x00, 0x00, 0x86, 0x88,
   0x08, 0x00};
