#define attu_0n_width 50
#define attu_0n_height 50
static char attu_0n_bits[] = {
   0x00, 0x00, 0x00, 0x00, 0x00, 0x00, 0x00, 0x00, 0x00, 0x00, 0x00, 0x00,
   0x00, 0x00, 0x48, 0x92, 0x24, 0x49, 0x92, 0x24, 0x00, 0x00, 0x00, 0x00,
   0x00, 0x00, 0x00, 0x01, 0x00, 0x00, 0x00, 0x00, 0x00, 0x00, 0x00, 0xf4,
   0xff, 0xff, 0xff, 0xff, 0x7f, 0x00, 0xf0, 0xff, 0xff, 0xff, 0xff, 0xff,
   0x00, 0xf0, 0xff, 0xff, 0xff, 0xff, 0x7f, 0x00 0x74, 0x00, 0x00, 0x00,
   0x00, 0x70, 0x00, 0x70, 0x00, 0x00, 0x00, 0x00, 0x70, 0x01, 0x70, 0x00,
   0x00, 0x04, 0x00, 0x70, 0x00, 0x74, 0x00, 0x00, 0x00, 0x00, 0x70, 0x00,
   0x70, 0x00, 0xef, 0xf5, 0x01, 0xf0, 0x00, 0x70, 0x80, 0xcd, 0xb5, 0x01,
   0x70, 0x00, 0x74, 0x80, 0xbd, 0xb5, 0x01, 0x70, 0x00, 0x70, 0x00, 0xff,
   0xb5, 0x01, 0x70, 0x01 0x70, 0x80, 0x0d, 0x00, 0x00, 0x70, 0x00, 0x74,
   0x00, 0x07, 0x00, 0x00, 0x70, 0x00, 0x70, 0x00, 0x00, 0x00, 0x00, 0xf0,
   0x00, 0x70, 0x00, 0x00, 0x00, 0x00, 0x70, 0x00, 0x74, 0x00, 0x00, 0x00,
   0x00, 0x70, 0x00, 0x70, 0x00, 0x00, 0x00, 0x00, 0x70, 0x01, 0x7e, 0xc0,
   0xff, 0xff, 0xff, 0xf0, 0x03, 0x7e, 0xc0, 0xff, 0xff, 0xff, 0xf0, 0x03
   0x70, 0x00, 0x00, 0x00, 0x00, 0x70, 0x00, 0x74, 0x00, 0x00, 0x00, 0x00,
   0x70, 0x01, 0x70, 0x00, 0x00, 0x00, 0x00, 0x70, 0x00, 0x70, 0x00, 0x00,
   0x00, 0x00, 0x70, 0x00, 0x74, 0x00, 0x00, 0x00, 0x00, 0xf0, 0x00, 0x70,
   0x30, 0x00, 0x00, 0xfc, 0x70, 0x00, 0x70, 0x38, 0x10, 0x00, 0xfc, 0x70,
   0x00, 0x74, 0x38, 0x7c, 0x38, 0x30, 0x70, 0x01 0x70, 0x30, 0x7c, 0x3c,
   0x30, 0x70, 0x00, 0x70, 0x30, 0x10, 0x60, 0x30, 0x70, 0x00, 0x74, 0x30,
   0x00, 0x38, 0x30, 0xf0, 0x00, 0x70, 0x00, 0x00, 0x00, 0x00, 0x70, 0x00,
   0x70, 0x00, 0x00, 0x00, 0x00, 0x70, 0x00, 0x74, 0x00, 0x00, 0x00, 0x00,
   0x70, 0x01, 0x70, 0x00, 0x00, 0x00, 0x00, 0x70, 0x00, 0x70, 0x00, 0x00,
   0x00, 0x00, 0x70, 0x00 0x74, 0x00, 0x00, 0x00, 0x00, 0xf0, 0x00, 0xf0,
   0xff, 0xff, 0xff, 0xff, 0x7f, 0x00, 0xf0, 0xff, 0xff, 0xff, 0xff, 0x7f,
   0x00, 0xf4, 0xff, 0xff, 0xff, 0xff, 0x7f, 0x01, 0x00, 0x00, 0x80, 0x10,
   0x11, 0x09, 0x00, 0x20, 0x49, 0x12, 0x04, 0x00, 0x40, 0x00, 0x04, 0x00,
   0x00, 0x00, 0x44, 0x00, 0x00, 0x00, 0x00, 0x40, 0x20, 0x01, 0x12, 0x00
   0x20, 0x49, 0x12, 0x02, 0x00, 0x80, 0x00, 0x04, 0x00, 0x00, 0x00, 0x48,
   0x00, 0x00};
