#define attu_0s_width 50
#define attu_0s_height 50
static char attu_0s_bits[] = {
   0x00, 0x00, 0x00, 0x00, 0x00, 0x00, 0x00, 0x00, 0x00, 0x00, 0x00, 0x00,
   0x00, 0x00, 0x48, 0x92, 0x24, 0x49, 0x92, 0x24, 0x00, 0x00, 0x00, 0x00,
   0x00, 0x00, 0x00, 0x01, 0x00, 0x00, 0x00, 0x00, 0x00, 0x00, 0x00, 0x24,
   0x49, 0x92, 0x24, 0x49, 0x12, 0x00, 0xf8, 0xff, 0xff, 0xff, 0xff, 0xbf,
   0x00, 0xf8, 0xff, 0xff, 0xff, 0xff, 0x3f, 0x00 0xfc, 0xff, 0xff, 0xff,
   0xff, 0x3f, 0x00, 0x38, 0x00, 0x00, 0x00, 0x00, 0x38, 0x01, 0x38, 0x00,
   0x00, 0x00, 0x00, 0x38, 0x00, 0x38, 0x00, 0x00, 0x00, 0x00, 0x38, 0x00,
   0x3c, 0x00, 0x00, 0x00, 0x00, 0x38, 0x01, 0x38, 0x00, 0x00, 0x00, 0x00,
   0x38, 0x00, 0x38, 0x00, 0x00, 0x00, 0x00, 0x38, 0x00, 0x38, 0x30, 0x70,
   0x00, 0x30, 0xb8, 0x00 0x3c, 0x30, 0x18, 0x20, 0x30, 0x38, 0x00, 0x38,
   0x30, 0xf0, 0xf8, 0x30, 0x38, 0x00, 0x38, 0x30, 0x70, 0xf8, 0x70, 0x38,
   0x01, 0x38, 0xfc, 0x00, 0x20, 0x70, 0x38, 0x00, 0x3c, 0xfc, 0x00, 0x00,
   0x30, 0x38, 0x00, 0x38, 0x00, 0x00, 0x00, 0x00, 0xb8, 0x00, 0x38, 0x00,
   0x00, 0x00, 0x00, 0x38, 0x00, 0x38, 0x00, 0x00, 0x00, 0x00, 0x38, 0x00
   0x3c, 0x00, 0x00, 0x00, 0x00, 0x38, 0x01, 0x38, 0x00, 0x00, 0x00, 0x00,
   0x38, 0x00, 0x3f, 0xfc, 0xff, 0xff, 0x0f, 0xf8, 0x01, 0x3f, 0xfc, 0xff,
   0xff, 0x0f, 0xf8, 0x01, 0x38, 0x00, 0x00, 0x00, 0x00, 0x38, 0x00, 0x38,
   0x00, 0x00, 0x00, 0x00, 0x38, 0x01, 0x3c, 0x00, 0x00, 0x00, 0x00, 0x38,
   0x00, 0x38, 0x00, 0x00, 0x00, 0x00, 0x38, 0x00 0x38, 0x00, 0x00, 0x80,
   0x03, 0xb8, 0x00, 0x38, 0x00, 0x00, 0xc0, 0x06, 0x38, 0x00, 0x3c, 0x00,
   0xb6, 0xfe, 0x03, 0x38, 0x00, 0x38, 0x00, 0xb6, 0xf6, 0x06, 0x38, 0x01,
   0x38, 0x00, 0xb6, 0xce, 0x06, 0x38, 0x00, 0x38, 0x00, 0xbe, 0xde, 0x03,
   0x38, 0x00, 0x3c, 0x00, 0x00, 0x00, 0x00, 0x38, 0x01, 0x38, 0x00, 0x80,
   0x00, 0x00, 0x38, 0x00 0x38, 0x00, 0x00, 0x00, 0x00, 0x38, 0x00, 0x38,
   0x00, 0x00, 0x00, 0x00, 0xb8, 0x00, 0xfc, 0xff, 0xff, 0xff, 0xff, 0x3f,
   0x00, 0xf8, 0xff, 0xff, 0xff, 0xff, 0x3f, 0x00, 0xf8, 0xff, 0xff, 0xff,
   0xff, 0x3f, 0x01, 0x00, 0x00, 0x00, 0x00, 0x00, 0x00, 0x00, 0x84, 0x00,
   0x00, 0x00, 0x00, 0x20, 0x00, 0x20, 0x24, 0x49, 0x92, 0x24, 0x09, 0x00
   0x00, 0x00, 0x00, 0x00, 0x00, 0x00, 0x01, 0x04, 0x00, 0x02, 0x00, 0x00,
   0x40, 0x00};
