#define bch0_0n_width 75
#define bch0_0n_height 50
static char bch0_0n_bits[] = {
   0x00, 0x00, 0x00, 0x00, 0x00, 0x00, 0x00, 0x00, 0x00, 0x00, 0x00, 0x00,
   0x00, 0x00, 0x00, 0x00, 0x00, 0x00, 0x00, 0x00, 0x00, 0x00, 0x00, 0x00,
   0x00, 0x00, 0x00, 0x00, 0x00, 0x00, 0x00, 0x00, 0x00, 0x00, 0x00, 0x00,
   0x00, 0x00, 0x00, 0x00, 0x00, 0x00, 0x00, 0x00, 0x00, 0x00, 0x00, 0x00,
   0x00, 0x00, 0x20, 0x22, 0x22, 0x22, 0x22, 0x22, 0x22, 0x22, 0x22, 0x02,
   0x00, 0x00, 0x00, 0x00, 0x00, 0x00, 0x00, 0x00, 0x00, 0x00, 0x00, 0x00,
   0x00, 0x00, 0x00, 0x00, 0x00, 0x00, 0x00, 0x00 0x00, 0x00, 0x00, 0x00,
   0x00, 0x00, 0x00, 0x00, 0x00, 0x00, 0x88, 0x40, 0x10, 0x08, 0x04, 0x81,
   0x40, 0x10, 0x08, 0x00, 0x00, 0x08, 0x04, 0x81, 0x40, 0x10, 0x08, 0x04,
   0x81, 0x00, 0xe0, 0xff, 0xff, 0xff, 0xff, 0xff, 0xff, 0xff, 0x3f, 0x00,
   0xe0, 0xff, 0xff, 0xff, 0xff, 0xff, 0xff, 0xff, 0x3f, 0x00, 0xe0, 0xff,
   0xff, 0xff, 0xff, 0xff, 0xff, 0xff, 0x3f, 0x00, 0xe0, 0x55, 0x55, 0x55,
   0x55, 0x55, 0x55, 0x55, 0x3d, 0x00, 0xf0, 0x4a, 0x92, 0xa4, 0x24, 0x49,
   0x4a, 0x92, 0x38, 0x00 0xe0, 0xa9, 0x2a, 0x95, 0xaa, 0x52, 0xa9, 0x2a,
   0x3b, 0x02, 0xe0, 0x4a, 0x49, 0xa9, 0x94, 0x94, 0x4a, 0x49, 0x3a, 0x00,
   0xe0, 0x55, 0xaa, 0x4a, 0x29, 0x55, 0x52, 0xaa, 0x3a, 0x00, 0xe0, 0x92,
   0x52, 0x52, 0x4a, 0xa5, 0xaa, 0x52, 0x3d, 0x00, 0xf0, 0xa5, 0x94, 0xaa,
   0x52, 0x29, 0x25, 0x95, 0x3c, 0x00, 0xe0, 0x54, 0xa5, 0x94, 0x54, 0x4a,
   0x49, 0x52, 0x39, 0x01, 0xe0, 0xff, 0xff, 0xff, 0x7f, 0x55, 0xaa, 0x2a,
   0x3d, 0x00, 0xe0, 0x00, 0x00, 0x00, 0xc0, 0x92, 0xaa, 0xa4, 0x3a, 0x00
   0xff, 0x00, 0x20, 0x02, 0x41, 0xa5, 0x92, 0x4a, 0xfa, 0x07, 0xff, 0x92,
   0x04, 0x10, 0xc8, 0x54, 0xa5, 0x54, 0xfd, 0x07, 0xff, 0x00, 0x80, 0x40,
   0x60, 0x95, 0x54, 0xa5, 0xf8, 0x07, 0xe0, 0x44, 0x08, 0x04, 0x42, 0x29,
   0x25, 0x29, 0x3b, 0x00, 0xe0, 0x00, 0x42, 0x80, 0xc0, 0x52, 0xa9, 0x4a,
   0x3a, 0x00, 0xe0, 0x11, 0x00, 0x12, 0xc8, 0xff, 0xff, 0xff, 0x3f, 0x00,
   0xe0, 0x80, 0x10, 0x00, 0x00, 0x00, 0x00, 0x00, 0x38, 0x00, 0xf0, 0x04,
   0x84, 0x40, 0x22, 0x08, 0x08, 0x20, 0x3a, 0x01 0xe0, 0x20, 0x00, 0x04,
   0x80, 0x40, 0x42, 0x02, 0x38, 0x00, 0xe0, 0x08, 0x21, 0x10, 0x09, 0x02,
   0x00, 0x90, 0x38, 0x00, 0xe0, 0x02, 0x08, 0x01, 0x00, 0x10, 0x08, 0x04,
   0x3c, 0x00, 0xe0, 0x40, 0x00, 0x40, 0x20, 0x84, 0x40, 0x00, 0x38, 0x00,
   0xf0, 0x10, 0x42, 0x04, 0x82, 0x00, 0x02, 0x21, 0x39, 0x02, 0xe0, 0xff,
   0xff, 0xff, 0xff, 0xff, 0xff, 0xff, 0x3f, 0x00, 0xe0, 0xff, 0xff, 0xff,
   0xff, 0xff, 0xff, 0xff, 0x3f, 0x00, 0xe0, 0xff, 0xff, 0xff, 0xff, 0xff,
   0xff, 0xff, 0x3f, 0x00 0x00, 0x00, 0x00, 0x00, 0x00, 0x00, 0x00, 0x00,
   0x00, 0x01, 0x10, 0x00, 0x00, 0x00, 0x00, 0x00, 0x00, 0x00, 0x00, 0x00,
   0x00, 0x04, 0x00, 0x40, 0x10, 0x40, 0x40, 0x00, 0x00, 0x00, 0x00, 0x00,
   0x88, 0x08, 0x04, 0x02, 0x08, 0x08, 0x08, 0x00, 0x00, 0x41, 0x02, 0x00,
   0x00, 0x00, 0x00, 0x80, 0x80, 0x00, 0x20, 0x00, 0x00, 0x00, 0x00, 0x00,
   0x00, 0x00, 0x00, 0x00, 0x08, 0x00, 0x00, 0x00, 0x00, 0x10, 0x01, 0x00,
   0x00, 0x00, 0x00, 0x00, 0x00, 0x00, 0x81, 0x00, 0x80, 0x08, 0x00, 0x00
   0x00, 0x20, 0x00, 0x11, 0x00, 0x00, 0x20, 0x00, 0x22, 0x00, 0x00, 0x08,
   0x20, 0x00, 0x20, 0x00, 0x08, 0x80, 0x00, 0x00};
