#define bch0_1n_width 75
#define bch0_1n_height 50
static char bch0_1n_bits[] = {
   0x00, 0x00, 0x00, 0x00, 0x00, 0x00, 0x00, 0x00, 0x00, 0x00, 0x00, 0x00,
   0x00, 0x00, 0x00, 0x00, 0x00, 0x00, 0x00, 0x00, 0x00, 0x00, 0x00, 0x00,
   0x00, 0x00, 0x00, 0x00, 0x00, 0x00, 0x00, 0x00, 0x00, 0x00, 0x00, 0x00,
   0x00, 0x00, 0x00, 0x00, 0x00, 0x00, 0x00, 0x00, 0x00, 0x00, 0x00, 0x00,
   0x00, 0x00, 0x20, 0x22, 0x22, 0x22, 0x22, 0x22, 0x22, 0x22, 0x22, 0x02,
   0x00, 0x00, 0x00, 0x00, 0x00, 0x00, 0x00, 0x00, 0x00, 0x00, 0x00, 0x00,
   0x00, 0x00, 0x00, 0x00, 0x00, 0x00, 0x00, 0x00 0x00, 0x00, 0x00, 0x00,
   0x00, 0x00, 0x00, 0x00, 0x00, 0x00, 0x88, 0x40, 0x10, 0x08, 0x04, 0x81,
   0x40, 0x10, 0x08, 0x00, 0x00, 0x08, 0x04, 0x81, 0x40, 0x10, 0x08, 0x04,
   0x81, 0x00, 0xe0, 0xff, 0xff, 0xff, 0xff, 0xff, 0xff, 0xff, 0x3f, 0x00,
   0xe0, 0xff, 0xff, 0xff, 0xff, 0xff, 0xff, 0xff, 0x3f, 0x00, 0xe0, 0xff,
   0xff, 0xff, 0xff, 0xff, 0xff, 0xff, 0x3f, 0x00, 0xe0, 0x55, 0x55, 0x55,
   0x55, 0x55, 0x55, 0x55, 0x3d, 0x00, 0xf0, 0x92, 0x24, 0x92, 0x24, 0x22,
   0x49, 0x22, 0x3a, 0x00 0xe0, 0x25, 0x49, 0x25, 0x49, 0x55, 0x92, 0x54,
   0x39, 0x02, 0xe0, 0x54, 0x55, 0xa9, 0xaa, 0xa4, 0xaa, 0x4a, 0x3a, 0x00,
   0xe0, 0xa5, 0x92, 0x4a, 0x95, 0x4a, 0x52, 0xa9, 0x3a, 0x00, 0xe0, 0x4a,
   0x54, 0x54, 0xa4, 0x94, 0x14, 0x25, 0x3d, 0x00, 0xf0, 0xa9, 0x4a, 0xa5,
   0x4a, 0xa9, 0xaa, 0x54, 0x3a, 0x00, 0xe0, 0x92, 0x92, 0x4a, 0x92, 0x92,
   0x52, 0x49, 0x3d, 0x01, 0xe0, 0xff, 0xff, 0xff, 0x7f, 0xa5, 0x24, 0x95,
   0x38, 0x00, 0xe0, 0x00, 0x00, 0x00, 0xc0, 0x54, 0x49, 0x52, 0x3d, 0x00
   0xff, 0x08, 0x20, 0x00, 0x51, 0x49, 0xaa, 0x2a, 0xf9, 0x07, 0xff, 0x42,
   0x02, 0x49, 0xc0, 0xaa, 0x92, 0x44, 0xfd, 0x07, 0xff, 0x00, 0x08, 0x00,
   0x44, 0x49, 0x54, 0x59, 0xfa, 0x07, 0xe0, 0x10, 0x41, 0x10, 0x60, 0x95,
   0x4a, 0xa2, 0x3c, 0x00, 0xe0, 0x02, 0x00, 0x82, 0x48, 0xa9, 0x92, 0x2a,
   0x39, 0x00, 0xe0, 0x40, 0x88, 0x00, 0xc2, 0xff, 0xff, 0xff, 0x3f, 0x00,
   0xe0, 0x04, 0x02, 0x48, 0x00, 0x00, 0x00, 0x00, 0x38, 0x00, 0xf0, 0x21,
   0x20, 0x00, 0x20, 0x00, 0x10, 0x01, 0x39, 0x02 0xe0, 0x00, 0x08, 0x11,
   0x02, 0x49, 0x02, 0x48, 0x38, 0x00, 0xe0, 0x88, 0x00, 0x80, 0x10, 0x00,
   0x40, 0x00, 0x3c, 0x00, 0xe0, 0x00, 0x42, 0x04, 0x00, 0x11, 0x04, 0x22,
   0x38, 0x00, 0xe0, 0x22, 0x10, 0x20, 0x44, 0x80, 0x20, 0x00, 0x39, 0x01,
   0xf0, 0x00, 0x00, 0x01, 0x01, 0x04, 0x08, 0x09, 0x38, 0x00, 0xe0, 0xff,
   0xff, 0xff, 0xff, 0xff, 0xff, 0xff, 0x3f, 0x00, 0xe0, 0xff, 0xff, 0xff,
   0xff, 0xff, 0xff, 0xff, 0x3f, 0x00, 0xe0, 0xff, 0xff, 0xff, 0xff, 0xff,
   0xff, 0xff, 0x3f, 0x00 0x00, 0x00, 0x00, 0x00, 0x00, 0x00, 0x00, 0x00,
   0x80, 0x00, 0x10, 0x80, 0x08, 0x00, 0x00, 0x00, 0x00, 0x00, 0x20, 0x00,
   0x00, 0x08, 0x00, 0x08, 0x80, 0x40, 0x04, 0x00, 0x02, 0x00, 0x00, 0x02,
   0x80, 0x80, 0x08, 0x10, 0x00, 0x80, 0x00, 0x00, 0x00, 0x00, 0x00, 0x00,
   0x00, 0x00, 0x80, 0x08, 0x00, 0x00, 0x20, 0x00, 0x04, 0x00, 0x00, 0x00,
   0x00, 0x00, 0x00, 0x00, 0x08, 0x00, 0x01, 0x00, 0x00, 0x02, 0x20, 0x00,
   0x00, 0x01, 0x00, 0x40, 0x80, 0x88, 0x20, 0x00, 0x04, 0x00, 0x10, 0x00
   0x00, 0x08, 0x00, 0x00, 0x08, 0x80, 0x00, 0x40, 0x00, 0x00, 0x00, 0x02,
   0x00, 0x00, 0x00, 0x20, 0x00, 0x08, 0x00, 0x00};
