#define bcn0_0n_width 100
#define bcn0_0n_height 54
static char bcn0_0n_bits[] = {
   0x00, 0x00, 0x00, 0x00, 0x00, 0x00, 0x00, 0x00, 0x00, 0x00, 0x00, 0x00,
   0x00, 0x00, 0x00, 0x00, 0x00, 0x00, 0x00, 0x00, 0x00, 0x00, 0x00, 0x00,
   0x00, 0x00, 0x48, 0x92, 0x24, 0x49, 0x92, 0x24, 0x49, 0x92, 0x24, 0x49,
   0x92, 0x24, 0x01, 0x00, 0x00, 0x00, 0x00, 0x00, 0x00, 0x00, 0x00, 0x00,
   0x00, 0x00, 0x00, 0x00, 0x00, 0x00, 0x00, 0x00, 0x00, 0x00, 0x00, 0x00,
   0x00, 0x00, 0x00, 0x00, 0x04, 0x24, 0x49, 0x92, 0x24, 0x49, 0x92, 0x24,
   0x49, 0x92, 0x24, 0x49, 0x92, 0x00, 0x00, 0x00, 0x00, 0x00, 0x00, 0x00,
   0x00, 0x00, 0x00, 0x00, 0x00, 0x00, 0x00, 0x00, 0x00, 0x00, 0x00, 0x00,
   0x60, 0x00, 0x00, 0x00, 0x00, 0x00, 0x00, 0x04 0x24, 0x49, 0x92, 0x24,
   0x49, 0x72, 0x92, 0x24, 0x49, 0x92, 0x24, 0x49, 0x00, 0x00, 0x00, 0x00,
   0x00, 0x00, 0x60, 0x00, 0x00, 0x00, 0x00, 0x00, 0x00, 0x00, 0x00, 0x00,
   0x00, 0x00, 0x00, 0x60, 0x00, 0x00, 0x00, 0x00, 0x00, 0x00, 0x01, 0x24,
   0x49, 0x92, 0x24, 0x49, 0x62, 0x49, 0x92, 0x24, 0x49, 0x92, 0x24, 0x00,
   0x00, 0x00, 0xf8, 0xff, 0xff, 0xff, 0xff, 0xff, 0xff, 0x1f, 0x00, 0x00,
   0x04, 0x00, 0x00, 0xf8, 0xff, 0xff, 0xff, 0xff, 0xff, 0xff, 0x1f, 0x00,
   0x80, 0x00, 0x24, 0x49, 0x06, 0x00, 0x00, 0x60, 0x00, 0x00, 0x00, 0xe0,
   0x92, 0x24, 0x00, 0x00, 0x00, 0x0b, 0x00, 0x00, 0x60, 0x00, 0x00, 0x00,
   0x80, 0x03, 0x00, 0x00 0x00, 0x00, 0x03, 0x02, 0x00, 0xf2, 0x11, 0x04,
   0x04, 0xc4, 0x03, 0x00, 0x02, 0x24, 0x49, 0x43, 0x20, 0x49, 0xf0, 0x80,
   0x40, 0x40, 0x00, 0x96, 0x24, 0x00, 0x00, 0x00, 0x13, 0x00, 0x00, 0x60,
   0x00, 0x00, 0x00, 0x00, 0x06, 0x00, 0x04, 0x00, 0x10, 0x07, 0x08, 0x00,
   0x68, 0x02, 0x10, 0x02, 0x11, 0x0e, 0x80, 0x00, 0x24, 0xc1, 0x00, 0x00,
   0x82, 0x60, 0x30, 0x02, 0x10, 0x00, 0x2d, 0x09, 0x00, 0x00, 0xc8, 0x00,
   0x81, 0x20, 0x80, 0x50, 0x00, 0x00, 0x00, 0x0c, 0x40, 0x04, 0x00, 0x32,
   0x01, 0x20, 0x00, 0x08, 0xe8, 0x40, 0x04, 0x11, 0x30, 0x10, 0x00, 0x24,
   0x30, 0x10, 0x08, 0x00, 0x00, 0x9e, 0x10, 0x40, 0x00, 0xb1, 0x04, 0x00
   0x00, 0x31, 0x00, 0x01, 0x08, 0x41, 0x85, 0x03, 0x00, 0x00, 0x30, 0x00,
   0x01, 0x40, 0x30, 0x02, 0x00, 0x00, 0x90, 0x02, 0x06, 0x02, 0x08, 0x38,
   0x40, 0x00, 0x04, 0xff, 0xfd, 0xff, 0x0f, 0x40, 0x01, 0xfa, 0xfd, 0xf7,
   0xf7, 0x09, 0x04, 0x00, 0x55, 0xab, 0xa4, 0x4a, 0xa4, 0x00, 0x94, 0xaa,
   0xaa, 0xaa, 0x00, 0x00, 0x10, 0x30, 0x00, 0x00, 0x38, 0x50, 0x20, 0x00,
   0x00, 0x00, 0x30, 0x42, 0x00, 0x04, 0x30, 0x00, 0x00, 0x20, 0x2c, 0x00,
   0x00, 0x00, 0x00, 0x30, 0x10, 0x02, 0x40, 0x34, 0x00, 0x04, 0xe0, 0x1a,
   0x04, 0x21, 0x02, 0x00, 0x30, 0x00, 0x00, 0x00, 0x30, 0x10, 0x41, 0x80,
   0x05, 0x40, 0x08, 0x20, 0x92, 0xb4, 0x04, 0x00 0x04, 0xf1, 0x02, 0x00,
   0x82, 0x02, 0x00, 0x00, 0x00, 0x00, 0x30, 0x40, 0x02, 0x20, 0xf0, 0x00,
   0x00, 0x20, 0x01, 0x11, 0x00, 0x02, 0x00, 0x0c, 0x10, 0x00, 0x00, 0xc4,
   0x40, 0x88, 0x00, 0x00, 0x00, 0x80, 0x20, 0x02, 0x2f, 0x01, 0x00, 0x84,
   0xc0, 0x09, 0x00, 0x00, 0x20, 0x00, 0x09, 0x00, 0x20, 0x0f, 0x00, 0x01,
   0x20, 0xd0, 0x01, 0x02, 0x08, 0x08, 0x44, 0x00, 0x00, 0x00, 0x03, 0x24,
   0x00, 0x00, 0x80, 0x03, 0x20, 0x82, 0x00, 0x00, 0x00, 0x44, 0x84, 0x27,
   0x01, 0x04, 0x04, 0xc2, 0x13, 0x00, 0x00, 0x00, 0x01, 0x20, 0x01, 0xc0,
   0x03, 0x80, 0x00, 0x40, 0x10, 0x8e, 0x2a, 0x29, 0x29, 0xaa, 0x8a, 0x28,
   0xe9, 0x00, 0x08, 0x00 0x10, 0x00, 0x66, 0x88, 0xca, 0xea, 0x84, 0xa8,
   0x8c, 0xea, 0x48, 0x02, 0x04, 0x04, 0x02, 0x8f, 0xa6, 0x10, 0x72, 0xa9,
   0x4a, 0xa2, 0xe4, 0x02, 0x40, 0x00, 0x00, 0x10, 0x26, 0x89, 0xaa, 0x64,
   0x2a, 0x10, 0x25, 0xe9, 0x00, 0x10, 0x00, 0x40, 0x00, 0x6e, 0x34, 0x45,
   0x72, 0x41, 0xa7, 0x24, 0xf2, 0x20, 0x01, 0x01, 0x08, 0x42, 0xf8, 0xff,
   0xff, 0xff, 0xff, 0xff, 0xff, 0x1f, 0x04, 0x00, 0x00, 0x00, 0x10, 0x00,
   0x00, 0x00, 0x60, 0x00, 0x00, 0x80, 0x00, 0x01, 0x24, 0x04, 0x44, 0x00,
   0x01, 0x00, 0x20, 0xf1, 0x88, 0x40, 0x10, 0x08, 0x20, 0x01, 0x01, 0x00,
   0x02, 0x48, 0x42, 0x04, 0xf8, 0x00, 0x08, 0x02, 0x42, 0x00, 0x00, 0x00
   0x00, 0x10, 0x00, 0x10, 0x00, 0x60, 0x22, 0x00, 0x80, 0x00, 0x04, 0x48,
   0x00, 0x24, 0x84, 0x04, 0x00, 0x22, 0x61, 0x00, 0x21, 0x08, 0x00, 0x21,
   0x01, 0x04, 0x00, 0x01, 0x40, 0x82, 0x00, 0x70, 0x08, 0x08, 0x01, 0x48,
   0x00, 0x00, 0x01, 0x40, 0x00, 0x10, 0x10, 0x00, 0x04, 0x01, 0x00, 0x20,
   0x01, 0x00, 0x48, 0x00, 0x04, 0x20, 0x01, 0x00, 0x48, 0x00, 0x20, 0x01,
   0x04, 0x00, 0x24, 0x01, 0x00, 0x00, 0x04, 0x80, 0x84, 0x00, 0x40, 0x08,
   0x48, 0x00, 0x88, 0x00, 0x00, 0x00};
