#define bev0_1n_width 112
#define bev0_1n_height 70
static char bev0_1n_bits[] = {
   0x00, 0x00, 0x00, 0x00, 0x00, 0x00, 0x00, 0x00, 0x00, 0x00, 0x00, 0x0c,
   0x0c, 0x00, 0x00, 0x00, 0x00, 0x00, 0x00, 0x00, 0x00, 0x00, 0x00, 0x00,
   0x00, 0x0c, 0x0c, 0x00, 0x48, 0x92, 0x24, 0x49, 0x92, 0xa4, 0xff, 0xff,
   0x7f, 0x92, 0x24, 0x0d, 0x4c, 0x12, 0x00, 0x00, 0x00, 0x00, 0xf8, 0x7f,
   0x44, 0x44, 0xc4, 0xff, 0x03, 0x8c, 0x0c, 0x00, 0x00, 0x00, 0x00, 0xc0,
   0xff, 0x01, 0x00, 0x00, 0x00, 0xe0, 0x3f, 0x0c, 0x0c, 0x40, 0x24, 0x49,
   0x92, 0x3e, 0x00, 0x00, 0x01, 0x00, 0x00, 0x00, 0xe0, 0x2c, 0x9c, 0x04,
   0x00, 0x00, 0xc0, 0x27, 0x00, 0x00, 0x20, 0x22, 0x22, 0x00, 0xc0, 0x0f,
   0x3c, 0x00, 0x00, 0x00, 0xf0, 0x01, 0x09, 0x22, 0x08, 0x00, 0x00, 0x09,
   0xa2, 0x0f, 0x7d, 0x10 0x24, 0xc9, 0x0f, 0x08, 0x40, 0x00, 0x00, 0x00,
   0x00, 0x40, 0x00, 0x4f, 0xfc, 0x07, 0x00, 0xe0, 0x23, 0x00, 0x00, 0x00,
   0x01, 0x91, 0x08, 0x00, 0x00, 0x04, 0xe0, 0x43, 0x00, 0xb8, 0x00, 0x82,
   0x00, 0x08, 0x40, 0x00, 0x40, 0x10, 0x88, 0x00, 0x80, 0x03, 0x24, 0x39,
   0x00, 0x00, 0x08, 0x41, 0x10, 0x00, 0x00, 0x02, 0x02, 0x00, 0xc4, 0x13,
   0x00, 0x38, 0x40, 0x20, 0x40, 0x00, 0x04, 0x10, 0x02, 0x00, 0x00, 0x90,
   0x80, 0x03, 0x00, 0x3a, 0x08, 0x08, 0x00, 0x00, 0x00, 0x04, 0x10, 0x40,
   0x80, 0x00, 0x80, 0x03, 0x24, 0xb8, 0x00, 0x02, 0x02, 0x08, 0x01, 0x00,
   0x00, 0x11, 0x10, 0x00, 0x90, 0x4b, 0x00, 0x39, 0x00, 0x00, 0x10, 0x02,
   0x80, 0x80, 0x00, 0x00, 0x04, 0x44, 0x84, 0x03 0x40, 0x38, 0x44, 0x80,
   0x00, 0x40, 0x20, 0x20, 0x44, 0x00, 0x00, 0x00, 0x80, 0x03, 0x04, 0x38,
   0x01, 0x00, 0x80, 0x00, 0x08, 0x08, 0x00, 0x08, 0x01, 0x01, 0x80, 0x4b,
   0x00, 0x3c, 0x00, 0x12, 0x08, 0x00, 0x00, 0x00, 0x00, 0x02, 0x40, 0x90,
   0xa1, 0x03, 0x90, 0x38, 0x58, 0x00, 0x02, 0x08, 0x01, 0x02, 0x10, 0x00,
   0x10, 0xc0, 0x83, 0x03, 0x04, 0xb8, 0x38, 0x80, 0x00, 0x02, 0x00, 0x00,
   0x01, 0x40, 0x04, 0xc0, 0x80, 0x4b, 0x00, 0x38, 0x30, 0x00, 0x40, 0x40,
   0x90, 0x40, 0x80, 0x10, 0x00, 0xe8, 0x90, 0x03, 0x40, 0x3a, 0x64, 0x12,
   0x00, 0x00, 0x04, 0x10, 0x10, 0x00, 0x00, 0x72, 0x84, 0x03, 0x04, 0x38,
   0xe0, 0x00, 0x08, 0x00, 0x00, 0x00, 0x00, 0x04, 0x80, 0x38, 0x81, 0x4b
   0x00, 0xb8, 0xc0, 0x4b, 0xa5, 0xaa, 0x52, 0x95, 0xaa, 0x52, 0x55, 0x18,
   0x80, 0x03, 0x90, 0x3c, 0x90, 0x93, 0x08, 0x49, 0x04, 0x22, 0x04, 0x84,
   0x24, 0x0d, 0x80, 0x03, 0x04, 0x38, 0x04, 0x27, 0x51, 0x12, 0xa9, 0x44,
   0xa9, 0x52, 0x12, 0x4e, 0xa0, 0x27, 0x00, 0x38, 0x00, 0x4e, 0x8a, 0x44,
   0x22, 0x29, 0x42, 0x84, 0x48, 0x17, 0x84, 0x03, 0x40, 0x3a, 0x81, 0x2c,
   0x24, 0x91, 0x94, 0x44, 0x29, 0x29, 0xa2, 0x03, 0x80, 0x03, 0x08, 0x78,
   0x20, 0x9c, 0x42, 0x24, 0x21, 0x12, 0x42, 0x42, 0x89, 0x01, 0x80, 0x4b,
   0x00, 0x38, 0x00, 0xf8, 0xff, 0xff, 0xff, 0xff, 0xff, 0xff, 0xff, 0x09,
   0x91, 0x03, 0x44, 0x3a, 0x02, 0xf0, 0xff, 0xff, 0xff, 0xff, 0xff, 0xff,
   0xff, 0x00, 0x80, 0x03 0x00, 0xb8, 0x00, 0x01, 0x00, 0x00, 0x00, 0x00,
   0x00, 0x00, 0x00, 0x40, 0x80, 0x4b, 0x10, 0x38, 0x10, 0x08, 0x00, 0x00,
   0x00, 0x00, 0x00, 0x00, 0x80, 0x08, 0xc4, 0x03, 0x04, 0x39, 0x00, 0x40,
   0x24, 0x89, 0x48, 0x88, 0x24, 0x12, 0x11, 0x00, 0x80, 0x03, 0x00, 0x38,
   0x80, 0x00, 0x00, 0x00, 0x00, 0x02, 0x00, 0x00, 0x00, 0x00, 0x80, 0x4b,
   0x40, 0xbc, 0x04, 0x10, 0x00, 0x00, 0x00, 0x00, 0x00, 0x00, 0x00, 0x42,
   0xa2, 0x03, 0x08, 0x38, 0x00, 0x04, 0x01, 0x10, 0x11, 0x80, 0x40, 0x44,
   0x44, 0x10, 0x80, 0x03, 0x00, 0x39, 0x20, 0x00, 0x48, 0x02, 0x00, 0x10,
   0x08, 0x00, 0x00, 0x00, 0x80, 0x4b, 0x44, 0x38, 0x08, 0x01, 0x00, 0x00,
   0x80, 0x04, 0x00, 0x00, 0x00, 0x00, 0x88, 0x03 0x00, 0x38, 0x01, 0x40,
   0x00, 0x40, 0x04, 0x00, 0x82, 0x88, 0x08, 0x01, 0x81, 0x03, 0x10, 0x3c,
   0x00, 0x10, 0x04, 0x11, 0x20, 0x00, 0x00, 0x00, 0x40, 0x48, 0xc0, 0x4b,
   0x04, 0x39, 0x00, 0x04, 0x40, 0x00, 0x00, 0x40, 0x10, 0x00, 0x00, 0x00,
   0x80, 0x03, 0x00, 0x38, 0x91, 0x00, 0x00, 0x00, 0x02, 0x12, 0x00, 0x11,
   0x11, 0x00, 0x90, 0x03, 0x40, 0x38, 0x00, 0x00, 0x11, 0x80, 0x80, 0x00,
   0x04, 0x00, 0x00, 0x00, 0x84, 0x13, 0x08, 0xf8, 0xff, 0xff, 0xff, 0xff,
   0xff, 0xff, 0xff, 0xff, 0xff, 0xff, 0xff, 0x03, 0x00, 0xfa, 0xff, 0xff,
   0xff, 0xff, 0xff, 0xff, 0xff, 0xff, 0xff, 0xff, 0xff, 0x23, 0x44, 0x78,
   0x55, 0x55, 0x72, 0x55, 0x52, 0x92, 0x52, 0x55, 0x55, 0x55, 0xa5, 0x0b
   0x00, 0x38, 0x00, 0x80, 0x44, 0x88, 0x9c, 0xa4, 0x09, 0x00, 0x00, 0x92,
   0x88, 0x03, 0x00, 0x79, 0x55, 0x55, 0x12, 0x25, 0x21, 0x11, 0x51, 0x55,
   0x55, 0x49, 0xa2, 0x03, 0x24, 0x38, 0x92, 0x88, 0x48, 0x92, 0x4e, 0x44,
   0x8a, 0x24, 0x49, 0x84, 0xd4, 0x4b, 0x00, 0x7c, 0x49, 0x12, 0x91, 0x48,
   0x10, 0x29, 0x29, 0x49, 0x2e, 0x51, 0x80, 0x03, 0x80, 0x38, 0x22, 0x49,
   0x26, 0x21, 0xa5, 0x44, 0x44, 0x84, 0x40, 0x0a, 0xd5, 0x03, 0x24, 0x78,
   0x44, 0xa2, 0x48, 0x8a, 0x08, 0x71, 0x29, 0x51, 0x2a, 0x50, 0x92, 0x13,
   0x00, 0xb8, 0x52, 0x14, 0x12, 0x51, 0x52, 0x0a, 0x42, 0x8a, 0x8c, 0x8a,
   0xc4, 0x03, 0x00, 0x3a, 0xa4, 0x42, 0x25, 0x0a, 0x89, 0xa0, 0x94, 0x10,
   0x5d, 0x22, 0x91, 0x43 0x24, 0x78, 0x09, 0x14, 0x48, 0xa1, 0x24, 0x4a,
   0xe2, 0x4a, 0x82, 0x48, 0xa4, 0x0b, 0x00, 0x38, 0xd2, 0x72, 0x05, 0x14,
   0x42, 0x91, 0x08, 0x90, 0x74, 0x92, 0x92, 0x03, 0x80, 0xe4, 0x25, 0x88,
   0x50, 0xa1, 0x28, 0x0a, 0xa5, 0x4a, 0x28, 0xc9, 0xe4, 0x40, 0x24, 0x80,
   0xbe, 0x12, 0x25, 0x16, 0x45, 0x50, 0x88, 0x24, 0x85, 0x24, 0x1f, 0x09,
   0x00, 0x10, 0xf0, 0xa5, 0x48, 0x49, 0x88, 0x8a, 0x52, 0x82, 0x28, 0xf2,
   0x41, 0x00, 0x00, 0x01, 0x00, 0x3e, 0x12, 0xa2, 0x53, 0x24, 0x04, 0x29,
   0xc1, 0x0f, 0x08, 0x40, 0x24, 0x80, 0x08, 0xf8, 0xa7, 0x94, 0x84, 0x42,
   0xa9, 0x90, 0xfc, 0x43, 0x02, 0x04, 0x00, 0x24, 0x40, 0xc0, 0xff, 0x41,
   0x28, 0x28, 0x42, 0xea, 0x7f, 0x10, 0x80, 0x00 0x00, 0x01, 0x04, 0x22,
   0x00, 0xfe, 0xff, 0xff, 0xff, 0x1f, 0x08, 0x00, 0x20, 0x10, 0x24, 0x00,
   0x01, 0x00, 0x02, 0x89, 0xff, 0xff, 0x3f, 0x00, 0x82, 0x04, 0x09, 0x04,
   0x00, 0x10, 0x20, 0x84, 0x10, 0x00, 0x00, 0x00, 0x00, 0x40, 0x00, 0x40,
   0x00, 0x40, 0x00, 0x01, 0x00, 0x21, 0x80, 0x40, 0x82, 0x84, 0x48, 0x12,
   0x20, 0x10, 0x80, 0x00, 0x24, 0x40, 0x42, 0x00, 0x20, 0x08, 0x10, 0x20,
   0x00, 0x00, 0x04, 0x01, 0x08, 0x08, 0x00, 0x04, 0x10, 0x00, 0x02, 0x00,
   0x00, 0x00, 0x00, 0x00, 0x01, 0x00, 0x01, 0x02};
