#define btb0_0w_width 50
#define btb0_0w_height 75
static char btb0_0w_bits[] = {
   0x00, 0x00, 0x00, 0x07, 0x00, 0x00, 0x00, 0x00, 0x00, 0x00, 0x07, 0x00,
   0x00, 0x00, 0x00, 0x00, 0x00, 0x07, 0x00, 0x00, 0x00, 0x00, 0x00, 0x00,
   0x07, 0x00, 0x00, 0x00, 0x00, 0x00, 0x00, 0x07, 0x00, 0x00, 0x00, 0x20,
   0xfa, 0xff, 0xff, 0xff, 0x11, 0x01, 0x00, 0xf8, 0xff, 0xff, 0xff, 0x00,
   0x00, 0x00, 0xf8, 0xff, 0xff, 0xff, 0x00, 0x00 0x00, 0xf8, 0x6e, 0x6b,
   0xfb, 0x00, 0x00, 0x88, 0xb8, 0x48, 0x4a, 0xf2, 0x20, 0x00, 0x00, 0x78,
   0x53, 0xa9, 0xea, 0x04, 0x00, 0x00, 0xb8, 0x54, 0x2a, 0xf5, 0x00, 0x00,
   0x00, 0x78, 0x95, 0x52, 0xe9, 0x00, 0x00, 0x00, 0xba, 0xa4, 0x4a, 0xf2,
   0x00, 0x00, 0x10, 0x78, 0x29, 0x55, 0xe5, 0x80, 0x00, 0x00, 0xb8, 0x4a,
   0x49, 0xea, 0x20, 0x00 0x00, 0x78, 0x52, 0x52, 0xf5, 0x08, 0x00, 0x80,
   0xb8, 0xaa, 0xaa, 0xe4, 0x00, 0x00, 0x20, 0x78, 0x95, 0x4a, 0xe9, 0x00,
   0x00, 0x08, 0xb8, 0xa8, 0x94, 0xea, 0x00, 0x00, 0x00, 0x78, 0x25, 0x29,
   0xf5, 0x00, 0x00, 0x00, 0xb8, 0x4a, 0xa7, 0xe4, 0x04, 0x00, 0x00, 0x78,
   0x52, 0x57, 0xe9, 0x80, 0x00, 0x00, 0xbc, 0xd4, 0x2f, 0xf5, 0x00, 0x00
   0x00, 0x78, 0xd5, 0x5a, 0xf5, 0x00, 0x00, 0x10, 0xb9, 0x6a, 0xb7, 0xe4,
   0x10, 0x00, 0x00, 0x78, 0x42, 0x2a, 0xf5, 0x00, 0x00, 0x00, 0xb8, 0xac,
   0x56, 0xe9, 0x00, 0x00, 0x00, 0x78, 0xa9, 0xa6, 0xea, 0x80, 0x00, 0x20,
   0xb8, 0x4a, 0x4b, 0xf2, 0x04, 0x00, 0x08, 0x78, 0x92, 0xaa, 0xf4, 0x00,
   0x00, 0x00, 0xbc, 0xaa, 0x96, 0xea, 0x00, 0x00 0x00, 0x78, 0x52, 0x53,
   0xe5, 0x40, 0x00, 0x00, 0xb8, 0x2a, 0x96, 0xe8, 0x00, 0x00, 0x00, 0xb8,
   0xa4, 0x2a, 0xeb, 0x10, 0x00, 0x80, 0x78, 0x55, 0xa7, 0xf4, 0x00, 0x00,
   0x10, 0xb8, 0x92, 0xaa, 0xf2, 0x00, 0x00, 0x00, 0x78, 0x54, 0x4b, 0xea,
   0x00, 0x00, 0x00, 0xb8, 0x25, 0x96, 0xf2, 0x08, 0x00, 0x00, 0x7c, 0xaa,
   0x53, 0xe5, 0x80, 0x00 0x00, 0xb9, 0x54, 0x56, 0xea, 0x00, 0x00, 0x08,
   0xb8, 0x92, 0x4a, 0xe9, 0x00, 0x00, 0x00, 0x78, 0xa5, 0x96, 0xea, 0x00,
   0x00, 0x00, 0xb8, 0x54, 0x53, 0xf2, 0x44, 0x00, 0x80, 0x78, 0x95, 0x56,
   0xf5, 0x00, 0x00, 0x20, 0x38, 0x29, 0x4b, 0xea, 0x00, 0x00, 0x00, 0x78,
   0xa5, 0x52, 0xe9, 0x00, 0x00, 0x00, 0xb8, 0x54, 0x97, 0xf2, 0x20, 0x00
   0x00, 0x78, 0x25, 0xaa, 0xf4, 0x08, 0x00, 0x08, 0xb8, 0x54, 0x4b, 0xe5,
   0x00, 0x00, 0x00, 0x7a, 0xa5, 0x96, 0xea, 0x00, 0x00, 0x80, 0xb8, 0x94,
   0xaa, 0xf4, 0x00, 0x00, 0x00, 0x78, 0xa5, 0x26, 0xe9, 0x00, 0x00, 0x00,
   0xb8, 0x54, 0xa9, 0xea, 0x20, 0x00, 0x10, 0x78, 0x25, 0x95, 0xf2, 0x08,
   0x00, 0x00, 0x38, 0xa9, 0x52, 0xea, 0x00, 0x00 0x00, 0x78, 0x55, 0xaa,
   0xf2, 0x00, 0x00, 0x00, 0xb9, 0x92, 0x92, 0xe4, 0x00, 0x00, 0x40, 0x78,
   0xaa, 0xa4, 0xfa, 0x00, 0x01, 0x08, 0xb8, 0x92, 0x2a, 0xe5, 0x10, 0x00,
   0x00, 0x78, 0xa5, 0x54, 0xe9, 0x00, 0x00, 0x00, 0xb8, 0x54, 0xa5, 0xea,
   0x00, 0x00, 0x00, 0x78, 0x29, 0x29, 0xe9, 0x00, 0x00, 0x00, 0xb8, 0x4a,
   0x55, 0xea, 0x44, 0x00 0x20, 0x7a, 0x52, 0x4a, 0xf5, 0x00, 0x00, 0x00,
   0xb8, 0xaa, 0x92, 0xe4, 0x00, 0x00, 0x00, 0x78, 0x25, 0x55, 0xe9, 0x00,
   0x00, 0x08, 0xf8, 0xff, 0xff, 0xff, 0x10, 0x00, 0x00, 0xf8, 0xff, 0xff,
   0xff, 0x04, 0x00, 0x00, 0xf9, 0xff, 0xff, 0xff, 0x00, 0x00, 0x00, 0x00,
   0x00, 0x07, 0x00, 0x00, 0x00, 0x00, 0x00, 0x00, 0x07, 0x00, 0x00, 0x01
   0x10, 0x10, 0x00, 0x07, 0x80, 0x00, 0x00, 0x00, 0x02, 0x00, 0x07, 0x20,
   0x10, 0x00, 0x00, 0x00, 0x00, 0x07, 0x08, 0x00, 0x00};
