#define btb0_0e_width 50
#define btb0_0e_height 75
static char btb0_0e_bits[] = {
   0x00, 0x00, 0x80, 0x03, 0x00, 0x00, 0x00, 0x00, 0x00, 0x80, 0x03, 0x00,
   0x00, 0x00, 0x00, 0x00, 0x80, 0x03, 0x00, 0x00, 0x00, 0x00, 0x00, 0x80,
   0x03, 0x00, 0x00, 0x00, 0x00, 0x00, 0x80, 0x03, 0x00, 0x00, 0x00, 0x20,
   0xfe, 0xff, 0xff, 0xff, 0x88, 0x00, 0x00, 0xfc, 0xff, 0xff, 0x7f, 0x00,
   0x00, 0x00, 0xfc, 0xff, 0xff, 0x7f, 0x00, 0x00 0x00, 0x7c, 0xb7, 0xb5,
   0x7d, 0x00, 0x00, 0x88, 0x9c, 0x48, 0x4a, 0x72, 0x10, 0x00, 0x00, 0xbc,
   0xaa, 0x52, 0x75, 0x02, 0x00, 0x00, 0x5c, 0x55, 0x95, 0x7a, 0x00, 0x00,
   0x00, 0x3c, 0x89, 0xa4, 0x74, 0x00, 0x01, 0x00, 0x5c, 0x55, 0x29, 0x79,
   0x00, 0x00, 0x10, 0xbd, 0xa4, 0xaa, 0x7a, 0x20, 0x00, 0x00, 0x5c, 0x29,
   0xa5, 0x72, 0x04, 0x00 0x00, 0x3c, 0x55, 0x2a, 0x75, 0x00, 0x00, 0x00,
   0x5c, 0xa5, 0xa4, 0x74, 0x00, 0x00, 0x20, 0xbc, 0x94, 0x4a, 0x75, 0x00,
   0x00, 0x08, 0x5c, 0xa9, 0x52, 0x7a, 0x40, 0x00, 0x00, 0x3c, 0x25, 0x95,
   0x72, 0x02, 0x00, 0x00, 0x5c, 0xa9, 0xa4, 0x74, 0x00, 0x00, 0x00, 0xbe,
   0x2a, 0xab, 0x7a, 0x00, 0x00, 0x00, 0x5c, 0x52, 0x95, 0x72, 0x10, 0x00
   0x80, 0xbc, 0x94, 0x53, 0x7a, 0x00, 0x01, 0x10, 0x9c, 0xaa, 0x95, 0x72,
   0x02, 0x00, 0x00, 0xbc, 0x52, 0xa5, 0x7c, 0x00, 0x00, 0x00, 0x5c, 0x8a,
   0x55, 0x71, 0x00, 0x00, 0x00, 0xbc, 0x32, 0x93, 0x76, 0x40, 0x00, 0x00,
   0x5c, 0xca, 0x55, 0x74, 0x10, 0x00, 0x88, 0xbc, 0x14, 0xa5, 0x75, 0x04,
   0x00, 0x00, 0x5c, 0x65, 0x2b, 0x7a, 0x00, 0x00 0x00, 0x3c, 0x49, 0x55,
   0x79, 0x00, 0x00, 0x00, 0x5c, 0x55, 0xa3, 0x72, 0x00, 0x00, 0x00, 0xbc,
   0x94, 0x4d, 0x7a, 0x00, 0x00, 0x10, 0x5d, 0xa5, 0xa9, 0x72, 0x82, 0x00,
   0x00, 0x3c, 0x29, 0x4b, 0x7a, 0x20, 0x00, 0x00, 0x5c, 0x4a, 0x53, 0x75,
   0x00, 0x00, 0x00, 0xbc, 0x52, 0x95, 0x74, 0x00, 0x00, 0x20, 0x5c, 0x55,
   0xab, 0x7a, 0x00, 0x00 0x08, 0x3c, 0xa9, 0x25, 0x71, 0x08, 0x00, 0x00,
   0x5c, 0x4a, 0x55, 0x7d, 0x00, 0x00, 0x00, 0xbe, 0x92, 0xa5, 0x72, 0x00,
   0x00, 0x00, 0x5c, 0x55, 0x2b, 0x75, 0x40, 0x00, 0x00, 0x3c, 0xa9, 0x49,
   0x7a, 0x02, 0x00, 0x00, 0x5c, 0x4a, 0x53, 0x71, 0x00, 0x00, 0x10, 0xbd,
   0x52, 0x55, 0x76, 0x00, 0x00, 0x00, 0x5c, 0x95, 0x95, 0x74, 0x20, 0x00
   0x00, 0x5c, 0x2a, 0x53, 0x75, 0x08, 0x00, 0x00, 0xbc, 0x64, 0xad, 0x7a,
   0x00, 0x00, 0x20, 0x5c, 0xf5, 0x2f, 0x79, 0x00, 0x00, 0x08, 0x3c, 0xc9,
   0x57, 0x72, 0x02, 0x00, 0x00, 0x5c, 0xd5, 0x4b, 0x75, 0x00, 0x00, 0x00,
   0xbc, 0x24, 0x55, 0x75, 0x80, 0x00, 0x00, 0x5e, 0x55, 0x49, 0x7a, 0x00,
   0x00, 0x00, 0x3c, 0x49, 0x95, 0x74, 0x10, 0x00 0x80, 0x5c, 0x2a, 0xa5,
   0x7a, 0x04, 0x00, 0x10, 0xbc, 0x52, 0xa9, 0x72, 0x00, 0x00, 0x00, 0x5c,
   0x95, 0x2a, 0x75, 0x00, 0x00, 0x00, 0x5c, 0xaa, 0xa4, 0x74, 0x00, 0x00,
   0x00, 0xbc, 0x24, 0x55, 0x75, 0x00, 0x01, 0x00, 0x5c, 0x49, 0x49, 0x7a,
   0x42, 0x00, 0x88, 0x3c, 0x55, 0xaa, 0x74, 0x00, 0x00, 0x00, 0x5c, 0x95,
   0x92, 0x7a, 0x00, 0x00 0x00, 0xbc, 0xa4, 0xaa, 0x74, 0x00, 0x00, 0x00,
   0x5c, 0xa9, 0x94, 0x72, 0x08, 0x00, 0x00, 0x3c, 0x95, 0x52, 0x75, 0x00,
   0x00, 0x10, 0xfd, 0xff, 0xff, 0x7f, 0x80, 0x00, 0x00, 0xfc, 0xff, 0xff,
   0x7f, 0x00, 0x00, 0x00, 0xfc, 0xff, 0xff, 0x7f, 0x02, 0x00, 0x00, 0x00,
   0x80, 0x03, 0x00, 0x20, 0x00, 0x20, 0x00, 0x80, 0x03, 0x00, 0x00, 0x00
   0x08, 0x04, 0x80, 0x03, 0x00, 0x00, 0x00, 0x00, 0x00, 0x80, 0x03, 0x80,
   0x00, 0x00, 0x00, 0x40, 0x84, 0x03, 0x10, 0x08, 0x01};
