#define catt_0n_width 105
#define catt_0n_height 60
static char catt_0n_bits[] = {
   0x00, 0x00, 0x00, 0x00, 0x00, 0x00, 0x00, 0x00, 0x00, 0x00, 0x00, 0x00,
   0x00, 0x00, 0x00, 0x00, 0x00, 0x00, 0x00, 0x00, 0x00, 0x00, 0x00, 0x00,
   0x00, 0x00, 0x00, 0x00, 0x7c, 0x00, 0x00, 0x00, 0x00, 0x00, 0x00, 0x00,
   0x00, 0x00, 0x00, 0x00, 0x00, 0x00, 0xfc, 0x1f, 0x00, 0x00, 0x00, 0x00,
   0x00, 0x00, 0x00, 0x00, 0x00, 0x00, 0x00, 0x00, 0x8c, 0xff, 0x07, 0x00,
   0x00, 0x00, 0x00, 0x00, 0x00, 0x00, 0x00, 0x00, 0x00, 0x00, 0x0c, 0xe6,
   0xff, 0x01, 0x00, 0x00, 0x00, 0x00, 0x00, 0x00, 0x00, 0x00, 0x00, 0x00,
   0x0c, 0x06, 0xf8, 0x7f, 0x00, 0x00, 0x00, 0x00, 0x00, 0x00, 0x00, 0x00,
   0x00, 0x00, 0x0c, 0x86, 0x61, 0xfe, 0x1f, 0x00, 0x00, 0x00, 0x00, 0x00,
   0x00, 0x00, 0x00, 0x00 0x0c, 0x86, 0x61, 0x80, 0xff, 0x07, 0x00, 0x00,
   0x00, 0x00, 0x00, 0x00, 0x00, 0x00, 0x0c, 0x86, 0x61, 0x18, 0xe6, 0xff,
   0x01, 0x00, 0x00, 0x00, 0x00, 0x00, 0x00, 0x00, 0x0c, 0x86, 0x61, 0x18,
   0x06, 0xf8, 0x7f, 0x00, 0x00, 0x00, 0x00, 0x00, 0x00, 0x00, 0x0c, 0x86,
   0x61, 0x18, 0x86, 0x61, 0xfe, 0x1f, 0x00, 0x00, 0x00, 0x00, 0x00, 0x00,
   0x0c, 0x86, 0x61, 0x18, 0x86, 0x61, 0x80, 0xff, 0x07, 0x00, 0x00, 0x00,
   0x00, 0x00, 0x0c, 0x86, 0x61, 0x18, 0x86, 0x61, 0x18, 0xe6, 0xff, 0x01,
   0x00, 0x00, 0x00, 0x00, 0x0c, 0x86, 0x61, 0x18, 0x86, 0x61, 0x18, 0x06,
   0xf8, 0x7f, 0x00, 0x00, 0x00, 0x00, 0x0c, 0x86, 0x61, 0x18, 0x86, 0x61,
   0x18, 0x86, 0x61, 0xfe, 0x1f, 0x00, 0x00, 0x00 0x0c, 0x86, 0x61, 0x18,
   0x86, 0x61, 0x18, 0x86, 0x61, 0x80, 0xff, 0x07, 0x00, 0x00, 0x0c, 0x86,
   0x61, 0x18, 0x86, 0x61, 0x18, 0x86, 0x61, 0x18, 0xe6, 0xff, 0x01, 0x00,
   0x0c, 0x86, 0x61, 0x18, 0x86, 0x61, 0x18, 0x86, 0x61, 0x18, 0x06, 0xf8,
   0x3f, 0x00, 0x0c, 0x86, 0x61, 0x18, 0x86, 0x61, 0x18, 0x86, 0x61, 0x18,
   0x86, 0x61, 0x3e, 0x00, 0x0c, 0x86, 0x61, 0x18, 0x86, 0x61, 0x18, 0x86,
   0x61, 0x18, 0x86, 0x61, 0x30, 0x00, 0x0c, 0x86, 0x61, 0x18, 0x86, 0x61,
   0x18, 0x86, 0x61, 0x18, 0x86, 0x61, 0x30, 0x00, 0x0c, 0x86, 0x61, 0x18,
   0x86, 0x61, 0x18, 0x86, 0x61, 0x18, 0x86, 0x61, 0x30, 0x00, 0x0c, 0x86,
   0x61, 0x18, 0x86, 0x61, 0x18, 0x86, 0x61, 0x18, 0x86, 0x61, 0x30, 0x00
   0x0c, 0x86, 0x61, 0x18, 0x86, 0x61, 0x18, 0x86, 0x61, 0x18, 0x86, 0x61,
   0x30, 0x00, 0x0c, 0x86, 0x61, 0x18, 0x86, 0x61, 0x18, 0x86, 0x61, 0x18,
   0x86, 0x61, 0x30, 0x00, 0x0c, 0x80, 0x01, 0x18, 0x80, 0x01, 0x18, 0x80,
   0x01, 0x18, 0x80, 0x01, 0x30, 0x00, 0xec, 0xff, 0xff, 0xff, 0xff, 0xff,
   0xff, 0xff, 0xff, 0xff, 0xff, 0xff, 0x37, 0x00, 0xec, 0xff, 0xff, 0xff,
   0xff, 0xff, 0xff, 0xff, 0xff, 0xff, 0xff, 0xff, 0x37, 0x00, 0xec, 0xff,
   0xff, 0xff, 0xff, 0xff, 0xff, 0xff, 0xff, 0xff, 0xff, 0xff, 0x37, 0x00,
   0xec, 0xff, 0xff, 0xff, 0xff, 0xff, 0xff, 0xff, 0xff, 0xff, 0xff, 0xff,
   0x37, 0x00, 0xec, 0xff, 0xff, 0xff, 0xff, 0xff, 0xff, 0xff, 0xff, 0xff,
   0xff, 0xff, 0x37, 0x00 0x0c, 0x80, 0x01, 0x18, 0x80, 0x01, 0x18, 0x80,
   0x01, 0x18, 0x80, 0x01, 0x30, 0x00, 0x0c, 0x86, 0x61, 0x18, 0x86, 0x61,
   0x18, 0x86, 0x61, 0x18, 0x86, 0x61, 0x30, 0x00, 0x0c, 0x86, 0x61, 0x18,
   0x86, 0x61, 0x18, 0x86, 0x61, 0x18, 0x86, 0x61, 0x30, 0x00, 0x0c, 0x86,
   0x61, 0x18, 0x86, 0x61, 0x18, 0x86, 0x61, 0x18, 0x86, 0x61, 0x30, 0x00,
   0x0c, 0x86, 0x61, 0x18, 0x86, 0x61, 0x18, 0x86, 0x61, 0x18, 0x86, 0x61,
   0x30, 0x00, 0x0c, 0x86, 0x61, 0x18, 0x86, 0x61, 0x18, 0x86, 0x61, 0x18,
   0x86, 0x61, 0x30, 0x00, 0x0c, 0x86, 0x61, 0x18, 0x86, 0x61, 0x18, 0x86,
   0x61, 0x18, 0x86, 0x61, 0x30, 0x00, 0x0c, 0x86, 0x61, 0x18, 0x86, 0x61,
   0x18, 0x86, 0x61, 0x18, 0x86, 0x61, 0x3e, 0x00 0x0c, 0x86, 0x61, 0x18,
   0x86, 0x61, 0x18, 0x86, 0x61, 0x18, 0x06, 0xf8, 0x3f, 0x00, 0x0c, 0x86,
   0x61, 0x18, 0x86, 0x61, 0x18, 0x86, 0x61, 0x18, 0xe6, 0xff, 0x01, 0x00,
   0x0c, 0x86, 0x61, 0x18, 0x86, 0x61, 0x18, 0x86, 0x61, 0x80, 0xff, 0x07,
   0x00, 0x00, 0x0c, 0x86, 0x61, 0x18, 0x86, 0x61, 0x18, 0x86, 0x61, 0xfe,
   0x1f, 0x00, 0x00, 0x00, 0x0c, 0x86, 0x61, 0x18, 0x86, 0x61, 0x18, 0x06,
   0xf8, 0x7f, 0x00, 0x00, 0x00, 0x00, 0x0c, 0x86, 0x61, 0x18, 0x86, 0x61,
   0x18, 0xe6, 0xff, 0x01, 0x00, 0x00, 0x00, 0x00, 0x0c, 0x86, 0x61, 0x18,
   0x86, 0x61, 0x80, 0xff, 0x07, 0x00, 0x00, 0x00, 0x00, 0x00, 0x0c, 0x86,
   0x61, 0x18, 0x86, 0x61, 0xfe, 0x1f, 0x00, 0x00, 0x00, 0x00, 0x00, 0x00
   0x0c, 0x86, 0x61, 0x18, 0x06, 0xf8, 0x7f, 0x00, 0x00, 0x00, 0x00, 0x00,
   0x00, 0x00, 0x0c, 0x86, 0x61, 0x18, 0xe6, 0xff, 0x01, 0x00, 0x00, 0x00,
   0x00, 0x00, 0x00, 0x00, 0x0c, 0x86, 0x61, 0x80, 0xff, 0x07, 0x00, 0x00,
   0x00, 0x00, 0x00, 0x00, 0x00, 0x00, 0x0c, 0x86, 0x61, 0xfe, 0x1f, 0x00,
   0x00, 0x00, 0x00, 0x00, 0x00, 0x00, 0x00, 0x00, 0x0c, 0x06, 0xf8, 0x7f,
   0x00, 0x00, 0x00, 0x00, 0x00, 0x00, 0x00, 0x00, 0x00, 0x00, 0x0c, 0xe6,
   0xff, 0x01, 0x00, 0x00, 0x00, 0x00, 0x00, 0x00, 0x00, 0x00, 0x00, 0x00,
   0x8c, 0xff, 0x07, 0x00, 0x00, 0x00, 0x00, 0x00, 0x00, 0x00, 0x00, 0x00,
   0x00, 0x00, 0xfc, 0x1f, 0x00, 0x00, 0x00, 0x00, 0x00, 0x00, 0x00, 0x00,
   0x00, 0x00, 0x00, 0x00 0x7c, 0x00, 0x00, 0x00, 0x00, 0x00, 0x00, 0x00,
   0x00, 0x00, 0x00, 0x00, 0x00, 0x00, 0x00, 0x00, 0x00, 0x00, 0x00, 0x00,
   0x00, 0x00, 0x00, 0x00, 0x00, 0x00, 0x00, 0x00, 0x00, 0x00, 0x00, 0x00,
   0x00, 0x00, 0x00, 0x00, 0x00, 0x00, 0x00, 0x00, 0x00, 0x00, 0x00, 0x00,
   0x00, 0x00, 0x00, 0x00, 0x00, 0x00, 0x00, 0x00, 0x00, 0x00, 0x00, 0x00};
