#define cndn_1n_width 100
#define cndn_1n_height 54
static char cndn_1n_bits[] = {
   0x00, 0x00, 0x00, 0x00, 0x00, 0x00, 0x00, 0x00, 0x00, 0x00, 0x00, 0x00,
   0x00, 0x00, 0x00, 0x00, 0x00, 0x00, 0x00, 0x00, 0x00, 0x00, 0x00, 0x00,
   0x00, 0x00, 0x48, 0x92, 0x24, 0xa9, 0x24, 0x49, 0x92, 0x24, 0x49, 0x92,
   0x24, 0x49, 0x02, 0x00, 0x00, 0x00, 0xf6, 0xfc, 0x03, 0x00, 0x00, 0x00,
   0x00, 0x00, 0x00, 0x00, 0x00, 0x00, 0x00, 0x63, 0x61, 0x05, 0x00, 0x00,
   0x00, 0x80, 0x00, 0x01, 0x00, 0x24, 0x49, 0x12, 0xe2, 0x79, 0x25, 0x49,
   0x92, 0x24, 0xe9, 0x7e, 0xcd, 0x01, 0x00, 0x00, 0x80, 0x6d, 0x66, 0x05,
   0x00, 0x00, 0x00, 0x90, 0xd3, 0x6d, 0x00, 0x00, 0x00, 0x00, 0xe3, 0x7d,
   0x8d, 0x01, 0x00, 0x00, 0xd0, 0x72, 0x4d, 0x04 0x24, 0x49, 0x12, 0x00,
   0x80, 0x80, 0x25, 0x49, 0x92, 0x94, 0x4a, 0xed, 0x00, 0x00, 0x00, 0x80,
   0x24, 0x11, 0xa0, 0x01, 0x00, 0x00, 0xe0, 0x7a, 0x6d, 0x00, 0x00, 0x00,
   0x00, 0x00, 0x00, 0x82, 0x01, 0x00, 0x00, 0x00, 0x10, 0x02, 0x02, 0x24,
   0x49, 0x92, 0xff, 0xff, 0xff, 0xff, 0xff, 0xff, 0xff, 0x83, 0x90, 0x00,
   0x00, 0x00, 0x80, 0xff, 0xff, 0xff, 0xff, 0xff, 0xff, 0xff, 0x01, 0x00,
   0x00, 0x00, 0x00, 0x70, 0x00, 0x00, 0x80, 0x01, 0x00, 0x00, 0x00, 0x26,
   0x00, 0x00, 0x24, 0x49, 0x0e, 0x00, 0x00, 0xc0, 0x03, 0x00, 0x00, 0x00,
   0x08, 0x92, 0x04, 0x00, 0x00, 0x0c, 0x00, 0x00, 0xc0, 0x03, 0x00, 0x00,
   0x00, 0x88, 0x00, 0x00 0xe0, 0xff, 0xff, 0x0f, 0x00, 0x80, 0x01, 0x00,
   0x00, 0x00, 0x28, 0x00, 0x00, 0xa4, 0xaa, 0xaa, 0x0a, 0x00, 0x80, 0x01,
   0x00, 0x00, 0x00, 0x08, 0x48, 0x02, 0x00, 0x00, 0x03, 0x08, 0x00, 0x00,
   0x00, 0x00, 0x00, 0x00, 0x30, 0x02, 0x00, 0x20, 0x00, 0x03, 0x08, 0x00,
   0x00, 0x00, 0x00, 0x00, 0x00, 0xb0, 0x00, 0x00, 0x04, 0x49, 0x03, 0x00,
   0x00, 0x00, 0x00, 0x00, 0x00, 0x00, 0x30, 0x20, 0x01, 0x00, 0xc0, 0x00,
   0x08, 0x00, 0x00, 0x00, 0x00, 0x00, 0xc0, 0xc1, 0x00, 0x00, 0x20, 0xc0,
   0x00, 0x58, 0x00, 0x00, 0x00, 0x00, 0x00, 0xfc, 0xff, 0xff, 0x04, 0x04,
   0xc9, 0x00, 0x70, 0x00, 0x00, 0x00, 0x00, 0x00, 0xfc, 0xff, 0xff, 0x00
   0x00, 0xc0, 0x00, 0x28, 0x00, 0x00, 0x00, 0x00, 0x00, 0xc0, 0xc1, 0x84,
   0x00, 0x10, 0xe0, 0x00, 0xf0, 0x00, 0x00, 0x00, 0x00, 0x00, 0x00, 0xc0,
   0x21, 0x00, 0x84, 0xc4, 0x00, 0x07, 0x00, 0x00, 0x00, 0x00, 0x00, 0x00,
   0xc0, 0x00, 0x04, 0x00, 0xc0, 0x00, 0x0d, 0x00, 0x00, 0x00, 0x00, 0x00,
   0x00, 0xc0, 0x00, 0x01, 0x00, 0xd0, 0x00, 0x05, 0x00, 0x00, 0x00, 0x00,
   0x00, 0x00, 0xc0, 0x24, 0x00, 0x48, 0xc2, 0x00, 0x0f, 0x00, 0x00, 0x00,
   0x00, 0x00, 0x00, 0xc0, 0x00, 0x00, 0x00, 0xc0, 0x80, 0x04, 0x00, 0x00,
   0x00, 0x00, 0x00, 0x60, 0xc0, 0x01, 0x01, 0x04, 0xc8, 0x00, 0x08, 0x00,
   0x00, 0x00, 0x00, 0x00, 0xfc, 0xff, 0xff, 0x01 0x20, 0x01, 0x03, 0x00,
   0x00, 0x00, 0x00, 0x00, 0x00, 0xfc, 0xff, 0xff, 0x01, 0x00, 0x20, 0x03,
   0x08, 0x00, 0x00, 0x00, 0x00, 0x00, 0x60, 0x30, 0x20, 0x04, 0x04, 0x04,
   0x03, 0x08, 0x00, 0x00, 0x00, 0x00, 0x00, 0x00, 0x70, 0x04, 0x01, 0xe0,
   0xfb, 0xff, 0x0b, 0x00, 0x00, 0x00, 0x00, 0x00, 0x00, 0x30, 0x00, 0x00,
   0x00, 0x00, 0x0c, 0x00, 0x00, 0x00, 0x00, 0x00, 0x00, 0x00, 0x08, 0x21,
   0x00, 0x04, 0x00, 0x0c, 0x00, 0x00, 0x00, 0x00, 0x00, 0x00, 0x00, 0x18,
   0x08, 0x02, 0x20, 0x09, 0x70, 0x00, 0x80, 0x48, 0xa9, 0xaa, 0xaa, 0xaa,
   0x86, 0x00, 0x00, 0x00, 0x80, 0x70, 0xd6, 0xda, 0xaa, 0x0b, 0x89, 0x88,
   0x8c, 0x07, 0x40, 0x00 0x04, 0x20, 0x70, 0x29, 0x25, 0x12, 0x53, 0xa9,
   0xaa, 0x22, 0x16, 0x12, 0x02, 0x20, 0x09, 0x74, 0x41, 0x88, 0x44, 0x27,
   0x09, 0x22, 0x54, 0x87, 0x00, 0x00, 0x00, 0x00, 0x70, 0x56, 0x6b, 0x32,
   0x4b, 0x6a, 0x4d, 0x23, 0x06, 0x00, 0x00, 0x04, 0x80, 0x80, 0xff, 0xff,
   0xff, 0xff, 0xff, 0xff, 0xff, 0x11, 0x88, 0x04, 0x20, 0x09, 0x24, 0x00,
   0x00, 0x00, 0x03, 0x00, 0x00, 0x00, 0x02, 0x01, 0x00, 0x00, 0x00, 0x00,
   0x00, 0x00, 0x84, 0x97, 0x04, 0x00, 0x48, 0x40, 0x20, 0x00, 0x04, 0x20,
   0x81, 0x24, 0x42, 0xa0, 0x07, 0x40, 0x22, 0x01, 0x10, 0x08, 0x01, 0x20,
   0x09, 0x08, 0x00, 0x10, 0x00, 0x03, 0x10, 0x00, 0x00, 0x02, 0x00, 0x00
   0x00, 0x00, 0x00, 0x80, 0x00, 0x82, 0x4b, 0x02, 0x18, 0x24, 0x40, 0x02,
   0x04, 0x04, 0x40, 0x22, 0x09, 0x84, 0x10, 0xc0, 0x4c, 0x5e, 0xc5, 0xfe,
   0x21, 0x01, 0x20, 0x09, 0x00, 0x40, 0x00, 0x00, 0x20, 0xd3, 0xb2, 0x6c,
   0xd2, 0x02, 0x00, 0x00, 0x00, 0x00, 0x10, 0x10, 0x84, 0x24, 0xd2, 0xf2,
   0x4c, 0xdc, 0x0b, 0x00, 0x04, 0x20, 0x49, 0x02, 0x02, 0x21, 0x60, 0xf7,
   0x32, 0xac, 0xf3, 0x42, 0x02, 0x20, 0x09, 0x00, 0x00, 0x40, 0x00, 0xd0,
   0xcc, 0xdc, 0x6d, 0xde, 0x03, 0x00};
