#define cndn_0n_width 100
#define cndn_0n_height 54
static char cndn_0n_bits[] = {
   0x00, 0x00, 0x00, 0x00, 0x00, 0x00, 0x00, 0x00, 0x00, 0x00, 0x00, 0x00,
   0x00, 0x00, 0x00, 0x00, 0x00, 0x00, 0x00, 0x00, 0x00, 0x00, 0x00, 0x00,
   0x00, 0x00, 0x48, 0x92, 0x24, 0x49, 0x92, 0x24, 0x49, 0x26, 0x49, 0x92,
   0x24, 0x49, 0x02, 0x00, 0x00, 0x00, 0x00, 0x00, 0x00, 0xc0, 0x9e, 0x7f,
   0x00, 0x00, 0x00, 0x00, 0x20, 0x40, 0x00, 0x00, 0x00, 0x00, 0x60, 0x2c,
   0xac, 0x00, 0x00, 0x00, 0x00, 0xbc, 0x7f, 0xb5, 0x24, 0x49, 0x92, 0x44,
   0x3c, 0xaf, 0x24, 0x49, 0x92, 0x04, 0xe4, 0x52, 0x1b, 0x00, 0x00, 0x00,
   0xa0, 0xcd, 0xac, 0x00, 0x00, 0x00, 0x00, 0xa4, 0x5c, 0x53, 0x00, 0x00,
   0x60, 0x70, 0xbc, 0xaf, 0x01, 0x00, 0x00, 0x00 0xb4, 0x52, 0x2b, 0x24,
   0x49, 0x72, 0x02, 0x00, 0x10, 0x48, 0x92, 0x24, 0x01, 0xbc, 0xde, 0x1b,
   0x01, 0x00, 0x60, 0x80, 0x24, 0x02, 0x00, 0x00, 0x00, 0x00, 0x00, 0x10,
   0x48, 0x00, 0x00, 0x60, 0x08, 0x00, 0x40, 0x02, 0x00, 0x00, 0x04, 0x00,
   0x01, 0x00, 0x90, 0x24, 0x69, 0x01, 0x80, 0x08, 0x20, 0x49, 0x92, 0x00,
   0x20, 0x08, 0xf9, 0xff, 0xff, 0xff, 0xff, 0xff, 0xff, 0x1f, 0x00, 0x00,
   0x00, 0x04, 0x40, 0xf8, 0xff, 0xff, 0xff, 0xff, 0xff, 0xff, 0x1f, 0x00,
   0x00, 0x02, 0x00, 0x01, 0x06, 0x00, 0x00, 0x60, 0x00, 0x00, 0x00, 0xe0,
   0x49, 0x92, 0x00, 0x10, 0x08, 0x01, 0x00, 0x00, 0x60, 0x00, 0x00, 0x00,
   0x00, 0x03, 0x00, 0x00 0x04, 0x82, 0x01, 0x00, 0x00, 0xf0, 0x00, 0x00,
   0x00, 0x00, 0x03, 0x00, 0x00, 0x40, 0x00, 0x0f, 0x00, 0x00, 0xf0, 0x00,
   0x00, 0x00, 0xff, 0xff, 0x7f, 0x02, 0xf0, 0xff, 0x7f, 0x00, 0x00, 0x60,
   0x00, 0x00, 0x00, 0x55, 0x55, 0x5b, 0x00, 0xf4, 0xff, 0x7f, 0x00, 0x00,
   0x60, 0x00, 0x00, 0x00, 0x01, 0x0c, 0x00, 0x00, 0x00, 0xc0, 0x0e, 0x00,
   0x00, 0x60, 0x00, 0x00, 0x00, 0x01, 0x0c, 0x00, 0x01, 0x00, 0xd1, 0x00,
   0x00, 0x00, 0x00, 0x00, 0x00, 0x00, 0x01, 0x4c, 0x22, 0x00, 0x24, 0x30,
   0x00, 0x00, 0x00, 0x00, 0x00, 0x00, 0x00, 0x00, 0x30, 0x00, 0x04, 0x00,
   0x34, 0x00, 0x00, 0x00, 0x00, 0x00, 0x00, 0xe0, 0x01, 0x30, 0x08, 0x01
   0x80, 0x30, 0x00, 0x00, 0x00, 0x00, 0x00, 0x00, 0x60, 0x01, 0x30, 0x41,
   0x00, 0x24, 0x30, 0x00, 0x00, 0x00, 0x00, 0x00, 0x00, 0xa0, 0x00, 0x30,
   0x00, 0x00, 0x00, 0x30, 0x00, 0x00, 0x00, 0x00, 0x00, 0x00, 0x78, 0x00,
   0x30, 0x08, 0x00, 0x00, 0x32, 0x00, 0x00, 0x00, 0x00, 0x00, 0x00, 0x00,
   0x0f, 0xb0, 0x80, 0x04, 0x24, 0x30, 0x00, 0x00, 0x00, 0x00, 0x00, 0x00,
   0x00, 0x05, 0x30, 0x04, 0x00, 0x00, 0x34, 0x00, 0x00, 0x00, 0x00, 0x00,
   0x00, 0x00, 0x0b, 0x30, 0x20, 0x00, 0x80, 0x30, 0x00, 0x00, 0x00, 0x00,
   0x00, 0x00, 0x00, 0x0e, 0x30, 0x01, 0x01, 0x24, 0x30, 0x0c, 0x00, 0x00,
   0x00, 0x00, 0x00, 0x00, 0x0a, 0x30, 0x00, 0x00 0xf0, 0xff, 0x7f, 0x00,
   0x00, 0x00, 0x00, 0x00, 0x00, 0x01, 0x30, 0x24, 0x04, 0xf0, 0xff, 0x7f,
   0x00, 0x00, 0x00, 0x00, 0x00, 0x00, 0x01, 0x8c, 0x00, 0x01, 0x04, 0xd0,
   0x0c, 0x00, 0x00, 0x00, 0x00, 0x00, 0x00, 0x00, 0x0c, 0x00, 0x00, 0x00,
   0xc1, 0x00, 0x00, 0x00, 0x00, 0x00, 0x00, 0x00, 0x01, 0x0c, 0x24, 0x00,
   0x10, 0xc0, 0x00, 0x00, 0x00, 0x00, 0x00, 0x00, 0x00, 0xfb, 0xfe, 0x5f,
   0x02, 0x04, 0x24, 0x01, 0x00, 0x00, 0x00, 0x00, 0x00, 0x00, 0x00, 0x03,
   0x00, 0x00, 0x80, 0x00, 0x01, 0x00, 0x00, 0x00, 0x00, 0x00, 0x00, 0x00,
   0x03, 0x80, 0x00, 0x00, 0x80, 0xae, 0x92, 0x92, 0x24, 0x91, 0x48, 0x29,
   0xe0, 0x00, 0x00, 0x00 0x48, 0x24, 0x46, 0xac, 0xcc, 0x68, 0xa6, 0xaa,
   0x8c, 0xed, 0x40, 0x24, 0x02, 0x00, 0x00, 0x2e, 0x83, 0x22, 0xeb, 0x29,
   0x12, 0xa1, 0xf2, 0x10, 0x00, 0x00, 0x04, 0x01, 0x46, 0x98, 0x48, 0x64,
   0x48, 0x49, 0x4a, 0xe8, 0x04, 0x02, 0x00, 0x40, 0x48, 0xae, 0x22, 0x55,
   0x72, 0x45, 0xa5, 0x34, 0xe3, 0x00, 0x20, 0x01, 0x10, 0x00, 0xf8, 0xff,
   0xff, 0xff, 0xff, 0xff, 0xff, 0x1f, 0x40, 0x08, 0x08, 0x04, 0x00, 0x01,
   0x00, 0x00, 0x60, 0x00, 0x00, 0x00, 0x80, 0x08, 0x02, 0x00, 0x00, 0x12,
   0x14, 0x88, 0x10, 0xf1, 0x00, 0x80, 0x00, 0x08, 0x00, 0x80, 0x00, 0xb0,
   0x13, 0x97, 0xb1, 0x7f, 0xf8, 0x24, 0x09, 0x24, 0x01, 0x42, 0x20, 0x04
   0xc8, 0xb4, 0x2e, 0x1b, 0xf4, 0x60, 0x00, 0x40, 0x00, 0x20, 0x10, 0x04,
   0x00, 0xac, 0xb4, 0x3c, 0x53, 0xff, 0x60, 0x01, 0x00, 0x00, 0x08, 0x01,
   0x00, 0x00, 0xc8, 0xf4, 0x0c, 0xbb, 0x34, 0x62, 0x48, 0x12, 0x92, 0x00,
   0x80, 0x20, 0x01, 0x30, 0x33, 0x77, 0x9f, 0xf7, 0x10, 0x00, 0x80, 0x00,
   0x40, 0x08, 0x04, 0x00, 0x04, 0x04, 0x10, 0x00, 0x00, 0x80, 0x00, 0x00,
   0x00, 0x12, 0x00, 0x00, 0x04, 0x40, 0x20, 0x01, 0x00, 0x89, 0x04, 0x24,
   0x09, 0x24, 0x00, 0x22, 0x21, 0x01};
