#define coln_1w_width 74
#define coln_1w_height 50
static char coln_1w_bits[] = {
   0x00, 0xcc, 0x00, 0x00, 0xcc, 0x00, 0x00, 0xcc, 0x00, 0x00, 0x00, 0xcc,
   0x00, 0x00, 0xcc, 0x00, 0x00, 0xcc, 0x00, 0x00, 0x00, 0xcc, 0x00, 0x00,
   0xcc, 0x00, 0x00, 0xcc, 0x00, 0x00, 0x00, 0xcc, 0x00, 0x00, 0xcc, 0x00,
   0x00, 0xcc, 0x00, 0x00, 0x00, 0xcc, 0x00, 0x00, 0xcc, 0x00, 0x00, 0xcc,
   0x00, 0x00, 0x20, 0xcc, 0x20, 0x22, 0xcc, 0x20, 0x22, 0xcc, 0x20, 0x00,
   0x00, 0xce, 0x00, 0x00, 0xce, 0x00, 0x00, 0xce, 0x00, 0x00, 0x00, 0xcf,
   0xff, 0xff, 0xcf, 0xff, 0xff, 0xcf, 0x03, 0x00 0x80, 0xcf, 0xff, 0xff,
   0xcf, 0xff, 0xff, 0xcf, 0x07, 0x01, 0xc8, 0xcf, 0xff, 0xff, 0xcf, 0xff,
   0xff, 0xcf, 0x1f, 0x00, 0xe0, 0x01, 0x00, 0x00, 0x00, 0x00, 0x00, 0x00,
   0x1e, 0x00, 0xf0, 0x00, 0x00, 0x00, 0x00, 0x00, 0x00, 0x00, 0x3c, 0x00,
   0x78, 0x00, 0x00, 0x00, 0x00, 0x00, 0x00, 0x00, 0x78, 0x00, 0x38, 0x00,
   0x00, 0x00, 0x00, 0x00, 0x00, 0x00, 0x70, 0x00, 0x1c, 0x00, 0x00, 0x00,
   0x00, 0x00, 0x00, 0x00, 0xe0, 0x00, 0x1c, 0x00, 0x00, 0x00, 0x00, 0x00,
   0x00, 0x00, 0xe0, 0x00 0x0e, 0x00, 0x00, 0x00, 0x00, 0x00, 0x00, 0x00,
   0xc0, 0x01, 0x0e, 0x00, 0x00, 0x00, 0x00, 0x00, 0x00, 0x00, 0xc0, 0x01,
   0x07, 0x00, 0x00, 0x00, 0x00, 0x00, 0x00, 0x00, 0x80, 0x03, 0x07, 0x00,
   0x00, 0x00, 0x00, 0x00, 0x00, 0x00, 0x80, 0x03, 0x07, 0x00, 0x00, 0x00,
   0x00, 0x00, 0x00, 0x00, 0x80, 0x03, 0x07, 0x80, 0x87, 0x80, 0x80, 0x07,
   0x40, 0x00, 0x80, 0x03, 0x07, 0x40, 0x88, 0x80, 0x40, 0x08, 0x40, 0x00,
   0x80, 0x03, 0x07, 0x20, 0x90, 0x80, 0x20, 0x10, 0x40, 0x00, 0x80, 0x03
   0x07, 0x20, 0x90, 0xb8, 0x20, 0x80, 0x47, 0x1a, 0x80, 0x03, 0x07, 0x20,
   0x90, 0xc4, 0x20, 0x40, 0x48, 0x26, 0x80, 0x03, 0x07, 0x20, 0x90, 0x84,
   0x20, 0x40, 0x48, 0x22, 0x80, 0x03, 0x07, 0x20, 0x90, 0x84, 0x20, 0x40,
   0x48, 0x22, 0x80, 0x03, 0x07, 0x20, 0x90, 0x84, 0x20, 0x50, 0x48, 0x22,
   0x80, 0x03, 0x07, 0x40, 0x88, 0xc4, 0x40, 0x48, 0x48, 0x22, 0x80, 0x03,
   0x07, 0x80, 0x87, 0xb8, 0x80, 0x87, 0x47, 0x22, 0x80, 0x03, 0x07, 0x00,
   0x00, 0x00, 0x00, 0x00, 0x00, 0x00, 0x80, 0x03 0x0e, 0x00, 0x00, 0x00,
   0x00, 0x00, 0x00, 0x00, 0xc0, 0x01, 0x0e, 0x00, 0x00, 0x00, 0x00, 0x00,
   0x00, 0x00, 0xc0, 0x01, 0x1c, 0x00, 0x00, 0x00, 0x00, 0x00, 0x00, 0x00,
   0xe0, 0x00, 0x1c, 0x00, 0x00, 0x00, 0x00, 0x00, 0x00, 0x00, 0xe0, 0x00,
   0x38, 0x00, 0x00, 0x00, 0x00, 0x00, 0x00, 0x00, 0x70, 0x00, 0x78, 0x00,
   0x00, 0x00, 0x00, 0x00, 0x00, 0x00, 0x78, 0x00, 0xf0, 0x00, 0x00, 0x00,
   0x00, 0x00, 0x00, 0x00, 0x3c, 0x00, 0xe0, 0x01, 0x00, 0x00, 0x00, 0x00,
   0x00, 0x00, 0x1e, 0x00 0xc0, 0xcf, 0xff, 0xff, 0xcf, 0xff, 0xff, 0xcf,
   0x0f, 0x00, 0x80, 0xcf, 0xff, 0xff, 0xcf, 0xff, 0xff, 0xcf, 0x07, 0x00,
   0x10, 0xcf, 0xff, 0xff, 0xcf, 0xff, 0xff, 0xcf, 0x03, 0x00, 0x00, 0xcc,
   0x00, 0x00, 0xcc, 0x00, 0x00, 0xcc, 0x80, 0x00, 0x00, 0xcc, 0x00, 0x00,
   0xcc, 0x00, 0x00, 0xcc, 0x00, 0x00, 0x00, 0xcc, 0x00, 0x00, 0xcc, 0x00,
   0x00, 0xcc, 0x00, 0x00, 0x40, 0xcc, 0x00, 0x00, 0xcc, 0x00, 0x00, 0xcc,
   0x20, 0x00, 0x08, 0xcc, 0x88, 0x10, 0xcc, 0x00, 0x01, 0xcc, 0x00, 0x00
   0x00, 0xcc, 0x00, 0x00, 0xcc, 0x10, 0x20, 0xcc, 0x00, 0x00, 0x00, 0xcc,
   0x00, 0x00, 0xcd, 0x00, 0x00, 0xce, 0x08, 0x00};
