#define coln_1s_width 50
#define coln_1s_height 74
static char coln_1s_bits[] = {
   0x00, 0x00, 0xfc, 0xff, 0x00, 0x00, 0x00, 0x00, 0x00, 0xff, 0xff, 0x03,
   0x00, 0x00, 0x00, 0xc0, 0xff, 0xff, 0x0f, 0x00, 0x00, 0x00, 0xf0, 0x03,
   0x00, 0x3f, 0x00, 0x00, 0x00, 0xf8, 0x00, 0x00, 0x7c, 0x00, 0x00, 0x20,
   0x3e, 0x00, 0x00, 0xf0, 0x44, 0x00, 0x00, 0x1e, 0x00, 0x00, 0xe0, 0x01,
   0x00, 0x00, 0x0f, 0x00, 0x00, 0xc0, 0x03, 0x00 0x80, 0x07, 0x00, 0x00,
   0x80, 0x07, 0x00, 0x88, 0x03, 0x00, 0x00, 0x00, 0x07, 0x00, 0xff, 0x03,
   0x00, 0x00, 0x00, 0xff, 0x03, 0xff, 0x03, 0x00, 0x00, 0x00, 0xff, 0x03,
   0x00, 0x00, 0x00, 0x00, 0x00, 0x00, 0x00, 0x00, 0x00, 0x00, 0x00, 0x00,
   0x00, 0x00, 0xff, 0x03, 0x00, 0x00, 0x00, 0xff, 0x03, 0xff, 0x03, 0x00,
   0x00, 0x00, 0xff, 0x03 0x80, 0x03, 0x00, 0x00, 0x00, 0x07, 0x00, 0x80,
   0x03, 0x00, 0x00, 0x00, 0x87, 0x00, 0x80, 0x03, 0x00, 0x00, 0x00, 0x07,
   0x00, 0x80, 0x03, 0x00, 0x00, 0x00, 0x07, 0x00, 0xa0, 0x03, 0x00, 0x00,
   0x00, 0x07, 0x00, 0x80, 0x03, 0x00, 0x00, 0x00, 0x27, 0x00, 0x80, 0x03,
   0x00, 0x00, 0x00, 0x07, 0x00, 0x80, 0x03, 0x1e, 0x02, 0x02, 0x07, 0x00
   0x88, 0x03, 0x21, 0x02, 0x02, 0x07, 0x00, 0x80, 0x83, 0x40, 0x02, 0x02,
   0x07, 0x01, 0x80, 0x83, 0x40, 0xe2, 0x02, 0x47, 0x00, 0x80, 0x83, 0x40,
   0x12, 0x03, 0x07, 0x00, 0xc0, 0x83, 0x40, 0x12, 0x02, 0x07, 0x00, 0x90,
   0x83, 0x40, 0x12, 0x02, 0x07, 0x00, 0x80, 0x83, 0x40, 0x12, 0x02, 0x07,
   0x00, 0x80, 0x03, 0x21, 0x12, 0x03, 0x07, 0x00 0x80, 0x03, 0x1e, 0xe2,
   0x02, 0x47, 0x00, 0x80, 0x03, 0x00, 0x00, 0x00, 0x07, 0x00, 0xff, 0x03,
   0x00, 0x00, 0x00, 0xff, 0x03, 0xff, 0x03, 0x00, 0x00, 0x00, 0xff, 0x03,
   0x00, 0x00, 0x00, 0x00, 0x00, 0x00, 0x00, 0x00, 0x00, 0x00, 0x00, 0x00,
   0x00, 0x00, 0xff, 0x03, 0x00, 0x00, 0x00, 0xff, 0x03, 0xff, 0x03, 0x1e,
   0x00, 0x01, 0xff, 0x03 0x80, 0x03, 0x21, 0x00, 0x01, 0x07, 0x00, 0x80,
   0x83, 0x40, 0x00, 0x01, 0x07, 0x00, 0x80, 0x83, 0x00, 0x1e, 0x69, 0x07,
   0x00, 0xa0, 0x83, 0x00, 0x21, 0x99, 0x07, 0x00, 0x80, 0x83, 0x00, 0x21,
   0x89, 0x87, 0x00, 0x80, 0x83, 0x00, 0x21, 0x89, 0x07, 0x00, 0x80, 0x83,
   0x40, 0x21, 0x89, 0x07, 0x00, 0x90, 0x03, 0x21, 0x21, 0x89, 0x07, 0x00
   0x80, 0x03, 0x1e, 0x1e, 0x89, 0x07, 0x00, 0x80, 0x03, 0x00, 0x00, 0x00,
   0x87, 0x00, 0x80, 0x03, 0x00, 0x00, 0x00, 0x07, 0x00, 0x90, 0x03, 0x00,
   0x00, 0x00, 0x07, 0x00, 0x80, 0x03, 0x00, 0x00, 0x00, 0x07, 0x00, 0x80,
   0x03, 0x00, 0x00, 0x00, 0x07, 0x00, 0x80, 0x03, 0x00, 0x00, 0x00, 0x07,
   0x00, 0xa0, 0x03, 0x00, 0x00, 0x00, 0x87, 0x00 0x88, 0x03, 0x00, 0x00,
   0x00, 0x07, 0x00, 0x80, 0x03, 0x00, 0x00, 0x00, 0x07, 0x00, 0xff, 0x03,
   0x00, 0x00, 0x00, 0xff, 0x03, 0xff, 0x03, 0x00, 0x00, 0x00, 0xff, 0x03,
   0x00, 0x00, 0x00, 0x00, 0x00, 0x00, 0x00, 0x00, 0x00, 0x00, 0x00, 0x00,
   0x00, 0x00, 0xff, 0x03, 0x00, 0x00, 0x00, 0xff, 0x03, 0xff, 0x03, 0x00,
   0x00, 0x00, 0xff, 0x03 0x80, 0x03, 0x00, 0x00, 0x00, 0x07, 0x00, 0x80,
   0x07, 0x00, 0x00, 0x80, 0x07, 0x00, 0x00, 0x0f, 0x00, 0x00, 0xc0, 0x03,
   0x00, 0x00, 0x1e, 0x00, 0x00, 0xe0, 0x01, 0x00, 0x40, 0x3c, 0x00, 0x00,
   0xf0, 0x00, 0x00, 0x10, 0xf8, 0x00, 0x00, 0x7c, 0x00, 0x00, 0x00, 0xf0,
   0x03, 0x00, 0x3f, 0x80, 0x00, 0x00, 0xc0, 0xff, 0xff, 0x0f, 0x00, 0x00
   0x00, 0x08, 0xff, 0xff, 0x03, 0x00, 0x00, 0x00, 0x02, 0xfc, 0xff, 0x00,
   0x10, 0x00};
