#define colt_1n_width 50
#define colt_1n_height 74
static char colt_1n_bits[] = {
   0x00, 0x00, 0xfc, 0xff, 0x00, 0x00, 0x00, 0x00, 0x00, 0xff, 0xff, 0x03,
   0x00, 0x00, 0x00, 0xc0, 0xff, 0xff, 0x0f, 0x00, 0x00, 0x00, 0xf0, 0x03,
   0x00, 0x3f, 0x00, 0x00, 0x00, 0xf8, 0x00, 0x00, 0x7c, 0x00, 0x00, 0x20,
   0x3e, 0x00, 0x00, 0xf0, 0x44, 0x00, 0x00, 0x1e, 0x00, 0x00, 0xe0, 0x01,
   0x00, 0x00, 0x0f, 0x00, 0x00, 0xc0, 0x03, 0x00 0x80, 0x07, 0x00, 0x00,
   0x80, 0x07, 0x00, 0x88, 0x03, 0x00, 0x00, 0x00, 0x07, 0x00, 0xff, 0x03,
   0x00, 0x00, 0x00, 0xff, 0x03, 0xff, 0x03, 0x00, 0x00, 0x00, 0xff, 0x03,
   0x00, 0x00, 0x00, 0x00, 0x00, 0x00, 0x00, 0x00, 0x00, 0x00, 0x00, 0x00,
   0x00, 0x00, 0xff, 0x03, 0x00, 0x00, 0x00, 0xff, 0x03, 0xff, 0x03, 0x00,
   0x00, 0x00, 0xff, 0x03 0x80, 0x03, 0x00, 0x00, 0x00, 0x07, 0x00, 0x80,
   0x03, 0x00, 0x00, 0x00, 0x87, 0x00, 0x80, 0x03, 0x00, 0x00, 0x00, 0x07,
   0x00, 0x80, 0x03, 0x00, 0x00, 0x00, 0x07, 0x00, 0xa0, 0x03, 0x00, 0x00,
   0x00, 0x07, 0x00, 0x80, 0x03, 0x00, 0x00, 0x00, 0x27, 0x00, 0x80, 0x03,
   0x00, 0x00, 0x00, 0x07, 0x00, 0x80, 0x03, 0x00, 0x00, 0x00, 0x07, 0x00
   0x88, 0x03, 0x00, 0x00, 0x00, 0x07, 0x00, 0x80, 0x03, 0x00, 0x00, 0x00,
   0x07, 0x01, 0x80, 0x03, 0x00, 0x00, 0x00, 0x47, 0x00, 0x80, 0x03, 0x00,
   0x00, 0x00, 0x07, 0x00, 0xc0, 0x03, 0x00, 0x00, 0x00, 0x07, 0x00, 0x90,
   0x03, 0x00, 0x00, 0x00, 0x07, 0x00, 0x80, 0x03, 0x00, 0x00, 0x00, 0x07,
   0x00, 0x80, 0x03, 0x00, 0x00, 0x00, 0x07, 0x00 0x80, 0x03, 0x00, 0x00,
   0x00, 0x47, 0x00, 0x80, 0x03, 0x00, 0x00, 0x00, 0x07, 0x00, 0xff, 0x03,
   0x00, 0x00, 0x00, 0xff, 0x03, 0xff, 0x03, 0x00, 0x00, 0x00, 0xff, 0x03,
   0x00, 0x00, 0x00, 0x00, 0x00, 0x00, 0x00, 0x00, 0x00, 0x00, 0x00, 0x00,
   0x00, 0x00, 0xff, 0x03, 0x00, 0x00, 0x00, 0xff, 0x03, 0xff, 0x03, 0x00,
   0x00, 0x00, 0xff, 0x03 0x80, 0x03, 0x00, 0x00, 0x00, 0x07, 0x00, 0x80,
   0x03, 0x00, 0x00, 0x00, 0x07, 0x00, 0x80, 0x03, 0x00, 0x00, 0x00, 0x07,
   0x00, 0xa0, 0x03, 0x00, 0x00, 0x00, 0x87, 0x00, 0x80, 0x03, 0x00, 0x00,
   0x00, 0x07, 0x00, 0x80, 0x03, 0x00, 0x00, 0x00, 0x07, 0x00, 0x80, 0x03,
   0x00, 0x00, 0x00, 0x07, 0x00, 0x90, 0x03, 0x00, 0x00, 0x00, 0x27, 0x00
   0x80, 0x03, 0x00, 0x00, 0x00, 0x07, 0x00, 0x80, 0x03, 0x00, 0x00, 0x00,
   0x07, 0x00, 0x80, 0x03, 0x00, 0x00, 0x00, 0x07, 0x00, 0x90, 0x03, 0x00,
   0x00, 0x00, 0x87, 0x00, 0x80, 0x03, 0x00, 0x00, 0x00, 0x07, 0x00, 0x80,
   0x03, 0x00, 0x00, 0x00, 0x27, 0x00, 0x80, 0x03, 0x00, 0x00, 0x00, 0x07,
   0x00, 0xa0, 0x03, 0x00, 0x00, 0x00, 0x07, 0x00 0x88, 0x03, 0x00, 0x00,
   0x00, 0x07, 0x00, 0x80, 0x03, 0x00, 0x00, 0x00, 0x07, 0x00, 0xff, 0x03,
   0x00, 0x00, 0x00, 0xff, 0x03, 0xff, 0x03, 0x00, 0x00, 0x00, 0xff, 0x03,
   0x00, 0x00, 0x00, 0x00, 0x00, 0x00, 0x00, 0x00, 0x00, 0x00, 0x00, 0x00,
   0x00, 0x00, 0xff, 0x03, 0x00, 0x00, 0x00, 0xff, 0x03, 0xff, 0x03, 0x00,
   0x00, 0x00, 0xff, 0x03 0x80, 0x03, 0x00, 0x00, 0x00, 0x07, 0x00, 0x80,
   0x07, 0x00, 0x00, 0x80, 0x07, 0x00, 0x00, 0x0f, 0x00, 0x00, 0xc0, 0x43,
   0x00, 0x00, 0x1e, 0x00, 0x00, 0xe0, 0x01, 0x00, 0x40, 0x3c, 0x00, 0x00,
   0xf0, 0x10, 0x00, 0x10, 0xf8, 0x00, 0x00, 0x7c, 0x00, 0x00, 0x00, 0xf0,
   0x03, 0x00, 0x3f, 0x00, 0x00, 0x00, 0xc0, 0xff, 0xff, 0x0f, 0x02, 0x00
   0x00, 0x08, 0xff, 0xff, 0x03, 0x80, 0x00, 0x00, 0x02, 0xfc, 0xff, 0x40,
   0x00, 0x00};
