#define cpom_1e_width 50
#define cpom_1e_height 50
static char cpom_1e_bits[] = {
   0x00, 0x00, 0x00, 0x00, 0x00, 0x00, 0x00, 0x00, 0x00, 0xe0, 0x3f, 0x00,
   0x00, 0x00, 0x00, 0x00, 0xfe, 0xff, 0x03, 0x00, 0x00, 0x00, 0x80, 0xff,
   0xff, 0x0f, 0x00, 0x00, 0x00, 0xe0, 0x1f, 0xc0, 0x3f, 0x00, 0x00, 0x20,
   0xfa, 0x01, 0x00, 0xfc, 0x22, 0x00, 0x00, 0x7c, 0x00, 0x00, 0xf0, 0x01,
   0x00, 0x00, 0x1e, 0x00, 0x00, 0xc0, 0x03, 0x00 0x00, 0x0f, 0x00, 0x00,
   0x80, 0x07, 0x00, 0x88, 0x07, 0x00, 0x00, 0x00, 0x8f, 0x00, 0xc0, 0x03,
   0x00, 0x00, 0x00, 0x1e, 0x00, 0xe0, 0x01, 0x00, 0x00, 0x00, 0x3c, 0x00,
   0xe0, 0x30, 0x00, 0x00, 0x00, 0x38, 0x00, 0x70, 0xc0, 0x03, 0x00, 0x00,
   0x70, 0x00, 0x70, 0x80, 0xcc, 0x1f, 0x00, 0x70, 0x01, 0x38, 0x80, 0xc8,
   0x1f, 0x00, 0xe0, 0x00 0x38, 0x80, 0xc8, 0x1f, 0x00, 0xe0, 0x00, 0x1c,
   0x80, 0xc8, 0x1f, 0x00, 0xc0, 0x01, 0x1c, 0x00, 0xc7, 0x1f, 0x00, 0xc0,
   0x01, 0x1c, 0xe0, 0xc0, 0x1f, 0x00, 0xc0, 0x01, 0x1c, 0x10, 0xc3, 0x1f,
   0x00, 0xc0, 0x01, 0x0e, 0x10, 0xc2, 0x1f, 0x00, 0x80, 0x03, 0x0e, 0x30,
   0xc2, 0x1f, 0x00, 0x80, 0x03, 0x0e, 0xc0, 0xc1, 0x1f, 0x00, 0x80, 0x03
   0x0e, 0x00, 0xc0, 0x1f, 0x00, 0x80, 0x03, 0x0e, 0xf0, 0xc3, 0x1f, 0x00,
   0x80, 0x03, 0x0e, 0x60, 0xc0, 0x1f, 0x00, 0x80, 0x03, 0x0e, 0x80, 0xc1,
   0x1f, 0x00, 0x80, 0x03, 0x0e, 0xf0, 0xc2, 0x1f, 0x00, 0x80, 0x03, 0x0e,
   0x60, 0xfc, 0xff, 0x01, 0x80, 0x03, 0x1c, 0x80, 0xfc, 0xff, 0x01, 0xc0,
   0x01, 0x1c, 0x00, 0xfb, 0xff, 0x00, 0xc0, 0x01 0x1c, 0xe0, 0xf0, 0x7f,
   0x00, 0xc0, 0x01, 0x1c, 0x90, 0xe1, 0x3f, 0x00, 0xc0, 0x01, 0x38, 0x90,
   0xc2, 0x1f, 0x00, 0xe0, 0x00, 0x38, 0xa0, 0x80, 0x0f, 0x00, 0xe0, 0x00,
   0x70, 0x80, 0x01, 0x07, 0x00, 0x70, 0x00, 0x70, 0x00, 0x00, 0x02, 0x00,
   0x70, 0x00, 0xe0, 0x70, 0x00, 0x00, 0x00, 0x38, 0x00, 0xe0, 0x81, 0x03,
   0x00, 0x00, 0x3c, 0x00 0xd0, 0x03, 0x01, 0x00, 0x00, 0x1e, 0x00, 0x80,
   0x07, 0x02, 0x00, 0x00, 0x0f, 0x00, 0x00, 0x0f, 0x00, 0x00, 0x80, 0x07,
   0x01, 0x00, 0x1e, 0x00, 0x00, 0xc0, 0x03, 0x00, 0x00, 0x7c, 0x00, 0x00,
   0xf0, 0x01, 0x00, 0x48, 0xf8, 0x01, 0x00, 0xfc, 0x40, 0x00, 0x00, 0xe0,
   0x1f, 0xc0, 0x3f, 0x00, 0x00, 0x00, 0x84, 0xff, 0xff, 0x0f, 0x00, 0x00
   0x00, 0x00, 0xfe, 0xff, 0x03, 0x08, 0x00, 0x00, 0x00, 0xe0, 0x3f, 0x00,
   0x00, 0x00};
