#define cpom_1w_width 50
#define cpom_1w_height 50
static char cpom_1w_bits[] = {
   0x00, 0x00, 0xf0, 0x1f, 0x00, 0x00, 0x00, 0x00, 0x00, 0xff, 0xff, 0x01,
   0x00, 0x00, 0x00, 0xc0, 0xff, 0xff, 0x07, 0x00, 0x00, 0x00, 0xf0, 0x0f,
   0xe0, 0x1f, 0x00, 0x00, 0x00, 0xfc, 0x00, 0x00, 0x7e, 0x00, 0x00, 0x20,
   0x3e, 0x00, 0x00, 0xf8, 0x22, 0x00, 0x00, 0x0f, 0x00, 0x00, 0xe0, 0x01,
   0x00, 0x80, 0x07, 0x00, 0x00, 0xc0, 0x03, 0x00 0xc0, 0x03, 0x00, 0x00,
   0x81, 0x07, 0x00, 0xe8, 0x01, 0x00, 0x00, 0x02, 0x8f, 0x00, 0xf0, 0x00,
   0x00, 0x00, 0x07, 0x1e, 0x00, 0x70, 0x00, 0x00, 0x00, 0x38, 0x1c, 0x00,
   0x38, 0x00, 0x00, 0x01, 0x00, 0x38, 0x00, 0x38, 0x00, 0x80, 0x03, 0x06,
   0x38, 0x00, 0x1c, 0x00, 0xc0, 0x07, 0x15, 0x70, 0x01, 0x1c, 0x00, 0xe0,
   0x0f, 0x25, 0x70, 0x00 0x0e, 0x00, 0xf0, 0x1f, 0x26, 0xe0, 0x00, 0x0e,
   0x00, 0xf8, 0x3f, 0x14, 0xe0, 0x00, 0x0e, 0x00, 0xfc, 0x7f, 0x03, 0xe0,
   0x00, 0x0e, 0x00, 0xfe, 0xff, 0x04, 0xe0, 0x00, 0x07, 0x00, 0xfe, 0xff,
   0x18, 0xc0, 0x01, 0x07, 0x00, 0xe0, 0x0f, 0x2f, 0xc0, 0x01, 0x07, 0x00,
   0xe0, 0x0f, 0x02, 0xc0, 0x01, 0x07, 0x00, 0xe0, 0x0f, 0x18, 0xc0, 0x01
   0x07, 0x00, 0xe0, 0x0f, 0x3f, 0xc0, 0x01, 0x07, 0x00, 0xe0, 0x0f, 0x00,
   0xc0, 0x01, 0x07, 0x00, 0xe0, 0x0f, 0x0e, 0xc0, 0x01, 0x07, 0x00, 0xe0,
   0x0f, 0x31, 0xc0, 0x01, 0x07, 0x00, 0xe0, 0x0f, 0x21, 0xc0, 0x01, 0x0e,
   0x00, 0xe0, 0x0f, 0x23, 0xe0, 0x00, 0x0e, 0x00, 0xe0, 0x0f, 0x0c, 0xe0,
   0x00, 0x0e, 0x00, 0xe0, 0x8f, 0x03, 0xe0, 0x00 0x0e, 0x00, 0xe0, 0x4f,
   0x04, 0xe0, 0x00, 0x1c, 0x00, 0xe0, 0x4f, 0x04, 0x70, 0x00, 0x1c, 0x00,
   0xe0, 0x4f, 0x04, 0x70, 0x00, 0x38, 0x00, 0xe0, 0xcf, 0x04, 0x38, 0x00,
   0x38, 0x00, 0x00, 0x00, 0x07, 0x38, 0x00, 0x70, 0x00, 0x00, 0x00, 0x30,
   0x1c, 0x00, 0xf0, 0x00, 0x00, 0x00, 0x00, 0x1e, 0x00, 0xe0, 0x01, 0x00,
   0x00, 0x00, 0x0f, 0x00 0xc0, 0x03, 0x00, 0x00, 0x80, 0x07, 0x00, 0x80,
   0x07, 0x00, 0x00, 0xc0, 0x03, 0x00, 0x10, 0x0f, 0x00, 0x00, 0xe0, 0x01,
   0x00, 0x00, 0x3e, 0x00, 0x00, 0xf8, 0x00, 0x00, 0x00, 0xfc, 0x00, 0x00,
   0x7e, 0x00, 0x00, 0x00, 0xf0, 0x0f, 0xe0, 0x1f, 0x00, 0x01, 0x10, 0xc1,
   0xff, 0xff, 0x07, 0x00, 0x00, 0x00, 0x00, 0xff, 0xff, 0x01, 0x40, 0x00
   0x00, 0x00, 0xf0, 0x1f, 0x00, 0x00, 0x00, 0x00, 0x10, 0x00, 0x00, 0x00,
   0x08, 0x00};
