#define cpom_1s_width 50
#define cpom_1s_height 50
static char cpom_1s_bits[] = {
   0x00, 0x00, 0x00, 0x00, 0x00, 0x00, 0x00, 0x00, 0x00, 0xf0, 0x1f, 0x00,
   0x00, 0x00, 0x00, 0x00, 0xff, 0xff, 0x01, 0x00, 0x00, 0x00, 0xc0, 0xff,
   0xff, 0x07, 0x00, 0x00, 0x00, 0xf0, 0x0f, 0xe0, 0x1f, 0x00, 0x00, 0x20,
   0xfe, 0x00, 0x00, 0x7e, 0x11, 0x01, 0x00, 0x3e, 0x00, 0x00, 0xf8, 0x00,
   0x00, 0x00, 0x0f, 0x00, 0x00, 0xe0, 0x01, 0x00 0x80, 0x07, 0x00, 0x00,
   0xc0, 0x03, 0x00, 0xc8, 0x03, 0x00, 0x00, 0x80, 0x07, 0x00, 0xe0, 0x01,
   0x00, 0x00, 0x00, 0x2f, 0x00, 0xf0, 0x00, 0x00, 0x00, 0x00, 0x1e, 0x00,
   0x70, 0x00, 0x00, 0x00, 0x00, 0x1c, 0x00, 0x38, 0x00, 0x00, 0x00, 0x00,
   0x38, 0x00, 0x38, 0x00, 0x00, 0x00, 0x00, 0x38, 0x01, 0x1c, 0x00, 0x00,
   0x00, 0x00, 0x70, 0x00 0x1c, 0x00, 0x00, 0x00, 0x00, 0x70, 0x00, 0x0e,
   0x00, 0x00, 0x00, 0x00, 0xe0, 0x00, 0x0e, 0x00, 0x18, 0x00, 0x00, 0xe0,
   0x00, 0x0e, 0x00, 0x1c, 0x00, 0x00, 0xe0, 0x00, 0x0e, 0x00, 0x1e, 0x00,
   0x00, 0xe0, 0x00, 0x07, 0x00, 0x1f, 0x00, 0x00, 0xc0, 0x01, 0x07, 0x80,
   0xff, 0xff, 0x0f, 0xc0, 0x01, 0x07, 0xc0, 0xff, 0xff, 0x0f, 0xc0, 0x01
   0x07, 0xe0, 0xff, 0xff, 0x0f, 0xc0, 0x01, 0x07, 0xf0, 0xff, 0xff, 0x0f,
   0xc0, 0x01, 0x07, 0xe0, 0xff, 0xff, 0x0f, 0xc0, 0x01, 0x07, 0xc0, 0xff,
   0xff, 0x0f, 0xc0, 0x01, 0x07, 0x80, 0xff, 0xff, 0x0f, 0xc0, 0x01, 0x07,
   0x00, 0x1f, 0x00, 0x00, 0xc0, 0x01, 0x0e, 0x00, 0x1e, 0x00, 0x00, 0xe0,
   0x00, 0x0e, 0x00, 0x1c, 0x00, 0x00, 0xe0, 0x00 0x0e, 0xe0, 0x19, 0x00,
   0x00, 0xe0, 0x00, 0x0e, 0x20, 0x02, 0x00, 0x00, 0xe0, 0x00, 0x1c, 0x10,
   0x3a, 0x49, 0x46, 0x71, 0x00, 0x1c, 0x10, 0x4a, 0x4d, 0xc9, 0x70, 0x00,
   0x38, 0xf0, 0x45, 0xad, 0x4f, 0x38, 0x00, 0x38, 0x10, 0x44, 0x9b, 0x20,
   0x38, 0x00, 0x70, 0x08, 0x24, 0x9b, 0x24, 0x1c, 0x00, 0xf0, 0x08, 0x38,
   0x01, 0x23, 0x1e, 0x00 0xe0, 0x01, 0x00, 0x00, 0x00, 0x0f, 0x01, 0xc0,
   0x03, 0x00, 0x00, 0x80, 0x07, 0x00, 0x80, 0x07, 0x00, 0x00, 0xc0, 0x03,
   0x00, 0x10, 0x0f, 0x00, 0x00, 0xe0, 0x01, 0x00, 0x00, 0x3e, 0x00, 0x00,
   0xf8, 0x00, 0x00, 0x00, 0xfc, 0x00, 0x00, 0x7e, 0x80, 0x00, 0x00, 0xf0,
   0x0f, 0xe0, 0x1f, 0x00, 0x00, 0x10, 0xc1, 0xff, 0xff, 0x07, 0x00, 0x00
   0x00, 0x00, 0xff, 0xff, 0x01, 0x00, 0x00, 0x00, 0x00, 0xf0, 0x1f, 0x00,
   0x20, 0x00};
