#define damp_0w_width 70
#define damp_0w_height 50
static char damp_0w_bits[] = {
   0x00, 0x00, 0x00, 0x00, 0x1c, 0x00, 0x00, 0x00, 0x00, 0x00, 0x00, 0x00,
   0x00, 0x1c, 0x00, 0x00, 0x00, 0x00, 0x00, 0x00, 0x00, 0x00, 0x1c, 0x00,
   0x00, 0x00, 0x00, 0x00, 0x00, 0x00, 0x00, 0x1c, 0x00, 0x00, 0x00, 0x00,
   0x00, 0x00, 0x00, 0x00, 0x1c, 0x00, 0x00, 0x00, 0x00, 0x00, 0x00, 0x00,
   0x00, 0x1c, 0x00, 0x00, 0x00, 0x00, 0x00, 0x00, 0xff, 0xff, 0xff, 0xff,
   0x7f, 0x00, 0x00, 0x00, 0x00, 0xff, 0xff, 0xff, 0xff, 0x7f, 0x00, 0x00
   0x00, 0x00, 0xff, 0xff, 0xff, 0xff, 0x7f, 0x00, 0x00, 0x00, 0x00, 0x07,
   0x00, 0x00, 0x00, 0x70, 0x00, 0x00, 0x00, 0x00, 0x07, 0x00, 0x00, 0x00,
   0x70, 0x00, 0x00, 0x00, 0x00, 0x07, 0x00, 0x00, 0x00, 0x70, 0x00, 0x00,
   0x00, 0x00, 0x07, 0x00, 0x00, 0x00, 0x70, 0x00, 0x00, 0x00, 0x00, 0x87,
   0x01, 0x00, 0x00, 0x70, 0x00, 0x00, 0x00, 0x00, 0x87, 0x03, 0x00, 0x00,
   0x70, 0x00, 0x00, 0x00, 0x00, 0x07, 0x07, 0x00, 0x00, 0x70, 0x00, 0x00
   0x00, 0x00, 0x07, 0x0e, 0x00, 0x00, 0x70, 0x00, 0x00, 0x00, 0x00, 0x07,
   0x1c, 0x00, 0x00, 0x70, 0x00, 0x00, 0x00, 0x00, 0x07, 0x38, 0x00, 0x00,
   0x70, 0x00, 0x00, 0x00, 0x00, 0x07, 0x70, 0x00, 0x00, 0x70, 0x00, 0x00,
   0x00, 0x00, 0x07, 0xe0, 0x3e, 0x00, 0x70, 0x00, 0x00, 0x00, 0x00, 0x07,
   0xc0, 0x7f, 0x00, 0x70, 0x00, 0x00, 0x00, 0x00, 0x07, 0x80, 0xff, 0x00,
   0x70, 0x00, 0x00, 0x00, 0x00, 0x07, 0xc0, 0xff, 0x01, 0x70, 0x00, 0x00
   0x00, 0x00, 0x07, 0xc0, 0xff, 0x01, 0x70, 0x00, 0x00, 0x00, 0x00, 0x07,
   0xc0, 0xff, 0x01, 0x70, 0x00, 0x00, 0x00, 0x00, 0x07, 0xc0, 0xff, 0x01,
   0x70, 0x00, 0x00, 0x00, 0x00, 0x07, 0xc0, 0xff, 0x01, 0x70, 0x00, 0x00,
   0x00, 0x00, 0x07, 0x80, 0xff, 0x00, 0x70, 0x00, 0x00, 0x00, 0x00, 0x07,
   0x00, 0xff, 0x01, 0x70, 0x00, 0x00, 0x00, 0x00, 0x07, 0x00, 0xbe, 0x03,
   0x70, 0x00, 0x00, 0x00, 0x00, 0x07, 0x00, 0x00, 0x07, 0x70, 0x00, 0x00
   0x00, 0x00, 0x07, 0x00, 0x00, 0x0e, 0x70, 0x00, 0x00, 0x00, 0x00, 0x07,
   0x00, 0x00, 0x1c, 0x70, 0x00, 0x00, 0x00, 0x00, 0x07, 0x00, 0x00, 0x38,
   0x70, 0x00, 0x00, 0x00, 0x00, 0x07, 0x00, 0x00, 0x70, 0x70, 0x00, 0x00,
   0x00, 0x00, 0x07, 0x00, 0x00, 0xe0, 0x70, 0x00, 0x00, 0x00, 0x00, 0x07,
   0x00, 0x00, 0xc0, 0x70, 0x00, 0x00, 0x00, 0x00, 0x07, 0x00, 0x00, 0x00,
   0x70, 0x00, 0x00, 0x00, 0x00, 0x07, 0x00, 0x00, 0x00, 0x70, 0x00, 0x00
   0x00, 0x00, 0x07, 0x00, 0x00, 0x00, 0x70, 0x00, 0x00, 0x00, 0x00, 0x07,
   0x00, 0x00, 0x00, 0x70, 0x00, 0x00, 0x00, 0x00, 0xff, 0xff, 0xff, 0xff,
   0x7f, 0x00, 0x00, 0x00, 0x00, 0xff, 0xff, 0xff, 0xff, 0x7f, 0x00, 0x00,
   0x00, 0x00, 0xff, 0xff, 0xff, 0xff, 0x7f, 0x00, 0x00, 0x00, 0x00, 0x00,
   0x00, 0x1c, 0x00, 0x00, 0x00, 0x00, 0x00, 0x00, 0x00, 0x00, 0x1c, 0x00,
   0x00, 0x00, 0x00, 0x00, 0x00, 0x00, 0x00, 0x1c, 0x00, 0x00, 0x00, 0x00
   0x00, 0x00, 0x00, 0x00, 0x1c, 0x00, 0x00, 0x00, 0x00, 0x00, 0x00, 0x00,
   0x00, 0x1c, 0x00, 0x00, 0x00, 0x00};
