#define damp_0n_width 50
#define damp_0n_height 70
static char damp_0n_bits[] = {
   0x00, 0x00, 0x00, 0x00, 0x00, 0x00, 0x00, 0x00, 0x00, 0x00, 0x00, 0x00,
   0x00, 0x00, 0x00, 0x00, 0x00, 0x00, 0x00, 0x00, 0x00, 0x00, 0x00, 0x00,
   0x00, 0x00, 0x00, 0x00, 0x00, 0x00, 0x00, 0x00, 0x00, 0x00, 0x00, 0x00,
   0x00, 0x00, 0x00, 0x00, 0x00, 0x00, 0x00, 0x00, 0x00, 0x00, 0x00, 0x00,
   0x00, 0x00, 0x00, 0x00, 0x00, 0x00, 0x00, 0x00 0x00, 0x00, 0x00, 0x00,
   0x00, 0x00, 0x00, 0x00, 0x00, 0x00, 0x00, 0x00, 0x00, 0x00, 0x00, 0x00,
   0x00, 0x00, 0x00, 0x00, 0x00, 0x00, 0x00, 0x00, 0x00, 0x00, 0x00, 0x00,
   0x00, 0x00, 0x00, 0x00, 0x00, 0x00, 0x00, 0x00, 0x00, 0x00, 0x00, 0x00,
   0x00, 0x00, 0x00, 0x00, 0x00, 0x00, 0x00, 0x00, 0x00, 0x00, 0x00, 0x00,
   0x00, 0x00, 0x00, 0x00 0xe0, 0xff, 0xff, 0xff, 0xff, 0x0f, 0x00, 0xe0,
   0xff, 0xff, 0xff, 0xff, 0x0f, 0x00, 0xe0, 0xff, 0xff, 0xff, 0xff, 0x0f,
   0x00, 0xe0, 0x00, 0x00, 0x00, 0x00, 0x0e, 0x00, 0xe0, 0x00, 0x00, 0x00,
   0x00, 0x0e, 0x00, 0xe0, 0x00, 0x00, 0x00, 0x00, 0x0e, 0x00, 0xe0, 0x00,
   0x00, 0x00, 0x00, 0x0e, 0x00, 0xe0, 0x00, 0x00, 0x00, 0x18, 0x0e, 0x00
   0xe0, 0x00, 0x00, 0x00, 0x1c, 0x0e, 0x00, 0xe0, 0x00, 0x00, 0x00, 0x0e,
   0x0e, 0x00, 0xe0, 0x00, 0x00, 0x00, 0x07, 0x0e, 0x00, 0xe0, 0x00, 0x00,
   0x80, 0x03, 0x0e, 0x00, 0xe0, 0x00, 0x00, 0xc0, 0x01, 0x0e, 0x00, 0xe0,
   0x00, 0x00, 0xe0, 0x00, 0x0e, 0x00, 0xe0, 0x00, 0xc0, 0x77, 0x00, 0x0e,
   0x00, 0xe0, 0x00, 0xe0, 0x3f, 0x00, 0x0e, 0x00 0xe0, 0x00, 0xf0, 0x1f,
   0x00, 0x0e, 0x00, 0xe0, 0x00, 0xf8, 0x3f, 0x00, 0x0e, 0x00, 0xff, 0x00,
   0xf8, 0x3f, 0x00, 0xfe, 0x03, 0xff, 0x00, 0xf8, 0x3f, 0x00, 0xfe, 0x03,
   0xff, 0x00, 0xf8, 0x3f, 0x00, 0xfe, 0x03, 0xe0, 0x00, 0xf8, 0x3f, 0x00,
   0x0e, 0x00, 0xe0, 0x00, 0xf0, 0x1f, 0x00, 0x0e, 0x00, 0xe0, 0x00, 0xf8,
   0x0f, 0x00, 0x0e, 0x00 0xe0, 0x00, 0xdc, 0x07, 0x00, 0x0e, 0x00, 0xe0,
   0x00, 0x0e, 0x00, 0x00, 0x0e, 0x00, 0xe0, 0x00, 0x07, 0x00, 0x00, 0x0e,
   0x00, 0xe0, 0x80, 0x03, 0x00, 0x00, 0x0e, 0x00, 0xe0, 0xc0, 0x01, 0x00,
   0x00, 0x0e, 0x00, 0xe0, 0xe0, 0x00, 0x00, 0x00, 0x0e, 0x00, 0xe0, 0x70,
   0x00, 0x00, 0x00, 0x0e, 0x00, 0xe0, 0x30, 0x00, 0x00, 0x00, 0x0e, 0x00
   0xe0, 0x00, 0x00, 0x00, 0x00, 0x0e, 0x00, 0xe0, 0x00, 0x00, 0x00, 0x00,
   0x0e, 0x00, 0xe0, 0x00, 0x00, 0x00, 0x00, 0x0e, 0x00, 0xe0, 0x00, 0x00,
   0x00, 0x00, 0x0e, 0x00, 0xe0, 0xff, 0xff, 0xff, 0xff, 0x0f, 0x00, 0xe0,
   0xff, 0xff, 0xff, 0xff, 0x0f, 0x00, 0xe0, 0xff, 0xff, 0xff, 0xff, 0x0f,
   0x00, 0x00, 0x00, 0x00, 0x00, 0x00, 0x00, 0x00 0x00, 0x00, 0x00, 0x00,
   0x00, 0x00, 0x00, 0x00, 0x00, 0x00, 0x00, 0x00, 0x00, 0x00, 0x00, 0x00,
   0x00, 0x00, 0x00, 0x00, 0x00, 0x00, 0x00, 0x00, 0x00, 0x00, 0x00, 0x00,
   0x00, 0x00, 0x00, 0x00, 0x00, 0x00, 0x00, 0x00, 0x00, 0x00, 0x00, 0x00,
   0x00, 0x00, 0x00, 0x00, 0x00, 0x00, 0x00, 0x00, 0x00, 0x00, 0x00, 0x00,
   0x00, 0x00, 0x00, 0x00 0x00, 0x00, 0x00, 0x00, 0x00, 0x00, 0x00, 0x00,
   0x00, 0x00, 0x00, 0x00, 0x00, 0x00, 0x00, 0x00, 0x00, 0x00, 0x00, 0x00,
   0x00, 0x00, 0x00, 0x00, 0x00, 0x00, 0x00, 0x00, 0x00, 0x00, 0x00, 0x00,
   0x00, 0x00, 0x00, 0x00, 0x00, 0x00, 0x00, 0x00, 0x00, 0x00};
