#define damp_0s_width 50
#define damp_0s_height 70
static char damp_0s_bits[] = {
   0x00, 0x00, 0x00, 0x00, 0x00, 0x00, 0x00, 0x00, 0x00, 0x00, 0x00, 0x00,
   0x00, 0x00, 0x00, 0x00, 0x00, 0x00, 0x00, 0x00, 0x00, 0x00, 0x00, 0x00,
   0x00, 0x00, 0x00, 0x00, 0x00, 0x00, 0x00, 0x00, 0x00, 0x00, 0x00, 0x00,
   0x00, 0x00, 0x00, 0x00, 0x00, 0x00, 0x00, 0x00, 0x00, 0x00, 0x00, 0x00,
   0x00, 0x00, 0x00, 0x00, 0x00, 0x00, 0x00, 0x00 0x00, 0x00, 0x00, 0x00,
   0x00, 0x00, 0x00, 0x00, 0x00, 0x00, 0x00, 0x00, 0x00, 0x00, 0x00, 0x00,
   0x00, 0x00, 0x00, 0x00, 0x00, 0x00, 0x00, 0x00, 0x00, 0x00, 0x00, 0x00,
   0x00, 0x00, 0x00, 0x00, 0x00, 0x00, 0x00, 0x00, 0x00, 0x00, 0x00, 0x00,
   0x00, 0x00, 0x00, 0x00, 0x00, 0x00, 0x00, 0x00, 0x00, 0xc0, 0xff, 0xff,
   0xff, 0xff, 0x1f, 0x00 0xc0, 0xff, 0xff, 0xff, 0xff, 0x1f, 0x00, 0xc0,
   0xff, 0xff, 0xff, 0xff, 0x1f, 0x00, 0xc0, 0x01, 0x00, 0x00, 0x00, 0x1c,
   0x00, 0xc0, 0x01, 0x00, 0x00, 0x00, 0x1c, 0x00, 0xc0, 0x01, 0x00, 0x00,
   0x00, 0x1c, 0x00, 0xc0, 0x01, 0x00, 0x00, 0x00, 0x1c, 0x00, 0xc0, 0x01,
   0x00, 0x00, 0x30, 0x1c, 0x00, 0xc0, 0x01, 0x00, 0x00, 0x38, 0x1c, 0x00
   0xc0, 0x01, 0x00, 0x00, 0x1c, 0x1c, 0x00, 0xc0, 0x01, 0x00, 0x00, 0x0e,
   0x1c, 0x00, 0xc0, 0x01, 0x00, 0x00, 0x07, 0x1c, 0x00, 0xc0, 0x01, 0x00,
   0x80, 0x03, 0x1c, 0x00, 0xc0, 0x01, 0x00, 0xc0, 0x01, 0x1c, 0x00, 0xc0,
   0x01, 0x80, 0xef, 0x00, 0x1c, 0x00, 0xc0, 0x01, 0xc0, 0x7f, 0x00, 0x1c,
   0x00, 0xc0, 0x01, 0xe0, 0x3f, 0x00, 0x1c, 0x00 0xc0, 0x01, 0xf0, 0x7f,
   0x00, 0x1c, 0x00, 0xff, 0x01, 0xf0, 0x7f, 0x00, 0xfc, 0x03, 0xff, 0x01,
   0xf0, 0x7f, 0x00, 0xfc, 0x03, 0xff, 0x01, 0xf0, 0x7f, 0x00, 0xfc, 0x03,
   0xc0, 0x01, 0xf0, 0x7f, 0x00, 0x1c, 0x00, 0xc0, 0x01, 0xe0, 0x3f, 0x00,
   0x1c, 0x00, 0xc0, 0x01, 0xf0, 0x1f, 0x00, 0x1c, 0x00, 0xc0, 0x01, 0xb8,
   0x0f, 0x00, 0x1c, 0x00 0xc0, 0x01, 0x1c, 0x00, 0x00, 0x1c, 0x00, 0xc0,
   0x01, 0x0e, 0x00, 0x00, 0x1c, 0x00, 0xc0, 0x01, 0x07, 0x00, 0x00, 0x1c,
   0x00, 0xc0, 0x81, 0x03, 0x00, 0x00, 0x1c, 0x00, 0xc0, 0xc1, 0x01, 0x00,
   0x00, 0x1c, 0x00, 0xc0, 0xe1, 0x00, 0x00, 0x00, 0x1c, 0x00, 0xc0, 0x61,
   0x00, 0x00, 0x00, 0x1c, 0x00, 0xc0, 0x01, 0x00, 0x00, 0x00, 0x1c, 0x00
   0xc0, 0x01, 0x00, 0x00, 0x00, 0x1c, 0x00, 0xc0, 0x01, 0x00, 0x00, 0x00,
   0x1c, 0x00, 0xc0, 0x01, 0x00, 0x00, 0x00, 0x1c, 0x00, 0xc0, 0xff, 0xff,
   0xff, 0xff, 0x1f, 0x00, 0xc0, 0xff, 0xff, 0xff, 0xff, 0x1f, 0x00, 0xc0,
   0xff, 0xff, 0xff, 0xff, 0x1f, 0x00, 0x00, 0x00, 0x00, 0x00, 0x00, 0x00,
   0x00, 0x00, 0x00, 0x00, 0x00, 0x00, 0x00, 0x00 0x00, 0x00, 0x00, 0x00,
   0x00, 0x00, 0x00, 0x00, 0x00, 0x00, 0x00, 0x00, 0x00, 0x00, 0x00, 0x00,
   0x00, 0x00, 0x00, 0x00, 0x00, 0x00, 0x00, 0x00, 0x00, 0x00, 0x00, 0x00,
   0x00, 0x00, 0x00, 0x00, 0x00, 0x00, 0x00, 0x00, 0x00, 0x00, 0x00, 0x00,
   0x00, 0x00, 0x00, 0x00, 0x00, 0x00, 0x00, 0x00, 0x00, 0x00, 0x00, 0x00,
   0x00, 0x00, 0x00, 0x00 0x00, 0x00, 0x00, 0x00, 0x00, 0x00, 0x00, 0x00,
   0x00, 0x00, 0x00, 0x00, 0x00, 0x00, 0x00, 0x00, 0x00, 0x00, 0x00, 0x00,
   0x00, 0x00, 0x00, 0x00, 0x00, 0x00, 0x00, 0x00, 0x00, 0x00, 0x00, 0x00,
   0x00, 0x00, 0x00, 0x00, 0x00, 0x00, 0x00, 0x00, 0x00, 0x00};
