#define damp_0e_width 70
#define damp_0e_height 50
static char damp_0e_bits[] = {
   0x00, 0x00, 0x00, 0x00, 0x0e, 0x00, 0x00, 0x00, 0x00, 0x00, 0x00, 0x00,
   0x00, 0x0e, 0x00, 0x00, 0x00, 0x00, 0x00, 0x00, 0x00, 0x00, 0x0e, 0x00,
   0x00, 0x00, 0x00, 0x00, 0x00, 0x00, 0x00, 0x0e, 0x00, 0x00, 0x00, 0x00,
   0x00, 0x00, 0x00, 0x00, 0x0e, 0x00, 0x00, 0x00, 0x00, 0x00, 0x80, 0xff,
   0xff, 0xff, 0xff, 0x3f, 0x00, 0x00, 0x00, 0x80, 0xff, 0xff, 0xff, 0xff,
   0x3f, 0x00, 0x00, 0x00, 0x80, 0xff, 0xff, 0xff, 0xff, 0x3f, 0x00, 0x00
   0x00, 0x80, 0x03, 0x00, 0x00, 0x00, 0x38, 0x00, 0x00, 0x00, 0x80, 0x03,
   0x00, 0x00, 0x00, 0x38, 0x00, 0x00, 0x00, 0x80, 0x03, 0x00, 0x00, 0x00,
   0x38, 0x00, 0x00, 0x00, 0x80, 0x03, 0x00, 0x00, 0x00, 0x38, 0x00, 0x00,
   0x00, 0x80, 0xc3, 0x00, 0x00, 0x00, 0x38, 0x00, 0x00, 0x00, 0x80, 0xc3,
   0x01, 0x00, 0x00, 0x38, 0x00, 0x00, 0x00, 0x80, 0x83, 0x03, 0x00, 0x00,
   0x38, 0x00, 0x00, 0x00, 0x80, 0x03, 0x07, 0x00, 0x00, 0x38, 0x00, 0x00
   0x00, 0x80, 0x03, 0x0e, 0x00, 0x00, 0x38, 0x00, 0x00, 0x00, 0x80, 0x03,
   0x1c, 0x00, 0x00, 0x38, 0x00, 0x00, 0x00, 0x80, 0x03, 0x38, 0x00, 0x00,
   0x38, 0x00, 0x00, 0x00, 0x80, 0x03, 0x70, 0x1f, 0x00, 0x38, 0x00, 0x00,
   0x00, 0x80, 0x03, 0xe0, 0x3f, 0x00, 0x38, 0x00, 0x00, 0x00, 0x80, 0x03,
   0xc0, 0x7f, 0x00, 0x38, 0x00, 0x00, 0x00, 0x80, 0x03, 0xe0, 0xff, 0x00,
   0x38, 0x00, 0x00, 0x00, 0x80, 0x03, 0xe0, 0xff, 0x00, 0x38, 0x00, 0x00
   0x00, 0x80, 0x03, 0xe0, 0xff, 0x00, 0x38, 0x00, 0x00, 0x00, 0x80, 0x03,
   0xe0, 0xff, 0x00, 0x38, 0x00, 0x00, 0x00, 0x80, 0x03, 0xe0, 0xff, 0x00,
   0x38, 0x00, 0x00, 0x00, 0x80, 0x03, 0xc0, 0x7f, 0x00, 0x38, 0x00, 0x00,
   0x00, 0x80, 0x03, 0x80, 0xff, 0x00, 0x38, 0x00, 0x00, 0x00, 0x80, 0x03,
   0x00, 0xdf, 0x01, 0x38, 0x00, 0x00, 0x00, 0x80, 0x03, 0x00, 0x80, 0x03,
   0x38, 0x00, 0x00, 0x00, 0x80, 0x03, 0x00, 0x00, 0x07, 0x38, 0x00, 0x00
   0x00, 0x80, 0x03, 0x00, 0x00, 0x0e, 0x38, 0x00, 0x00, 0x00, 0x80, 0x03,
   0x00, 0x00, 0x1c, 0x38, 0x00, 0x00, 0x00, 0x80, 0x03, 0x00, 0x00, 0x38,
   0x38, 0x00, 0x00, 0x00, 0x80, 0x03, 0x00, 0x00, 0x70, 0x38, 0x00, 0x00,
   0x00, 0x80, 0x03, 0x00, 0x00, 0x60, 0x38, 0x00, 0x00, 0x00, 0x80, 0x03,
   0x00, 0x00, 0x00, 0x38, 0x00, 0x00, 0x00, 0x80, 0x03, 0x00, 0x00, 0x00,
   0x38, 0x00, 0x00, 0x00, 0x80, 0x03, 0x00, 0x00, 0x00, 0x38, 0x00, 0x00
   0x00, 0x80, 0x03, 0x00, 0x00, 0x00, 0x38, 0x00, 0x00, 0x00, 0x80, 0xff,
   0xff, 0xff, 0xff, 0x3f, 0x00, 0x00, 0x00, 0x80, 0xff, 0xff, 0xff, 0xff,
   0x3f, 0x00, 0x00, 0x00, 0x80, 0xff, 0xff, 0xff, 0xff, 0x3f, 0x00, 0x00,
   0x00, 0x00, 0x00, 0x00, 0x0e, 0x00, 0x00, 0x00, 0x00, 0x00, 0x00, 0x00,
   0x00, 0x0e, 0x00, 0x00, 0x00, 0x00, 0x00, 0x00, 0x00, 0x00, 0x0e, 0x00,
   0x00, 0x00, 0x00, 0x00, 0x00, 0x00, 0x00, 0x0e, 0x00, 0x00, 0x00, 0x00
   0x00, 0x00, 0x00, 0x00, 0x0e, 0x00, 0x00, 0x00, 0x00, 0x00, 0x00, 0x00,
   0x00, 0x0e, 0x00, 0x00, 0x00, 0x00};
