#define degn_1n_width 96
#define degn_1n_height 72
static char degn_1n_bits[] = {
   0x00, 0x00, 0x00, 0x00, 0x00, 0x00, 0x00, 0x00, 0x00, 0x00, 0x00, 0x00,
   0x00, 0x00, 0x00, 0xfe, 0xff, 0xff, 0xff, 0xff, 0x7f, 0x00, 0x00, 0x00,
   0x00, 0x00, 0x00, 0xff, 0xff, 0xff, 0xff, 0xff, 0xff, 0x00, 0x00, 0x00,
   0x00, 0x00, 0x80, 0x03, 0x00, 0x00, 0x00, 0x00, 0xc0, 0x01, 0x00, 0x00,
   0x00, 0x00, 0xc0, 0x01, 0x00, 0x00, 0x00, 0x00, 0x80, 0x03, 0x00, 0x00,
   0x20, 0x22, 0xe2, 0x00, 0x00, 0x00, 0x00, 0x00, 0x00, 0x23, 0x22, 0x22,
   0x00, 0x00, 0x60, 0x00, 0x00, 0x00, 0x00, 0x00, 0x00, 0x06, 0x00, 0x00,
   0x00, 0x00, 0x60, 0x00, 0x00, 0x00, 0x00, 0x00, 0x00, 0x06, 0x00, 0x00
   0x00, 0x00, 0x30, 0x00, 0x00, 0x00, 0x00, 0x00, 0x00, 0x0c, 0x00, 0x00,
   0x88, 0x40, 0x30, 0x00, 0x00, 0x00, 0x00, 0x00, 0x00, 0x8c, 0x40, 0x10,
   0x00, 0x08, 0x3c, 0x00, 0x00, 0x00, 0x00, 0x00, 0x00, 0x1c, 0x08, 0x04,
   0x00, 0x00, 0x18, 0x00, 0x00, 0x00, 0x00, 0x00, 0x00, 0x18, 0x00, 0x00,
   0x00, 0x00, 0x18, 0x00, 0x00, 0x00, 0x00, 0x00, 0x00, 0x18, 0x00, 0x00,
   0x00, 0x00, 0x18, 0x00, 0x00, 0x00, 0x00, 0x00, 0x00, 0x98, 0x00, 0x00,
   0x10, 0x01, 0x19, 0x00, 0x00, 0x00, 0x00, 0x00, 0x00, 0x18, 0x00, 0x01,
   0x00, 0x10, 0x18, 0x00, 0x00, 0x00, 0x00, 0x00, 0x00, 0x18, 0x10, 0x00
   0x00, 0x00, 0x18, 0x00, 0x00, 0x00, 0x00, 0x00, 0x00, 0x18, 0x00, 0x20,
   0x00, 0x00, 0x18, 0x00, 0x00, 0x00, 0x00, 0x00, 0x00, 0x18, 0x02, 0x00,
   0x20, 0x00, 0x38, 0x00, 0x00, 0x00, 0x00, 0x00, 0x00, 0x9c, 0x00, 0x04,
   0x08, 0x42, 0x34, 0x00, 0x00, 0x00, 0x00, 0x00, 0x00, 0x0c, 0x80, 0x00,
   0x00, 0x00, 0x30, 0x00, 0x00, 0x00, 0x00, 0x00, 0x00, 0x0c, 0x00, 0x00,
   0x00, 0x00, 0x60, 0x00, 0x00, 0x00, 0x00, 0x00, 0x00, 0x06, 0x00, 0x00,
   0x00, 0x00, 0x60, 0x00, 0x00, 0x00, 0x00, 0x00, 0x00, 0x06, 0x10, 0x00,
   0x00, 0x88, 0xc0, 0x00, 0x00, 0x00, 0x00, 0x00, 0x00, 0x43, 0x00, 0x10
   0x80, 0x00, 0xc0, 0x01, 0x00, 0x00, 0x00, 0x00, 0x80, 0x03, 0x00, 0x02,
   0x10, 0x00, 0x88, 0x03, 0x00, 0x00, 0x00, 0x00, 0xc0, 0x01, 0x04, 0x00,
   0x00, 0x00, 0x00, 0xff, 0xc7, 0xff, 0xff, 0xe3, 0xff, 0x00, 0x80, 0x00,
   0x00, 0x00, 0x00, 0xfe, 0xc7, 0xff, 0xff, 0xe3, 0x7f, 0x10, 0x00, 0x00,
   0x00, 0x88, 0x40, 0x00, 0xc6, 0x00, 0x00, 0x63, 0x00, 0x00, 0x01, 0x00,
   0x00, 0x01, 0x10, 0x00, 0xc6, 0x00, 0x00, 0x63, 0x00, 0x00, 0x00, 0x10,
   0x08, 0x00, 0x00, 0x08, 0xc6, 0x00, 0x00, 0x63, 0x00, 0x02, 0x20, 0x04,
   0x00, 0x00, 0x00, 0x80, 0xc6, 0x20, 0x00, 0x63, 0x80, 0x00, 0x00, 0x00
   0x00, 0x00, 0x01, 0x00, 0xc6, 0x08, 0x22, 0x63, 0x08, 0x40, 0x08, 0x00,
   0x40, 0x10, 0x00, 0x02, 0xc6, 0x00, 0x00, 0x63, 0x00, 0x00, 0x00, 0x00,
   0x00, 0xfc, 0xff, 0xff, 0xc7, 0xff, 0xff, 0xe3, 0xff, 0xff, 0x3f, 0x02,
   0x00, 0xfe, 0xff, 0xff, 0xc7, 0xff, 0xff, 0xe3, 0xff, 0xff, 0x7f, 0x00,
   0x10, 0x06, 0x00, 0x00, 0x00, 0x00, 0x00, 0x00, 0x00, 0x00, 0x60, 0x40,
   0x00, 0x03, 0x00, 0x00, 0x00, 0x00, 0x00, 0x00, 0x00, 0x00, 0xc0, 0x00,
   0x80, 0x01, 0x00, 0x00, 0x00, 0x00, 0x00, 0x00, 0x00, 0x00, 0x80, 0x09,
   0x80, 0x01, 0x00, 0x00, 0x00, 0x00, 0x00, 0x00, 0x00, 0x00, 0x80, 0x01
   0xe0, 0x00, 0x00, 0x00, 0x00, 0x00, 0x00, 0x00, 0x00, 0x00, 0x00, 0x03,
   0xe8, 0x00, 0x00, 0x00, 0x00, 0x00, 0x00, 0x00, 0x00, 0x00, 0x00, 0x07,
   0x60, 0x00, 0x00, 0x00, 0x00, 0x00, 0x00, 0x00, 0x00, 0x00, 0x00, 0x06,
   0x60, 0x00, 0x00, 0x00, 0x00, 0x00, 0x00, 0x00, 0x00, 0x00, 0x00, 0x16,
   0x30, 0x00, 0x00, 0x00, 0x00, 0x00, 0x00, 0x00, 0x00, 0x00, 0x00, 0x0c,
   0xf0, 0xff, 0xff, 0xff, 0xff, 0xff, 0xff, 0xff, 0xff, 0xff, 0xff, 0x0f,
   0xf0, 0xff, 0xff, 0xff, 0xff, 0xff, 0xff, 0xff, 0xff, 0xff, 0xff, 0x0f,
   0x38, 0x00, 0x00, 0x00, 0x00, 0x00, 0x00, 0x00, 0x00, 0x00, 0x00, 0x1c
   0x18, 0x00, 0x00, 0x00, 0x00, 0x00, 0x00, 0x00, 0x00, 0x00, 0x00, 0x18,
   0x18, 0xc0, 0xff, 0xff, 0x0f, 0x00, 0xfe, 0xff, 0xff, 0xff, 0xff, 0x19,
   0x18, 0x00, 0x00, 0x00, 0x00, 0x00, 0x00, 0x00, 0x00, 0x00, 0x00, 0x58,
   0x18, 0x00, 0x00, 0x00, 0x00, 0x00, 0x00, 0x00, 0x00, 0x00, 0x00, 0x18,
   0x18, 0x00, 0x00, 0x00, 0x00, 0x00, 0x00, 0x00, 0x00, 0x00, 0x00, 0x18,
   0x18, 0x00, 0xf0, 0xff, 0xff, 0xff, 0x1f, 0xf0, 0xff, 0xff, 0x3f, 0x18,
   0x18, 0x00, 0x00, 0x00, 0x00, 0x00, 0x00, 0x00, 0x00, 0x00, 0x00, 0x18,
   0x18, 0x00, 0x00, 0x00, 0x00, 0x00, 0x00, 0x00, 0x00, 0x00, 0x00, 0x18
   0x18, 0x00, 0x00, 0x00, 0x00, 0x00, 0x00, 0x00, 0x00, 0x00, 0x00, 0x18,
   0x38, 0x00, 0xff, 0xff, 0xff, 0xc0, 0xff, 0xff, 0xff, 0x3f, 0x00, 0x1c,
   0x30, 0x00, 0x00, 0x00, 0x00, 0x00, 0x00, 0x00, 0x00, 0x00, 0x00, 0x4c,
   0x30, 0x00, 0x00, 0x00, 0x00, 0x00, 0x00, 0x00, 0x00, 0x00, 0x00, 0x0c,
   0x38, 0x00, 0x00, 0x00, 0x00, 0x00, 0x00, 0x00, 0x00, 0x00, 0x00, 0x0c,
   0x60, 0x00, 0xc0, 0xff, 0xff, 0xff, 0xff, 0x0f, 0xe0, 0xff, 0x07, 0x06,
   0x60, 0x00, 0x00, 0x00, 0x00, 0x00, 0x00, 0x00, 0x00, 0x00, 0x00, 0x06,
   0xe0, 0x00, 0x00, 0x00, 0x00, 0x00, 0x00, 0x00, 0x00, 0x00, 0x00, 0x17
   0xc0, 0x00, 0x00, 0x00, 0x00, 0x00, 0x00, 0x00, 0x00, 0x00, 0x00, 0x03,
   0x80, 0x01, 0xf8, 0xff, 0xff, 0x00, 0xf8, 0xff, 0xff, 0x3f, 0x80, 0x01,
   0x90, 0x01, 0x00, 0x00, 0x00, 0x00, 0x00, 0x00, 0x00, 0x00, 0x80, 0x01,
   0x00, 0x03, 0x00, 0x00, 0x00, 0x00, 0x00, 0x00, 0x00, 0x00, 0xc0, 0x08,
   0x00, 0x06, 0x00, 0x00, 0x00, 0x00, 0x00, 0x00, 0x00, 0x00, 0x60, 0x00,
   0x00, 0xfe, 0xff, 0xff, 0xff, 0xff, 0xff, 0xff, 0xff, 0xff, 0x7f, 0x00,
   0x20, 0xfc, 0xff, 0xff, 0xff, 0xff, 0xff, 0xff, 0xff, 0xff, 0x3f, 0x01,
   0x08, 0x02, 0x00, 0x00, 0x00, 0x00, 0x00, 0x00, 0x00, 0x00, 0x00, 0x20};
