#define disn_0n_width 50
#define disn_0n_height 50
static char disn_0n_bits[] = {
   0x00, 0x00, 0x00, 0x00, 0x00, 0x00, 0x00, 0x00, 0x00, 0x00, 0x00, 0x00,
   0x00, 0x00, 0x48, 0x92, 0x24, 0x49, 0x92, 0x24, 0x00, 0x00, 0x00, 0x00,
   0x00, 0x00, 0x00, 0x01, 0x00, 0x00, 0x00, 0x00, 0x00, 0x00, 0x00, 0x24,
   0x49, 0x92, 0x24, 0x49, 0x12, 0x00, 0x00, 0x00, 0x00, 0x00, 0x00, 0x80,
   0x00, 0x00, 0x00, 0x00, 0x00, 0x00, 0x00, 0x00 0x24, 0x49, 0x92, 0x24,
   0x49, 0x12, 0x00, 0x00, 0x00, 0x00, 0x00, 0x00, 0x80, 0x00, 0x00, 0x00,
   0x00, 0x00, 0x00, 0x00, 0x00, 0x24, 0x49, 0x92, 0x24, 0x49, 0x12, 0x00,
   0x00, 0x00, 0x00, 0x00, 0x00, 0x80, 0x00, 0x00, 0xe0, 0xff, 0x0f, 0x00,
   0x00, 0x00, 0x24, 0xe9, 0xff, 0x2f, 0x49, 0x12, 0x00, 0x00, 0xe0, 0xff,
   0x0f, 0x00, 0x80, 0x00 0x00, 0xe0, 0x00, 0x0e, 0x00, 0x00, 0x00, 0x24,
   0xeb, 0x00, 0x2e, 0x49, 0x13, 0x00, 0x00, 0xe6, 0x00, 0x0e, 0x00, 0x83,
   0x00, 0xff, 0xff, 0x00, 0xfe, 0xff, 0x3f, 0x00, 0xff, 0xff, 0x00, 0xfe,
   0xff, 0x3f, 0x00, 0x00, 0xe6, 0x00, 0x0e, 0x00, 0x43, 0x00, 0x48, 0xf2,
   0x00, 0x2e, 0x49, 0x09, 0x00, 0x00, 0xe2, 0x00, 0x0e, 0x00, 0x00, 0x01
   0x00, 0xe0, 0x00, 0x0e, 0x00, 0x41, 0x00, 0x24, 0xe0, 0xff, 0x2f, 0x49,
   0x08, 0x00, 0x00, 0xe9, 0xff, 0x0f, 0x00, 0x00, 0x00, 0x40, 0xe0, 0xff,
   0x0f, 0x00, 0x20, 0x00, 0x04, 0x00, 0x18, 0x90, 0x24, 0x09, 0x01, 0x20,
   0x24, 0x59, 0x02, 0x00, 0x00, 0x00, 0x00, 0x00, 0x18, 0x00, 0x00, 0x00,
   0x00, 0x84, 0x00, 0x1c, 0x48, 0x92, 0x24, 0x01 0x20, 0x24, 0x59, 0x02,
   0x00, 0x00, 0x00, 0x00, 0x00, 0x18, 0x00, 0x00, 0x00, 0x00, 0x04, 0x00,
   0x18, 0x20, 0x49, 0x92, 0x00, 0x20, 0x49, 0x9a, 0x04, 0x00, 0x00, 0x00,
   0x00, 0x00, 0x18, 0x00, 0x00, 0x00, 0x00, 0x04, 0x00, 0x7e, 0x20, 0x49,
   0x92, 0x00, 0x20, 0x49, 0xbc, 0x04, 0x00, 0x00, 0x00, 0x00, 0x00, 0x1a,
   0x00, 0x80, 0x00, 0x00 0x04, 0x80, 0x18, 0x90, 0x24, 0x24, 0x01, 0x20,
   0x09, 0x58, 0x02, 0x00, 0x00, 0x00, 0x00, 0x40, 0x18, 0x00, 0x00, 0x00,
   0x00, 0x04, 0x10, 0x04, 0x48, 0x92, 0x24, 0x01, 0x20, 0x01, 0x20, 0x01,
   0x00, 0x00, 0x00, 0x00, 0x08, 0x01, 0x00, 0x00, 0x00, 0x00, 0x04, 0x02,
   0x10, 0x24, 0x49, 0x92, 0x00, 0x20, 0x40, 0x04, 0x01, 0x00, 0x00, 0x00
   0x00, 0x00, 0x00, 0x00, 0x00, 0x00, 0x00, 0x84, 0x04, 0x41, 0x90, 0x24,
   0x49, 0x00};
