#define disn_0e_width 50
#define disn_0e_height 50
static char disn_0e_bits[] = {
   0x00, 0x00, 0x00, 0x60, 0x00, 0x00, 0x00, 0x00, 0x00, 0x00, 0x60, 0x00,
   0x00, 0x00, 0x48, 0x92, 0x24, 0x69, 0x92, 0x24, 0x00, 0x00, 0x00, 0x00,
   0x60, 0x00, 0x00, 0x01, 0x00, 0x00, 0x00, 0x60, 0x00, 0x00, 0x00, 0x24,
   0x49, 0x92, 0x64, 0x49, 0x12, 0x00, 0x00, 0x00, 0x00, 0x60, 0x00, 0x80,
   0x00, 0x00, 0x00, 0x00, 0x70, 0x00, 0x00, 0x00 0x24, 0x49, 0x92, 0x64,
   0x49, 0x12, 0x00, 0x00, 0x00, 0x00, 0xf8, 0x01, 0x80, 0x00, 0x00, 0x00,
   0x00, 0xf0, 0x00, 0x00, 0x00, 0x24, 0x49, 0x92, 0x60, 0x24, 0x09, 0x00,
   0x00, 0x00, 0x00, 0x64, 0x00, 0x40, 0x00, 0x00, 0x00, 0xc0, 0xff, 0x1f,
   0x00, 0x01, 0x24, 0x49, 0xd2, 0xff, 0x5f, 0x12, 0x00, 0x00, 0x00, 0xc0,
   0xff, 0x1f, 0x00, 0x00 0x00, 0x00, 0xc0, 0x01, 0x1c, 0x40, 0x00, 0x24,
   0x59, 0xd2, 0x01, 0x5c, 0x12, 0x00, 0x00, 0x18, 0xc0, 0x01, 0x1c, 0x00,
   0x01, 0x80, 0xff, 0xff, 0x01, 0x1c, 0x00, 0x00, 0xa4, 0xff, 0xff, 0x01,
   0x5c, 0x12, 0x00, 0x00, 0x18, 0xc0, 0x01, 0x1c, 0x80, 0x00, 0x80, 0x54,
   0xd2, 0x01, 0x1c, 0x00, 0x00, 0x24, 0x00, 0xc0, 0x01, 0x5c, 0x12, 0x00
   0x00, 0x00, 0xc0, 0x01, 0x1c, 0x80, 0x00, 0x00, 0x92, 0xe4, 0xff, 0x1f,
   0x20, 0x00, 0x24, 0x00, 0xc0, 0xff, 0x5f, 0x02, 0x00, 0x00, 0x00, 0xc0,
   0xff, 0x1f, 0x10, 0x00, 0x80, 0x24, 0x09, 0x60, 0x00, 0x04, 0x01, 0x24,
   0x00, 0x40, 0x72, 0x49, 0x00, 0x00, 0x00, 0x00, 0x00, 0x60, 0x00, 0x42,
   0x00, 0x00, 0x49, 0x12, 0x60, 0x80, 0x00, 0x00 0x24, 0x00, 0x80, 0x64,
   0x12, 0x10, 0x00, 0x00, 0x00, 0x00, 0x60, 0x00, 0x80, 0x00, 0x00, 0x49,
   0x12, 0x70, 0x40, 0x02, 0x00, 0x24, 0x00, 0x80, 0x64, 0x09, 0x10, 0x00,
   0x00, 0x00, 0x20, 0x60, 0x00, 0x80, 0x00, 0x80, 0x24, 0x09, 0x60, 0x20,
   0x01, 0x00, 0x24, 0x00, 0x00, 0x62, 0x09, 0x08, 0x00, 0x00, 0x00, 0x80,
   0x60, 0x00, 0x40, 0x00 0x00, 0x92, 0x24, 0xf8, 0x81, 0x10, 0x02, 0x24,
   0x00, 0x00, 0xf8, 0x12, 0x04, 0x00, 0x00, 0x00, 0x00, 0x62, 0x00, 0x00,
   0x00, 0x80, 0x24, 0x49, 0x60, 0x80, 0x40, 0x00, 0x24, 0x00, 0x00, 0x60,
   0x09, 0x04, 0x00, 0x00, 0x00, 0x00, 0x64, 0x00, 0x81, 0x00, 0x00, 0x92,
   0x24, 0x41, 0x20, 0x20, 0x00, 0x24, 0x00, 0x00, 0x00, 0x02, 0x00, 0x00
   0x00, 0x00, 0x00, 0x08, 0x10, 0x09, 0x00, 0x80, 0x24, 0x49, 0x42, 0x00,
   0x80, 0x00};
