#define drel_0w_width 50
#define drel_0w_height 50
static char drel_0w_bits[] = {
   0x00, 0x00, 0x00, 0x00, 0x00, 0x00, 0x00, 0x00, 0x00, 0x00, 0x00, 0x00,
   0x00, 0x00, 0x48, 0x92, 0x24, 0x49, 0x92, 0x24, 0x00, 0x00, 0x00, 0x00,
   0x00, 0x00, 0x00, 0x01, 0x00, 0x00, 0x18, 0x00, 0x00, 0x00, 0x00, 0x24,
   0x49, 0x5a, 0x92, 0x24, 0x49, 0x00, 0x00, 0x00, 0x18, 0x00, 0x00, 0x00,
   0x00, 0x00, 0x00, 0x18, 0x00, 0x00, 0x00, 0x01 0x24, 0x49, 0xbe, 0x24,
   0x49, 0x12, 0x00, 0x00, 0x00, 0x7e, 0x00, 0x00, 0x00, 0x00, 0x00, 0x00,
   0x18, 0x00, 0x00, 0x40, 0x00, 0x24, 0x49, 0x58, 0x92, 0x24, 0x09, 0x00,
   0x00, 0x00, 0x1a, 0x00, 0x00, 0x00, 0x01, 0x00, 0x00, 0x18, 0x00, 0x00,
   0x20, 0x00, 0x24, 0x49, 0x58, 0x92, 0x24, 0x09, 0x00, 0x00, 0x00, 0x1a,
   0x00, 0x00, 0x00, 0x00 0x00, 0x80, 0x18, 0x00, 0x00, 0x80, 0x00, 0x24,
   0x09, 0x58, 0x92, 0x24, 0x09, 0x00, 0x00, 0x20, 0x18, 0x00, 0x00, 0x00,
   0x01, 0x00, 0x00, 0x1a, 0x00, 0x00, 0x20, 0x00, 0x24, 0x09, 0x58, 0x92,
   0x24, 0x09, 0x00, 0x00, 0x40, 0x18, 0x00, 0x00, 0x00, 0x00, 0x00, 0xe0,
   0xff, 0x0f, 0x00, 0x40, 0x00, 0x24, 0xe9, 0xff, 0x2f, 0x49, 0x12, 0x00
   0x00, 0xe0, 0xff, 0x0f, 0x00, 0x00, 0x01, 0x00, 0xe0, 0x00, 0x0e, 0x00,
   0x00, 0x00, 0x24, 0xe9, 0x00, 0x2e, 0x49, 0x12, 0x00, 0x00, 0xe0, 0x00,
   0x0e, 0x20, 0x80, 0x00, 0x00, 0xe0, 0x00, 0x0e, 0x60, 0x00, 0x00, 0x24,
   0xe9, 0x00, 0xfe, 0xff, 0x4f, 0x00, 0x00, 0xe0, 0x00, 0xfe, 0xff, 0x07,
   0x00, 0x00, 0xe0, 0x00, 0x2e, 0x69, 0x01, 0x01 0x24, 0xe9, 0x00, 0x0e,
   0x20, 0x48, 0x00, 0x00, 0xe0, 0x00, 0x0e, 0x20, 0x00, 0x00, 0x00, 0xe0,
   0xff, 0x2f, 0x09, 0x01, 0x00, 0x24, 0xe9, 0xff, 0x0f, 0x00, 0x48, 0x00,
   0x00, 0xe0, 0xff, 0x0f, 0x00, 0x00, 0x00, 0x00, 0x00, 0x18, 0x48, 0x92,
   0x04, 0x01, 0x24, 0x49, 0x5a, 0x02, 0x00, 0x40, 0x00, 0x00, 0x00, 0x3c,
   0x00, 0x00, 0x10, 0x00 0x00, 0x00, 0x7e, 0x90, 0x24, 0x01, 0x00, 0x24,
   0x49, 0x98, 0x04, 0x00, 0x00, 0x00, 0x00, 0x00, 0x19, 0x00, 0x00, 0x92,
   0x00, 0x00, 0x00, 0x38, 0x40, 0x92, 0x00, 0x00, 0x24, 0x49, 0x1c, 0x12,
   0x00, 0x00, 0x00, 0x00, 0x00, 0x18, 0x00, 0x00, 0x24, 0x01, 0x00, 0x10,
   0x98, 0x00, 0x49, 0x00, 0x00, 0x24, 0x81, 0x1c, 0x44, 0x00, 0x00, 0x00
   0x00, 0x08, 0x18, 0x00, 0x80, 0x24, 0x01, 0x00, 0x02, 0x98, 0x10, 0x24,
   0x00, 0x00};
