#define drel_0s_width 50
#define drel_0s_height 50
static char drel_0s_bits[] = {
   0x00, 0x00, 0x00, 0x00, 0x00, 0x00, 0x00, 0x00, 0x00, 0x00, 0x00, 0x00,
   0x00, 0x00, 0x48, 0x92, 0x24, 0x49, 0x92, 0x24, 0x00, 0x00, 0x00, 0x00,
   0x00, 0x00, 0x00, 0x01, 0x00, 0x00, 0x00, 0x00, 0x00, 0x00, 0x00, 0x24,
   0x49, 0x92, 0x24, 0x49, 0x12, 0x00, 0x00, 0x00, 0x00, 0x00, 0x00, 0x80,
   0x00, 0x00, 0x00, 0x00, 0x60, 0x00, 0x00, 0x00 0x24, 0x49, 0x92, 0x64,
   0x49, 0x12, 0x00, 0x00, 0x00, 0x00, 0x60, 0x00, 0x80, 0x00, 0x00, 0x00,
   0x00, 0x70, 0x00, 0x00, 0x00, 0x24, 0x49, 0x92, 0xf4, 0x92, 0x24, 0x00,
   0x00, 0x00, 0x00, 0xf8, 0x01, 0x00, 0x01, 0x00, 0x00, 0x00, 0x60, 0x00,
   0x00, 0x00, 0x24, 0x49, 0x92, 0x60, 0x92, 0x24, 0x00, 0x00, 0x00, 0x00,
   0x64, 0x00, 0x00, 0x01 0x00, 0x00, 0x00, 0x60, 0x01, 0x00, 0x00, 0x24,
   0x49, 0x92, 0x68, 0x90, 0x24, 0x00, 0x00, 0x00, 0x00, 0x60, 0x04, 0x00,
   0x01, 0x00, 0x10, 0x00, 0x61, 0x01, 0x00, 0x00, 0x24, 0x81, 0x24, 0x68,
   0x40, 0x12, 0x00, 0x00, 0x08, 0x00, 0x60, 0x10, 0x80, 0x00, 0x00, 0x02,
   0xc0, 0xff, 0x1f, 0x20, 0x00, 0x24, 0x40, 0xd2, 0xff, 0x1f, 0x09, 0x00
   0x00, 0x01, 0xc0, 0xff, 0x1f, 0x00, 0x00, 0x40, 0x10, 0xc0, 0x01, 0x5c,
   0x80, 0x00, 0x04, 0x80, 0xe4, 0x01, 0x1c, 0x22, 0x00, 0x00, 0x0a, 0xc0,
   0x01, 0x1c, 0x01, 0x00, 0x90, 0x03, 0xc0, 0x01, 0xdc, 0x09, 0x00, 0xf4,
   0xff, 0xff, 0x01, 0xfc, 0xff, 0x03, 0xf0, 0xff, 0xff, 0x01, 0xfc, 0xff,
   0x03, 0x00, 0x83, 0xe4, 0x01, 0x9c, 0x01, 0x00 0x08, 0x12, 0xc0, 0x01,
   0x1c, 0x21, 0x01, 0x80, 0x00, 0xc0, 0x01, 0x3c, 0x02, 0x00, 0x04, 0x84,
   0xc4, 0xff, 0x1f, 0x10, 0x00, 0x20, 0x20, 0xe0, 0xff, 0x9f, 0x00, 0x01,
   0x00, 0x00, 0xc0, 0xff, 0x1f, 0x04, 0x00, 0x84, 0x04, 0x02, 0x00, 0x20,
   0x20, 0x00, 0x20, 0x20, 0x10, 0x91, 0x04, 0x00, 0x01, 0x00, 0x00, 0x04,
   0x00, 0x80, 0x04, 0x00 0x04, 0x82, 0x00, 0x04, 0x10, 0x20, 0x00, 0x40,
   0x10, 0x20, 0x21, 0x01, 0x00, 0x01, 0x10, 0x00, 0x02, 0x00, 0x88, 0x04,
   0x00, 0x04, 0x42, 0x00, 0x00, 0x02, 0x20, 0x00, 0x00, 0x10, 0x48, 0x92,
   0x00, 0x00, 0x01, 0x40, 0x00, 0x02, 0x00, 0x20, 0x09, 0x00, 0x08, 0x82,
   0x00, 0x00, 0x08, 0x40, 0x00, 0x00, 0x10, 0x20, 0x49, 0x02, 0x00, 0x00
   0x44, 0x00, 0x00, 0x00, 0x80, 0x04, 0x00, 0x00, 0x82, 0x04, 0x00, 0x20,
   0x20, 0x01};
