#define drom_0n_width 50
#define drom_0n_height 50
static char drom_0n_bits[] = {
   0x00, 0x00, 0x00, 0x00, 0x00, 0x00, 0x00, 0x00, 0x00, 0x00, 0x00, 0x00,
   0x00, 0x00, 0x48, 0x92, 0x24, 0x49, 0x92, 0x24, 0x00, 0x00, 0x00, 0x00,
   0x01, 0x00, 0x00, 0x01, 0x00, 0x00, 0x00, 0x01, 0x00, 0x00, 0x00, 0x24,
   0x49, 0x12, 0x25, 0x49, 0x12, 0x00, 0xce, 0x0d, 0xe0, 0x39, 0x00, 0x80,
   0x00, 0x51, 0x12, 0x90, 0x45, 0x00, 0x00, 0x00 0x51, 0x52, 0x12, 0x7d,
   0x92, 0x24, 0x00, 0x59, 0x13, 0x30, 0x85, 0x00, 0x00, 0x01, 0x51, 0x1a,
   0x18, 0x55, 0x00, 0x00, 0x00, 0x4e, 0x92, 0xe0, 0x3d, 0x48, 0x12, 0x00,
   0x90, 0x00, 0x00, 0x00, 0x02, 0x80, 0x00, 0x04, 0xe8, 0xff, 0x8f, 0x00,
   0x00, 0x00, 0x00, 0xe2, 0xff, 0x0f, 0x20, 0x49, 0x00, 0x40, 0xe0, 0xff,
   0x2f, 0x08, 0x00, 0x00 0x08, 0xe0, 0x00, 0x0e, 0x02, 0x00, 0x01, 0x00,
   0xea, 0x00, 0x8e, 0x80, 0x25, 0x00, 0x44, 0xe6, 0x00, 0x1e, 0x00, 0x03,
   0x00, 0xff, 0xff, 0x00, 0xfe, 0xff, 0x3f, 0x00, 0xff, 0xff, 0x00, 0xfe,
   0xff, 0xbf, 0x00, 0x00, 0xe6, 0x00, 0x0e, 0x20, 0x03, 0x00, 0x80, 0xf2,
   0x00, 0x8e, 0x04, 0x11, 0x00, 0x24, 0xe0, 0x00, 0x2e, 0x00, 0x81, 0x00
   0x00, 0xe4, 0x00, 0x0e, 0x20, 0x20, 0x00, 0x00, 0xe0, 0xff, 0x0f, 0x02,
   0x04, 0x00, 0x24, 0xe1, 0xff, 0x9f, 0x80, 0x00, 0x00, 0x00, 0xe8, 0xff,
   0x0f, 0x10, 0x20, 0x01, 0x00, 0x00, 0x18, 0x02, 0x04, 0x04, 0x00, 0x24,
   0x21, 0x59, 0x20, 0x80, 0x00, 0x00, 0x00, 0x08, 0x18, 0x00, 0x21, 0x20,
   0x00, 0x00, 0x00, 0x1c, 0x09, 0x00, 0x04, 0x01 0x24, 0x81, 0x58, 0x40,
   0x04, 0x00, 0x00, 0x00, 0x08, 0x18, 0x00, 0x40, 0x10, 0x00, 0x00, 0x00,
   0x18, 0x04, 0x10, 0x82, 0x00, 0x24, 0x21, 0x59, 0x20, 0x01, 0x00, 0x00,
   0x00, 0x08, 0x18, 0x08, 0x08, 0x08, 0x00, 0x00, 0x00, 0x7e, 0x01, 0x80,
   0x40, 0x00, 0x24, 0x41, 0x3e, 0x80, 0x20, 0x04, 0x01, 0x00, 0x08, 0x58,
   0x08, 0x04, 0x00, 0x00 0x00, 0x00, 0x18, 0x02, 0x01, 0x11, 0x00, 0x24,
   0x41, 0x1a, 0x40, 0x20, 0x80, 0x00, 0x00, 0x08, 0x58, 0x10, 0x00, 0x00,
   0x00, 0x00, 0x00, 0x00, 0x04, 0x04, 0x09, 0x00, 0x24, 0x21, 0x09, 0x01,
   0x20, 0x40, 0x00, 0x00, 0x08, 0x40, 0x80, 0x00, 0x00, 0x01, 0x00, 0x00,
   0x00, 0x20, 0x84, 0x24, 0x00, 0x24, 0x81, 0x04, 0x04, 0x20, 0x00, 0x00
   0x00, 0x08, 0x20, 0x01, 0x00, 0x00, 0x00, 0x00, 0x00, 0x00, 0x40, 0x12,
   0x92, 0x00};
