#define drom_0w_width 50
#define drom_0w_height 50
static char drom_0w_bits[] = {
   0x00, 0x00, 0x00, 0x00, 0x00, 0x00, 0x00, 0x00, 0x00, 0x00, 0x00, 0x00,
   0x00, 0x00, 0x48, 0x92, 0x24, 0x49, 0x92, 0x24, 0x00, 0x00, 0x00, 0x00,
   0x00, 0x00, 0x00, 0x01, 0x00, 0x00, 0x18, 0x00, 0x00, 0x00, 0x00, 0x24,
   0x49, 0x5a, 0x92, 0x24, 0x49, 0x00, 0x00, 0x00, 0x18, 0x00, 0x00, 0x00,
   0x00, 0x00, 0x00, 0x18, 0x00, 0x00, 0x00, 0x01 0x24, 0x49, 0xbe, 0x24,
   0x49, 0x12, 0x00, 0x00, 0x00, 0x7e, 0x00, 0x00, 0x00, 0x00, 0x00, 0x00,
   0x18, 0x00, 0x00, 0x40, 0x00, 0x24, 0x49, 0x58, 0x92, 0x24, 0x09, 0x00,
   0x00, 0x00, 0x1a, 0x00, 0x00, 0x00, 0x01, 0x00, 0x00, 0x18, 0x00, 0x00,
   0x20, 0x00, 0x24, 0x49, 0x58, 0x92, 0x24, 0x09, 0x00, 0x00, 0x00, 0x1a,
   0x00, 0x00, 0x00, 0x00 0x00, 0x80, 0x18, 0x00, 0x00, 0x80, 0x00, 0x24,
   0x09, 0x58, 0x92, 0x24, 0x09, 0x00, 0x00, 0x20, 0x18, 0x00, 0x00, 0x00,
   0x01, 0x80, 0x05, 0x1a, 0x00, 0x00, 0x20, 0x00, 0x64, 0x0d, 0x58, 0x92,
   0x24, 0x09, 0x00, 0x40, 0x49, 0x18, 0x00, 0x00, 0x00, 0x00, 0x40, 0xe9,
   0xff, 0x0f, 0x00, 0x40, 0x00, 0xc4, 0xf7, 0xff, 0x2f, 0x49, 0x12, 0x00
   0x00, 0xe4, 0xff, 0x0f, 0x00, 0x00, 0x01, 0xf8, 0xef, 0x00, 0x0e, 0x00,
   0x00, 0x00, 0x44, 0xe8, 0x00, 0x2e, 0x49, 0x12, 0x00, 0x60, 0xe9, 0x00,
   0x0e, 0x20, 0x80, 0x00, 0x40, 0xe8, 0x00, 0x0e, 0x60, 0x00, 0x00, 0x84,
   0xe7, 0x00, 0xfe, 0xff, 0x4f, 0x00, 0x40, 0xe8, 0x00, 0xfe, 0xff, 0x07,
   0x00, 0x10, 0xe0, 0x00, 0x2e, 0x69, 0x01, 0x01 0x04, 0xe2, 0x00, 0x0e,
   0x20, 0x48, 0x00, 0x00, 0xe0, 0x00, 0x0e, 0x20, 0x00, 0x00, 0x40, 0xe8,
   0xff, 0x2f, 0x09, 0x01, 0x00, 0x08, 0xe2, 0xff, 0x0f, 0x00, 0x48, 0x00,
   0x00, 0xe0, 0xff, 0x0f, 0x00, 0x00, 0x00, 0xc4, 0x0f, 0x18, 0x48, 0x92,
   0x04, 0x01, 0x40, 0x90, 0x9c, 0x00, 0x00, 0x40, 0x00, 0x40, 0x04, 0x3c,
   0x00, 0x00, 0x10, 0x00 0xa4, 0x0f, 0x7e, 0x92, 0x24, 0x01, 0x00, 0x40,
   0x80, 0x98, 0x00, 0x00, 0x00, 0x00, 0x40, 0x21, 0x18, 0x00, 0x00, 0x92,
   0x00, 0xc4, 0x0f, 0x1c, 0x24, 0x49, 0x00, 0x00, 0x20, 0x00, 0x59, 0x00,
   0x00, 0x00, 0x00, 0x80, 0x4f, 0x18, 0x00, 0x00, 0x49, 0x00, 0x44, 0x08,
   0x18, 0x49, 0x12, 0x00, 0x00, 0x60, 0x09, 0x18, 0x00, 0x80, 0x00, 0x01
   0x40, 0x28, 0x5a, 0x00, 0x20, 0x48, 0x00, 0x84, 0x07, 0x18, 0x92, 0x04,
   0x00, 0x00};
