#define excy_0s_width 50
#define excy_0s_height 80
static char excy_0s_bits[] = {
   0x00, 0x00, 0x00, 0x00, 0x00, 0x00, 0x00, 0x00, 0x00, 0x80, 0x07, 0x00,
   0x00, 0x00, 0x00, 0x00, 0x80, 0x03, 0x00, 0x00, 0x00, 0x00, 0x00, 0x80,
   0x07, 0x00, 0x00, 0x00, 0x00, 0x00, 0x80, 0x07, 0x00, 0x00, 0x00, 0x00,
   0x00, 0x80, 0x03, 0x00, 0x00, 0x00, 0x00, 0x00, 0x80, 0x07, 0x00, 0x00,
   0x00, 0xc0, 0xbd, 0xb7, 0xef, 0xde, 0x0b, 0x00 0xc0, 0xff, 0xff, 0xff,
   0xff, 0x0f, 0x00, 0x40, 0x46, 0x48, 0x08, 0xa1, 0x0a, 0x00, 0xc0, 0x06,
   0x00, 0x00, 0x80, 0x0e, 0x00, 0xc0, 0x06, 0x00, 0x01, 0x80, 0x05, 0x00,
   0xc0, 0x04, 0x00, 0x01, 0x80, 0x0d, 0x00, 0x40, 0x07, 0x80, 0x03, 0x80,
   0x0a, 0x00, 0xc0, 0x02, 0x80, 0x03, 0x80, 0x0d, 0x00, 0xc0, 0x04, 0x80,
   0x03, 0xc0, 0x05, 0x00 0x40, 0x06, 0x40, 0x05, 0x80, 0x0c, 0x00, 0xc0,
   0x07, 0x40, 0x05, 0x80, 0x07, 0x00, 0xc0, 0x04, 0x00, 0x01, 0x80, 0x09,
   0x00, 0x40, 0x06, 0x00, 0x01, 0x80, 0x0c, 0x00, 0xc0, 0x03, 0x00, 0x01,
   0x80, 0x0f, 0x00, 0xc0, 0x44, 0x10, 0x01, 0x80, 0x09, 0x00, 0x40, 0x46,
   0x12, 0x01, 0xc0, 0x0c, 0x00, 0xc0, 0x46, 0x12, 0x01, 0x80, 0x07, 0x00
   0xc0, 0x45, 0x15, 0x01, 0x80, 0x09, 0x00, 0x40, 0x46, 0x15, 0x01, 0x80,
   0x0c, 0x00, 0x40, 0x83, 0x08, 0x01, 0x80, 0x07, 0x00, 0xc0, 0x86, 0x08,
   0x01, 0x80, 0x0d, 0x00, 0xc0, 0x04, 0x00, 0x01, 0x80, 0x08, 0x00, 0x40,
   0x07, 0x00, 0x01, 0x80, 0x0f, 0x00, 0xc0, 0xc6, 0xff, 0xff, 0x9f, 0x05,
   0x00, 0xc0, 0x04, 0x00, 0x01, 0x80, 0x09, 0x00 0x40, 0x07, 0x00, 0x01,
   0x80, 0x0e, 0x00, 0xc0, 0x02, 0x00, 0x01, 0x80, 0x0d, 0x00, 0xc0, 0x04,
   0x00, 0x01, 0x80, 0x09, 0x00, 0x40, 0x07, 0x00, 0x01, 0x80, 0x0e, 0x00,
   0xc0, 0x06, 0x00, 0x01, 0x80, 0x05, 0x00, 0xc0, 0x04, 0x00, 0x01, 0x80,
   0x0d, 0x00, 0x40, 0x07, 0x00, 0x01, 0x80, 0x0a, 0x00, 0xc0, 0x02, 0x00,
   0x01, 0x80, 0x0d, 0x00 0xc0, 0x04, 0x00, 0x01, 0xc0, 0x05, 0x00, 0x40,
   0x07, 0x00, 0x01, 0x80, 0x0c, 0x00, 0xc0, 0x06, 0x00, 0x01, 0x80, 0x07,
   0x00, 0xc0, 0x04, 0x00, 0x01, 0x80, 0x09, 0x00, 0x40, 0x06, 0x00, 0x01,
   0x80, 0x0c, 0x00, 0xc0, 0x03, 0x00, 0x01, 0x80, 0x0f, 0x00, 0xc0, 0x04,
   0x00, 0x01, 0x80, 0x09, 0x00, 0x40, 0x06, 0x00, 0x01, 0x80, 0x0c, 0x00
   0xc0, 0x07, 0x00, 0x01, 0x80, 0x07, 0x00, 0xc0, 0x04, 0x00, 0x01, 0x80,
   0x0d, 0x00, 0x40, 0x06, 0x00, 0x01, 0x80, 0x04, 0x00, 0xc0, 0xc6, 0xff,
   0xff, 0xcf, 0x0f, 0x00, 0xc0, 0x05, 0x00, 0x01, 0x80, 0x09, 0x00, 0x40,
   0x04, 0x00, 0x01, 0x80, 0x0c, 0x00, 0xc0, 0x06, 0x00, 0x01, 0x80, 0x07,
   0x00, 0xc0, 0x05, 0x00, 0x01, 0x80, 0x0d, 0x00 0x40, 0x06, 0x00, 0x01,
   0x80, 0x08, 0x00, 0xc0, 0x06, 0x00, 0x01, 0x80, 0x0f, 0x00, 0xc0, 0x06,
   0x00, 0x01, 0xc0, 0x05, 0x00, 0xc0, 0x04, 0x00, 0x01, 0x80, 0x0c, 0x00,
   0x40, 0x07, 0x00, 0x01, 0x80, 0x06, 0x00, 0xc0, 0x02, 0x00, 0x01, 0x80,
   0x0d, 0x00, 0xc0, 0x04, 0x00, 0x01, 0x80, 0x05, 0x00, 0x40, 0x07, 0x00,
   0x01, 0x80, 0x0e, 0x00 0xc0, 0x06, 0x00, 0x01, 0x80, 0x05, 0x00, 0xc0,
   0x04, 0x00, 0x01, 0x80, 0x0d, 0x00, 0x40, 0x07, 0x00, 0x01, 0x80, 0x0a,
   0x00, 0xc0, 0x02, 0x00, 0x01, 0x80, 0x0d, 0x00, 0xc0, 0x04, 0x00, 0x01,
   0x80, 0x05, 0x00, 0x40, 0x07, 0x00, 0x00, 0x80, 0x0e, 0x00, 0xc0, 0x06,
   0x88, 0x24, 0xa9, 0x0d, 0x00, 0xc0, 0xff, 0xff, 0xff, 0xff, 0x0f, 0x00
   0xc0, 0xff, 0xff, 0xff, 0xff, 0x07, 0x00, 0x00, 0x00, 0x80, 0x07, 0x00,
   0x00, 0x00, 0x00, 0x00, 0x80, 0x03, 0x00, 0x00, 0x00, 0x00, 0x00, 0x80,
   0x07, 0x00, 0x00, 0x00, 0x00, 0x00, 0x80, 0x03, 0x00, 0x00, 0x00, 0x00,
   0x00, 0x80, 0x07, 0x00, 0x00, 0x00, 0x00, 0x00, 0x00, 0x03, 0x00, 0x00,
   0x00, 0x00, 0x00, 0x00, 0x00, 0x00, 0x00, 0x00};
