#define excy_0n_width 50
#define excy_0n_height 80
static char excy_0n_bits[] = {
   0x00, 0x00, 0x00, 0x00, 0x00, 0x00, 0x00, 0x00, 0x00, 0x80, 0x07, 0x00,
   0x00, 0x00, 0x00, 0x00, 0x80, 0x07, 0x00, 0x00, 0x00, 0x00, 0x00, 0x00,
   0x07, 0x00, 0x00, 0x00, 0x00, 0x00, 0x80, 0x07, 0x00, 0x00, 0x00, 0x00,
   0x00, 0x80, 0x07, 0x00, 0x00, 0x00, 0x00, 0x00, 0x00, 0x07, 0x00, 0x00,
   0x00, 0xc0, 0xff, 0xff, 0xb7, 0xff, 0x07, 0x00 0x80, 0xff, 0xff, 0xff,
   0xff, 0x0f, 0x00, 0xc0, 0x05, 0x00, 0x44, 0x80, 0x0d, 0x00, 0x40, 0x04,
   0x00, 0x00, 0x80, 0x08, 0x00, 0xc0, 0x06, 0x00, 0x02, 0x80, 0x0d, 0x00,
   0x40, 0x07, 0x00, 0x02, 0x80, 0x0d, 0x00, 0xc0, 0x04, 0x00, 0x02, 0x80,
   0x0a, 0x00, 0x40, 0x06, 0x00, 0x02, 0x80, 0x0c, 0x00, 0xc0, 0x05, 0x00,
   0x02, 0x80, 0x0f, 0x00 0x80, 0x06, 0x00, 0x02, 0x80, 0x09, 0x00, 0x40,
   0x06, 0x00, 0x02, 0x80, 0x0c, 0x00, 0xc0, 0x06, 0x00, 0x02, 0x80, 0x0d,
   0x00, 0xc0, 0x04, 0x00, 0x02, 0x80, 0x09, 0x00, 0x40, 0x0d, 0x00, 0x02,
   0x80, 0x0c, 0x00, 0x40, 0x07, 0x00, 0x02, 0x80, 0x0d, 0x00, 0xc0, 0x04,
   0x00, 0x02, 0x80, 0x0b, 0x00, 0x40, 0x06, 0x00, 0x02, 0x80, 0x08, 0x00
   0x40, 0x07, 0x00, 0x02, 0x80, 0x0e, 0x00, 0xc0, 0x05, 0x00, 0x02, 0x80,
   0x0d, 0x00, 0x40, 0x04, 0x00, 0x02, 0x80, 0x08, 0x00, 0x40, 0x07, 0x00,
   0x02, 0x80, 0x0d, 0x00, 0xc0, 0xe4, 0xff, 0xff, 0x9f, 0x0b, 0x00, 0x80,
   0x06, 0x00, 0x02, 0x80, 0x0c, 0x00, 0x40, 0x07, 0x00, 0x02, 0x80, 0x0e,
   0x00, 0xc0, 0x04, 0x00, 0x02, 0x80, 0x09, 0x00 0x40, 0x0d, 0x00, 0x02,
   0x80, 0x0a, 0x00, 0x40, 0x07, 0x00, 0x02, 0x80, 0x0e, 0x00, 0xc0, 0x04,
   0x00, 0x02, 0x80, 0x0d, 0x00, 0x40, 0x05, 0x00, 0x02, 0x80, 0x09, 0x00,
   0x40, 0x06, 0x00, 0x02, 0x80, 0x0c, 0x00, 0xc0, 0x07, 0x00, 0x02, 0x80,
   0x0b, 0x00, 0x40, 0x04, 0x00, 0x02, 0x80, 0x0c, 0x00, 0x40, 0x07, 0x00,
   0x02, 0x80, 0x0d, 0x00 0xc0, 0x06, 0x00, 0x02, 0x80, 0x0a, 0x00, 0x80,
   0x04, 0x00, 0x02, 0x80, 0x0d, 0x00, 0xc0, 0x06, 0x00, 0x02, 0x80, 0x0c,
   0x00, 0x40, 0x07, 0x00, 0x02, 0x80, 0x0b, 0x00, 0xc0, 0x04, 0x00, 0x02,
   0x80, 0x09, 0x00, 0x40, 0x06, 0x00, 0x02, 0x80, 0x0c, 0x00, 0xc0, 0x06,
   0x00, 0x02, 0x80, 0x0d, 0x00, 0x80, 0x05, 0x00, 0x02, 0x80, 0x0d, 0x00
   0x40, 0x06, 0x01, 0x02, 0x80, 0x08, 0x00, 0xc0, 0xe6, 0xff, 0xff, 0x9f,
   0x0f, 0x00, 0xc0, 0x05, 0x00, 0x02, 0x80, 0x09, 0x00, 0x40, 0x04, 0x00,
   0x02, 0x80, 0x0c, 0x00, 0x40, 0x07, 0x00, 0x42, 0x84, 0x0e, 0x00, 0xc0,
   0x05, 0x00, 0x42, 0x84, 0x09, 0x00, 0x40, 0x0c, 0x00, 0xa2, 0x8a, 0x0a,
   0x00, 0x40, 0x07, 0x00, 0xa2, 0x8a, 0x0e, 0x00 0xc0, 0x06, 0x00, 0x22,
   0x89, 0x0d, 0x00, 0x80, 0x04, 0x00, 0x22, 0x89, 0x08, 0x00, 0x40, 0x07,
   0x00, 0x22, 0x88, 0x0d, 0x00, 0xc0, 0x04, 0x00, 0x02, 0x80, 0x0b, 0x00,
   0x40, 0x05, 0x00, 0x02, 0x80, 0x0c, 0x00, 0x40, 0x07, 0x00, 0x02, 0x80,
   0x0d, 0x00, 0xc0, 0x06, 0x80, 0x0a, 0x80, 0x0d, 0x00, 0x40, 0x04, 0x80,
   0x0a, 0x80, 0x08, 0x00 0xc0, 0x06, 0x00, 0x07, 0x80, 0x0d, 0x00, 0x80,
   0x0d, 0x00, 0x07, 0x80, 0x0d, 0x00, 0xc0, 0x06, 0x00, 0x07, 0x80, 0x0a,
   0x00, 0x40, 0x06, 0x00, 0x02, 0x80, 0x0c, 0x00, 0xc0, 0x06, 0x00, 0x02,
   0x80, 0x0f, 0x00, 0xc0, 0x04, 0x00, 0x00, 0x80, 0x09, 0x00, 0x80, 0xae,
   0xaa, 0xaa, 0xaa, 0x0a, 0x00, 0xc0, 0xff, 0xff, 0xff, 0xff, 0x0f, 0x00
   0x80, 0xdb, 0xdd, 0xef, 0xee, 0x0f, 0x00, 0x00, 0x00, 0x80, 0x07, 0x00,
   0x00, 0x00, 0x00, 0x00, 0x00, 0x07, 0x00, 0x00, 0x00, 0x00, 0x00, 0x80,
   0x07, 0x00, 0x00, 0x00, 0x00, 0x00, 0x80, 0x07, 0x00, 0x00, 0x00, 0x00,
   0x00, 0x00, 0x07, 0x00, 0x00, 0x00, 0x00, 0x00, 0x80, 0x07, 0x00, 0x00,
   0x00, 0x00, 0x00, 0x00, 0x00, 0x00, 0x00, 0x00};
