#define excy_1e_width 133
#define excy_1e_height 50
static char excy_1e_bits[] = {
   0x00, 0x00, 0x00, 0x00, 0x00, 0x00, 0x00, 0x00, 0x00, 0x00, 0x00, 0x00,
   0x00, 0x00, 0x00, 0x00, 0x00, 0x00, 0x00, 0x00, 0x00, 0x00, 0x00, 0x00,
   0x00, 0x00, 0x00, 0x00, 0x00, 0x00, 0x00, 0x00, 0x00, 0x00, 0x00, 0x00,
   0x00, 0x00, 0x00, 0x00, 0x00, 0x00, 0x00, 0x00, 0x00, 0x00, 0x00, 0x00,
   0x00, 0x00, 0x00, 0x00, 0x00, 0x00, 0x00, 0x00, 0x00, 0x00, 0x00, 0x00,
   0x00, 0x00, 0x00, 0x00, 0x00, 0x00, 0x00, 0x00, 0x00, 0x00, 0x00, 0x00,
   0x00, 0x00, 0x00, 0x00, 0x00, 0x00, 0x00, 0x00, 0x00, 0x00, 0x00, 0x00,
   0x00, 0x00, 0x00, 0x00, 0x00, 0x00, 0x00, 0x00, 0x00, 0x00, 0x00, 0x00,
   0x00, 0x00, 0x00, 0x00, 0x00, 0x00, 0x00, 0xe8, 0xff, 0xff, 0xff, 0xff,
   0xff, 0xff, 0xff, 0xff, 0xff, 0xff, 0xff, 0xff, 0x7f, 0x01, 0x00, 0x00,
   0xb8, 0xa2, 0x94, 0x62, 0x08, 0xa1, 0x94, 0x52, 0x8a, 0x31, 0xc6, 0x58,
   0xa5, 0xf4, 0x00, 0x00 0x00, 0xb0, 0x96, 0x10, 0x8a, 0x58, 0xa7, 0x94,
   0xa2, 0xac, 0xb2, 0x5a, 0x53, 0x4a, 0xe9, 0x01, 0x00, 0x00, 0x78, 0x54,
   0x77, 0xcd, 0x33, 0xd6, 0x5a, 0x6d, 0x35, 0xc7, 0x1c, 0x6b, 0x9c, 0xd3,
   0x00, 0x00, 0x00, 0xe8, 0xff, 0xff, 0xff, 0xff, 0xff, 0xff, 0xff, 0xff,
   0xff, 0xff, 0xff, 0xff, 0xff, 0x01, 0x00, 0x00, 0xb8, 0x00, 0x00, 0x00,
   0x80, 0x00, 0x00, 0x00, 0x00, 0x20, 0x00, 0x00, 0x00, 0xd0, 0x00, 0x00,
   0x00, 0xb0, 0x00, 0x00, 0x00, 0x00, 0x00, 0x00, 0x00, 0x00, 0x00, 0x00,
   0x00, 0x00, 0xe0, 0x01, 0x00, 0x00, 0x38, 0x00, 0x00, 0x20, 0x00, 0x00,
   0x00, 0x04, 0x00, 0x00, 0x40, 0x00, 0x00, 0xc0, 0x00, 0x00, 0x00, 0x68,
   0x00, 0x00, 0x60, 0x01, 0x00, 0x00, 0x2c, 0x00, 0x00, 0xc0, 0x02, 0x00,
   0xd0, 0x01, 0x00, 0x00, 0xb8, 0x00, 0x00, 0x60, 0x00, 0x00, 0x00, 0x0c,
   0x00, 0x00, 0xc0, 0x00, 0x00, 0xe0, 0x00, 0x00 0x00, 0x30, 0x00, 0x00,
   0x60, 0x00, 0x00, 0x00, 0x0c, 0x00, 0x00, 0xc0, 0x00, 0x00, 0xd0, 0x01,
   0x00, 0x00, 0xb8, 0x00, 0x00, 0x60, 0x00, 0x00, 0x00, 0x0c, 0x00, 0x00,
   0xc0, 0x00, 0x00, 0xc0, 0x00, 0x00, 0x00, 0x68, 0x00, 0x00, 0x60, 0x00,
   0x00, 0x00, 0x0c, 0x00, 0x00, 0xc0, 0x00, 0x00, 0xd0, 0x01, 0x00, 0x00,
   0x38, 0x00, 0x00, 0x60, 0x00, 0x00, 0x00, 0x0c, 0x00, 0x00, 0xc0, 0x00,
   0x00, 0xe0, 0x00, 0x00, 0x00, 0xb0, 0x00, 0x00, 0x60, 0x00, 0x00, 0x00,
   0x0c, 0x00, 0x00, 0xc0, 0x00, 0x00, 0xc0, 0x01, 0x00, 0x00, 0xb8, 0x00,
   0x00, 0x60, 0x00, 0x00, 0x00, 0x0c, 0x00, 0x00, 0xc0, 0x00, 0x00, 0xd0,
   0x01, 0x00, 0x00, 0x28, 0x00, 0x00, 0x60, 0x00, 0x00, 0x00, 0x0c, 0x00,
   0x00, 0xc0, 0x00, 0x00, 0xe0, 0x00, 0x00, 0xba, 0x7b, 0x00, 0x1c, 0x60,
   0x00, 0x00, 0x00, 0x0c, 0x00, 0x00, 0xc0, 0x00, 0x00, 0xd0, 0xf7, 0x06
   0xfe, 0xbf, 0xe0, 0x03, 0x60, 0x00, 0x00, 0x00, 0x0c, 0x00, 0x00, 0xc0,
   0x00, 0x00, 0xc0, 0xff, 0x07, 0xfe, 0xbf, 0xfc, 0xff, 0xff, 0xff, 0xff,
   0xff, 0xff, 0xff, 0xff, 0xff, 0xff, 0xff, 0xd3, 0xff, 0x07, 0xfe, 0x3f,
   0xe0, 0x03, 0x60, 0x00, 0x00, 0x00, 0x0c, 0x00, 0x00, 0xc0, 0x00, 0x00,
   0xe0, 0xff, 0x07, 0x00, 0x70, 0x00, 0x1c, 0x60, 0x00, 0x00, 0x00, 0x0c,
   0x00, 0x00, 0xc0, 0x00, 0x00, 0xd0, 0x01, 0x00, 0x00, 0xb8, 0x00, 0x00,
   0x60, 0x00, 0x00, 0x00, 0x0c, 0x00, 0x00, 0xc0, 0x00, 0x00, 0xc0, 0x00,
   0x00, 0x00, 0x30, 0x00, 0x00, 0x60, 0x00, 0x00, 0x00, 0x0c, 0x00, 0x00,
   0xc0, 0x00, 0x00, 0xd0, 0x01, 0x00, 0x00, 0x68, 0x00, 0x1f, 0x60, 0x00,
   0x00, 0x00, 0x0c, 0x00, 0x00, 0xc0, 0x00, 0x00, 0xe0, 0x00, 0x00, 0x00,
   0xb8, 0x00, 0x60, 0x60, 0x00, 0x00, 0x00, 0x0c, 0x00, 0x00, 0xc0, 0x00,
   0x00, 0xc0, 0x01, 0x00 0x00, 0x30, 0x00, 0x18, 0x60, 0x00, 0x00, 0x00,
   0x0c, 0x00, 0x00, 0xc0, 0x00, 0x00, 0xd0, 0x00, 0x00, 0x00, 0x68, 0x00,
   0x06, 0x60, 0x00, 0x00, 0x00, 0x0c, 0x00, 0x00, 0xc0, 0x00, 0x00, 0xe0,
   0x01, 0x00, 0x00, 0xb8, 0x00, 0x18, 0x60, 0x00, 0x00, 0x00, 0x0c, 0x00,
   0x00, 0xc0, 0x00, 0x00, 0xd0, 0x00, 0x00, 0x00, 0xb0, 0x00, 0x60, 0x60,
   0x00, 0x00, 0x00, 0x0c, 0x00, 0x00, 0xc0, 0x00, 0x00, 0xc0, 0x01, 0x00,
   0x00, 0x68, 0x00, 0x1f, 0x20, 0x01, 0x00, 0x00, 0x04, 0x00, 0x00, 0x40,
   0x02, 0x00, 0xd0, 0x00, 0x00, 0x00, 0x38, 0x00, 0x00, 0x00, 0x00, 0x00,
   0x00, 0x00, 0x00, 0x00, 0x00, 0x00, 0x00, 0xe0, 0x01, 0x00, 0x00, 0xb0,
   0x00, 0x00, 0x00, 0x00, 0x00, 0x00, 0x00, 0x00, 0x00, 0x00, 0x00, 0x00,
   0xc0, 0x00, 0x00, 0x00, 0xf8, 0xff, 0xff, 0xff, 0xff, 0xff, 0xff, 0xff,
   0xff, 0xff, 0xff, 0xff, 0xff, 0xff, 0x01, 0x00 0x00, 0xb0, 0xa5, 0x94,
   0x52, 0xac, 0xb5, 0x96, 0x69, 0xaf, 0xb5, 0xd6, 0x5a, 0xef, 0xf5, 0x00,
   0x00, 0x00, 0x68, 0x4a, 0x29, 0xc6, 0x28, 0x45, 0x28, 0x53, 0xa8, 0xb5,
   0x4a, 0x51, 0x08, 0xf9, 0x01, 0x00, 0x00, 0xb8, 0x9c, 0xf3, 0xae, 0x33,
   0xd6, 0x5b, 0xad, 0x35, 0xc6, 0x9c, 0xe7, 0xde, 0xd2, 0x00, 0x00, 0x00,
   0xf0, 0xff, 0xff, 0xff, 0xff, 0xff, 0xff, 0xff, 0xff, 0xff, 0xff, 0xff,
   0xff, 0xff, 0x01, 0x00, 0x00, 0x00, 0x00, 0x00, 0x00, 0x00, 0x00, 0x00,
   0x00, 0x00, 0x00, 0x00, 0x00, 0x00, 0x00, 0x00, 0x00, 0x00, 0x00, 0x00,
   0x00, 0x00, 0x00, 0x00, 0x00, 0x00, 0x00, 0x00, 0x00, 0x00, 0x00, 0x00,
   0x00, 0x00, 0x00, 0x00, 0x00, 0x00, 0x00, 0x00, 0x00, 0x00, 0x00, 0x00,
   0x00, 0x00, 0x00, 0x00, 0x00, 0x00, 0x00, 0x00, 0x00, 0x00, 0x00, 0x00,
   0x00, 0x00, 0x00, 0x00, 0x00, 0x00, 0x00, 0x00, 0x00, 0x00, 0x00, 0x00
   0x00, 0x00, 0x00, 0x00, 0x00, 0x00, 0x00, 0x00, 0x00, 0x00, 0x00, 0x00,
   0x00, 0x00, 0x00, 0x00, 0x00, 0x00, 0x00, 0x00, 0x00, 0x00, 0x00, 0x00,
   0x00, 0x00, 0x00, 0x00, 0x00, 0x00, 0x00, 0x00, 0x00, 0x00};
