#define excy_0w_width 80
#define excy_0w_height 50
static char excy_0w_bits[] = {
   0x00, 0x00, 0x00, 0x00, 0x00, 0x00, 0x00, 0x00, 0x00, 0x00, 0x00, 0x00,
   0x00, 0x00, 0x00, 0x00, 0x00, 0x00, 0x00, 0x00, 0x00, 0x00, 0x00, 0x00,
   0x00, 0x00, 0x00, 0x00, 0x00, 0x00, 0x00, 0x00, 0x00, 0x00, 0x00, 0x00,
   0x00, 0x00, 0x00, 0x00, 0x00, 0x00, 0x00, 0x00, 0x00, 0x00, 0x00, 0x00,
   0x00, 0x00, 0x00, 0x00, 0x00, 0x00, 0x00, 0x00, 0x00, 0x00, 0x00, 0x00,
   0x80, 0xff, 0xff, 0xff, 0xff, 0xff, 0xff, 0xff, 0xff, 0x01, 0x80, 0xad,
   0xb6, 0x6d, 0xdb, 0x6d, 0xdb, 0xb6, 0xdd, 0x01 0x80, 0x53, 0x49, 0x92,
   0x24, 0x92, 0x24, 0x49, 0xa2, 0x00, 0x00, 0xb7, 0x6d, 0xdb, 0xb6, 0xdd,
   0xb6, 0xed, 0xb6, 0x01, 0x80, 0xff, 0xff, 0xff, 0xff, 0xf7, 0xff, 0xbf,
   0xff, 0x01, 0x80, 0x01, 0x00, 0x00, 0x00, 0x00, 0x00, 0x00, 0x80, 0x01,
   0x80, 0x01, 0x00, 0x00, 0x00, 0x00, 0x00, 0x00, 0x80, 0x01, 0x80, 0x01,
   0x00, 0x00, 0x00, 0x00, 0x00, 0x00, 0x80, 0x01, 0x00, 0x03, 0x00, 0x10,
   0x00, 0x00, 0xc2, 0x07, 0x80, 0x01, 0x80, 0x01, 0x00, 0x10, 0x00, 0x00,
   0x32, 0x00, 0xc0, 0x00 0x80, 0x01, 0x00, 0x10, 0x00, 0x00, 0xc2, 0x00,
   0x80, 0x01, 0x80, 0x01, 0x00, 0x10, 0x00, 0x00, 0x02, 0x03, 0x80, 0x01,
   0x80, 0x01, 0x00, 0x10, 0x00, 0x00, 0xc2, 0x00, 0x80, 0x01, 0x00, 0x03,
   0x00, 0x10, 0x00, 0x00, 0x32, 0x00, 0xc0, 0x01, 0x80, 0x01, 0x00, 0x10,
   0x00, 0x00, 0xc2, 0x07, 0x80, 0x00, 0x80, 0x01, 0x00, 0x10, 0x00, 0x00,
   0x02, 0x00, 0x80, 0x01, 0x80, 0x01, 0x00, 0x10, 0x00, 0x00, 0x02, 0xc0,
   0x80, 0x01, 0xfe, 0x01, 0x00, 0x10, 0x00, 0x00, 0x02, 0x00, 0xc7, 0x7f
   0xfe, 0xfb, 0xff, 0xff, 0xff, 0xff, 0xff, 0xff, 0x9f, 0x7f, 0xfe, 0x01,
   0x00, 0x10, 0x00, 0x00, 0x02, 0x00, 0x87, 0x7f, 0xaa, 0x01, 0x00, 0x10,
   0x00, 0x00, 0x02, 0xc0, 0x80, 0x2b, 0x80, 0x01, 0x00, 0x10, 0x00, 0x00,
   0x02, 0x00, 0xc0, 0x01, 0x80, 0x03, 0x00, 0x10, 0x00, 0x00, 0x02, 0x00,
   0x80, 0x00, 0x80, 0x01, 0x00, 0x10, 0x00, 0x00, 0x02, 0x00, 0x80, 0x01,
   0x80, 0x01, 0x00, 0x10, 0x00, 0x00, 0x02, 0x00, 0x80, 0x01, 0x00, 0x01,
   0x00, 0x10, 0x00, 0x00, 0x02, 0x00, 0xc0, 0x01 0x80, 0x03, 0x00, 0x10,
   0x00, 0x00, 0x02, 0x00, 0x80, 0x00, 0x80, 0x01, 0x00, 0x10, 0x00, 0x00,
   0x02, 0x00, 0x80, 0x01, 0x80, 0x01, 0x00, 0x10, 0x00, 0x00, 0x02, 0x00,
   0x80, 0x01, 0x80, 0x01, 0x00, 0x10, 0x00, 0x00, 0x02, 0x00, 0xc0, 0x01,
   0x00, 0x03, 0x00, 0x00, 0x00, 0x00, 0x00, 0x00, 0x80, 0x01, 0x80, 0x01,
   0x00, 0x00, 0x00, 0x00, 0x00, 0x00, 0x80, 0x00, 0x80, 0x01, 0x00, 0x00,
   0x00, 0x00, 0x00, 0x00, 0xc0, 0x01, 0x80, 0xff, 0xff, 0xff, 0xff, 0xff,
   0xff, 0xff, 0xff, 0x01 0x80, 0xdb, 0xb6, 0x6d, 0x9b, 0x6d, 0x9b, 0x35,
   0xdb, 0x00, 0x00, 0x93, 0x64, 0x92, 0x24, 0x91, 0xa4, 0x44, 0xa2, 0x01,
   0x80, 0xf7, 0x5f, 0xf7, 0xed, 0xdb, 0x76, 0xfb, 0xf7, 0x01, 0x00, 0x5f,
   0xf5, 0x5d, 0xbf, 0xbe, 0xdf, 0x5f, 0x5d, 0x01, 0x00, 0x00, 0x00, 0x00,
   0x00, 0x00, 0x00, 0x00, 0x00, 0x00, 0x00, 0x00, 0x00, 0x00, 0x00, 0x00,
   0x00, 0x00, 0x00, 0x00, 0x00, 0x00, 0x00, 0x00, 0x00, 0x00, 0x00, 0x00,
   0x00, 0x00, 0x00, 0x00, 0x00, 0x00, 0x00, 0x00, 0x00, 0x00, 0x00, 0x00
   0x00, 0x00, 0x00, 0x00, 0x00, 0x00, 0x00, 0x00, 0x00, 0x00, 0x00, 0x00,
   0x00, 0x00, 0x00, 0x00, 0x00, 0x00, 0x00, 0x00};
