#define excy_1n_width 50
#define excy_1n_height 133
static char excy_1n_bits[] = {
   0x00, 0x00, 0x00, 0x00, 0x00, 0x00, 0x00, 0x00, 0x00, 0x00, 0x00, 0x00,
   0x00, 0x00, 0x00, 0x00, 0x80, 0x07, 0x00, 0x00, 0x00, 0x00, 0x00, 0x80,
   0x07, 0x00, 0x00, 0x00, 0x00, 0x00, 0x00, 0x07, 0x00, 0x00, 0x00, 0x00,
   0x00, 0x80, 0x07, 0x00, 0x00, 0x00, 0x00, 0x00, 0x80, 0x07, 0x00, 0x00,
   0x00, 0x00, 0x00, 0x00, 0x07, 0x00, 0x00, 0x00 0x00, 0x00, 0x80, 0x07,
   0x00, 0x00, 0x00, 0x00, 0x00, 0x80, 0x07, 0x00, 0x00, 0x00, 0x00, 0x00,
   0x00, 0x07, 0x00, 0x00, 0x00, 0x00, 0x00, 0x80, 0x07, 0x00, 0x00, 0x00,
   0xc0, 0xff, 0xff, 0xd7, 0xee, 0x07, 0x00, 0x80, 0xaa, 0xaa, 0xbf, 0xbb,
   0x0a, 0x00, 0xc0, 0xff, 0xff, 0xff, 0xff, 0x0f, 0x00, 0xc0, 0x95, 0x24,
   0x40, 0xc0, 0x0b, 0x00 0xc0, 0x4d, 0x92, 0x95, 0x9a, 0x0f, 0x00, 0x80,
   0x04, 0x00, 0x00, 0x80, 0x08, 0x00, 0xc0, 0x06, 0x00, 0x00, 0x80, 0x0d,
   0x00, 0x40, 0x06, 0x00, 0x02, 0x80, 0x0c, 0x00, 0xc0, 0x06, 0x00, 0x02,
   0x80, 0x0b, 0x00, 0xc0, 0x06, 0x00, 0x02, 0x80, 0x0e, 0x00, 0x80, 0x04,
   0x00, 0x02, 0x80, 0x09, 0x00, 0xc0, 0x06, 0x00, 0x02, 0x80, 0x0a, 0x00
   0x40, 0x06, 0x00, 0x02, 0x80, 0x0c, 0x00, 0xc0, 0x05, 0x00, 0x02, 0x80,
   0x0f, 0x00, 0x40, 0x07, 0x00, 0x02, 0x80, 0x0c, 0x00, 0xc0, 0x04, 0x00,
   0x02, 0x80, 0x09, 0x00, 0x80, 0x06, 0x00, 0x02, 0x80, 0x0d, 0x00, 0xc0,
   0x04, 0x00, 0x02, 0x80, 0x0c, 0x00, 0x40, 0x07, 0x00, 0x02, 0x80, 0x0d,
   0x00, 0xc0, 0x06, 0x00, 0x02, 0x80, 0x0e, 0x00 0x80, 0x04, 0x00, 0x02,
   0x80, 0x09, 0x00, 0xc0, 0x0d, 0x00, 0x02, 0x80, 0x0d, 0x00, 0x40, 0x06,
   0x00, 0x02, 0x80, 0x0c, 0x00, 0xc0, 0x06, 0x00, 0x02, 0x80, 0x0d, 0x00,
   0x40, 0x87, 0x24, 0x12, 0x84, 0x0e, 0x00, 0xc0, 0xe4, 0xff, 0xff, 0x9f,
   0x09, 0x00, 0xc0, 0xc5, 0xff, 0xff, 0x8f, 0x0b, 0x00, 0x80, 0x04, 0x00,
   0x02, 0x80, 0x08, 0x00 0x40, 0x07, 0x00, 0x02, 0x80, 0x0e, 0x00, 0x40,
   0x07, 0x00, 0x02, 0x80, 0x0e, 0x00, 0xc0, 0x04, 0x00, 0x02, 0x80, 0x09,
   0x00, 0xc0, 0x0d, 0x00, 0x02, 0x80, 0x0b, 0x00, 0x40, 0x06, 0x00, 0x02,
   0x80, 0x0c, 0x00, 0x40, 0x07, 0x00, 0x02, 0x80, 0x0e, 0x00, 0x40, 0x06,
   0x00, 0x02, 0x80, 0x0c, 0x00, 0xc0, 0x05, 0x00, 0x02, 0x80, 0x0b, 0x00
   0xc0, 0x05, 0x00, 0x02, 0x80, 0x0d, 0x00, 0x80, 0x04, 0x00, 0x02, 0x80,
   0x08, 0x00, 0x40, 0x06, 0x00, 0x02, 0x80, 0x0e, 0x00, 0xc0, 0x0e, 0x00,
   0x02, 0x80, 0x0e, 0x00, 0xc0, 0x05, 0x00, 0x02, 0x80, 0x09, 0x00, 0x80,
   0x05, 0x00, 0x02, 0x80, 0x0b, 0x00, 0x40, 0x06, 0x00, 0x02, 0x80, 0x0c,
   0x00, 0xc0, 0x06, 0x00, 0x02, 0x80, 0x0e, 0x00 0x40, 0x07, 0x00, 0x02,
   0x80, 0x0c, 0x00, 0xc0, 0x04, 0x00, 0x02, 0x80, 0x0b, 0x00, 0xc0, 0x05,
   0x00, 0x02, 0x80, 0x0d, 0x00, 0x80, 0x0c, 0x00, 0x02, 0x00, 0x09, 0x00,
   0x40, 0x07, 0x00, 0x02, 0x80, 0x0e, 0x00, 0x40, 0x06, 0x00, 0x02, 0x80,
   0x0c, 0x00, 0xc0, 0x05, 0x00, 0x02, 0x80, 0x0b, 0x00, 0x40, 0x07, 0x00,
   0x02, 0x80, 0x0d, 0x00 0xc0, 0x84, 0x24, 0x02, 0x80, 0x0a, 0x00, 0x80,
   0xe6, 0xff, 0xff, 0x9f, 0x0c, 0x00, 0x40, 0xc6, 0xff, 0xff, 0x9f, 0x0a,
   0x00, 0xc0, 0x05, 0x00, 0x02, 0x80, 0x0d, 0x00, 0x40, 0x07, 0x00, 0x02,
   0x80, 0x0e, 0x00, 0xc0, 0x04, 0x00, 0x02, 0x80, 0x09, 0x00, 0x40, 0x06,
   0x00, 0x02, 0x80, 0x0c, 0x00, 0x40, 0x05, 0x00, 0x02, 0x80, 0x0a, 0x00
   0xc0, 0x06, 0x00, 0x02, 0x80, 0x0d, 0x00, 0x80, 0x07, 0x00, 0x02, 0x80,
   0x0e, 0x00, 0xc0, 0x04, 0x00, 0x02, 0x80, 0x09, 0x00, 0x40, 0x06, 0x00,
   0x02, 0x80, 0x0c, 0x00, 0x40, 0x06, 0x00, 0x02, 0x80, 0x0c, 0x00, 0xc0,
   0x06, 0x00, 0x02, 0x80, 0x0b, 0x00, 0x40, 0x07, 0x00, 0x02, 0x80, 0x0e,
   0x00, 0xc0, 0x04, 0x00, 0x02, 0x80, 0x09, 0x00 0x40, 0x06, 0x00, 0x02,
   0x80, 0x0c, 0x00, 0x40, 0x06, 0x00, 0x02, 0x80, 0x0c, 0x00, 0xc0, 0x06,
   0x00, 0x02, 0x80, 0x0d, 0x00, 0x80, 0x06, 0x00, 0x02, 0x80, 0x0e, 0x00,
   0xc0, 0x05, 0x00, 0x02, 0x80, 0x09, 0x00, 0x40, 0x0c, 0x00, 0x02, 0x80,
   0x0c, 0x00, 0x40, 0x06, 0x00, 0x02, 0x80, 0x08, 0x00, 0xc0, 0x06, 0x00,
   0x02, 0x80, 0x0f, 0x00 0x80, 0x06, 0x00, 0x02, 0x80, 0x0c, 0x00, 0xc0,
   0x05, 0x00, 0x02, 0x80, 0x0b, 0x00, 0x40, 0x06, 0x00, 0x02, 0x80, 0x08,
   0x00, 0x40, 0x04, 0x00, 0x02, 0x80, 0x0c, 0x00, 0xc0, 0x06, 0x00, 0x02,
   0x80, 0x0e, 0x00, 0x40, 0x47, 0x92, 0x02, 0x80, 0x0e, 0x00, 0xc0, 0xe6,
   0xff, 0xff, 0x9f, 0x09, 0x00, 0x80, 0xc4, 0xff, 0xff, 0x9f, 0x0c, 0x00
   0x40, 0x06, 0x00, 0x02, 0x80, 0x09, 0x00, 0xc0, 0x06, 0x00, 0x02, 0x00,
   0x0d, 0x00, 0x40, 0x07, 0x00, 0x02, 0x80, 0x0e, 0x00, 0xc0, 0x04, 0x00,
   0x02, 0x80, 0x0d, 0x00, 0x80, 0x06, 0x00, 0x02, 0x80, 0x08, 0x00, 0xc0,
   0x04, 0x00, 0x02, 0x80, 0x0d, 0x00, 0x40, 0x06, 0x00, 0x82, 0x88, 0x0c,
   0x00, 0x40, 0x07, 0x00, 0x82, 0x88, 0x0e, 0x00 0xc0, 0x06, 0x80, 0x4a,
   0x95, 0x0d, 0x00, 0x40, 0x05, 0x80, 0x4a, 0x95, 0x08, 0x00, 0xc0, 0x04,
   0x80, 0x4a, 0x92, 0x0d, 0x00, 0x80, 0x06, 0x00, 0x47, 0x92, 0x0c, 0x00,
   0x40, 0x06, 0x00, 0x47, 0x90, 0x0e, 0x00, 0xc0, 0x05, 0x00, 0x07, 0x80,
   0x09, 0x00, 0x40, 0x0d, 0x00, 0x07, 0x80, 0x0a, 0x00, 0xc0, 0x04, 0x00,
   0x07, 0x80, 0x0d, 0x00 0x80, 0x06, 0x00, 0x02, 0x80, 0x0c, 0x00, 0x40,
   0x06, 0x00, 0x02, 0x80, 0x0c, 0x00, 0xc0, 0x05, 0x00, 0x02, 0x80, 0x0b,
   0x00, 0x40, 0x0d, 0x00, 0x00, 0x80, 0x0c, 0x00, 0xc0, 0x06, 0x00, 0x00,
   0x80, 0x09, 0x00, 0x40, 0x55, 0x55, 0x49, 0x84, 0x0d, 0x00, 0xc0, 0x8e,
   0x24, 0x95, 0xaa, 0x0d, 0x00, 0x80, 0xff, 0xff, 0xff, 0xff, 0x0f, 0x00
   0xc0, 0xfd, 0xff, 0xff, 0xfd, 0x0b, 0x00, 0x80, 0x56, 0xd5, 0x57, 0x57,
   0x0d, 0x00, 0x00, 0x00, 0x00, 0x07, 0x00, 0x00, 0x00, 0x00, 0x00, 0x80,
   0x07, 0x00, 0x00, 0x00, 0x00, 0x00, 0x80, 0x07, 0x00, 0x00, 0x00, 0x00,
   0x00, 0x00, 0x07, 0x00, 0x00, 0x00, 0x00, 0x00, 0x80, 0x07, 0x00, 0x00,
   0x00, 0x00, 0x00, 0x80, 0x07, 0x00, 0x00, 0x00 0x00, 0x00, 0x00, 0x07,
   0x00, 0x00, 0x00, 0x00, 0x00, 0x80, 0x07, 0x00, 0x00, 0x00, 0x00, 0x00,
   0x80, 0x03, 0x00, 0x00, 0x00, 0x00, 0x00, 0x00, 0x07, 0x00, 0x00, 0x00,
   0x00, 0x00, 0x00, 0x00, 0x00, 0x00, 0x00};
