#define excy_0e_width 80
#define excy_0e_height 50
static char excy_0e_bits[] = {
   0x00, 0x00, 0x00, 0x00, 0x00, 0x00, 0x00, 0x00, 0x00, 0x00, 0x00, 0x00,
   0x00, 0x00, 0x00, 0x00, 0x00, 0x00, 0x00, 0x00, 0x00, 0x00, 0x00, 0x00,
   0x00, 0x00, 0x00, 0x00, 0x00, 0x00, 0x00, 0x00, 0x00, 0x00, 0x00, 0x00,
   0x00, 0x00, 0x00, 0x00, 0x00, 0x00, 0x00, 0x00, 0x00, 0x00, 0x00, 0x00,
   0x00, 0x00, 0x00, 0x00, 0x00, 0x00, 0x00, 0x00, 0x00, 0x00, 0x00, 0x00,
   0x80, 0xff, 0xff, 0xff, 0xff, 0xff, 0xff, 0xff, 0xff, 0x00, 0x00, 0x25,
   0x49, 0x24, 0x49, 0x92, 0x48, 0x92, 0xe4, 0x01 0x80, 0x4b, 0x92, 0x65,
   0xd5, 0x24, 0xcb, 0xaa, 0xc9, 0x00, 0x80, 0xd9, 0xb6, 0x59, 0x32, 0x6d,
   0xb3, 0x64, 0x9a, 0x01, 0x80, 0xff, 0xff, 0xff, 0xff, 0xff, 0xff, 0xff,
   0xff, 0x01, 0x00, 0x03, 0x00, 0x00, 0x00, 0x00, 0x00, 0x08, 0xc0, 0x01,
   0x80, 0x01, 0x00, 0x00, 0x00, 0x00, 0x00, 0x00, 0x80, 0x01, 0x80, 0x01,
   0x00, 0x40, 0x00, 0x00, 0x08, 0x00, 0xc0, 0x01, 0x80, 0x01, 0x00, 0x40,
   0x00, 0x00, 0x08, 0x00, 0x80, 0x00, 0x00, 0x03, 0x00, 0x40, 0x00, 0x00,
   0x08, 0x00, 0xc0, 0x01 0x80, 0x01, 0x00, 0x40, 0x00, 0x00, 0x08, 0x00,
   0x80, 0x01, 0x80, 0x01, 0x00, 0x40, 0x00, 0x00, 0x08, 0x00, 0xc0, 0x01,
   0x80, 0x03, 0x00, 0x40, 0x00, 0x00, 0x08, 0x00, 0x80, 0x00, 0x00, 0x01,
   0x00, 0x40, 0x00, 0x00, 0x08, 0x00, 0x80, 0x01, 0x80, 0x03, 0x00, 0x40,
   0x00, 0x00, 0x08, 0x00, 0xc0, 0x01, 0x80, 0x01, 0x00, 0x40, 0x00, 0x00,
   0x08, 0x00, 0x80, 0x01, 0x80, 0x01, 0x00, 0x40, 0x00, 0x00, 0x08, 0x00,
   0xc0, 0x01, 0xb6, 0x01, 0x03, 0x40, 0x00, 0x00, 0x08, 0x00, 0x80, 0x35
   0xfe, 0xe3, 0x00, 0x40, 0x00, 0x00, 0x08, 0x00, 0x80, 0x7f, 0xfe, 0xf9,
   0xff, 0xff, 0xff, 0xff, 0xff, 0xff, 0xdf, 0x7f, 0xfe, 0xe1, 0x00, 0x40,
   0x00, 0x00, 0x08, 0x00, 0x80, 0x7f, 0x80, 0x01, 0x03, 0x40, 0x00, 0x00,
   0x08, 0x00, 0xc0, 0x01, 0x00, 0x03, 0x00, 0x40, 0x00, 0x00, 0x08, 0x00,
   0x80, 0x01, 0x80, 0x01, 0xe0, 0x43, 0x00, 0x00, 0x08, 0x00, 0x80, 0x01,
   0x80, 0x01, 0x00, 0x4c, 0x00, 0x00, 0x08, 0x00, 0xc0, 0x00, 0x00, 0x03,
   0x00, 0x43, 0x00, 0x00, 0x08, 0x00, 0x80, 0x01 0x80, 0x01, 0xc0, 0x40,
   0x00, 0x00, 0x08, 0x00, 0xc0, 0x01, 0x80, 0x01, 0x00, 0x43, 0x00, 0x00,
   0x08, 0x00, 0x80, 0x01, 0x00, 0x03, 0x00, 0x4c, 0x00, 0x00, 0x08, 0x00,
   0x80, 0x01, 0x80, 0x01, 0xe0, 0x43, 0x00, 0x00, 0x08, 0x00, 0xc0, 0x01,
   0x80, 0x01, 0x00, 0x40, 0x00, 0x00, 0x08, 0x00, 0x80, 0x00, 0x00, 0x03,
   0x00, 0x00, 0x00, 0x00, 0x00, 0x00, 0xc0, 0x01, 0x80, 0x01, 0x00, 0x00,
   0x00, 0x00, 0x00, 0x00, 0x80, 0x01, 0x80, 0xff, 0xff, 0xff, 0xff, 0xff,
   0xff, 0xff, 0xff, 0x01 0x80, 0x2d, 0x9b, 0xa6, 0xed, 0xb6, 0x6d, 0xdb,
   0xed, 0x00, 0x00, 0x63, 0xa2, 0x54, 0x12, 0x25, 0x49, 0x12, 0xc9, 0x01,
   0x80, 0x9d, 0xb6, 0x69, 0xab, 0x69, 0x93, 0x6d, 0xdb, 0x01, 0x80, 0xff,
   0xff, 0xff, 0xff, 0xff, 0xff, 0xff, 0xff, 0x00, 0x00, 0x00, 0x00, 0x00,
   0x00, 0x00, 0x00, 0x00, 0x00, 0x00, 0x00, 0x00, 0x00, 0x00, 0x00, 0x00,
   0x00, 0x00, 0x00, 0x00, 0x00, 0x00, 0x00, 0x00, 0x00, 0x00, 0x00, 0x00,
   0x00, 0x00, 0x00, 0x00, 0x00, 0x00, 0x00, 0x00, 0x00, 0x00, 0x00, 0x00
   0x00, 0x00, 0x00, 0x00, 0x00, 0x00, 0x00, 0x00, 0x00, 0x00, 0x00, 0x00,
   0x00, 0x00, 0x00, 0x00, 0x00, 0x00, 0x00, 0x00};
