#define excy_1s_width 50
#define excy_1s_height 133
static char excy_1s_bits[] = {
   0x00, 0x00, 0x00, 0x00, 0x00, 0x00, 0x00, 0x00, 0x00, 0x80, 0x07, 0x00,
   0x00, 0x00, 0x00, 0x00, 0x80, 0x03, 0x00, 0x00, 0x00, 0x00, 0x00, 0x80,
   0x07, 0x00, 0x00, 0x00, 0x00, 0x00, 0x80, 0x03, 0x00, 0x00, 0x00, 0x00,
   0x00, 0x80, 0x07, 0x00, 0x00, 0x00, 0x00, 0x00, 0x80, 0x03, 0x00, 0x00,
   0x00, 0x00, 0x00, 0x80, 0x07, 0x00, 0x00, 0x00 0x00, 0x00, 0x80, 0x07,
   0x00, 0x00, 0x00, 0x00, 0x00, 0x80, 0x03, 0x00, 0x00, 0x00, 0x00, 0x00,
   0x80, 0x07, 0x00, 0x00, 0x00, 0xc0, 0xbd, 0xb7, 0xf7, 0xde, 0x0b, 0x00,
   0x80, 0xd6, 0xfa, 0x5f, 0x6b, 0x05, 0x00, 0xc0, 0xff, 0xff, 0xff, 0xff,
   0x0f, 0x00, 0xc0, 0x56, 0x02, 0x20, 0xa9, 0x0d, 0x00, 0xc0, 0xa6, 0x6c,
   0x4b, 0xca, 0x06, 0x00 0x40, 0x06, 0x00, 0x00, 0x80, 0x0c, 0x00, 0xc0,
   0x06, 0x00, 0x00, 0x80, 0x0d, 0x00, 0xc0, 0x06, 0x00, 0x01, 0x80, 0x0d,
   0x00, 0xc0, 0x04, 0x00, 0x01, 0x80, 0x05, 0x00, 0xc0, 0x06, 0x00, 0x01,
   0x80, 0x09, 0x00, 0x40, 0x02, 0x80, 0x03, 0x80, 0x0e, 0x00, 0x40, 0x07,
   0x80, 0x03, 0x80, 0x0c, 0x00, 0xc0, 0x06, 0x80, 0x03, 0x80, 0x07, 0x00
   0xc0, 0x24, 0x88, 0x03, 0x80, 0x09, 0x00, 0xc0, 0x26, 0x89, 0x03, 0x80,
   0x0d, 0x00, 0x40, 0x22, 0x49, 0x05, 0x80, 0x0a, 0x00, 0xc0, 0xa6, 0x4a,
   0x05, 0x80, 0x0d, 0x00, 0x40, 0xa7, 0x4a, 0x05, 0xc0, 0x06, 0x00, 0xc0,
   0x44, 0x04, 0x01, 0x80, 0x09, 0x00, 0xc0, 0x46, 0x04, 0x01, 0x80, 0x0d,
   0x00, 0x40, 0x02, 0x00, 0x01, 0x80, 0x04, 0x00 0xc0, 0x06, 0x00, 0x01,
   0x80, 0x0d, 0x00, 0x40, 0x07, 0x00, 0x01, 0x80, 0x0e, 0x00, 0xc0, 0x04,
   0x00, 0x01, 0x80, 0x09, 0x00, 0xc0, 0x05, 0x00, 0x01, 0x80, 0x0b, 0x00,
   0x40, 0x06, 0x00, 0x01, 0x80, 0x0c, 0x00, 0xc0, 0xc4, 0xff, 0xff, 0xcf,
   0x05, 0x00, 0x40, 0xe7, 0xff, 0xff, 0x8f, 0x0e, 0x00, 0xc0, 0x02, 0x00,
   0x01, 0x80, 0x09, 0x00 0xc0, 0x05, 0x00, 0x01, 0x80, 0x0b, 0x00, 0x40,
   0x06, 0x00, 0x01, 0xc0, 0x0c, 0x00, 0xc0, 0x04, 0x00, 0x01, 0x80, 0x08,
   0x00, 0x40, 0x07, 0x00, 0x01, 0x80, 0x0f, 0x00, 0xc0, 0x02, 0x00, 0x01,
   0x80, 0x05, 0x00, 0xc0, 0x05, 0x00, 0x01, 0x80, 0x0d, 0x00, 0x40, 0x06,
   0x00, 0x01, 0x80, 0x09, 0x00, 0xc0, 0x04, 0x00, 0x01, 0x80, 0x0c, 0x00
   0x40, 0x07, 0x00, 0x01, 0x80, 0x07, 0x00, 0xc0, 0x02, 0x00, 0x01, 0x80,
   0x0d, 0x00, 0xc0, 0x05, 0x00, 0x01, 0x80, 0x05, 0x00, 0x40, 0x06, 0x00,
   0x01, 0x80, 0x0d, 0x00, 0xc0, 0x04, 0x00, 0x01, 0x80, 0x08, 0x00, 0x40,
   0x07, 0x00, 0x01, 0x80, 0x0f, 0x00, 0xc0, 0x06, 0x00, 0x01, 0x80, 0x05,
   0x00, 0xc0, 0x05, 0x00, 0x01, 0x80, 0x0d, 0x00 0x40, 0x02, 0x00, 0x01,
   0x80, 0x09, 0x00, 0xc0, 0x06, 0x00, 0x01, 0x80, 0x0d, 0x00, 0x40, 0x05,
   0x00, 0x01, 0x80, 0x0a, 0x00, 0xc0, 0x06, 0x00, 0x01, 0x80, 0x0d, 0x00,
   0xc0, 0x05, 0x00, 0x01, 0x80, 0x07, 0x00, 0x40, 0x06, 0x00, 0x01, 0x80,
   0x09, 0x00, 0xc0, 0x04, 0x00, 0x01, 0x80, 0x0d, 0x00, 0x40, 0x07, 0x00,
   0x01, 0x80, 0x04, 0x00 0xc0, 0x06, 0x00, 0x01, 0x80, 0x0f, 0x00, 0xc0,
   0x02, 0x00, 0x01, 0x80, 0x0d, 0x00, 0xc0, 0xc6, 0xff, 0xff, 0xcf, 0x09,
   0x00, 0xc0, 0xe4, 0xff, 0xff, 0x9f, 0x0a, 0x00, 0x40, 0x07, 0x00, 0x01,
   0x80, 0x0c, 0x00, 0xc0, 0x02, 0x00, 0x01, 0x80, 0x07, 0x00, 0x40, 0x07,
   0x00, 0x01, 0x80, 0x0e, 0x00, 0xc0, 0x04, 0x00, 0x01, 0x80, 0x09, 0x00
   0xc0, 0x06, 0x00, 0x01, 0x80, 0x0d, 0x00, 0x40, 0x06, 0x00, 0x01, 0x80,
   0x0a, 0x00, 0xc0, 0x03, 0x00, 0x01, 0x80, 0x0d, 0x00, 0x40, 0x07, 0x00,
   0x01, 0x80, 0x07, 0x00, 0xc0, 0x04, 0x00, 0x01, 0x80, 0x09, 0x00, 0xc0,
   0x06, 0x00, 0x01, 0x80, 0x0d, 0x00, 0x40, 0x02, 0x00, 0x01, 0x80, 0x0c,
   0x00, 0xc0, 0x07, 0x00, 0x01, 0x80, 0x07, 0x00 0x40, 0x07, 0x00, 0x01,
   0x80, 0x0e, 0x00, 0xc0, 0x04, 0x00, 0x01, 0x80, 0x05, 0x00, 0xc0, 0x05,
   0x00, 0x01, 0x80, 0x0b, 0x00, 0x40, 0x06, 0x00, 0x01, 0x80, 0x0c, 0x00,
   0xc0, 0x06, 0x00, 0x01, 0x80, 0x07, 0x00, 0x40, 0x07, 0x00, 0x01, 0xc0,
   0x0e, 0x00, 0xc0, 0x02, 0x00, 0x01, 0x80, 0x09, 0x00, 0xc0, 0x05, 0x00,
   0x01, 0x80, 0x0b, 0x00 0x40, 0x06, 0x00, 0x01, 0x80, 0x0c, 0x00, 0xc0,
   0x06, 0x00, 0x01, 0x80, 0x0d, 0x00, 0x40, 0x07, 0x00, 0x01, 0x80, 0x0e,
   0x00, 0xc0, 0x02, 0x00, 0x01, 0x80, 0x0b, 0x00, 0xc0, 0x05, 0x00, 0x01,
   0x80, 0x05, 0x00, 0x40, 0x06, 0x00, 0x01, 0x80, 0x0d, 0x00, 0xc0, 0xc6,
   0xff, 0xff, 0xcf, 0x06, 0x00, 0x40, 0xe7, 0xff, 0xff, 0x9f, 0x0c, 0x00
   0xc0, 0x02, 0x00, 0x01, 0x80, 0x0b, 0x00, 0xc0, 0x05, 0x00, 0x01, 0x80,
   0x0d, 0x00, 0x40, 0x06, 0x00, 0x01, 0x80, 0x04, 0x00, 0xc0, 0x06, 0x00,
   0x01, 0x80, 0x0d, 0x00, 0x40, 0x03, 0x00, 0x01, 0x80, 0x0e, 0x00, 0xc0,
   0x06, 0x00, 0x01, 0x80, 0x05, 0x00, 0xc0, 0x06, 0x00, 0x01, 0x80, 0x0f,
   0x00, 0xc0, 0x04, 0x00, 0x01, 0x80, 0x09, 0x00 0x40, 0x07, 0x00, 0x01,
   0x80, 0x06, 0x00, 0x40, 0x06, 0x00, 0x01, 0x80, 0x0c, 0x00, 0xc0, 0x05,
   0x00, 0x01, 0x80, 0x0f, 0x00, 0xc0, 0x06, 0x00, 0x01, 0xc0, 0x05, 0x00,
   0xc0, 0x04, 0x00, 0x01, 0x80, 0x09, 0x00, 0x40, 0x07, 0x00, 0x01, 0x80,
   0x0e, 0x00, 0x40, 0x02, 0x00, 0x01, 0x80, 0x04, 0x00, 0xc0, 0x07, 0x00,
   0x01, 0x80, 0x0f, 0x00 0xc0, 0x06, 0x00, 0x01, 0x80, 0x05, 0x00, 0xc0,
   0x04, 0x00, 0x01, 0x80, 0x0d, 0x00, 0x40, 0x06, 0x00, 0x00, 0x80, 0x04,
   0x00, 0xc0, 0x02, 0x00, 0x00, 0x80, 0x0d, 0x00, 0x40, 0x07, 0x10, 0x49,
   0xd2, 0x0e, 0x00, 0xc0, 0xb7, 0xa5, 0xa4, 0xa4, 0x07, 0x00, 0xc0, 0xff,
   0xff, 0xff, 0xff, 0x0f, 0x00, 0xc0, 0xde, 0xff, 0x7f, 0xff, 0x06, 0x00
   0x40, 0x7b, 0xd5, 0xaf, 0xd5, 0x0d, 0x00, 0x00, 0x00, 0x80, 0x03, 0x00,
   0x00, 0x00, 0x00, 0x00, 0x80, 0x07, 0x00, 0x00, 0x00, 0x00, 0x00, 0x80,
   0x07, 0x00, 0x00, 0x00, 0x00, 0x00, 0x80, 0x03, 0x00, 0x00, 0x00, 0x00,
   0x00, 0x80, 0x07, 0x00, 0x00, 0x00, 0x00, 0x00, 0x80, 0x03, 0x00, 0x00,
   0x00, 0x00, 0x00, 0x80, 0x07, 0x00, 0x00, 0x00 0x00, 0x00, 0x80, 0x03,
   0x00, 0x00, 0x00, 0x00, 0x00, 0x80, 0x07, 0x00, 0x00, 0x00, 0x00, 0x00,
   0x00, 0x07, 0x00, 0x00, 0x00, 0x00, 0x00, 0x00, 0x00, 0x00, 0x00, 0x00,
   0x00, 0x00, 0x00, 0x00, 0x00, 0x00, 0x00};
