#define gen5_0w_width 50
#define gen5_0w_height 50
static char gen5_0w_bits[] = {
   0x00, 0x00, 0x00, 0x00, 0x00, 0x00, 0x00, 0x00, 0x00, 0x00, 0x00, 0x00,
   0x00, 0x00, 0x00, 0x00, 0x00, 0x00, 0x00, 0x00, 0x00, 0x00, 0x00, 0xf8,
   0x0f, 0x00, 0x00, 0x00, 0x00, 0x00, 0xf8, 0x0f, 0x00, 0x00, 0x00, 0x00,
   0x00, 0xf8, 0x0f, 0x00, 0x00, 0x00, 0x00, 0x00, 0xff, 0x7f, 0x00, 0x00,
   0x00, 0x00, 0xc0, 0xff, 0xff, 0x01, 0x00, 0x00 0x00, 0xf0, 0x07, 0xf0,
   0x07, 0x00, 0x00, 0x00, 0xf8, 0x00, 0x80, 0x0f, 0x00, 0x00, 0x00, 0x3c,
   0x00, 0x00, 0x1e, 0x00, 0x00, 0x00, 0x1e, 0x00, 0x00, 0x3c, 0x00, 0x00,
   0x00, 0x0f, 0x00, 0x00, 0x78, 0x00, 0x00, 0x80, 0x07, 0xfc, 0x0f, 0xf0,
   0x00, 0x00, 0xc0, 0x03, 0x00, 0x00, 0xe0, 0x01, 0x00, 0xc0, 0x01, 0x00,
   0x03, 0xc0, 0x01, 0x00 0xe0, 0x00, 0x40, 0x00, 0x80, 0x03, 0x00, 0xe0,
   0x00, 0x30, 0x00, 0x80, 0x03, 0x00, 0x70, 0x00, 0x08, 0x00, 0x01, 0x07,
   0x00, 0x70, 0x00, 0xec, 0x0f, 0x07, 0x07, 0x00, 0x70, 0x00, 0x00, 0x00,
   0x04, 0x07, 0x00, 0x38, 0x00, 0x00, 0x00, 0x0c, 0x0e, 0x00, 0x38, 0x00,
   0x44, 0x00, 0x18, 0x0e, 0x00, 0x38, 0x00, 0x44, 0x08, 0x10, 0x0e, 0x00
   0x38, 0x00, 0x04, 0x08, 0x18, 0x0e, 0x00, 0x38, 0x00, 0x44, 0x08, 0x0c,
   0x0e, 0x00, 0x38, 0x00, 0x44, 0x00, 0x07, 0x0e, 0x00, 0x38, 0x00, 0x44,
   0x08, 0x03, 0x0e, 0x00, 0x38, 0x00, 0xb4, 0x8f, 0x01, 0x0e, 0x00, 0x38,
   0x00, 0x00, 0x80, 0x00, 0x0e, 0x00, 0x70, 0x00, 0x00, 0x80, 0x01, 0x07,
   0x00, 0x70, 0x00, 0x90, 0x01, 0x03, 0x07, 0x00 0x70, 0x00, 0x88, 0x04,
   0x06, 0x07, 0x00, 0xe0, 0x00, 0x04, 0x08, 0x8c, 0x03, 0x00, 0xe0, 0x00,
   0x84, 0x08, 0x88, 0x03, 0x00, 0xc0, 0x01, 0x04, 0x08, 0xc0, 0x01, 0x00,
   0xc0, 0x03, 0x04, 0x08, 0xe0, 0x01, 0x00, 0x80, 0x07, 0x00, 0x04, 0xf0,
   0x00, 0x00, 0x00, 0x0f, 0xf0, 0x03, 0x78, 0x00, 0x00, 0x00, 0x1e, 0x00,
   0x00, 0x3c, 0x00, 0x00 0x00, 0x3c, 0x00, 0x00, 0x1e, 0x00, 0x00, 0x00,
   0xf8, 0x00, 0x80, 0x0f, 0x00, 0x00, 0x00, 0xf0, 0x07, 0xe0, 0x07, 0x00,
   0x00, 0x00, 0xc0, 0xff, 0xff, 0x01, 0x00, 0x00, 0x00, 0x00, 0xff, 0x7f,
   0x00, 0x00, 0x00, 0x00, 0x00, 0xf8, 0x0f, 0x00, 0x00, 0x00, 0x00, 0x00,
   0xf8, 0x0f, 0x00, 0x00, 0x00, 0x00, 0x00, 0xf8, 0x0f, 0x00, 0x00, 0x00
   0x00, 0x00, 0x00, 0x00, 0x00, 0x00, 0x00, 0x00, 0x00, 0x00, 0x00, 0x00,
   0x00, 0x00};
