#define gen5_0s_width 50
#define gen5_0s_height 50
static char gen5_0s_bits[] = {
   0x00, 0x00, 0x00, 0x00, 0x00, 0x00, 0x00, 0x00, 0x00, 0x00, 0x00, 0x00,
   0x00, 0x00, 0x00, 0x00, 0x00, 0x00, 0x00, 0x00, 0x00, 0x00, 0x00, 0x00,
   0x00, 0x00, 0x00, 0x00, 0x00, 0x00, 0x00, 0x00, 0x00, 0x00, 0x00, 0x00,
   0x00, 0x00, 0x00, 0x00, 0x00, 0x00, 0x00, 0x00, 0xe0, 0x3f, 0x00, 0x00,
   0x00, 0x00, 0x00, 0xfc, 0xff, 0x01, 0x00, 0x00 0x00, 0x00, 0xff, 0xff,
   0x07, 0x00, 0x00, 0x00, 0xc0, 0x1f, 0xc0, 0x1f, 0x00, 0x00, 0x00, 0xe0,
   0x03, 0x00, 0x3e, 0x00, 0x00, 0x00, 0xf0, 0x00, 0x00, 0x78, 0x00, 0x00,
   0x00, 0x78, 0x00, 0x00, 0xf0, 0x00, 0x00, 0x00, 0x3c, 0xc0, 0x01, 0xe0,
   0x01, 0x00, 0x00, 0x1e, 0x60, 0x03, 0xc6, 0x03, 0x00, 0x00, 0x0f, 0x38,
   0x06, 0x83, 0x07, 0x00 0x00, 0x07, 0x08, 0x8c, 0x01, 0x07, 0x00, 0x80,
   0x03, 0x0c, 0xdc, 0x00, 0x0e, 0x00, 0x80, 0x03, 0x00, 0x70, 0x00, 0x0e,
   0x00, 0xc0, 0x01, 0x00, 0x00, 0x00, 0x1c, 0x00, 0xc0, 0x01, 0x00, 0x00,
   0x00, 0x1c, 0x00, 0xc0, 0x01, 0x00, 0x00, 0x00, 0x18, 0x00, 0xf8, 0x00,
   0x00, 0x00, 0x00, 0xf8, 0x00, 0xf8, 0x80, 0xc7, 0xcf, 0x18, 0xf8, 0x00
   0xf8, 0xc0, 0xcf, 0xcf, 0x19, 0xf8, 0x00, 0xf8, 0x60, 0xcc, 0xc0, 0x19,
   0xf8, 0x00, 0xf8, 0x60, 0xc0, 0xcf, 0x1b, 0xf8, 0x00, 0xf8, 0x60, 0xce,
   0xcf, 0x1e, 0xf8, 0x00, 0xf8, 0x60, 0xcc, 0xc0, 0x1c, 0xf8, 0x00, 0xf8,
   0xc0, 0xcf, 0xcf, 0x1c, 0xf8, 0x00, 0xf8, 0x80, 0x47, 0xc7, 0x10, 0xf8,
   0x00, 0xc0, 0x01, 0x00, 0x00, 0x00, 0x1c, 0x00 0xc0, 0x01, 0x00, 0x00,
   0x00, 0x1c, 0x00, 0xc0, 0x01, 0x00, 0x00, 0x00, 0x1c, 0x00, 0x80, 0x03,
   0x00, 0x00, 0x00, 0x0e, 0x00, 0x80, 0x03, 0x00, 0x00, 0x00, 0x0e, 0x00,
   0x00, 0x07, 0x00, 0x00, 0x00, 0x07, 0x00, 0x00, 0x0f, 0x00, 0x00, 0x80,
   0x07, 0x00, 0x00, 0x1e, 0x00, 0x00, 0xc0, 0x03, 0x00, 0x00, 0x3c, 0x00,
   0x00, 0xe0, 0x01, 0x00 0x00, 0x78, 0x00, 0x00, 0xf0, 0x00, 0x00, 0x00,
   0xf0, 0x00, 0x00, 0x78, 0x00, 0x00, 0x00, 0xe0, 0x03, 0x00, 0x3e, 0x00,
   0x00, 0x00, 0xc0, 0x1f, 0xc0, 0x1f, 0x00, 0x00, 0x00, 0x00, 0xff, 0xff,
   0x07, 0x00, 0x00, 0x00, 0x00, 0xfc, 0xff, 0x01, 0x00, 0x00, 0x00, 0x00,
   0xe0, 0x3f, 0x00, 0x00, 0x00, 0x00, 0x00, 0x00, 0x00, 0x00, 0x00, 0x00
   0x00, 0x00, 0x00, 0x00, 0x00, 0x00, 0x00, 0x00, 0x00, 0x00, 0x00, 0x00,
   0x00, 0x00};
