#define gen5_0n_width 50
#define gen5_0n_height 50
static char gen5_0n_bits[] = {
   0x00, 0x00, 0x00, 0x00, 0x00, 0x00, 0x00, 0x00, 0x00, 0x00, 0x00, 0x00,
   0x00, 0x00, 0x00, 0x00, 0x00, 0x00, 0x00, 0x00, 0x00, 0x00, 0x00, 0xf0,
   0x1f, 0x00, 0x00, 0x00, 0x00, 0x00, 0xfe, 0xff, 0x00, 0x00, 0x00, 0x00,
   0x80, 0xff, 0xff, 0x03, 0x00, 0x00, 0x00, 0xe0, 0x0f, 0xe0, 0x0f, 0x00,
   0x00, 0x00, 0xf0, 0x01, 0x00, 0x1f, 0x00, 0x00 0x00, 0x78, 0x00, 0x00,
   0x3c, 0x00, 0x00, 0x00, 0x3c, 0x00, 0x00, 0x78, 0x00, 0x00, 0x00, 0x1e,
   0x00, 0x00, 0xf0, 0x00, 0x00, 0x00, 0x0f, 0x00, 0x00, 0xe0, 0x01, 0x00,
   0x80, 0x07, 0x00, 0x00, 0xc0, 0x03, 0x00, 0x80, 0x03, 0x00, 0x00, 0x80,
   0x03, 0x00, 0xc0, 0x01, 0x00, 0x00, 0x00, 0x07, 0x00, 0xc0, 0x01, 0x00,
   0x00, 0x00, 0x07, 0x00 0xe0, 0x00, 0x00, 0x00, 0x00, 0x0e, 0x00, 0xe0,
   0x00, 0x00, 0x00, 0x00, 0x0e, 0x00, 0xe0, 0xe0, 0xe1, 0x4f, 0x10, 0x0e,
   0x00, 0x7c, 0x10, 0x22, 0xc0, 0x10, 0x7c, 0x00, 0x7c, 0x08, 0x24, 0x40,
   0x11, 0x7c, 0x00, 0x7c, 0x08, 0x00, 0x00, 0x11, 0x7c, 0x00, 0x7c, 0x08,
   0xe0, 0x4d, 0x02, 0x7c, 0x00, 0x7c, 0x88, 0x26, 0x40, 0x10, 0x7c, 0x00
   0x7c, 0x08, 0x04, 0x40, 0x14, 0x7c, 0x00, 0x7c, 0x08, 0x24, 0x00, 0x14,
   0x7c, 0x00, 0x7c, 0x00, 0x22, 0x40, 0x08, 0x7c, 0x00, 0x7c, 0xe0, 0xe0,
   0x4f, 0x10, 0x7c, 0x00, 0x60, 0x00, 0x00, 0x00, 0x00, 0x0e, 0x00, 0xe0,
   0x00, 0x00, 0x00, 0x00, 0x0e, 0x00, 0xe0, 0x00, 0x00, 0x00, 0x00, 0x0e,
   0x00, 0xc0, 0x01, 0x38, 0x00, 0x00, 0x07, 0x00 0xc0, 0x01, 0xec, 0xc0,
   0x00, 0x07, 0x00, 0x80, 0x03, 0xc6, 0x40, 0x80, 0x03, 0x00, 0x80, 0x07,
   0x83, 0x71, 0xc0, 0x03, 0x00, 0x00, 0x8f, 0x01, 0x1b, 0xe0, 0x01, 0x00,
   0x00, 0x1e, 0x00, 0x0e, 0xf0, 0x00, 0x00, 0x00, 0x3c, 0x00, 0x00, 0x78,
   0x00, 0x00, 0x00, 0x78, 0x00, 0x00, 0x3c, 0x00, 0x00, 0x00, 0xf0, 0x01,
   0x00, 0x1f, 0x00, 0x00 0x00, 0xe0, 0x0f, 0xe0, 0x0f, 0x00, 0x00, 0x00,
   0x80, 0xff, 0xff, 0x03, 0x00, 0x00, 0x00, 0x00, 0xfe, 0xff, 0x00, 0x00,
   0x00, 0x00, 0x00, 0xf0, 0x1f, 0x00, 0x00, 0x00, 0x00, 0x00, 0x00, 0x00,
   0x00, 0x00, 0x00, 0x00, 0x00, 0x00, 0x00, 0x00, 0x00, 0x00, 0x00, 0x00,
   0x00, 0x00, 0x00, 0x00, 0x00, 0x00, 0x00, 0x00, 0x00, 0x00, 0x00, 0x00
   0x00, 0x00, 0x00, 0x00, 0x00, 0x00, 0x00, 0x00, 0x00, 0x00, 0x00, 0x00,
   0x00, 0x00};
