#define gen5_0e_width 50
#define gen5_0e_height 50
static char gen5_0e_bits[] = {
   0x00, 0x00, 0x00, 0x00, 0x00, 0x00, 0x00, 0x00, 0x00, 0x00, 0x00, 0x00,
   0x00, 0x00, 0x00, 0x00, 0xc0, 0x7f, 0x00, 0x00, 0x00, 0x00, 0x00, 0xc0,
   0x7f, 0x00, 0x00, 0x00, 0x00, 0x00, 0xc0, 0x7f, 0x00, 0x00, 0x00, 0x00,
   0x00, 0xf8, 0xff, 0x03, 0x00, 0x00, 0x00, 0x00, 0xfe, 0xff, 0x0f, 0x00,
   0x00, 0x00, 0x80, 0x1f, 0x80, 0x3f, 0x00, 0x00 0x00, 0xc0, 0x07, 0x00,
   0x7c, 0x00, 0x00, 0x00, 0xe0, 0x01, 0x00, 0xf0, 0x00, 0x00, 0x00, 0xf0,
   0x00, 0x00, 0xe0, 0x01, 0x00, 0x00, 0x78, 0x00, 0x3f, 0xc0, 0x03, 0x00,
   0x00, 0x3c, 0x80, 0x40, 0x80, 0x07, 0x00, 0x00, 0x1e, 0x40, 0x80, 0x00,
   0x0f, 0x00, 0x00, 0x0e, 0x40, 0x00, 0x00, 0x0e, 0x00, 0x00, 0x47, 0x40,
   0x84, 0x00, 0x1c, 0x00 0x00, 0xc7, 0x40, 0x80, 0x00, 0x1c, 0x00, 0x80,
   0x83, 0x81, 0x44, 0x00, 0x38, 0x00, 0x80, 0x03, 0x03, 0x26, 0x00, 0x38,
   0x00, 0x80, 0x03, 0x06, 0x00, 0x00, 0x38, 0x00, 0xc0, 0x01, 0x04, 0x00,
   0x00, 0x70, 0x00, 0xc0, 0x01, 0xc6, 0xdf, 0x00, 0x70, 0x00, 0xc0, 0x01,
   0x43, 0x80, 0x00, 0x70, 0x00, 0xc0, 0x81, 0x43, 0x88, 0x00, 0x70, 0x00
   0xc0, 0xc1, 0x40, 0x88, 0x00, 0x70, 0x00, 0xc0, 0x61, 0x40, 0x88, 0x00,
   0x70, 0x00, 0xc0, 0x21, 0x40, 0x00, 0x00, 0x70, 0x00, 0xc0, 0x61, 0x40,
   0x88, 0x00, 0x70, 0x00, 0xc0, 0xc1, 0x00, 0x00, 0x00, 0x70, 0x00, 0x80,
   0x83, 0x00, 0x00, 0x00, 0x38, 0x00, 0x80, 0x83, 0x43, 0xfb, 0x00, 0x38,
   0x00, 0x80, 0x03, 0x02, 0x00, 0x00, 0x38, 0x00 0x00, 0x07, 0x00, 0x30,
   0x00, 0x1c, 0x00, 0x00, 0x07, 0x00, 0x0c, 0x00, 0x1c, 0x00, 0x00, 0x0e,
   0x00, 0x03, 0x00, 0x0e, 0x00, 0x00, 0x1e, 0x80, 0x00, 0x00, 0x0f, 0x00,
   0x00, 0x3c, 0xc0, 0xf6, 0x80, 0x07, 0x00, 0x00, 0x78, 0x00, 0x00, 0xc0,
   0x03, 0x00, 0x00, 0xf0, 0x00, 0x00, 0xe0, 0x01, 0x00, 0x00, 0xe0, 0x01,
   0x00, 0xf0, 0x00, 0x00 0x00, 0xc0, 0x07, 0x00, 0x7c, 0x00, 0x00, 0x00,
   0x80, 0x3f, 0x80, 0x3f, 0x00, 0x00, 0x00, 0x00, 0xfe, 0xff, 0x0f, 0x00,
   0x00, 0x00, 0x00, 0xf8, 0xff, 0x03, 0x00, 0x00, 0x00, 0x00, 0xc0, 0x7f,
   0x00, 0x00, 0x00, 0x00, 0x00, 0xc0, 0x7f, 0x00, 0x00, 0x00, 0x00, 0x00,
   0xc0, 0x7f, 0x00, 0x00, 0x00, 0x00, 0x00, 0x00, 0x00, 0x00, 0x00, 0x00
   0x00, 0x00, 0x00, 0x00, 0x00, 0x00, 0x00, 0x00, 0x00, 0x00, 0x00, 0x00,
   0x00, 0x00};
