#define mixn_0s_width 50
#define mixn_0s_height 50
static char mixn_0s_bits[] = {
   0x00, 0x00, 0x00, 0x00, 0x00, 0x00, 0x00, 0x00, 0x00, 0x00, 0x00, 0x00,
   0x00, 0x00, 0xf0, 0xff, 0xff, 0xff, 0xff, 0x3f, 0x00, 0xf0, 0xff, 0xff,
   0xff, 0xff, 0x3f, 0x00, 0x30, 0x00, 0x00, 0x00, 0x00, 0x30, 0x00, 0x30,
   0x00, 0x00, 0x00, 0x00, 0x30, 0x00, 0x30, 0x00, 0x00, 0x00, 0x00, 0x30,
   0x00, 0x30, 0x00, 0x00, 0x00, 0x00, 0x30, 0x01 0x30, 0x00, 0x00, 0x00,
   0x00, 0x30, 0x00, 0x30, 0x00, 0x00, 0x00, 0x00, 0x30, 0x00, 0x38, 0x00,
   0x00, 0x00, 0x00, 0x30, 0x00, 0x30, 0x00, 0x00, 0x00, 0x00, 0x30, 0x00,
   0x30, 0x00, 0x00, 0x00, 0x00, 0x30, 0x00, 0x30, 0x00, 0x00, 0x00, 0x00,
   0x30, 0x01, 0x30, 0x00, 0x00, 0x00, 0x00, 0x30, 0x00, 0x30, 0x00, 0x00,
   0x00, 0x00, 0x30, 0x00 0x30, 0x00, 0x00, 0x00, 0x00, 0x30, 0x00, 0x30,
   0x00, 0x00, 0x00, 0x00, 0x30, 0x00, 0x30, 0x00, 0x00, 0x00, 0x00, 0x30,
   0x00, 0x38, 0x40, 0x40, 0x02, 0x00, 0x30, 0x01, 0x30, 0x00, 0x00, 0x00,
   0x00, 0x30, 0x00, 0x30, 0xc0, 0x60, 0x00, 0x00, 0x30, 0x00, 0x30, 0x80,
   0x00, 0x08, 0x01, 0x30, 0x00, 0x30, 0x40, 0x50, 0x82, 0x00, 0x30, 0x00
   0x30, 0x00, 0x01, 0x20, 0x00, 0x30, 0x00, 0x30, 0x40, 0x48, 0x42, 0x00,
   0x30, 0x01, 0x30, 0x00, 0x02, 0x20, 0x00, 0x30, 0x00, 0x30, 0x40, 0x40,
   0x82, 0x00, 0x30, 0x00, 0x38, 0x00, 0x04, 0x08, 0x00, 0x30, 0x00, 0x30,
   0x00, 0x00, 0x00, 0x00, 0x30, 0x00, 0x30, 0x00, 0x00, 0x00, 0x00, 0x30,
   0x00, 0x30, 0x00, 0x00, 0x00, 0x00, 0x30, 0x01 0x30, 0x00, 0x00, 0x00,
   0x00, 0x30, 0x00, 0x30, 0x00, 0x00, 0x00, 0x00, 0x30, 0x00, 0x30, 0x00,
   0x00, 0x00, 0x00, 0x30, 0x00, 0x30, 0x00, 0x00, 0x00, 0x00, 0x30, 0x00,
   0x30, 0x00, 0x00, 0x00, 0x00, 0x30, 0x00, 0x38, 0x00, 0x00, 0x00, 0x00,
   0x30, 0x00, 0x30, 0x00, 0x00, 0x00, 0x00, 0x30, 0x00, 0x30, 0x00, 0x00,
   0x00, 0x00, 0x30, 0x01 0x30, 0x00, 0x00, 0x00, 0x00, 0x30, 0x00, 0x30,
   0x00, 0x00, 0x00, 0x00, 0x30, 0x00, 0x30, 0x00, 0x00, 0x00, 0x00, 0x30,
   0x00, 0x30, 0x00, 0x00, 0x00, 0x00, 0x30, 0x00, 0x30, 0x00, 0x00, 0x00,
   0x00, 0x30, 0x00, 0x30, 0x00, 0x00, 0x00, 0x00, 0x30, 0x00, 0xf8, 0xff,
   0xff, 0xff, 0xff, 0x3f, 0x00, 0xf0, 0xff, 0xff, 0xff, 0xff, 0x3f, 0x00
   0x00, 0x00, 0x00, 0x00, 0x00, 0x00, 0x00, 0x00, 0x00, 0x00, 0x00, 0x00,
   0x00, 0x01};
