#define moto_0n_width 60
#define moto_0n_height 60
static char moto_0n_bits[] = {
   0x00, 0x00, 0x00, 0x00, 0x00, 0x00, 0x00, 0x00, 0x00, 0x00, 0x00, 0x00,
   0x00, 0x00, 0x00, 0x00, 0x00, 0x00, 0x00, 0x00, 0x00, 0x00, 0x00, 0x00,
   0x00, 0x00, 0x00, 0x00, 0x00, 0x00, 0x00, 0x00, 0x00, 0x00, 0x00, 0x00,
   0x00, 0x00, 0x00, 0x00, 0x00, 0x00, 0x00, 0x00, 0x00, 0x00, 0x00, 0x00,
   0x00, 0x00, 0x00, 0x00, 0x00, 0x00, 0x00, 0x00, 0x00, 0x00, 0x00, 0x00,
   0x00, 0x00, 0x00, 0x00 0x00, 0x00, 0x00, 0xfe, 0x03, 0x00, 0x00, 0x00,
   0x00, 0x00, 0xc0, 0xff, 0x1f, 0x00, 0x00, 0x00, 0x00, 0x00, 0xf0, 0xff,
   0x7f, 0x00, 0x00, 0x00, 0x00, 0x00, 0xfc, 0x01, 0xfc, 0x01, 0x00, 0x00,
   0x00, 0x00, 0x3e, 0x00, 0xe0, 0x03, 0x00, 0x00, 0x00, 0x00, 0x0f, 0x00,
   0x80, 0x07, 0x00, 0x00, 0x00, 0x80, 0x07, 0x00, 0x00, 0x0f, 0x00, 0x00,
   0x00, 0xc0, 0x03, 0x00, 0x00, 0x1e, 0x00, 0x00 0x00, 0xe0, 0x01, 0x00,
   0x00, 0x3c, 0x00, 0x00, 0x00, 0xf0, 0x00, 0x00, 0x00, 0x78, 0x00, 0x00,
   0x00, 0x70, 0x00, 0x00, 0x00, 0x70, 0x00, 0x00, 0x00, 0x38, 0x00, 0x00,
   0x00, 0xe0, 0x00, 0x00, 0x00, 0x38, 0x00, 0x00, 0x00, 0xe0, 0x00, 0x00,
   0x00, 0x1c, 0xc0, 0x01, 0x0e, 0xc0, 0x01, 0x00, 0x00, 0x1c, 0xc0, 0x03,
   0x0f, 0xc0, 0x01, 0x00, 0x00, 0x1c, 0xc0, 0x87, 0x0f, 0xc0, 0x01, 0x00
   0x80, 0x0f, 0xc0, 0xcf, 0x0f, 0x80, 0x0f, 0x00, 0x80, 0x0f, 0xc0, 0xfd,
   0x0e, 0x80, 0x0f, 0x00, 0x80, 0x0f, 0xc0, 0x79, 0x0e, 0x80, 0x0f, 0x00,
   0x80, 0x0f, 0xc0, 0x31, 0x0e, 0x80, 0x0f, 0x00, 0x80, 0x0f, 0xc0, 0x01,
   0x0e, 0x80, 0x0f, 0x00, 0x80, 0x0f, 0xc0, 0x01, 0x0e, 0x80, 0x0f, 0x00,
   0x80, 0x0f, 0xc0, 0x01, 0x0e, 0x80, 0x0f, 0x00, 0x80, 0x0f, 0xc0, 0x01,
   0x0e, 0x80, 0x0f, 0x00 0x80, 0x0f, 0xc0, 0x01, 0x0e, 0x80, 0x0f, 0x00,
   0x00, 0x1c, 0xc0, 0x01, 0x0e, 0xc0, 0x01, 0x00, 0x00, 0x1c, 0xc0, 0x01,
   0x0e, 0xc0, 0x01, 0x00, 0x00, 0x1c, 0xc0, 0x01, 0x0e, 0xc0, 0x01, 0x00,
   0x00, 0x38, 0xc0, 0x01, 0x0e, 0xe0, 0x00, 0x00, 0x00, 0x38, 0x00, 0x00,
   0x00, 0xe0, 0x00, 0x00, 0x00, 0x70, 0x00, 0x00, 0x00, 0x70, 0x00, 0x00,
   0x00, 0xf0, 0x00, 0x00, 0x00, 0x78, 0x00, 0x00 0x00, 0xe0, 0x01, 0x00,
   0x00, 0x3c, 0x00, 0x00, 0x00, 0xc0, 0x03, 0x00, 0x00, 0x1e, 0x00, 0x00,
   0x00, 0x80, 0x07, 0x00, 0x00, 0x0f, 0x00, 0x00, 0x00, 0x00, 0x0f, 0x00,
   0x80, 0x07, 0x00, 0x00, 0x00, 0x00, 0x3e, 0x00, 0xe0, 0x03, 0x00, 0x00,
   0x00, 0x00, 0xfc, 0x01, 0xfc, 0x01, 0x00, 0x00, 0x00, 0x00, 0xf0, 0xff,
   0x7f, 0x00, 0x00, 0x00, 0x00, 0x00, 0xc0, 0xff, 0x1f, 0x00, 0x00, 0x00
   0x00, 0x00, 0x00, 0xfe, 0x03, 0x00, 0x00, 0x00, 0x00, 0x00, 0x00, 0x00,
   0x00, 0x00, 0x00, 0x00, 0x00, 0x00, 0x00, 0x00, 0x00, 0x00, 0x00, 0x00,
   0x00, 0x00, 0x00, 0x00, 0x00, 0x00, 0x00, 0x00, 0x00, 0x00, 0x00, 0x00,
   0x00, 0x00, 0x00, 0x00, 0x00, 0x00, 0x00, 0x00, 0x00, 0x00, 0x00, 0x00,
   0x00, 0x00, 0x00, 0x00, 0x00, 0x00, 0x00, 0x00, 0x00, 0x00, 0x00, 0x00,
   0x00, 0x00, 0x00, 0x00 0x00, 0x00, 0x00, 0x00, 0x00, 0x00, 0x00, 0x00,
   0x00, 0x00, 0x00, 0x00, 0x00, 0x00, 0x00, 0x00, 0x00, 0x00, 0x00, 0x00,
   0x00, 0x00, 0x00, 0x00, 0x00, 0x00, 0x00, 0x00, 0x00, 0x00, 0x00, 0x00};
