#define nodo_5n_width 50
#define nodo_5n_height 50
static char nodo_5n_bits[] = {
   0x00, 0x00, 0x00, 0x00, 0x00, 0x00, 0x00, 0x00, 0x00, 0x00, 0x00, 0x00,
   0x00, 0x00, 0x48, 0x92, 0x24, 0x49, 0x92, 0x24, 0x00, 0x00, 0x00, 0x00,
   0x00, 0x00, 0x00, 0x01, 0x00, 0x00, 0x00, 0x00, 0x00, 0x00, 0x00, 0x24,
   0x49, 0x92, 0x24, 0x49, 0x12, 0x00, 0x00, 0x00, 0x00, 0x00, 0x00, 0x80,
   0x00, 0x00, 0x00, 0x00, 0x00, 0x00, 0x00, 0x00 0x24, 0xff, 0xff, 0xff,
   0xff, 0x0f, 0x00, 0x00, 0xfe, 0xff, 0xff, 0xff, 0x47, 0x00, 0x00, 0xfe,
   0xff, 0xff, 0xff, 0x07, 0x01, 0x24, 0x0f, 0x00, 0x00, 0x00, 0x17, 0x00,
   0x00, 0x0e, 0x00, 0x00, 0x00, 0x07, 0x00, 0x00, 0x0e, 0x00, 0x00, 0x00,
   0x47, 0x00, 0x24, 0x0e, 0x00, 0x00, 0x00, 0x0f, 0x00, 0x00, 0x0f, 0x00,
   0x00, 0x00, 0x07, 0x01 0x40, 0x0e, 0x00, 0x00, 0x00, 0x47, 0x00, 0x04,
   0x0e, 0x00, 0x00, 0x00, 0x17, 0x00, 0x00, 0x0e, 0x00, 0x00, 0x00, 0x07,
   0x00, 0x90, 0x0e, 0x00, 0x00, 0x00, 0x07, 0x01, 0x04, 0x0e, 0x00, 0x00,
   0x00, 0x4f, 0x00, 0x10, 0x0e, 0x07, 0x00, 0x00, 0x07, 0x00, 0xa0, 0x8e,
   0x0f, 0x40, 0x04, 0x87, 0x00, 0x48, 0xce, 0x0c, 0xfe, 0x0e, 0x97, 0x01
   0x80, 0xce, 0x08, 0x5c, 0x04, 0xff, 0x03, 0x44, 0x8f, 0x0f, 0x5b, 0x04,
   0xff, 0x03, 0x00, 0x8f, 0x0f, 0xdf, 0x0c, 0x87, 0x01, 0x90, 0x0e, 0x00,
   0x00, 0x00, 0x8f, 0x00, 0x44, 0x0e, 0x00, 0x00, 0x00, 0x47, 0x00, 0x20,
   0x0f, 0x00, 0x00, 0x00, 0x07, 0x00, 0x10, 0x0e, 0x00, 0x00, 0x00, 0x17,
   0x01, 0x48, 0x0e, 0x00, 0x00, 0x00, 0x07, 0x00 0x00, 0x0e, 0x00, 0x00,
   0x00, 0x47, 0x00, 0x04, 0x0e, 0x00, 0x00, 0x00, 0x0f, 0x00, 0x40, 0x0e,
   0x00, 0x00, 0x00, 0x07, 0x00, 0x10, 0x0e, 0x00, 0x00, 0x00, 0x47, 0x00,
   0x04, 0x0e, 0x00, 0x00, 0x00, 0x17, 0x00, 0x00, 0x0f, 0x00, 0x00, 0x00,
   0x07, 0x01, 0x40, 0x0e, 0x00, 0x00, 0x00, 0x07, 0x00, 0x08, 0x0e, 0x00,
   0x00, 0x00, 0x4f, 0x00 0x00, 0x0e, 0x00, 0x00, 0x00, 0x07, 0x00, 0x04,
   0xfe, 0xff, 0xff, 0xff, 0x07, 0x00, 0x20, 0xff, 0xff, 0xff, 0xff, 0x97,
   0x00, 0x00, 0xfe, 0xff, 0xff, 0xff, 0x07, 0x00, 0x04, 0x00, 0x00, 0x00,
   0x08, 0x01, 0x00, 0x20, 0x11, 0x49, 0x92, 0x40, 0x48, 0x00, 0x00, 0x00,
   0x00, 0x00, 0x04, 0x00, 0x00, 0x04, 0x44, 0x00, 0x00, 0x01, 0x00, 0x01
   0x20, 0x01, 0x92, 0x24, 0x20, 0x49, 0x00, 0x00, 0x00, 0x00, 0x00, 0x00,
   0x00, 0x00};
