#define nodo_0e_width 50
#define nodo_0e_height 50
static char nodo_0e_bits[] = {
   0x00, 0x00, 0x00, 0x00, 0x00, 0x00, 0x00, 0x00, 0x00, 0x00, 0x00, 0x00,
   0x00, 0x00, 0x48, 0x92, 0x24, 0x49, 0x92, 0x24, 0x00, 0x00, 0xfc, 0xff,
   0xff, 0xff, 0x7f, 0x01, 0x00, 0xfc, 0xff, 0xff, 0xff, 0x7f, 0x00, 0x24,
   0xfd, 0xff, 0xff, 0xff, 0x7f, 0x00, 0x00, 0x1c, 0x00, 0x00, 0x00, 0x70,
   0x00, 0x00, 0x1c, 0x00, 0x00, 0x00, 0x70, 0x00 0x24, 0x1d, 0x00, 0x80,
   0x01, 0x70, 0x01, 0x00, 0x1c, 0x00, 0xc0, 0x01, 0x70, 0x00, 0x00, 0x1c,
   0x00, 0xe0, 0x00, 0x70, 0x00, 0x24, 0x1d, 0x00, 0xf0, 0x00, 0x70, 0x00,
   0x00, 0x1c, 0x04, 0x38, 0x01, 0x70, 0x00, 0x00, 0x9c, 0x1f, 0x1c, 0x02,
   0x70, 0x01, 0x24, 0x1d, 0x14, 0x0e, 0x04, 0x70, 0x00, 0x00, 0x1c, 0x00,
   0x07, 0x08, 0x70, 0x00 0x00, 0x9c, 0x9f, 0x03, 0x10, 0x70, 0x00, 0x24,
   0x1d, 0x80, 0x01, 0x10, 0x70, 0x00, 0x00, 0x1c, 0x83, 0x01, 0x20, 0x70,
   0x01, 0x00, 0x9c, 0x87, 0x07, 0x20, 0x70, 0x00, 0xfe, 0x9f, 0x84, 0x1f,
   0x20, 0x70, 0x00, 0xfe, 0x9f, 0x87, 0x39, 0x20, 0x70, 0x00, 0x48, 0x1e,
   0x87, 0x71, 0x20, 0x70, 0x00, 0x00, 0x1c, 0x84, 0xe1, 0x21, 0x70, 0x01
   0x04, 0x9c, 0x87, 0x81, 0x13, 0x70, 0x00, 0x40, 0x9c, 0x81, 0x01, 0x17,
   0x70, 0x00, 0x10, 0x1e, 0x86, 0x01, 0x1e, 0x70, 0x00, 0x04, 0x9c, 0x87,
   0x03, 0x3c, 0x70, 0x00, 0x00, 0x9c, 0x01, 0x07, 0x34, 0x70, 0x01, 0x40,
   0x1c, 0x07, 0x0e, 0x02, 0x70, 0x00, 0x08, 0x1e, 0x00, 0x1c, 0x01, 0x70,
   0x00, 0x00, 0x1c, 0x00, 0xb8, 0x00, 0x70, 0x00 0x44, 0x1c, 0x00, 0x70,
   0x00, 0x70, 0x00, 0x00, 0x1c, 0x00, 0xe0, 0x00, 0x70, 0x01, 0x00, 0x1d,
   0x00, 0xc0, 0x01, 0x70, 0x00, 0x24, 0x1c, 0x00, 0x80, 0x01, 0x70, 0x00,
   0x00, 0xfc, 0xff, 0xff, 0xff, 0x7f, 0x00, 0x80, 0xfc, 0xff, 0xff, 0xff,
   0x7f, 0x00, 0x24, 0xfc, 0xff, 0xff, 0xff, 0x7f, 0x01, 0x00, 0x04, 0x00,
   0x18, 0x00, 0x00, 0x00 0x00, 0x41, 0x92, 0x18, 0x00, 0x40, 0x00, 0x24,
   0x00, 0x00, 0x5c, 0x92, 0x04, 0x00, 0x00, 0x10, 0x00, 0x18, 0x00, 0x20,
   0x00, 0x00, 0x82, 0x24, 0x19, 0x08, 0x08, 0x00, 0x24, 0x00, 0x00, 0x7e,
   0x41, 0x02, 0x01, 0x00, 0x11, 0x00, 0x7e, 0x00, 0x00, 0x00, 0x00, 0x80,
   0x24, 0x3c, 0x04, 0x20, 0x00, 0x24, 0x04, 0x00, 0x59, 0x20, 0x09, 0x00
   0x00, 0x01, 0x00, 0x18, 0x02, 0x00, 0x01, 0x00, 0x20, 0x49, 0x04, 0x00,
   0x00, 0x00};
