#define nodo_5e_width 50
#define nodo_5e_height 50
static char nodo_5e_bits[] = {
   0x00, 0x00, 0x00, 0x00, 0x00, 0x00, 0x00, 0x00, 0x00, 0x00, 0x00, 0x00,
   0x00, 0x00, 0x48, 0x92, 0x24, 0x49, 0x92, 0x24, 0x00, 0x00, 0x00, 0x00,
   0x00, 0x00, 0x00, 0x01, 0x00, 0x00, 0x08, 0x10, 0x00, 0x00, 0x00, 0x24,
   0x49, 0x52, 0x4a, 0x92, 0x24, 0x00, 0x00, 0x00, 0x30, 0x04, 0x00, 0x00,
   0x01, 0x00, 0x00, 0x40, 0x12, 0x00, 0x00, 0x00 0x24, 0x49, 0x82, 0x81,
   0x24, 0x49, 0x00, 0xc0, 0xff, 0xff, 0xff, 0xff, 0x03, 0x00, 0xc0, 0xff,
   0xff, 0xff, 0xff, 0x03, 0x00, 0xe4, 0xff, 0xff, 0xff, 0xff, 0x93, 0x00,
   0xc0, 0x01, 0x00, 0x00, 0x80, 0x03, 0x00, 0xc0, 0x01, 0x00, 0x00, 0x80,
   0x03, 0x00, 0xc4, 0x01, 0x00, 0x06, 0x80, 0x93, 0x00, 0xe0, 0x01, 0x80,
   0x0f, 0x80, 0x03, 0x00 0xc0, 0x01, 0x80, 0x19, 0x80, 0x03, 0x00, 0xc4,
   0x01, 0x80, 0x19, 0x80, 0x4b, 0x00, 0xc0, 0x01, 0x80, 0x1d, 0x80, 0x03,
   0x02, 0xd0, 0x01, 0x80, 0x0f, 0x80, 0x83, 0x00, 0xc4, 0x01, 0x00, 0x00,
   0x80, 0x13, 0x00, 0xc0, 0x01, 0x00, 0x00, 0x80, 0x03, 0x00, 0xc0, 0x01,
   0x00, 0x00, 0x80, 0x43, 0x00, 0xe4, 0x01, 0x00, 0x00, 0x80, 0x0b, 0x00
   0xc0, 0x01, 0x80, 0x01, 0x80, 0x03, 0x01, 0xc0, 0x01, 0x80, 0x05, 0x80,
   0x23, 0x00, 0xc4, 0x01, 0x80, 0x06, 0x80, 0x0b, 0x00, 0xe0, 0x01, 0x80,
   0x07, 0x80, 0x03, 0x00, 0xc0, 0x01, 0x80, 0x07, 0x80, 0x83, 0x00, 0xc4,
   0x01, 0x00, 0x04, 0x80, 0x13, 0x00, 0xc0, 0x01, 0x80, 0x0f, 0x80, 0x03,
   0x00, 0xd0, 0x01, 0x80, 0x04, 0x80, 0x8b, 0x00 0xc4, 0x01, 0x00, 0x00,
   0x80, 0x03, 0x00, 0xc0, 0x01, 0x00, 0x04, 0x80, 0x03, 0x00, 0xc0, 0x01,
   0x80, 0x0f, 0x80, 0x4b, 0x00, 0xc8, 0x01, 0x80, 0x04, 0x80, 0x03, 0x02,
   0xc0, 0x01, 0x00, 0x00, 0x80, 0x83, 0x00, 0xc4, 0x01, 0x00, 0x00, 0x80,
   0x0b, 0x00, 0xe0, 0x01, 0x00, 0x00, 0x80, 0x03, 0x00, 0xc0, 0x01, 0x00,
   0x00, 0x80, 0x23, 0x01 0xc4, 0xff, 0xff, 0xff, 0xff, 0x0b, 0x00, 0xc0,
   0xff, 0xff, 0xff, 0xff, 0x03, 0x00, 0xd0, 0xff, 0xff, 0xff, 0xff, 0x83,
   0x00, 0x04, 0x00, 0x00, 0x03, 0x00, 0x08, 0x00, 0x80, 0x24, 0x22, 0x43,
   0x88, 0x00, 0x00, 0x00, 0x00, 0x00, 0x0b, 0x02, 0x24, 0x01, 0x08, 0x80,
   0x08, 0x03, 0x40, 0x00, 0x00, 0x40, 0x12, 0xc0, 0x4f, 0x10, 0x00, 0x00
   0x04, 0x00, 0xc2, 0x17, 0x04, 0x92, 0x00, 0x00, 0x40, 0x00, 0x03, 0x00,
   0x00, 0x00};
