#define nodo_1s_width 50
#define nodo_1s_height 50
static char nodo_1s_bits[] = {
   0x00, 0x00, 0x00, 0x00, 0x00, 0x00, 0x00, 0x00, 0x00, 0x00, 0x30, 0x00,
   0x00, 0x00, 0x48, 0x92, 0x24, 0xb1, 0x24, 0x49, 0x00, 0x00, 0x00, 0x00,
   0x38, 0x00, 0x00, 0x00, 0x00, 0x00, 0x00, 0x30, 0x00, 0x00, 0x01, 0x24,
   0x49, 0x92, 0x30, 0x49, 0x12, 0x00, 0x00, 0x00, 0x00, 0x34, 0x00, 0x00,
   0x00, 0x00, 0x00, 0x00, 0xb0, 0x00, 0x40, 0x00 0x24, 0x49, 0x92, 0x30,
   0x48, 0x12, 0x00, 0x00, 0x00, 0x00, 0x34, 0x02, 0x00, 0x01, 0x00, 0xf8,
   0xff, 0xff, 0xff, 0x7f, 0x00, 0x24, 0xf9, 0xff, 0xff, 0xff, 0x7f, 0x00,
   0x00, 0xf8, 0xff, 0xff, 0xff, 0x7f, 0x00, 0x00, 0x3a, 0x00, 0x00, 0x00,
   0x70, 0x01, 0x24, 0x38, 0x00, 0x00, 0x00, 0x70, 0x00, 0x00, 0x39, 0x00,
   0x00, 0x80, 0x71, 0x00 0x40, 0x38, 0x00, 0x00, 0x80, 0x71, 0x01, 0x04,
   0x38, 0x9c, 0x7b, 0xfc, 0x71, 0x00, 0x00, 0x3c, 0xc6, 0xe0, 0xbc, 0x71,
   0x00, 0x90, 0x38, 0xbc, 0xdf, 0xbc, 0x71, 0x00, 0x04, 0x38, 0x9c, 0x7b,
   0xff, 0x71, 0x01, 0x00, 0x38, 0x00, 0x00, 0x00, 0x70, 0x00, 0x40, 0x3a,
   0x00, 0x00, 0x00, 0x70, 0x00, 0x04, 0x38, 0xc0, 0xff, 0x03, 0x70, 0x01
   0x00, 0x38, 0xe0, 0xff, 0x07, 0x70, 0x00, 0x70, 0x3a, 0x70, 0x60, 0x0e,
   0x70, 0x00, 0x3c, 0x38, 0x38, 0x60, 0x1c, 0x70, 0x00, 0xfe, 0x3f, 0x1c,
   0x30, 0x38, 0x70, 0x01, 0xfe, 0x3f, 0x0e, 0x38, 0x70, 0x70, 0x00, 0x38,
   0x38, 0x07, 0x1c, 0xe0, 0x70, 0x00, 0x30, 0xb9, 0x03, 0x0c, 0xc0, 0x71,
   0x00, 0x44, 0xf8, 0x05, 0x06, 0xc0, 0x73, 0x01 0x00, 0xf8, 0x08, 0x07,
   0x20, 0x73, 0x00, 0x00, 0x3a, 0x90, 0x03, 0x10, 0x70, 0x00, 0x24, 0x38,
   0xe0, 0x01, 0x08, 0x70, 0x01, 0x00, 0x38, 0xc0, 0x00, 0x04, 0x70, 0x00,
   0x80, 0x3c, 0xe0, 0x03, 0x03, 0x70, 0x00, 0x24, 0x38, 0x60, 0xfc, 0x00,
   0x70, 0x00, 0x00, 0x38, 0x00, 0x00, 0x00, 0x70, 0x01, 0x00, 0x39, 0x00,
   0x00, 0x00, 0x70, 0x00 0x24, 0x38, 0x00, 0x00, 0x00, 0x70, 0x00, 0x00,
   0x38, 0x00, 0x00, 0x00, 0x70, 0x00, 0x00, 0x39, 0x00, 0x00, 0x00, 0x70,
   0x01, 0x24, 0x38, 0x00, 0x00, 0x00, 0x70, 0x00, 0x00, 0xfc, 0xff, 0xff,
   0xff, 0x7f, 0x00, 0x80, 0xf8, 0xff, 0xff, 0xff, 0x7f, 0x01, 0x24, 0xf8,
   0xff, 0xff, 0xff, 0x7f, 0x00, 0x00, 0x00, 0x00, 0x00, 0x00, 0x00, 0x00
   0x00, 0x92, 0x24, 0x49, 0x92, 0x24, 0x01, 0x24, 0x00, 0x00, 0x00, 0x00,
   0x00, 0x00};
