#define nodo_5w_width 50
#define nodo_5w_height 50
static char nodo_5w_bits[] = {
   0x00, 0x00, 0x00, 0x03, 0x00, 0x00, 0x00, 0x00, 0x00, 0x80, 0x07, 0x00,
   0x00, 0x00, 0x48, 0x92, 0xe4, 0x4f, 0x92, 0x24, 0x00, 0x00, 0x00, 0x00,
   0x13, 0x00, 0x00, 0x01, 0x00, 0x00, 0x00, 0x03, 0x00, 0x00, 0x00, 0x24,
   0x49, 0x12, 0x03, 0x49, 0x12, 0x00, 0x00, 0x00, 0x80, 0x4b, 0x00, 0x80,
   0x00, 0x00, 0xff, 0xff, 0xff, 0xff, 0x0f, 0x00 0x24, 0xff, 0xff, 0xff,
   0xff, 0x2f, 0x00, 0x00, 0xff, 0xff, 0xff, 0xff, 0x0f, 0x01, 0x40, 0x07,
   0x00, 0x00, 0x00, 0x0e, 0x00, 0x04, 0x07, 0x00, 0x00, 0x00, 0x2e, 0x00,
   0x20, 0x07, 0x00, 0x00, 0x00, 0x0e, 0x00, 0x00, 0x07, 0x00, 0x0c, 0x00,
   0x8e, 0x00, 0x04, 0x07, 0x00, 0x1f, 0x00, 0x2e, 0x00, 0x20, 0x07, 0x00,
   0x33, 0x00, 0x0e, 0x00 0x00, 0x07, 0x00, 0x33, 0x00, 0x0e, 0x00, 0x84,
   0x07, 0x00, 0x3b, 0x00, 0x4e, 0x00, 0x20, 0x07, 0x00, 0x1f, 0x00, 0x0e,
   0x00, 0x00, 0x07, 0x00, 0x00, 0x00, 0x8e, 0x00, 0x04, 0x07, 0x00, 0x00,
   0x00, 0x2e, 0x00, 0x20, 0x07, 0x00, 0x00, 0x00, 0x0e, 0x00, 0x00, 0x07,
   0x00, 0x00, 0x00, 0x0e, 0x00, 0x84, 0x07, 0x00, 0x03, 0x00, 0x4e, 0x00
   0x20, 0x07, 0x00, 0x0b, 0x00, 0x0e, 0x02, 0x00, 0x07, 0x00, 0x0d, 0x00,
   0x8e, 0x00, 0x04, 0x07, 0x00, 0x0f, 0x00, 0x2e, 0x00, 0x40, 0x07, 0x00,
   0x0f, 0x00, 0x0e, 0x00, 0x10, 0x07, 0x00, 0x08, 0x00, 0x0e, 0x00, 0x04,
   0x07, 0x00, 0x1f, 0x00, 0x4e, 0x00, 0x00, 0x07, 0x00, 0x09, 0x00, 0x0e,
   0x00, 0x40, 0x07, 0x00, 0x00, 0x00, 0x0e, 0x01 0x08, 0x07, 0x00, 0x08,
   0x00, 0x2e, 0x00, 0x00, 0x07, 0x00, 0x1f, 0x00, 0x0e, 0x00, 0x84, 0x07,
   0x00, 0x09, 0x00, 0x8e, 0x00, 0x20, 0x07, 0x00, 0x00, 0x00, 0x0e, 0x00,
   0x00, 0x07, 0x00, 0x00, 0x00, 0x2e, 0x00, 0x04, 0x07, 0x00, 0x00, 0x00,
   0x0e, 0x00, 0x40, 0xff, 0xff, 0xff, 0xff, 0x8f, 0x00, 0x10, 0xff, 0xff,
   0xff, 0xff, 0x0f, 0x00 0x04, 0xff, 0xff, 0xff, 0xff, 0x2f, 0x00, 0x00,
   0x00, 0x00, 0x06, 0x00, 0x00, 0x01, 0x80, 0x88, 0x48, 0x99, 0x44, 0x04,
   0x00, 0x08, 0x00, 0x80, 0x14, 0x00, 0x20, 0x00, 0x00, 0x22, 0x42, 0x20,
   0x10, 0x01, 0x00, 0x24, 0x00, 0x30, 0x41, 0x01, 0x10, 0x01, 0x00, 0x81,
   0x00, 0x10, 0x40, 0x04, 0x00, 0x00, 0x08, 0x00, 0x04, 0x04, 0x00, 0x00
   0x24, 0x00, 0x92, 0x80, 0x20, 0x40, 0x00, 0x00, 0x21, 0x00, 0x00, 0x00,
   0x11, 0x00};
