#define nodo_5s_width 50
#define nodo_5s_height 50
static char nodo_5s_bits[] = {
   0x00, 0x00, 0x00, 0x00, 0x00, 0x00, 0x00, 0x00, 0x00, 0x00, 0x00, 0x00,
   0x00, 0x00, 0x48, 0x92, 0x24, 0x49, 0x92, 0x24, 0x00, 0x00, 0x00, 0x00,
   0x00, 0x00, 0x00, 0x01, 0x00, 0x00, 0x00, 0x00, 0x00, 0x00, 0x00, 0x24,
   0x49, 0x92, 0x24, 0x49, 0x12, 0x00, 0x80, 0xff, 0xff, 0xff, 0xff, 0x81,
   0x00, 0x80, 0xff, 0xff, 0xff, 0xff, 0x01, 0x00 0xa4, 0xff, 0xff, 0xff,
   0xff, 0x11, 0x00, 0x80, 0x03, 0x00, 0x00, 0xc0, 0x81, 0x00, 0x80, 0x03,
   0x00, 0x00, 0xc0, 0x05, 0x00, 0xa4, 0x03, 0x00, 0x00, 0xc0, 0x21, 0x00,
   0x80, 0x03, 0x00, 0x00, 0xc0, 0x01, 0x01, 0x80, 0x03, 0x00, 0x00, 0xc0,
   0x09, 0x00, 0xa4, 0x03, 0x00, 0x00, 0xc0, 0x01, 0x00, 0x80, 0x03, 0x00,
   0x00, 0xc0, 0x21, 0x01 0x80, 0x03, 0x00, 0x00, 0xc0, 0x09, 0x00, 0xa4,
   0x03, 0x00, 0x00, 0xc0, 0x01, 0x00, 0x80, 0x03, 0x00, 0x00, 0xc0, 0x81,
   0x00, 0x80, 0x03, 0x00, 0x00, 0xc0, 0x25, 0x00, 0xa4, 0x83, 0x03, 0x00,
   0xc0, 0x51, 0x00, 0x80, 0xc3, 0x07, 0x20, 0xc2, 0x09, 0x00, 0x84, 0x63,
   0x06, 0x7f, 0xc7, 0x15, 0x00, 0x96, 0x63, 0x04, 0x2e, 0xc2, 0x83, 0x00
   0xff, 0xc3, 0x87, 0x2d, 0xc2, 0x03, 0x00, 0xff, 0xc3, 0x87, 0x6f, 0xc6,
   0x0d, 0x00, 0x86, 0x03, 0x00, 0x00, 0xc0, 0x49, 0x00, 0xa4, 0x03, 0x00,
   0x00, 0xc0, 0x11, 0x02, 0x88, 0x03, 0x00, 0x00, 0xc0, 0x29, 0x00, 0x80,
   0x03, 0x00, 0x00, 0xc0, 0x81, 0x00, 0x80, 0x03, 0x00, 0x00, 0xc0, 0x21,
   0x00, 0xa4, 0x03, 0x00, 0x00, 0xc0, 0x05, 0x00 0x80, 0x03, 0x00, 0x00,
   0xc0, 0x01, 0x00, 0x80, 0x03, 0x00, 0x00, 0xc0, 0x41, 0x00, 0xa4, 0x03,
   0x00, 0x00, 0xc0, 0x09, 0x00, 0x80, 0x03, 0x00, 0x00, 0xc0, 0x01, 0x01,
   0x80, 0x03, 0x00, 0x00, 0xc0, 0x21, 0x00, 0xa4, 0x03, 0x00, 0x00, 0xc0,
   0x05, 0x00, 0x80, 0x03, 0x00, 0x00, 0xc0, 0x01, 0x01, 0x80, 0xff, 0xff,
   0xff, 0xff, 0x21, 0x00 0xa4, 0xff, 0xff, 0xff, 0xff, 0x09, 0x00, 0x80,
   0xff, 0xff, 0xff, 0xff, 0x01, 0x00, 0x00, 0x00, 0x00, 0x00, 0x00, 0x40,
   0x00, 0x24, 0x49, 0x92, 0x08, 0x80, 0x04, 0x00, 0x00, 0x00, 0x00, 0x40,
   0x12, 0x00, 0x01, 0x00, 0x00, 0x00, 0x02, 0x00, 0x10, 0x00, 0x24, 0x49,
   0x92, 0x00, 0x44, 0x82, 0x00, 0x00, 0x00, 0x00, 0x90, 0x00, 0x00, 0x00
   0x00, 0x00, 0x00, 0x00, 0x00, 0x08, 0x00, 0x24, 0x49, 0x92, 0x04, 0x92,
   0x40, 0x00};
