#define nodo_0w_width 50
#define nodo_0w_height 50
static char nodo_0w_bits[] = {
   0x00, 0x00, 0x00, 0x00, 0x00, 0x00, 0x00, 0x00, 0x00, 0x60, 0x00, 0x00,
   0x00, 0x00, 0x48, 0x92, 0x64, 0x49, 0x92, 0x24, 0x00, 0x00, 0x00, 0xf0,
   0x00, 0x00, 0x00, 0x01, 0x00, 0x00, 0xf8, 0x01, 0x00, 0x00, 0x00, 0x24,
   0x49, 0xfa, 0x49, 0x92, 0x24, 0x00, 0x00, 0x00, 0x60, 0x02, 0x00, 0x00,
   0x01, 0x00, 0x00, 0x70, 0x00, 0x00, 0x00, 0x00 0x24, 0x49, 0x62, 0x20,
   0x49, 0x12, 0x00, 0x00, 0x00, 0x60, 0x09, 0x00, 0x80, 0x00, 0x00, 0x00,
   0x60, 0x00, 0x00, 0x00, 0x00, 0xfc, 0xff, 0xff, 0xff, 0xff, 0x09, 0x00,
   0xf8, 0xff, 0xff, 0xff, 0xff, 0x40, 0x00, 0xf8, 0xff, 0xff, 0xff, 0xff,
   0x00, 0x01, 0x38, 0x00, 0x06, 0x00, 0xe0, 0x12, 0x00, 0x3c, 0x00, 0x0e,
   0x00, 0xe0, 0x00, 0x00 0x38, 0x00, 0x1c, 0x00, 0xe0, 0x40, 0x00, 0x38,
   0x00, 0x38, 0x00, 0xe0, 0x09, 0x00, 0x38, 0x00, 0x74, 0x00, 0xe0, 0x00,
   0x01, 0x3c, 0x00, 0xe2, 0x00, 0xe0, 0x20, 0x00, 0x38, 0x00, 0xc1, 0x81,
   0xe3, 0x02, 0x00, 0x38, 0xb0, 0x80, 0x03, 0xe6, 0x80, 0x00, 0x38, 0xf0,
   0x00, 0x87, 0xe7, 0x08, 0x00, 0x3c, 0xe0, 0x01, 0x86, 0xe1, 0x42, 0x00
   0x38, 0xa0, 0x03, 0x06, 0xe6, 0x00, 0x00, 0x38, 0x20, 0x07, 0x86, 0xe7,
   0x10, 0x00, 0x38, 0x10, 0x1e, 0x86, 0xe0, 0x01, 0x01, 0x3c, 0x10, 0x38,
   0x86, 0xe3, 0x40, 0x00, 0x38, 0x10, 0x70, 0x86, 0xe7, 0xff, 0x01, 0x38,
   0x10, 0xe0, 0x87, 0xe4, 0xff, 0x01, 0x38, 0x10, 0x80, 0x87, 0xe7, 0x08,
   0x00, 0x3c, 0x10, 0x00, 0x06, 0xe3, 0x02, 0x00 0x38, 0x20, 0x00, 0x06,
   0xe0, 0x40, 0x00, 0x38, 0x20, 0x00, 0xe7, 0xe7, 0x10, 0x00, 0x38, 0x40,
   0x80, 0x03, 0xe0, 0x02, 0x01, 0x3c, 0x80, 0xc0, 0xa1, 0xe0, 0x00, 0x00,
   0x38, 0x00, 0xe1, 0xe0, 0xe7, 0x10, 0x00, 0x38, 0x00, 0x72, 0x80, 0xe0,
   0x81, 0x00, 0x38, 0x00, 0x3c, 0x00, 0xe0, 0x00, 0x00, 0x3c, 0x00, 0x1c,
   0x00, 0xe0, 0x24, 0x00 0x38, 0x00, 0x0e, 0x00, 0xe0, 0x00, 0x01, 0x38,
   0x00, 0x06, 0x00, 0xe0, 0x00, 0x00, 0x38, 0x00, 0x00, 0x00, 0xe0, 0x49,
   0x00, 0x3c, 0x00, 0x00, 0x00, 0xe0, 0x00, 0x00, 0xf8, 0xff, 0xff, 0xff,
   0xff, 0x00, 0x01, 0xf8, 0xff, 0xff, 0xff, 0xff, 0x12, 0x00, 0xf8, 0xff,
   0xff, 0xff, 0xff, 0x80, 0x00, 0x04, 0x00, 0x00, 0x84, 0x88, 0x20, 0x00
   0x80, 0x10, 0x49, 0x20, 0x00, 0x08, 0x00, 0x10, 0x04, 0x00, 0x02, 0x20,
   0x02, 0x00};
