#define nodo_1n_width 50
#define nodo_1n_height 50
static char nodo_1n_bits[] = {
   0x00, 0x00, 0x00, 0x00, 0x00, 0x00, 0x00, 0x00, 0x00, 0x00, 0x00, 0x00,
   0x00, 0x00, 0x48, 0x92, 0x24, 0x49, 0x92, 0x24, 0x00, 0xf8, 0xff, 0xff,
   0xff, 0x7f, 0x00, 0x01, 0xf8, 0xff, 0xff, 0xff, 0x7f, 0x00, 0x00, 0xfc,
   0xff, 0xff, 0xff, 0x7f, 0x24, 0x00, 0x38, 0x00, 0x00, 0x00, 0x70, 0x00,
   0x01, 0x38, 0x00, 0x00, 0x00, 0x70, 0x01, 0x00 0x38, 0x00, 0x00, 0x00,
   0x70, 0x48, 0x00, 0x3c, 0x00, 0x00, 0x00, 0x70, 0x00, 0x00, 0x38, 0x00,
   0x00, 0x00, 0x70, 0x00, 0x00, 0x38, 0x00, 0x00, 0x00, 0x70, 0x92, 0x00,
   0x38, 0x00, 0xfc, 0x18, 0x70, 0x00, 0x00, 0x3c, 0x00, 0x03, 0x1f, 0x70,
   0x00, 0x00, 0x38, 0x80, 0x00, 0x0c, 0x70, 0x49, 0x00, 0x38, 0x40, 0x00,
   0x1e, 0x70, 0x00, 0x02 0x38, 0x20, 0x00, 0x27, 0x70, 0x80, 0x00, 0x3c,
   0x13, 0x80, 0x43, 0x7c, 0x12, 0x00, 0x38, 0x0f, 0x80, 0x81, 0x7e, 0x00,
   0x00, 0x38, 0x0e, 0xc0, 0x00, 0x77, 0x30, 0x01, 0x38, 0x1c, 0xe0, 0x80,
   0x73, 0x79, 0x00, 0x3c, 0x38, 0x70, 0xc0, 0xf1, 0xff, 0x01, 0x38, 0x70,
   0x30, 0xe0, 0xf0, 0xff, 0x01, 0x38, 0xe0, 0x18, 0x70, 0x70, 0x70, 0x00
   0x38, 0xc0, 0x19, 0x38, 0x70, 0x30, 0x01, 0x3c, 0x80, 0xff, 0x1f, 0x70,
   0x02, 0x00, 0x38, 0x00, 0xff, 0x0f, 0x70, 0x10, 0x00, 0x38, 0x00, 0x00,
   0x00, 0x70, 0x80, 0x00, 0x38, 0x00, 0x00, 0x00, 0x70, 0x02, 0x00, 0x3c,
   0xfe, 0x7b, 0xe7, 0x70, 0x10, 0x00, 0x38, 0xf6, 0xec, 0xf7, 0x70, 0x80,
   0x00, 0x38, 0xf6, 0x1c, 0x8c, 0x71, 0x09, 0x00 0x38, 0xfe, 0x78, 0xe7,
   0x70, 0x00, 0x00, 0x3c, 0x06, 0x00, 0x00, 0x70, 0x20, 0x01, 0x38, 0x06,
   0x00, 0x00, 0x70, 0x02, 0x00, 0x38, 0x00, 0x00, 0x00, 0x70, 0x00, 0x00,
   0x38, 0x00, 0x00, 0x00, 0x70, 0x48, 0x00, 0xfc, 0xff, 0xff, 0xff, 0x7f,
   0x01, 0x00, 0xf8, 0xff, 0xff, 0xff, 0x7f, 0x00, 0x01, 0xf8, 0xff, 0xff,
   0xff, 0x7f, 0x48, 0x00 0x00, 0x00, 0x30, 0x00, 0x00, 0x02, 0x00, 0x44,
   0x10, 0x30, 0x00, 0x80, 0x00, 0x00, 0x00, 0x82, 0xb4, 0x24, 0x09, 0x20,
   0x01, 0x10, 0x00, 0x30, 0x00, 0x40, 0x08, 0x00, 0x04, 0x08, 0x30, 0x00,
   0x00, 0x00, 0x00, 0x80, 0x40, 0xb2, 0x24, 0x09, 0x81, 0x00, 0x20, 0x04,
   0x30, 0x00, 0x40, 0x10, 0x00, 0x04, 0x00, 0x38, 0x00, 0x00, 0x00, 0x00
   0x00, 0x90, 0xb0, 0x24, 0x09, 0x42, 0x00, 0x40, 0x02, 0x04, 0x00, 0x40,
   0x10, 0x00};
