#define plen_1n_width 50
#define plen_1n_height 50
static char plen_1n_bits[] = {
   0x00, 0x00, 0x00, 0x00, 0x00, 0x00, 0x00, 0x00, 0x00, 0x00, 0x00, 0x00,
   0x00, 0x00, 0x00, 0x00, 0x00, 0x00, 0x00, 0x00, 0x00, 0x00, 0x00, 0x00,
   0x00, 0x00, 0x00, 0x00, 0x00, 0x00, 0x00, 0x00, 0x00, 0x00, 0x00, 0xe0,
   0xff, 0xff, 0xff, 0xff, 0x0f, 0x00, 0xe0, 0xff, 0xff, 0xff, 0xff, 0x0f,
   0x00, 0xe0, 0xff, 0xff, 0xff, 0xff, 0x0f, 0x00 0xe0, 0xff, 0xff, 0xff,
   0xff, 0x0f, 0x00, 0x20, 0x00, 0x00, 0x00, 0x00, 0xf8, 0x03, 0x3f, 0x00,
   0x00, 0x08, 0x00, 0xf8, 0x03, 0x3f, 0x40, 0x00, 0x00, 0x00, 0xf8, 0x03,
   0x3f, 0x00, 0x00, 0x00, 0x00, 0x08, 0x00, 0x20, 0x00, 0x00, 0x00, 0x08,
   0x08, 0x00, 0x20, 0x00, 0x04, 0x02, 0x00, 0x08, 0x00, 0x20, 0x04, 0x00,
   0x00, 0x00, 0x08, 0x00 0x20, 0x00, 0x00, 0x40, 0x00, 0x08, 0x00, 0x20,
   0x00, 0x00, 0x00, 0x00, 0x08, 0x00, 0x20, 0x80, 0x00, 0x00, 0x00, 0x08,
   0x00, 0x20, 0x00, 0x00, 0x02, 0x00, 0x08, 0x00, 0x20, 0x00, 0x00, 0x00,
   0x00, 0x08, 0x00, 0x20, 0x01, 0x00, 0x00, 0x10, 0x08, 0x00, 0x20, 0x00,
   0x00, 0x00, 0x00, 0x08, 0x00, 0x3f, 0x00, 0x00, 0x00, 0x00, 0xf8, 0x03
   0x3f, 0x40, 0x00, 0x02, 0x00, 0xf8, 0x03, 0x3f, 0x00, 0x08, 0x00, 0x00,
   0xf8, 0x03, 0x20, 0x00, 0x00, 0x00, 0x01, 0x08, 0x00, 0x20, 0x00, 0x00,
   0x00, 0x00, 0x08, 0x00, 0x20, 0x00, 0x00, 0x20, 0x00, 0x09, 0x00, 0x20,
   0x00, 0x00, 0x00, 0x00, 0x08, 0x00, 0x20, 0x81, 0x04, 0x00, 0x00, 0x08,
   0x00, 0x20, 0x00, 0x00, 0x00, 0x08, 0x08, 0x00 0x20, 0x00, 0x00, 0x00,
   0x00, 0x08, 0x00, 0x20, 0x00, 0x00, 0x20, 0x00, 0x08, 0x00, 0x20, 0x00,
   0x40, 0x00, 0x00, 0x08, 0x00, 0x3f, 0x00, 0x00, 0x00, 0x00, 0x08, 0x00,
   0x7f, 0x00, 0x00, 0x00, 0x40, 0xf8, 0x03, 0x3f, 0x10, 0x00, 0x00, 0x00,
   0xf8, 0x03, 0x20, 0x00, 0x00, 0x04, 0x00, 0xf8, 0x03, 0x20, 0x00, 0x00,
   0x00, 0x00, 0x08, 0x00 0xe0, 0xff, 0xff, 0xff, 0xff, 0x0f, 0x00, 0xe0,
   0xff, 0xff, 0xff, 0xff, 0x0f, 0x00, 0xe0, 0xff, 0xff, 0xff, 0xff, 0x0f,
   0x00, 0xe0, 0xff, 0xff, 0xff, 0xff, 0x0f, 0x00, 0x00, 0x00, 0x00, 0x00,
   0x00, 0x00, 0x00, 0x00, 0x00, 0x00, 0x00, 0x00, 0x00, 0x00, 0x00, 0x00,
   0x00, 0x00, 0x00, 0x00, 0x00, 0x00, 0x00, 0x00, 0x00, 0x00, 0x00, 0x00
   0x00, 0x00, 0x00, 0x00, 0x00, 0x00, 0x00, 0x00, 0x00, 0x00, 0x00, 0x00,
   0x00, 0x00};
