#define plen_0s_width 50
#define plen_0s_height 50
static char plen_0s_bits[] = {
   0x00, 0x00, 0x00, 0x00, 0x00, 0x00, 0x00, 0x00, 0x00, 0x00, 0x00, 0x00,
   0x00, 0x00, 0x00, 0x00, 0x00, 0x00, 0x00, 0x00, 0x00, 0x00, 0x00, 0x00,
   0x00, 0x00, 0x00, 0x00, 0x00, 0x00, 0x00, 0x00, 0x00, 0x00, 0x00, 0x00,
   0x00, 0x00, 0x00, 0x00, 0x00, 0x00, 0xc0, 0xff, 0xff, 0xff, 0xff, 0x1f,
   0x00, 0xc0, 0xff, 0xff, 0xff, 0xff, 0x1f, 0x00 0xc0, 0xff, 0xff, 0xff,
   0xff, 0x1f, 0x00, 0xc0, 0xff, 0xff, 0xff, 0xff, 0x1f, 0x00, 0x40, 0x00,
   0x00, 0x00, 0x00, 0x10, 0x00, 0x40, 0x00, 0x80, 0x00, 0x00, 0x10, 0x00,
   0x40, 0x00, 0x00, 0x00, 0x20, 0x10, 0x00, 0x40, 0x08, 0x00, 0x00, 0x00,
   0x10, 0x00, 0x40, 0x00, 0x00, 0x00, 0x00, 0x10, 0x00, 0x40, 0x00, 0x00,
   0x08, 0x00, 0x10, 0x00 0x40, 0x00, 0x10, 0x00, 0x00, 0x10, 0x00, 0x40,
   0x00, 0x00, 0x00, 0x00, 0x10, 0x00, 0x40, 0x40, 0x00, 0x00, 0x00, 0x10,
   0x00, 0x40, 0x00, 0x00, 0x80, 0x04, 0x12, 0x00, 0x40, 0x00, 0x00, 0x00,
   0x00, 0x10, 0x00, 0x40, 0x02, 0x10, 0x00, 0x00, 0x10, 0x00, 0x40, 0x00,
   0x00, 0x00, 0x00, 0x10, 0x00, 0x40, 0x00, 0x02, 0x00, 0x00, 0x10, 0x00
   0x7f, 0x00, 0x00, 0x40, 0x00, 0xf0, 0x03, 0x7f, 0x00, 0x00, 0x01, 0x08,
   0xf0, 0x03, 0x7f, 0x00, 0x00, 0x00, 0x00, 0xf0, 0x03, 0x40, 0x00, 0x00,
   0x00, 0x00, 0x10, 0x00, 0x40, 0x20, 0x00, 0x00, 0x00, 0x12, 0x00, 0x40,
   0x00, 0x00, 0x00, 0x00, 0x10, 0x00, 0x40, 0x00, 0x00, 0x01, 0x00, 0x10,
   0x00, 0x40, 0x00, 0x00, 0x00, 0x04, 0x10, 0x00 0x40, 0x00, 0x00, 0x00,
   0x00, 0x10, 0x00, 0x40, 0x00, 0x08, 0x00, 0x00, 0x10, 0x00, 0x40, 0x00,
   0x00, 0x00, 0x80, 0x10, 0x00, 0x40, 0x00, 0x00, 0x81, 0x00, 0x10, 0x00,
   0x40, 0x40, 0x00, 0x00, 0x00, 0x10, 0x00, 0x40, 0x00, 0x00, 0x00, 0x00,
   0x10, 0x00, 0x40, 0x00, 0x00, 0x00, 0x08, 0x10, 0x00, 0x40, 0x00, 0x40,
   0x00, 0x00, 0x10, 0x00 0x40, 0x00, 0x00, 0x00, 0x00, 0x10, 0x00, 0xc0,
   0xff, 0xff, 0xff, 0xff, 0x1f, 0x00, 0xc0, 0xff, 0xff, 0xff, 0xff, 0x1f,
   0x00, 0xc0, 0xff, 0xff, 0xff, 0xff, 0x1f, 0x00, 0xc0, 0xff, 0xff, 0xff,
   0xff, 0x1f, 0x00, 0x00, 0x00, 0x00, 0x00, 0x00, 0x00, 0x00, 0x00, 0x00,
   0x00, 0x00, 0x00, 0x00, 0x00, 0x00, 0x00, 0x00, 0x00, 0x00, 0x00, 0x00
   0x00, 0x00, 0x00, 0x00, 0x00, 0x00, 0x00, 0x00, 0x00, 0x00, 0x00, 0x00,
   0x00, 0x00};
