#define plen_1e_width 50
#define plen_1e_height 50
static char plen_1e_bits[] = {
   0x00, 0x0e, 0x80, 0x03, 0x70, 0x00, 0x00, 0x00, 0x0e, 0x80, 0x03, 0x70,
   0x00, 0x00, 0x00, 0x0e, 0x80, 0x03, 0x70, 0x00, 0x00, 0x00, 0x0e, 0x80,
   0x03, 0x70, 0x00, 0x00, 0x00, 0x0e, 0x80, 0x03, 0x70, 0x00, 0x00, 0x00,
   0x0e, 0x80, 0x03, 0x70, 0x00, 0x00, 0xe0, 0xff, 0xff, 0xff, 0xff, 0x0f,
   0x00, 0xe0, 0x01, 0x00, 0x00, 0x00, 0x0f, 0x00 0xe0, 0x01, 0x00, 0x00,
   0x00, 0x0f, 0x00, 0xe0, 0x01, 0x00, 0x10, 0x00, 0x0f, 0x00, 0xe0, 0x01,
   0x00, 0x00, 0x00, 0x0f, 0x00, 0xe0, 0x01, 0x00, 0x00, 0x10, 0x0f, 0x00,
   0xe0, 0x01, 0x00, 0x00, 0x00, 0x0f, 0x00, 0xe0, 0x01, 0x20, 0x00, 0x00,
   0x0f, 0x00, 0xe0, 0x21, 0x00, 0x80, 0x00, 0x0f, 0x00, 0xe0, 0x01, 0x00,
   0x00, 0x00, 0x0f, 0x00 0xe0, 0x01, 0x00, 0x00, 0x00, 0x0f, 0x00, 0xe0,
   0x01, 0x00, 0x04, 0x00, 0x0f, 0x00, 0xe0, 0x01, 0x00, 0x00, 0x00, 0x0f,
   0x00, 0xe0, 0x01, 0x01, 0x00, 0x00, 0x0f, 0x00, 0xe0, 0x01, 0x00, 0x10,
   0x02, 0x0f, 0x00, 0xe0, 0x01, 0x00, 0x00, 0x00, 0x0f, 0x00, 0xe0, 0x05,
   0x00, 0x00, 0x00, 0x0f, 0x00, 0xe0, 0x01, 0x00, 0x00, 0x40, 0x0f, 0x00
   0xe0, 0x41, 0x08, 0x01, 0x00, 0x0f, 0x00, 0xe0, 0x01, 0x00, 0x00, 0x00,
   0x0f, 0x00, 0xe0, 0x01, 0x00, 0x00, 0x00, 0x0f, 0x00, 0xe0, 0x01, 0x00,
   0x00, 0x04, 0x0f, 0x00, 0xe0, 0x01, 0x00, 0x00, 0x00, 0x0f, 0x00, 0xe0,
   0x01, 0x00, 0x00, 0x00, 0x0f, 0x00, 0xe0, 0x01, 0x00, 0x02, 0x00, 0x0f,
   0x00, 0xe0, 0x41, 0x00, 0x40, 0x00, 0x0f, 0x00 0xe0, 0x01, 0x00, 0x00,
   0x00, 0x0f, 0x00, 0xe0, 0x01, 0x00, 0x00, 0x00, 0x0f, 0x00, 0xe0, 0x01,
   0x04, 0x40, 0x00, 0x0f, 0x00, 0xe0, 0x09, 0x00, 0x01, 0x00, 0x0f, 0x00,
   0xe0, 0x01, 0x00, 0x00, 0x00, 0x0f, 0x00, 0xe0, 0x01, 0x00, 0x00, 0x20,
   0x0f, 0x00, 0xe0, 0x01, 0x00, 0x00, 0x00, 0x0f, 0x00, 0xe0, 0x81, 0x00,
   0x00, 0x00, 0x0f, 0x00 0xe0, 0x01, 0x00, 0x00, 0x00, 0x0f, 0x00, 0xe0,
   0x01, 0x20, 0x40, 0x00, 0x0f, 0x00, 0xe0, 0x01, 0x00, 0x00, 0x00, 0x0f,
   0x00, 0xe0, 0x01, 0x00, 0x00, 0x10, 0x0f, 0x00, 0xe0, 0xff, 0xff, 0xff,
   0xff, 0x0f, 0x00, 0x00, 0x1c, 0x80, 0x03, 0x38, 0x00, 0x00, 0x00, 0x1c,
   0x80, 0x03, 0x38, 0x00, 0x00, 0x00, 0x1c, 0x80, 0x03, 0x38, 0x00, 0x00
   0x00, 0x1c, 0x80, 0x03, 0x38, 0x00, 0x00, 0x00, 0x1c, 0x80, 0x03, 0x38,
   0x00, 0x00};
