#define rscd_0n_width 50
#define rscd_0n_height 75
static char rscd_0n_bits[] = {
   0x00, 0x00, 0xe0, 0x0f, 0x00, 0x00, 0x00, 0x00, 0x00, 0xf8, 0x3f, 0x00,
   0x00, 0x00, 0x00, 0x00, 0x1e, 0xf0, 0x00, 0x00, 0x00, 0x00, 0x00, 0x07,
   0xc0, 0x01, 0x00, 0x00, 0x00, 0x80, 0x01, 0x00, 0x03, 0x00, 0x00, 0x20,
   0xe2, 0x00, 0x00, 0x26, 0x22, 0x00, 0x00, 0xc0, 0x00, 0x00, 0x06, 0x00,
   0x00, 0x00, 0x60, 0x00, 0x00, 0x0c, 0x00, 0x00 0x00, 0x60, 0x00, 0x00,
   0x0c, 0x00, 0x00, 0x88, 0x30, 0x00, 0x00, 0x18, 0x84, 0x00, 0x00, 0x30,
   0x00, 0x00, 0x98, 0x00, 0x00, 0x00, 0x38, 0x00, 0x00, 0x18, 0x00, 0x00,
   0x00, 0x30, 0x00, 0x00, 0x18, 0x00, 0x00, 0x00, 0x30, 0x00, 0x00, 0x18,
   0x20, 0x00, 0x10, 0x31, 0x00, 0x00, 0x18, 0x08, 0x00, 0x00, 0x30, 0x00,
   0x00, 0x98, 0x00, 0x00 0x00, 0x30, 0x00, 0x00, 0x18, 0x00, 0x00, 0x00,
   0x30, 0x00, 0x00, 0x18, 0x00, 0x00, 0x20, 0x34, 0x00, 0x00, 0x18, 0x00,
   0x00, 0x08, 0x30, 0x00, 0x00, 0x18, 0x84, 0x00, 0x00, 0x30, 0x00, 0x00,
   0x18, 0x01, 0x00, 0x00, 0x30, 0x00, 0x00, 0x18, 0x00, 0x00, 0x00, 0x30,
   0x00, 0x00, 0x18, 0x00, 0x00, 0x00, 0x31, 0x00, 0x00, 0x18, 0x80, 0x00
   0x00, 0x30, 0x00, 0x00, 0x18, 0x20, 0x00, 0x10, 0x30, 0x00, 0x00, 0x98,
   0x08, 0x00, 0x00, 0x38, 0x00, 0x00, 0x18, 0x00, 0x00, 0x00, 0x32, 0x00,
   0x00, 0x18, 0x00, 0x00, 0x00, 0x30, 0x00, 0x00, 0x18, 0x00, 0x00, 0x20,
   0x30, 0x00, 0x00, 0x18, 0x00, 0x00, 0x08, 0x30, 0x00, 0x00, 0x18, 0x01,
   0x00, 0x00, 0x30, 0x00, 0x00, 0x18, 0x10, 0x01 0x00, 0x30, 0x00, 0x00,
   0x98, 0x01, 0x00, 0x00, 0x32, 0x00, 0x00, 0xf8, 0x7f, 0x00, 0x38, 0x31,
   0x00, 0x00, 0xf8, 0x7f, 0x00, 0xc4, 0xf7, 0x1f, 0x00, 0x98, 0x01, 0x00,
   0x0c, 0x3b, 0x2b, 0x00, 0x18, 0x00, 0x00, 0x70, 0xff, 0x2b, 0x00, 0x18,
   0x11, 0x01, 0x64, 0x33, 0x2b, 0x00, 0x18, 0x00, 0x00, 0x38, 0xff, 0x2b,
   0x00, 0x18, 0x00, 0x00 0x00, 0x30, 0x00, 0x00, 0x18, 0x00, 0x00, 0x00,
   0x3b, 0x00, 0xe0, 0x98, 0x44, 0x00, 0xfc, 0x3f, 0x00, 0x20, 0xf9, 0x15,
   0x03, 0xfc, 0x3f, 0x00, 0x20, 0x19, 0xb5, 0x01, 0x00, 0x33, 0x00, 0x20,
   0xd9, 0x35, 0x01, 0x10, 0x31, 0x00, 0x20, 0x39, 0xb5, 0x02, 0x00, 0x30,
   0x00, 0xe0, 0xf8, 0xb5, 0x01, 0x00, 0x30, 0x00, 0x00, 0x18, 0x08, 0x00
   0x00, 0x30, 0x00, 0x00, 0x18, 0x81, 0x00, 0x20, 0x30, 0x00, 0x00, 0x18,
   0x00, 0x00, 0x08, 0x34, 0x00, 0x00, 0x18, 0x00, 0x00, 0x00, 0x30, 0x00,
   0x00, 0x18, 0x00, 0x00, 0x00, 0x30, 0x00, 0x00, 0x98, 0x20, 0x00, 0x00,
   0x30, 0x00, 0x00, 0x18, 0x38, 0x00, 0x00, 0x31, 0x00, 0x00, 0xf8, 0xff,
   0x00, 0x40, 0x30, 0x00, 0x00, 0xf8, 0xff, 0x00 0x10, 0x30, 0x00, 0x00,
   0x18, 0x30, 0x00, 0x00, 0x30, 0x00, 0x00, 0x18, 0x00, 0x00, 0x00, 0x30,
   0x00, 0x00, 0x18, 0x01, 0x00, 0x00, 0x30, 0x00, 0x00, 0x18, 0x00, 0x00,
   0x00, 0x38, 0x00, 0x00, 0x18, 0x80, 0x00, 0xd0, 0xff, 0xff, 0xff, 0xff,
   0x2f, 0x00, 0xc0, 0xff, 0xff, 0xff, 0xff, 0x0f, 0x00, 0xc0, 0x00, 0x00,
   0x00, 0x00, 0x0c, 0x00 0xc0, 0x00, 0x00, 0x00, 0x00, 0x0c, 0x00, 0xc0,
   0x00, 0x00, 0x00, 0x00, 0x0c, 0x00, 0xc8, 0x00, 0x00, 0x00, 0x00, 0x0c,
   0x00, 0xff, 0x00, 0x00, 0x00, 0x00, 0xfc, 0x03, 0xff, 0x00, 0x00, 0x00,
   0x00, 0xfc, 0x03, 0xc0, 0x00, 0x00, 0x00, 0x00, 0x4c, 0x00, 0xc0, 0x00,
   0x00, 0x00, 0x00, 0x0c, 0x00, 0xc0, 0x00, 0x00, 0x00, 0x00, 0x0c, 0x00
   0xc0, 0x00, 0x00, 0x00, 0x00, 0x0c, 0x00, 0xe0, 0xff, 0xff, 0xff, 0xff,
   0x2f, 0x00, 0xc0, 0xff, 0xff, 0xff, 0xff, 0x0f, 0x00};
