#define rscd_1n_width 50
#define rscd_1n_height 75
static char rscd_1n_bits[] = {
   0x00, 0x00, 0xe0, 0x0f, 0x00, 0x00, 0x00, 0x00, 0x00, 0xf8, 0x3f, 0x00,
   0x00, 0x00, 0x00, 0x00, 0x1e, 0xf0, 0x00, 0x00, 0x00, 0x00, 0x00, 0x07,
   0xc0, 0x01, 0x00, 0x00, 0x00, 0x80, 0x01, 0x00, 0x03, 0x00, 0x00, 0x20,
   0xe2, 0x00, 0x00, 0x26, 0x22, 0x00, 0x00, 0xc0, 0x00, 0x00, 0x06, 0x00,
   0x00, 0x00, 0x60, 0x00, 0x00, 0x0c, 0x00, 0x00 0x00, 0x60, 0x00, 0x00,
   0x0c, 0x00, 0x00, 0x88, 0x30, 0x00, 0x00, 0x18, 0x84, 0x00, 0x00, 0x30,
   0x00, 0x00, 0x98, 0x00, 0x00, 0x00, 0x38, 0x00, 0x00, 0x18, 0x00, 0x00,
   0x00, 0x30, 0x00, 0x00, 0x18, 0x00, 0x00, 0x00, 0x30, 0x00, 0x00, 0x18,
   0x20, 0x00, 0x10, 0x31, 0x00, 0x00, 0x18, 0x08, 0x00, 0x00, 0x30, 0x00,
   0x00, 0x98, 0x00, 0x00 0x00, 0x30, 0x00, 0x00, 0x18, 0x00, 0x00, 0x00,
   0x30, 0x00, 0x00, 0x18, 0x00, 0x00, 0x20, 0x34, 0x00, 0x00, 0x18, 0x00,
   0x00, 0x08, 0x30, 0x00, 0x00, 0x18, 0x84, 0x00, 0x00, 0x30, 0x00, 0x00,
   0x18, 0x01, 0x00, 0x00, 0x30, 0x00, 0x00, 0x18, 0x00, 0x00, 0x00, 0x30,
   0x00, 0x00, 0x18, 0x00, 0x00, 0x00, 0x31, 0x00, 0x00, 0x18, 0x80, 0x00
   0x00, 0x30, 0x00, 0x00, 0x18, 0x20, 0x00, 0x10, 0x30, 0x00, 0x00, 0x98,
   0x08, 0x00, 0x00, 0x38, 0x00, 0x00, 0x18, 0x00, 0x00, 0x00, 0x32, 0x00,
   0xc0, 0x19, 0x00, 0x00, 0x00, 0x30, 0x00, 0x20, 0x3e, 0xff, 0x00, 0x20,
   0x30, 0x00, 0x60, 0x58, 0x58, 0x01, 0x08, 0x30, 0x00, 0x80, 0x7b, 0x5e,
   0x01, 0x00, 0x33, 0x00, 0x20, 0x1a, 0x59, 0x01 0xf8, 0x3f, 0x00, 0xc0,
   0x79, 0x5f, 0x01, 0xf8, 0x3f, 0x00, 0x00, 0x18, 0x01, 0x00, 0x00, 0x33,
   0x00, 0x00, 0x18, 0x10, 0x01, 0x00, 0x30, 0x00, 0x00, 0x18, 0x00, 0x00,
   0x00, 0x38, 0x00, 0x00, 0x18, 0x00, 0x00, 0x10, 0x31, 0x00, 0x00, 0x18,
   0x01, 0x00, 0x00, 0x30, 0x00, 0x00, 0x18, 0x40, 0x00, 0x00, 0x30, 0x00,
   0x00, 0x98, 0x11, 0x00 0x00, 0x30, 0x00, 0x00, 0xf8, 0xff, 0x00, 0x20,
   0x30, 0x00, 0x00, 0xf8, 0xff, 0x00, 0x08, 0x34, 0x00, 0x00, 0x98, 0x01,
   0x00, 0x38, 0x30, 0x01, 0x00, 0x18, 0x00, 0x00, 0x48, 0x7e, 0xc5, 0x00,
   0x98, 0x00, 0x00, 0x48, 0x72, 0x6d, 0x00, 0x18, 0x08, 0x00, 0x48, 0x72,
   0x4d, 0x00, 0x18, 0x00, 0x01, 0x48, 0x7a, 0xad, 0x00, 0x18, 0x00, 0x00
   0x38, 0x7a, 0x6d, 0x00, 0x18, 0x00, 0x00, 0x80, 0x30, 0x00, 0x00, 0x98,
   0x08, 0x00, 0x20, 0x38, 0x00, 0x00, 0x18, 0x80, 0x00, 0x00, 0x30, 0x00,
   0x00, 0x18, 0x00, 0x00, 0xc0, 0x30, 0x00, 0x00, 0x18, 0x00, 0x00, 0xf8,
   0x3f, 0x00, 0x00, 0x18, 0x01, 0x00, 0xf8, 0x3f, 0x00, 0x00, 0x18, 0x10,
   0x00, 0xc0, 0x30, 0x00, 0x00, 0x18, 0x00, 0x00 0x08, 0x30, 0x00, 0x00,
   0x18, 0x00, 0x01, 0x00, 0x34, 0x00, 0x00, 0x58, 0x00, 0x00, 0x80, 0x30,
   0x00, 0x00, 0x18, 0x04, 0x00, 0x00, 0x30, 0x00, 0x00, 0x18, 0x40, 0x00,
   0x00, 0x30, 0x00, 0x00, 0x18, 0x00, 0x00, 0xd0, 0xff, 0xff, 0xff, 0xff,
   0x0f, 0x00, 0xc0, 0xff, 0xff, 0xff, 0xff, 0x0f, 0x00, 0xc0, 0x00, 0x00,
   0x00, 0x00, 0x0c, 0x00 0xc0, 0x00, 0x00, 0x00, 0x00, 0x2c, 0x00, 0xc0,
   0x00, 0x00, 0x00, 0x00, 0x0c, 0x00, 0xd0, 0x00, 0x00, 0x00, 0x00, 0x0c,
   0x00, 0xff, 0x00, 0x00, 0x00, 0x00, 0xfc, 0x03, 0xff, 0x00, 0x00, 0x00,
   0x00, 0xfc, 0x03, 0xc0, 0x00, 0x00, 0x00, 0x00, 0x0c, 0x00, 0xc0, 0x00,
   0x00, 0x00, 0x00, 0x8c, 0x00, 0xc0, 0x00, 0x00, 0x00, 0x00, 0x0c, 0x00
   0xc0, 0x00, 0x00, 0x00, 0x00, 0x0c, 0x00, 0xd0, 0xff, 0xff, 0xff, 0xff,
   0x2f, 0x00, 0xc0, 0xff, 0xff, 0xff, 0xff, 0x0f, 0x00};
