#define sble_0n_width 30
#define sble_0n_height 70
static char sble_0n_bits[] = {
   0x00, 0x00, 0x00, 0x00, 0x00, 0x80, 0x03, 0x00, 0x00, 0x80, 0x03, 0x00,
   0x00, 0x80, 0x03, 0x00, 0x00, 0x80, 0x03, 0x00, 0x00, 0x80, 0x03, 0x00,
   0x00, 0x80, 0x03, 0x00, 0x00, 0x80, 0x03, 0x00 0x00, 0x80, 0x03, 0x00,
   0x00, 0x80, 0x03, 0x00, 0x00, 0x80, 0x03, 0x00, 0x00, 0x80, 0x03, 0x00,
   0x00, 0x80, 0x03, 0x00, 0x00, 0x80, 0x03, 0x00, 0x00, 0x80, 0x03, 0x00,
   0x00, 0x80, 0x03, 0x00 0x00, 0x80, 0x03, 0x00, 0x00, 0x80, 0x03, 0x00,
   0x00, 0x80, 0x03, 0x00, 0x00, 0x80, 0x03, 0x00, 0x00, 0x80, 0x03, 0x00,
   0x00, 0x80, 0x03, 0x00, 0x00, 0x80, 0x03, 0x00, 0x00, 0x80, 0x03, 0x00
   0x00, 0x80, 0x03, 0x00, 0x00, 0x80, 0x03, 0x00, 0x00, 0x80, 0x03, 0x00,
   0x00, 0x80, 0x03, 0x00, 0x00, 0x80, 0x03, 0x00, 0x00, 0x80, 0x03, 0x00,
   0x00, 0x80, 0x03, 0x00, 0x00, 0x80, 0x03, 0x00 0x00, 0x80, 0x03, 0x00,
   0x00, 0x80, 0x03, 0x00, 0x00, 0x80, 0x03, 0x00, 0x00, 0x80, 0x03, 0x00,
   0x00, 0x80, 0x03, 0x00, 0x00, 0x80, 0x03, 0x00, 0x00, 0x80, 0x03, 0x00,
   0x00, 0x80, 0x03, 0x00 0x00, 0x80, 0x03, 0x00, 0x00, 0x80, 0x03, 0x00,
   0x00, 0x80, 0x03, 0x00, 0x00, 0x80, 0x03, 0x00, 0x00, 0x80, 0x03, 0x00,
   0x00, 0x80, 0x03, 0x00, 0x00, 0x80, 0x03, 0x00, 0x00, 0x80, 0x03, 0x00
   0x00, 0x80, 0x03, 0x00, 0x00, 0x80, 0x03, 0x00, 0x00, 0x80, 0x03, 0x00,
   0x00, 0x80, 0x03, 0x00, 0x00, 0x80, 0x03, 0x00, 0x00, 0x80, 0x03, 0x00,
   0x00, 0x80, 0x03, 0x00, 0x00, 0x80, 0x03, 0x00 0x00, 0x80, 0x03, 0x00,
   0x00, 0x80, 0x03, 0x00, 0x00, 0x80, 0x03, 0x00, 0x00, 0x80, 0x03, 0x00,
   0x00, 0x80, 0x03, 0x00, 0x00, 0x80, 0x03, 0x00, 0x00, 0x80, 0x03, 0x00,
   0x00, 0x80, 0x03, 0x00 0x00, 0x80, 0x03, 0x00, 0x00, 0x80, 0x03, 0x00,
   0x00, 0x80, 0x03, 0x00, 0x00, 0x00, 0x00, 0x00, 0x00, 0x00, 0x00, 0x00,
   0x00, 0x00, 0x00, 0x00};
