#define sble_1e_width 46
#define sble_1e_height 20
static char sble_1e_bits[] = {
   0x00, 0x00, 0x00, 0x00, 0x00, 0x00, 0x00, 0x00, 0x00, 0x00, 0x00, 0x00,
   0x48, 0x92, 0x24, 0x49, 0x92, 0x04, 0x00, 0x00, 0x00, 0x00, 0x00, 0x00,
   0x00, 0x00, 0x00, 0x00, 0x00, 0x10, 0x24, 0x49, 0x92, 0x24, 0x49, 0x02,
   0x00, 0x00, 0x00, 0x00, 0x00, 0x00, 0x00, 0x00, 0x00, 0x00, 0x00, 0x10
   0x24, 0x49, 0x92, 0x24, 0x49, 0x02, 0x00, 0x00, 0x00, 0x00, 0x00, 0x00,
   0xfc, 0xff, 0xff, 0xff, 0xff, 0x3f, 0xfc, 0xff, 0xff, 0xff, 0xff, 0x3f,
   0x04, 0x00, 0x00, 0x00, 0x00, 0x00, 0x20, 0x49, 0x92, 0x24, 0x49, 0x12,
   0x00, 0x00, 0x00, 0x00, 0x00, 0x00, 0x04, 0x00, 0x00, 0x00, 0x00, 0x00
   0x20, 0x49, 0x92, 0x24, 0x49, 0x12, 0x00, 0x00, 0x00, 0x00, 0x00, 0x00,
   0x04, 0x00, 0x00, 0x00, 0x00, 0x00, 0x20, 0x49, 0x92, 0x24, 0x49, 0x12};
