#define seap_1e_width 50
#define seap_1e_height 50
static char seap_1e_bits[] = {
   0x00, 0x00, 0x00, 0x00, 0x00, 0x00, 0x00, 0x00, 0x00, 0xe0, 0x3f, 0x00,
   0x00, 0x00, 0x00, 0x00, 0xfe, 0xff, 0x03, 0x00, 0x00, 0x00, 0x80, 0xff,
   0xff, 0x0f, 0x00, 0x00, 0x00, 0xe0, 0x07, 0x00, 0x3f, 0x00, 0x00, 0x00,
   0xf8, 0x00, 0x08, 0xf8, 0x00, 0x00, 0x00, 0x3c, 0x04, 0x00, 0xe4, 0x01,
   0x00, 0x00, 0x1e, 0x80, 0x00, 0xc0, 0x03, 0x00 0x00, 0x07, 0x00, 0x00,
   0x00, 0x07, 0x00, 0x80, 0x03, 0x00, 0x00, 0x00, 0x0e, 0x00, 0xc0, 0x01,
   0x24, 0x12, 0x01, 0x1c, 0x00, 0xe0, 0x80, 0x92, 0xa4, 0x00, 0x38, 0x00,
   0xe0, 0x00, 0x24, 0x09, 0x00, 0x38, 0x00, 0x70, 0x00, 0x49, 0x52, 0x21,
   0x70, 0x00, 0x30, 0x08, 0x92, 0x24, 0x00, 0x68, 0x00, 0x38, 0x00, 0x24,
   0x49, 0x01, 0xe0, 0x00 0x18, 0x00, 0x49, 0x92, 0x00, 0xc0, 0x00, 0x1c,
   0x01, 0x92, 0x24, 0x00, 0xc1, 0x01, 0x1c, 0x00, 0xe4, 0x5f, 0x01, 0xc0,
   0x01, 0x0c, 0x00, 0x29, 0x8b, 0x00, 0x80, 0x01, 0x0e, 0x00, 0x42, 0x54,
   0x02, 0x80, 0x03, 0x2e, 0x00, 0x94, 0x26, 0x11, 0x80, 0x03, 0x0e, 0x08,
   0xe9, 0x4b, 0x00, 0x88, 0x03, 0x0e, 0x00, 0x52, 0x92, 0x00, 0x80, 0x03
   0x0e, 0x00, 0xc4, 0x2b, 0x01, 0x80, 0x03, 0x0e, 0x00, 0x69, 0x46, 0x00,
   0x80, 0x03, 0x0e, 0x00, 0xb2, 0x2c, 0x01, 0x80, 0x03, 0x4e, 0x20, 0x24,
   0x45, 0x00, 0xa0, 0x03, 0x0e, 0x00, 0xd2, 0x97, 0x10, 0x80, 0x03, 0x0e,
   0x00, 0xa4, 0x24, 0x01, 0x80, 0x03, 0x0e, 0x00, 0xe9, 0x5f, 0x02, 0x80,
   0x03, 0x8c, 0x00, 0x32, 0xad, 0x80, 0x80, 0x01 0x1c, 0x00, 0x44, 0x02,
   0x01, 0xc0, 0x01, 0x1c, 0x40, 0x92, 0x54, 0x00, 0xc0, 0x01, 0x18, 0x00,
   0x24, 0xa9, 0x00, 0xc0, 0x00, 0x38, 0x02, 0x49, 0x02, 0x01, 0xe0, 0x00,
   0x30, 0x00, 0x92, 0x54, 0x00, 0x60, 0x00, 0x70, 0x00, 0x24, 0x49, 0x01,
   0x70, 0x00, 0xe0, 0x00, 0x49, 0x12, 0x40, 0x38, 0x00, 0xe0, 0x10, 0x92,
   0xa4, 0x00, 0x38, 0x00 0xc0, 0x01, 0x24, 0x49, 0x01, 0x1c, 0x00, 0x80,
   0x03, 0x00, 0x00, 0x00, 0x0e, 0x00, 0x00, 0x07, 0x00, 0x00, 0x00, 0x07,
   0x00, 0x00, 0x1f, 0x10, 0x01, 0xc1, 0x03, 0x00, 0x00, 0x3c, 0x00, 0x00,
   0xe0, 0x01, 0x00, 0x00, 0xf8, 0x00, 0x00, 0xfc, 0x00, 0x00, 0x00, 0xe0,
   0x07, 0x00, 0x3f, 0x00, 0x00, 0x00, 0xc0, 0xff, 0xff, 0x0f, 0x00, 0x00
   0x00, 0x00, 0xfe, 0xff, 0x03, 0x00, 0x00, 0x00, 0x00, 0xe0, 0x3f, 0x00,
   0x00, 0x00};
