#define seap_0e_width 50
#define seap_0e_height 50
static char seap_0e_bits[] = {
   0x00, 0x00, 0xf0, 0x7f, 0x00, 0x00, 0x00, 0x00, 0x00, 0xfe, 0xff, 0x03,
   0x00, 0x00, 0x00, 0x80, 0xff, 0xff, 0x0f, 0x00, 0x00, 0x00, 0xe0, 0x07,
   0x00, 0x3f, 0x00, 0x00, 0x00, 0xf8, 0x00, 0x08, 0xf8, 0x00, 0x00, 0x00,
   0x3c, 0x00, 0x00, 0xe0, 0x01, 0x00, 0x00, 0x5e, 0x40, 0x00, 0xc0, 0x03,
   0x00, 0x00, 0x07, 0x00, 0x00, 0x00, 0x07, 0x00 0x80, 0x03, 0x00, 0x00,
   0x00, 0x0e, 0x00, 0xc0, 0x01, 0x02, 0x00, 0x00, 0x1c, 0x00, 0xe0, 0x00,
   0x00, 0x80, 0x00, 0x38, 0x00, 0xe0, 0x00, 0x00, 0x00, 0x40, 0x38, 0x00,
   0x70, 0x20, 0x00, 0x00, 0x00, 0x70, 0x00, 0x30, 0x00, 0x20, 0x10, 0x00,
   0x60, 0x00, 0x38, 0x00, 0x00, 0x00, 0x00, 0xe0, 0x00, 0x58, 0x00, 0x00,
   0x00, 0x00, 0xe0, 0x00 0x1c, 0x00, 0x10, 0x40, 0x00, 0xc0, 0x01, 0x1c,
   0x00, 0x00, 0x00, 0x80, 0xc8, 0x01, 0x0c, 0x08, 0x00, 0x00, 0x00, 0x80,
   0x01, 0x0c, 0x00, 0x00, 0x00, 0x02, 0x80, 0x01, 0x0e, 0x00, 0x00, 0x08,
   0x00, 0x80, 0x03, 0x0e, 0x00, 0x40, 0x00, 0x80, 0x80, 0x03, 0x2e, 0x40,
   0x00, 0x00, 0x00, 0x80, 0x03, 0x0e, 0x00, 0x00, 0x00, 0x00, 0x80, 0x03
   0x0e, 0x00, 0x00, 0x02, 0x00, 0x80, 0x03, 0x0e, 0x00, 0x02, 0x00, 0x00,
   0x88, 0x03, 0x8e, 0x00, 0x00, 0x80, 0x00, 0x80, 0x03, 0x0e, 0x00, 0x00,
   0x00, 0x40, 0x80, 0x03, 0x0e, 0x20, 0x00, 0x00, 0x00, 0x80, 0x03, 0x0c,
   0x00, 0x20, 0x10, 0x00, 0x88, 0x01, 0x0c, 0x00, 0x00, 0x00, 0x00, 0x80,
   0x01, 0x5c, 0x00, 0x00, 0x00, 0x00, 0xc0, 0x01 0x1c, 0x00, 0x10, 0x40,
   0x00, 0xc0, 0x01, 0x18, 0x00, 0x00, 0x00, 0x80, 0xc0, 0x00, 0x38, 0x08,
   0x00, 0x00, 0x00, 0xe0, 0x00, 0x30, 0x00, 0x00, 0x00, 0x02, 0xe0, 0x00,
   0x70, 0x00, 0x00, 0x08, 0x00, 0x70, 0x00, 0xe0, 0x00, 0x00, 0x00, 0x80,
   0x38, 0x00, 0xe0, 0x40, 0x40, 0x00, 0x00, 0x38, 0x00, 0xc0, 0x01, 0x00,
   0x00, 0x00, 0x1c, 0x00 0x80, 0x03, 0x00, 0x00, 0x08, 0x0e, 0x00, 0x00,
   0x07, 0x02, 0x00, 0x00, 0x0f, 0x00, 0x00, 0x1e, 0x00, 0x80, 0xc0, 0x03,
   0x00, 0x00, 0x3c, 0x00, 0x08, 0xe0, 0x01, 0x00, 0x00, 0xf8, 0x20, 0x00,
   0xf8, 0x00, 0x00, 0x00, 0xe0, 0x07, 0x00, 0x3f, 0x00, 0x00, 0x00, 0x80,
   0xff, 0xff, 0x0f, 0x00, 0x00, 0x00, 0x00, 0xfe, 0xff, 0x03, 0x00, 0x00
   0x00, 0x00, 0xf0, 0x7f, 0x00, 0x00, 0x00, 0x00, 0x00, 0x00, 0x00, 0x00,
   0x00, 0x00};
