#define seap_1s_width 50
#define seap_1s_height 50
static char seap_1s_bits[] = {
   0x00, 0x00, 0x00, 0x00, 0x00, 0x00, 0x00, 0x00, 0x00, 0xf8, 0x3f, 0x00,
   0x00, 0x00, 0x00, 0x00, 0xff, 0xff, 0x01, 0x00, 0x00, 0x00, 0xc0, 0xff,
   0xff, 0x07, 0x00, 0x00, 0x00, 0xf0, 0x03, 0x80, 0x1f, 0x00, 0x00, 0x00,
   0x7c, 0x00, 0x10, 0x7c, 0x00, 0x00, 0x00, 0x1e, 0x40, 0x00, 0xf0, 0x00,
   0x00, 0x00, 0x0f, 0x04, 0x00, 0xe0, 0x01, 0x00 0xc0, 0x03, 0x00, 0x00,
   0x81, 0x03, 0x00, 0xc0, 0x41, 0x00, 0x00, 0x00, 0x07, 0x00, 0xe0, 0x00,
   0x00, 0x00, 0x00, 0x0e, 0x00, 0x70, 0x00, 0x00, 0x08, 0x08, 0x1c, 0x00,
   0x70, 0x04, 0x00, 0x00, 0x00, 0x1c, 0x00, 0x38, 0x00, 0x40, 0x00, 0x00,
   0x38, 0x00, 0x1c, 0x00, 0x01, 0x00, 0x00, 0x30, 0x00, 0x1c, 0x00, 0x00,
   0x00, 0x40, 0x70, 0x00 0x0c, 0x88, 0x08, 0x11, 0x09, 0x60, 0x00, 0x0e,
   0x52, 0x52, 0x4a, 0x52, 0xe0, 0x00, 0x0e, 0x84, 0xa4, 0x90, 0xa4, 0xe8,
   0x00, 0x06, 0x28, 0x09, 0x25, 0x09, 0xc0, 0x00, 0x46, 0x52, 0x52, 0x4a,
   0x52, 0xc0, 0x00, 0x07, 0x84, 0xec, 0xa9, 0x89, 0xc0, 0x01, 0x07, 0x28,
   0x2d, 0x9b, 0x52, 0xc0, 0x01, 0x07, 0x52, 0x6a, 0xae, 0x24, 0xc4, 0x01
   0x47, 0x88, 0xb8, 0xca, 0x49, 0xc0, 0x01, 0x07, 0x24, 0x2d, 0xdb, 0x92,
   0xc0, 0x01, 0x07, 0x48, 0xde, 0xb5, 0x24, 0xc0, 0x01, 0x07, 0x92, 0xa8,
   0xd2, 0x49, 0xd0, 0x01, 0x07, 0x24, 0x2d, 0x84, 0x92, 0xc0, 0x01, 0x07,
   0x48, 0x48, 0xa9, 0x24, 0xc0, 0x01, 0x06, 0x92, 0x92, 0x12, 0x49, 0xc0,
   0x00, 0x06, 0x24, 0x25, 0xa4, 0x24, 0xc0, 0x00 0x4e, 0x48, 0x48, 0x49,
   0x92, 0xe0, 0x00, 0x0e, 0x00, 0x08, 0x20, 0x00, 0xe0, 0x00, 0x1c, 0x00,
   0x00, 0x00, 0x00, 0x68, 0x00, 0x1c, 0x00, 0x00, 0x00, 0x00, 0x70, 0x00,
   0x18, 0x00, 0x20, 0x10, 0x00, 0x30, 0x00, 0x38, 0x00, 0x00, 0x00, 0x10,
   0x38, 0x00, 0x70, 0x08, 0x00, 0x00, 0x00, 0x1c, 0x00, 0x70, 0x00, 0x04,
   0x00, 0x00, 0x1c, 0x00 0xe0, 0x00, 0x00, 0x00, 0x01, 0x0e, 0x00, 0xc0,
   0x01, 0x00, 0x00, 0x00, 0x07, 0x00, 0x80, 0x03, 0x00, 0x00, 0x80, 0x03,
   0x00, 0x00, 0x0f, 0x00, 0x08, 0xe8, 0x01, 0x00, 0x00, 0x1e, 0x00, 0x00,
   0xf0, 0x00, 0x00, 0x00, 0x7c, 0x40, 0x00, 0x7c, 0x00, 0x00, 0x00, 0xf0,
   0x03, 0x80, 0x1f, 0x00, 0x00, 0x00, 0xc0, 0xff, 0xff, 0x07, 0x00, 0x00
   0x00, 0x00, 0xff, 0xff, 0x01, 0x00, 0x00, 0x00, 0x00, 0xf8, 0x3f, 0x00,
   0x00, 0x00};
