#define seap_1w_width 50
#define seap_1w_height 50
static char seap_1w_bits[] = {
   0x00, 0x00, 0xf0, 0x1f, 0x00, 0x00, 0x00, 0x00, 0x00, 0xff, 0xff, 0x01,
   0x00, 0x00, 0x00, 0xc0, 0xff, 0xff, 0x0f, 0x00, 0x00, 0x00, 0xf0, 0x03,
   0x80, 0x1f, 0x00, 0x00, 0x00, 0xfc, 0x00, 0x00, 0x7c, 0x00, 0x00, 0x00,
   0x1e, 0x00, 0x00, 0xf0, 0x00, 0x00, 0x00, 0x0f, 0x02, 0x22, 0xe0, 0x03,
   0x00, 0x80, 0x03, 0x00, 0x00, 0x80, 0x03, 0x00 0xc0, 0x01, 0x00, 0x00,
   0x00, 0x07, 0x00, 0xe0, 0x00, 0x88, 0x88, 0x00, 0x0e, 0x00, 0x70, 0x00,
   0x52, 0x52, 0x22, 0x1c, 0x00, 0x70, 0x08, 0x84, 0x84, 0x00, 0x1c, 0x00,
   0x38, 0x00, 0x28, 0x29, 0x01, 0x38, 0x00, 0x18, 0x00, 0x52, 0x52, 0x02,
   0x30, 0x00, 0x1c, 0x00, 0x84, 0x84, 0x00, 0x71, 0x00, 0x0c, 0x00, 0x28,
   0x29, 0x01, 0x60, 0x00 0x0e, 0x00, 0x52, 0x52, 0x0a, 0xe0, 0x00, 0x0e,
   0x00, 0x84, 0x84, 0x00, 0xe0, 0x00, 0x06, 0x04, 0xa8, 0x3a, 0x01, 0xc4,
   0x00, 0x07, 0x00, 0xe5, 0x5f, 0x02, 0xc0, 0x01, 0x07, 0x00, 0xa8, 0x82,
   0x00, 0xc0, 0x01, 0x07, 0x20, 0x44, 0x5f, 0x02, 0xc0, 0x01, 0x17, 0x00,
   0xa8, 0x92, 0x10, 0xc8, 0x01, 0x07, 0x00, 0xc2, 0x34, 0x01, 0xc0, 0x01
   0x07, 0x00, 0x94, 0x59, 0x02, 0xc0, 0x01, 0x07, 0x00, 0x28, 0x8f, 0x00,
   0xc0, 0x01, 0x07, 0x00, 0x42, 0x55, 0x01, 0xc0, 0x01, 0x47, 0x00, 0x94,
   0x1f, 0x42, 0xc0, 0x01, 0x07, 0x20, 0xa8, 0x50, 0x01, 0xd0, 0x01, 0x07,
   0x00, 0xc5, 0x4a, 0x00, 0xc0, 0x01, 0x06, 0x00, 0x08, 0x25, 0x01, 0xc0,
   0x00, 0x0e, 0x00, 0xf2, 0x5f, 0x02, 0xe0, 0x00 0x0e, 0x02, 0xa4, 0x92,
   0x00, 0xe2, 0x00, 0x0c, 0x00, 0x88, 0x24, 0x01, 0x60, 0x00, 0x1c, 0x00,
   0x52, 0x92, 0x02, 0x70, 0x00, 0x58, 0x00, 0x24, 0x49, 0x40, 0x30, 0x00,
   0x38, 0x10, 0x48, 0x92, 0x02, 0x38, 0x00, 0x70, 0x00, 0x92, 0x24, 0x00,
   0x1c, 0x00, 0x70, 0x00, 0x24, 0x49, 0x05, 0x1c, 0x00, 0xe0, 0x00, 0x48,
   0x92, 0x02, 0x0e, 0x00 0xc0, 0x01, 0x00, 0x00, 0x00, 0x07, 0x00, 0x80,
   0x03, 0x00, 0x00, 0x80, 0x03, 0x00, 0x00, 0x0f, 0x00, 0x04, 0xe0, 0x01,
   0x00, 0x00, 0x9e, 0x00, 0x80, 0xf0, 0x00, 0x00, 0x00, 0x7c, 0x40, 0x00,
   0x7c, 0x00, 0x00, 0x00, 0xf0, 0x03, 0x80, 0x1f, 0x00, 0x00, 0x00, 0xc0,
   0xff, 0xff, 0x07, 0x00, 0x00, 0x00, 0x00, 0xff, 0xff, 0x01, 0x00, 0x00
   0x00, 0x00, 0xf0, 0x1f, 0x00, 0x00, 0x00, 0x00, 0x00, 0x00, 0x00, 0x00,
   0x00, 0x00};
