#define sera_0n_width 70
#define sera_0n_height 30
static char sera_0n_bits[] = {
   0x00, 0x00, 0x00, 0x00, 0x00, 0x00, 0x00, 0x00, 0x00, 0x00, 0x00, 0xc0,
   0xff, 0xff, 0xff, 0x07, 0x00, 0x00, 0x48, 0x92, 0x07, 0x00, 0x40, 0x00,
   0xc0, 0x27, 0x09, 0x00, 0x1c, 0x00, 0x00, 0x00, 0x0c, 0x00, 0x70, 0x00,
   0x80, 0x01, 0x00, 0x08, 0x00, 0x00, 0x80, 0x00, 0x03, 0xa4, 0x01, 0x80,
   0x00, 0x00, 0x00, 0x00, 0x00, 0x13, 0x80, 0x01, 0x00, 0x80, 0x00, 0x02,
   0x00, 0x00, 0x03, 0x80, 0x09, 0x02, 0x00, 0x00, 0x20, 0x00, 0x10, 0x03
   0xa4, 0x01, 0x00, 0x01, 0x02, 0x00, 0x00, 0x00, 0x0b, 0x80, 0x01, 0x00,
   0x08, 0x00, 0x00, 0x82, 0x00, 0x03, 0x80, 0x01, 0x80, 0x00, 0x80, 0x00,
   0x00, 0x00, 0x03, 0xa4, 0x01, 0x01, 0x00, 0x08, 0x00, 0x00, 0x04, 0x13,
   0x80, 0x01, 0x00, 0x00, 0x00, 0x20, 0x00, 0x10, 0x03, 0x80, 0x09, 0x00,
   0x81, 0x00, 0x00, 0x00, 0x00, 0x03, 0xa4, 0x01, 0x00, 0x08, 0x00, 0x00,
   0x80, 0x00, 0x0b, 0x80, 0x01, 0x80, 0x00, 0x20, 0x00, 0x00, 0x00, 0x03
   0x80, 0x01, 0x01, 0x00, 0x00, 0x00, 0x02, 0x04, 0x03, 0xa4, 0x01, 0x20,
   0x00, 0x00, 0x04, 0x00, 0x00, 0x0b, 0x80, 0x01, 0x00, 0x01, 0x22, 0x08,
   0x00, 0x00, 0x03, 0x80, 0x01, 0x00, 0x08, 0x00, 0x00, 0x80, 0x00, 0x03,
   0xa4, 0x01, 0x80, 0x00, 0x00, 0x00, 0x00, 0x00, 0x0b, 0x80, 0x01, 0x01,
   0x00, 0x00, 0x00, 0x00, 0x04, 0x03, 0x80, 0x01, 0x20, 0x40, 0x10, 0x00,
   0x00, 0x00, 0x03, 0xa4, 0x01, 0x00, 0x00, 0x00, 0x10, 0x08, 0x00, 0x0b
   0x80, 0x21, 0x04, 0x00, 0x00, 0x01, 0x10, 0x00, 0x03, 0x00, 0x1c, 0x00,
   0x02, 0x00, 0x00, 0x00, 0x70, 0x00, 0x24, 0x01, 0x07, 0x40, 0x00, 0x00,
   0xc0, 0x83, 0x04, 0x00, 0x48, 0xc0, 0xff, 0xff, 0xff, 0x07, 0x08, 0x00,
   0x00, 0x00, 0x12, 0x00, 0x00, 0x00, 0x90, 0x00, 0x10, 0x24, 0x01, 0x00,
   0x11, 0x49, 0x92, 0x04, 0x24, 0x01};
