#define sera_1n_width 65
#define sera_1n_height 95
static char sera_1n_bits[] = {
   0x00, 0x00, 0x00, 0x00, 0x00, 0x00, 0x00, 0x00, 0x00, 0x00, 0x00, 0x00,
   0x00, 0x00, 0x00, 0x00, 0x00, 0x00, 0x48, 0x92, 0x24, 0x49, 0x92, 0x24,
   0x49, 0x12, 0x00, 0x00, 0x00, 0x00, 0x00, 0x00, 0x00, 0x00, 0x80, 0x00,
   0x00, 0x00, 0x00, 0xf8, 0xff, 0x00, 0x00, 0x00, 0x00, 0x24, 0x49, 0x92,
   0xff, 0xff, 0x9f, 0x24, 0x09, 0x00, 0x00, 0x00, 0xf0, 0x07, 0x00, 0x7f,
   0x00, 0x40, 0x00, 0x00, 0x00, 0x7e, 0x00, 0x00, 0xf0, 0x03, 0x00, 0x00
   0x24, 0xc9, 0x0f, 0x00, 0x00, 0x80, 0x2f, 0x09, 0x00, 0x00, 0xc0, 0x01,
   0x00, 0x08, 0x00, 0x1c, 0x40, 0x00, 0x00, 0x70, 0x00, 0x08, 0x00, 0x00,
   0x70, 0x00, 0x00, 0x24, 0x39, 0x80, 0x00, 0x00, 0x00, 0xe0, 0x12, 0x00,
   0x00, 0x0e, 0x00, 0x00, 0x80, 0x00, 0x80, 0x83, 0x00, 0x00, 0x07, 0x00,
   0x40, 0x00, 0x40, 0x00, 0x07, 0x00, 0xa4, 0x01, 0x04, 0x00, 0x00, 0x00,
   0x00, 0x2c, 0x00, 0xc0, 0x00, 0x00, 0x02, 0x00, 0x00, 0x08, 0x18, 0x00
   0xc0, 0x80, 0x00, 0x00, 0x80, 0x00, 0x00, 0x18, 0x00, 0xe4, 0x04, 0x00,
   0x00, 0x00, 0x40, 0x80, 0x98, 0x00, 0xc0, 0x00, 0x20, 0x00, 0x00, 0x00,
   0x00, 0x18, 0x00, 0xc0, 0x00, 0x00, 0x20, 0x10, 0x00, 0x00, 0x58, 0x00,
   0xc4, 0x00, 0x00, 0x00, 0x00, 0x00, 0x00, 0x18, 0x00, 0xe0, 0x40, 0x00,
   0x00, 0x00, 0x00, 0x20, 0x18, 0x00, 0xc0, 0x00, 0x00, 0x10, 0x40, 0x00,
   0x00, 0x58, 0x00, 0xc4, 0x00, 0x00, 0x00, 0x00, 0x80, 0x00, 0x18, 0x00
   0xc0, 0x00, 0x08, 0x00, 0x00, 0x00, 0x00, 0x18, 0x00, 0xd0, 0x00, 0x00,
   0x00, 0x00, 0x02, 0x80, 0x58, 0x00, 0xc4, 0x10, 0x00, 0x00, 0x08, 0x00,
   0x00, 0x18, 0x00, 0xc0, 0x00, 0x00, 0x00, 0x00, 0x80, 0x00, 0x18, 0x00,
   0xc0, 0x00, 0x40, 0x40, 0x00, 0x00, 0x00, 0x58, 0x00, 0xe4, 0x00, 0x00,
   0x00, 0x00, 0x00, 0x00, 0x18, 0x00, 0xc0, 0x00, 0x00, 0x00, 0x00, 0x00,
   0x00, 0x18, 0x00, 0xc0, 0x00, 0x00, 0x02, 0x00, 0x00, 0x08, 0x58, 0x00
   0xc4, 0x80, 0x00, 0x00, 0x80, 0x00, 0x00, 0x18, 0x00, 0xe0, 0x04, 0x00,
   0x00, 0x00, 0x40, 0x80, 0x18, 0x00, 0xc0, 0x00, 0x20, 0x00, 0x00, 0x00,
   0x00, 0x58, 0x00, 0xc4, 0x00, 0x00, 0x20, 0x10, 0x00, 0x00, 0x18, 0x00,
   0xc0, 0x00, 0x00, 0x00, 0x00, 0x00, 0x00, 0x18, 0x00, 0xd0, 0x40, 0x00,
   0x00, 0x00, 0x00, 0x20, 0x58, 0x00, 0xc4, 0x00, 0x00, 0x10, 0x40, 0x00,
   0x00, 0x18, 0x00, 0xc0, 0x00, 0x00, 0x00, 0x00, 0x80, 0x00, 0x18, 0x00
   0xc0, 0x00, 0x08, 0x00, 0x00, 0x00, 0x00, 0x58, 0x00, 0xc8, 0x00, 0x00,
   0x00, 0x00, 0x02, 0x80, 0x18, 0x00, 0xc0, 0x10, 0x00, 0x00, 0x08, 0x00,
   0x00, 0x18, 0x00, 0xc4, 0x00, 0x00, 0x40, 0x00, 0x80, 0x00, 0x58, 0x00,
   0xe0, 0x00, 0x40, 0x00, 0x00, 0x00, 0x00, 0x18, 0x00, 0xc0, 0x00, 0x00,
   0x00, 0x00, 0x00, 0x00, 0x18, 0x00, 0xc4, 0x00, 0x00, 0x00, 0x00, 0x00,
   0x00, 0x58, 0x00, 0xc0, 0x00, 0x00, 0x02, 0x00, 0x00, 0x08, 0x18, 0x00
   0xd0, 0x80, 0x00, 0x00, 0x80, 0x00, 0x00, 0x18, 0x00, 0xc4, 0x04, 0x00,
   0x00, 0x00, 0x40, 0x80, 0x58, 0x00, 0xc0, 0x00, 0x20, 0x00, 0x00, 0x00,
   0x00, 0x18, 0x00, 0xc0, 0x00, 0x00, 0x20, 0x10, 0x00, 0x00, 0x18, 0x00,
   0xc8, 0x00, 0x00, 0x00, 0x00, 0x00, 0x00, 0x58, 0x00, 0xc0, 0x40, 0x00,
   0x00, 0x00, 0x00, 0x20, 0x18, 0x00, 0xc4, 0x00, 0x00, 0x10, 0x40, 0x00,
   0x00, 0x18, 0x00, 0xe0, 0x00, 0x00, 0x00, 0x00, 0x80, 0x00, 0x58, 0x00
   0xc0, 0x00, 0x08, 0x00, 0x00, 0x00, 0x00, 0x18, 0x00, 0xc4, 0x00, 0x00,
   0x00, 0x00, 0x02, 0x80, 0x18, 0x00, 0xc0, 0x10, 0x00, 0x00, 0x08, 0x00,
   0x00, 0x58, 0x00, 0xd0, 0x00, 0x00, 0x00, 0x00, 0x80, 0x00, 0x18, 0x00,
   0xc4, 0x00, 0x40, 0x40, 0x00, 0x00, 0x00, 0x18, 0x00, 0xc0, 0x00, 0x00,
   0x00, 0x00, 0x00, 0x00, 0x58, 0x00, 0xc0, 0x00, 0x00, 0x00, 0x00, 0x00,
   0x00, 0x18, 0x00, 0xc8, 0x00, 0x00, 0x02, 0x00, 0x00, 0x08, 0x18, 0x00
   0xc0, 0x80, 0x00, 0x00, 0x80, 0x00, 0x00, 0x58, 0x00, 0xc4, 0x04, 0x00,
   0x00, 0x00, 0x40, 0x80, 0x18, 0x00, 0xe0, 0x00, 0x20, 0x00, 0x00, 0x00,
   0x00, 0x18, 0x00, 0xc0, 0x00, 0x00, 0x20, 0x10, 0x00, 0x00, 0x58, 0x00,
   0xc4, 0x00, 0x00, 0x00, 0x00, 0x00, 0x00, 0x18, 0x00, 0xc0, 0x40, 0x00,
   0x00, 0x00, 0x00, 0x20, 0x18, 0x00, 0xd0, 0x00, 0x00, 0x10, 0x40, 0x00,
   0x00, 0x58, 0x00, 0xc4, 0x00, 0x00, 0x00, 0x00, 0x80, 0x00, 0x18, 0x00
   0xc0, 0x00, 0x08, 0x00, 0x00, 0x00, 0x00, 0x18, 0x00, 0xc0, 0x00, 0x00,
   0x00, 0x00, 0x02, 0x80, 0x58, 0x00, 0xc8, 0x10, 0x00, 0x00, 0x08, 0x00,
   0x00, 0x18, 0x00, 0xc0, 0x00, 0x00, 0x00, 0x00, 0x80, 0x00, 0x18, 0x00,
   0xc4, 0x00, 0x40, 0x00, 0x00, 0x00, 0x00, 0x58, 0x00, 0xe0, 0x00, 0x00,
   0x00, 0x00, 0x01, 0x00, 0x18, 0x00, 0xc0, 0x00, 0x00, 0x10, 0x00, 0x00,
   0x00, 0x18, 0x00, 0xc4, 0x10, 0x01, 0x00, 0x00, 0x00, 0x01, 0x58, 0x00
   0x80, 0x01, 0x00, 0x00, 0x00, 0x00, 0x40, 0x0c, 0x00, 0x10, 0x07, 0x00,
   0x00, 0x04, 0x10, 0x00, 0x07, 0x00, 0x84, 0x0e, 0x80, 0x00, 0x00, 0x00,
   0x80, 0x93, 0x00, 0x00, 0x38, 0x00, 0x00, 0x00, 0x00, 0xe0, 0x00, 0x00,
   0x00, 0x72, 0x00, 0x00, 0x01, 0x02, 0x70, 0x02, 0x00, 0x48, 0xc0, 0x01,
   0x08, 0x00, 0x00, 0x1c, 0x90, 0x00, 0x00, 0xc8, 0x0f, 0x00, 0x00, 0x80,
   0x4f, 0x00, 0x00, 0x04, 0x01, 0x7e, 0x00, 0x00, 0xf0, 0x03, 0x02, 0x00
   0x20, 0x00, 0xf0, 0x07, 0x00, 0x7f, 0x08, 0x90, 0x00, 0x00, 0x48, 0x82,
   0xff, 0xff, 0x0f, 0x41, 0x04, 0x00, 0x04, 0x01, 0x10, 0xf8, 0xff, 0x20,
   0x00, 0x00, 0x00, 0x20, 0x00, 0x80, 0x04, 0x00, 0x02, 0x08, 0x41, 0x00,
   0x00, 0x48, 0x22, 0x20, 0x49, 0x80, 0x40, 0x10, 0x00, 0x84, 0x00, 0x00,
   0x00, 0x00, 0x08, 0x10, 0x00, 0x00, 0x20, 0x00, 0x08, 0x09, 0x00, 0x02,
   0x02, 0x04, 0x00};
