#define sera_0e_width 30
#define sera_0e_height 70
static char sera_0e_bits[] = {
   0x00, 0x00, 0x00, 0x00, 0x00, 0x00, 0x00, 0x00, 0x48, 0x92, 0x24, 0x09,
   0x00, 0x00, 0x00, 0x00, 0x00, 0x00, 0x00, 0x00, 0x24, 0x49, 0x92, 0x04,
   0x00, 0x00, 0x00, 0x00, 0xe0, 0xff, 0xff, 0x13 0xe4, 0xff, 0xff, 0x03,
   0x00, 0x00, 0x00, 0x00, 0x10, 0x00, 0x00, 0x0c, 0x14, 0x00, 0x41, 0x04,
   0x10, 0x00, 0x00, 0x04, 0x20, 0x00, 0x00, 0x00, 0x04, 0x00, 0x00, 0x10,
   0x00, 0x00, 0x00, 0x00 0x08, 0x21, 0x04, 0x08, 0x0c, 0x00, 0x40, 0x08,
   0x28, 0x00, 0x00, 0x08, 0x00, 0x00, 0x00, 0x20, 0x00, 0x00, 0x00, 0x00,
   0x84, 0x10, 0x00, 0x00, 0x04, 0x00, 0x00, 0x10, 0x04, 0x42, 0x08, 0x11
   0x04, 0x08, 0x21, 0x10, 0x14, 0x00, 0x00, 0x10, 0x04, 0x00, 0x00, 0x10,
   0x04, 0x84, 0x10, 0x12, 0x04, 0x00, 0x00, 0x10, 0x04, 0x00, 0x00, 0x10,
   0x8c, 0x00, 0x00, 0x10, 0x04, 0x00, 0x81, 0x10 0x06, 0x00, 0x00, 0x10,
   0x04, 0x08, 0x20, 0x10, 0x04, 0x00, 0x00, 0x10, 0x04, 0x00, 0x04, 0x10,
   0x84, 0x00, 0x00, 0x10, 0x04, 0x48, 0x00, 0x10, 0x04, 0x00, 0x00, 0x18,
   0x04, 0x00, 0x08, 0x10 0x24, 0x00, 0x00, 0x10, 0x04, 0x00, 0x80, 0x10,
   0x06, 0x10, 0x00, 0x14, 0x04, 0x08, 0x00, 0x14, 0x44, 0x00, 0x00, 0x10,
   0x04, 0x00, 0x42, 0x10, 0x04, 0x00, 0x00, 0x10, 0x04, 0x00, 0x00, 0x10
   0x04, 0x00, 0x00, 0x10, 0x04, 0x20, 0x10, 0x10, 0x04, 0x00, 0x00, 0x10,
   0x44, 0x00, 0x00, 0x00, 0x20, 0x00, 0x00, 0x00, 0x00, 0x00, 0x00, 0x10,
   0x08, 0x00, 0x00, 0x08, 0x0c, 0x84, 0x10, 0x0a 0x08, 0x00, 0x00, 0x08,
   0x08, 0x00, 0x00, 0x08, 0x00, 0x21, 0x04, 0x10, 0x04, 0x00, 0x00, 0x00,
   0x10, 0x00, 0x42, 0x04, 0x10, 0x00, 0x00, 0x04, 0x14, 0x00, 0x00, 0x14,
   0x00, 0x00, 0x00, 0x00 0xe0, 0xff, 0xff, 0x0b, 0xe4, 0xff, 0xff, 0x03,
   0x20, 0x00, 0x00, 0x00, 0x00, 0x49, 0x92, 0x04, 0x04, 0x00, 0x00, 0x00,
   0x20, 0x00, 0x00, 0x10};
