#define sera_2n_width 35
#define sera_2n_height 100
static char sera_2n_bits[] = {
   0x00, 0x80, 0x01, 0x00, 0x00, 0x00, 0x80, 0x01, 0x00, 0x00, 0x48, 0xd2,
   0x93, 0x24, 0x01, 0x00, 0x80, 0x05, 0x00, 0x00, 0x00, 0xf8, 0x7f, 0x00,
   0x00, 0x24, 0xff, 0xff, 0x25, 0x01, 0xc0, 0x8f, 0xe1, 0x03, 0x00, 0xc0,
   0x80, 0x01, 0x07, 0x00 0x74, 0x80, 0x01, 0x5e, 0x02, 0x70, 0x80, 0x01,
   0x1c, 0x00, 0x30, 0x80, 0x01, 0x38, 0x00, 0x34, 0x80, 0x01, 0xb0, 0x00,
   0x30, 0x80, 0x01, 0x30, 0x00, 0x30, 0x00, 0x00, 0x30, 0x02, 0x34, 0x00,
   0x00, 0xb0, 0x00, 0x30, 0x00, 0x00, 0x30, 0x00 0x30, 0x00, 0x00, 0x30,
   0x00, 0x34, 0x00, 0x00, 0x30, 0x01, 0x30, 0x00, 0x00, 0x30, 0x00, 0x30,
   0x00, 0x00, 0xb0, 0x00, 0x34, 0x00, 0x00, 0x30, 0x00, 0x30, 0x00, 0x00,
   0x30, 0x02, 0x30, 0x00, 0x00, 0xb0, 0x00, 0x34, 0x00, 0x00, 0x30, 0x00
   0x30, 0x00, 0x00, 0x30, 0x00, 0x30, 0x00, 0x00, 0x30, 0x01, 0x34, 0x00,
   0x00, 0x30, 0x00, 0x30, 0x02, 0x00, 0xb0, 0x00, 0xff, 0x1f, 0x00, 0x30,
   0x00, 0xff, 0x1f, 0x00, 0x30, 0x00, 0x30, 0x02, 0x00, 0xb0, 0x00, 0x30,
   0x00, 0x00, 0x30, 0x04 0x34, 0x00, 0x00, 0x30, 0x00, 0x30, 0x00, 0x00,
   0xb0, 0x00, 0x30, 0x00, 0x00, 0x30, 0x00, 0x34, 0x00, 0x00, 0x30, 0x02,
   0x30, 0x00, 0x00, 0xb0, 0x00, 0x30, 0x00, 0x00, 0x30, 0x00, 0x34, 0x00,
   0x00, 0x30, 0x00, 0x30, 0x00, 0x00, 0xb0, 0x00 0x30, 0x00, 0x00, 0x30,
   0x00, 0x34, 0x00, 0x00, 0x30, 0x02, 0x30, 0x00, 0x00, 0xb0, 0x00, 0x30,
   0x00, 0x00, 0x30, 0x00, 0x34, 0x00, 0x00, 0x30, 0x00, 0x30, 0x00, 0x00,
   0xb0, 0x00, 0x30, 0x00, 0x00, 0x30, 0x00, 0x34, 0x00, 0x00, 0x30, 0x02
   0x30, 0x00, 0x00, 0xb0, 0x00, 0x30, 0x00, 0x00, 0x30, 0x01, 0x34, 0x00,
   0xc0, 0xff, 0x07, 0x30, 0x00, 0xc0, 0xff, 0x07, 0x30, 0x00, 0x00, 0x30,
   0x01, 0x34, 0x00, 0x00, 0xb0, 0x00, 0x30, 0x00, 0x00, 0x30, 0x00, 0x30,
   0x00, 0x00, 0x30, 0x02 0x34, 0x00, 0x00, 0xb0, 0x00, 0x30, 0x00, 0x00,
   0x30, 0x00, 0x30, 0x00, 0x00, 0x30, 0x00, 0x34, 0x00, 0x00, 0xb0, 0x00,
   0x30, 0x00, 0x00, 0x30, 0x00, 0x30, 0x00, 0x00, 0x30, 0x02, 0x34, 0x00,
   0x00, 0xb0, 0x00, 0x30, 0x00, 0x00, 0x30, 0x00 0x30, 0x00, 0x00, 0x30,
   0x00, 0x34, 0x00, 0x00, 0xb0, 0x00, 0x30, 0x00, 0x00, 0x30, 0x00, 0x30,
   0x00, 0x00, 0x30, 0x02, 0x34, 0x00, 0x00, 0xb0, 0x00, 0x30, 0x04, 0x00,
   0x30, 0x00, 0xfe, 0x1f, 0x00, 0x30, 0x00, 0xfe, 0x1f, 0x00, 0xb0, 0x00
   0x30, 0x04, 0x00, 0x30, 0x00, 0x34, 0x00, 0x00, 0x30, 0x02, 0x30, 0x00,
   0x00, 0xb0, 0x00, 0x30, 0x00, 0x00, 0x30, 0x00, 0x34, 0x00, 0x00, 0x30,
   0x00, 0x30, 0x00, 0x00, 0xb0, 0x00, 0x30, 0x00, 0x00, 0x30, 0x00, 0x34,
   0x00, 0x00, 0x30, 0x02 0x30, 0x00, 0x00, 0xb0, 0x00, 0x30, 0x00, 0x00,
   0x30, 0x00, 0x34, 0x00, 0x00, 0x30, 0x00, 0x30, 0x00, 0x00, 0xb0, 0x00,
   0x30, 0x00, 0x00, 0x30, 0x00, 0x34, 0x00, 0x00, 0x30, 0x02, 0x30, 0x00,
   0x00, 0xb0, 0x00, 0xf0, 0x00, 0x00, 0x30, 0x00 0xe4, 0x01, 0x00, 0x38,
   0x00, 0xc0, 0x03, 0x00, 0x5c, 0x02, 0x90, 0x0f, 0x00, 0x0f, 0x00, 0x04,
   0xfe, 0xff, 0x13, 0x00, 0x80, 0xfc, 0xff, 0x04, 0x01, 0x00, 0x00, 0x00,
   0x01, 0x00, 0x08, 0x49, 0x12, 0x40, 0x00, 0x40, 0x00, 0x80, 0x10, 0x02
   0x04, 0x00, 0x20, 0x00, 0x00, 0x00, 0x92, 0x04, 0x04, 0x00, 0x90, 0x00,
   0x00, 0x40, 0x02, 0x04, 0x00, 0x90, 0x10, 0x00};
