#define sera_0w_width 30
#define sera_0w_height 70
static char sera_0w_bits[] = {
   0x00, 0x00, 0x00, 0x00, 0x00, 0x00, 0x00, 0x00, 0x48, 0x92, 0x24, 0x09,
   0x00, 0x00, 0x00, 0x00, 0xf0, 0xff, 0xff, 0x01, 0xf4, 0xff, 0xff, 0x09,
   0x00, 0x00, 0x00, 0x00, 0x08, 0x00, 0x00, 0x02 0x0c, 0x00, 0x00, 0x06,
   0x88, 0x10, 0x00, 0x02, 0x00, 0x00, 0x00, 0x10, 0x00, 0x08, 0x21, 0x00,
   0x04, 0x00, 0x00, 0x04, 0x04, 0x00, 0x00, 0x14, 0x14, 0x42, 0x08, 0x04,
   0x04, 0x00, 0x00, 0x04 0x02, 0x00, 0x00, 0x10, 0x00, 0x00, 0x00, 0x01,
   0x00, 0x00, 0x80, 0x00, 0x02, 0x00, 0x00, 0x08, 0x02, 0x02, 0x01, 0x08,
   0x02, 0x00, 0x00, 0x18, 0x02, 0x00, 0x00, 0x08, 0x02, 0x00, 0x00, 0x08
   0x82, 0x10, 0x00, 0x08, 0x02, 0x00, 0x80, 0x08, 0x0a, 0x00, 0x04, 0x08,
   0x0a, 0x00, 0x02, 0x18, 0x42, 0x00, 0x00, 0x08, 0x02, 0x00, 0x00, 0x09,
   0x02, 0x04, 0x00, 0x08, 0x06, 0x00, 0x00, 0x08 0x02, 0x80, 0x04, 0x08,
   0x02, 0x00, 0x40, 0x08, 0x02, 0x08, 0x00, 0x28, 0x02, 0x00, 0x00, 0x08,
   0x02, 0x01, 0x04, 0x08, 0x02, 0x00, 0x00, 0x08, 0x42, 0x20, 0x00, 0x08,
   0x02, 0x00, 0x40, 0x2c 0x02, 0x00, 0x00, 0x08, 0x02, 0x00, 0x00, 0x08,
   0x12, 0x42, 0x08, 0x08, 0x02, 0x00, 0x00, 0x08, 0x02, 0x00, 0x00, 0x2a,
   0x02, 0x21, 0x04, 0x08, 0x22, 0x84, 0x10, 0x08, 0x02, 0x00, 0x00, 0x08
   0x00, 0x00, 0x42, 0x10, 0x00, 0x00, 0x00, 0x00, 0x00, 0x00, 0x00, 0x00,
   0x04, 0x00, 0x00, 0x05, 0x84, 0x00, 0x00, 0x14, 0x04, 0x08, 0x21, 0x04,
   0x04, 0x00, 0x00, 0x00, 0x00, 0x00, 0x00, 0x08 0x00, 0x00, 0x00, 0x01,
   0x08, 0x00, 0x00, 0x02, 0x8c, 0x20, 0x00, 0x0a, 0x08, 0x00, 0x00, 0x02,
   0x00, 0x00, 0x00, 0x00, 0xf0, 0xff, 0xff, 0x05, 0xf4, 0xff, 0xff, 0x01,
   0x00, 0x00, 0x00, 0x10 0x90, 0x24, 0x49, 0x02, 0x04, 0x00, 0x00, 0x00,
   0x00, 0x00, 0x00, 0x08, 0x40, 0x92, 0x24, 0x01, 0x04, 0x00, 0x00, 0x00,
   0x00, 0x00, 0x00, 0x08};
