#define sera_0s_width 70
#define sera_0s_height 30
static char sera_0s_bits[] = {
   0x00, 0x00, 0x00, 0x00, 0x00, 0x00, 0x00, 0x00, 0x00, 0x00, 0x00, 0x00,
   0x00, 0x00, 0x00, 0x00, 0x00, 0x00, 0x48, 0x92, 0xfc, 0xff, 0xff, 0xff,
   0x49, 0x92, 0x04, 0x00, 0xf0, 0x00, 0x00, 0x80, 0x00, 0x38, 0x00, 0x00,
   0x80, 0x03, 0x00, 0x00, 0x00, 0x10, 0x00, 0x0e, 0x10, 0x34, 0x00, 0x02,
   0x20, 0x00, 0x00, 0x08, 0x61, 0x01, 0x30, 0x00, 0x04, 0x02, 0x00, 0x00,
   0x00, 0x60, 0x00, 0x30, 0x00, 0x00, 0x00, 0x82, 0x00, 0x01, 0x60, 0x04
   0x34, 0x08, 0x00, 0x00, 0x00, 0x00, 0x20, 0x60, 0x01, 0x30, 0x00, 0x00,
   0x00, 0x00, 0x40, 0x00, 0x60, 0x10, 0x30, 0x40, 0x00, 0x00, 0x00, 0x04,
   0x00, 0x60, 0x00, 0x34, 0x00, 0x00, 0x04, 0x11, 0x20, 0x00, 0x60, 0x01,
   0x30, 0x00, 0x00, 0x08, 0x00, 0x00, 0x01, 0x60, 0x08, 0x30, 0x08, 0x10,
   0x00, 0x00, 0x00, 0x20, 0x60, 0x00, 0x34, 0x00, 0x00, 0x00, 0x01, 0x40,
   0x00, 0x60, 0x01, 0x30, 0x40, 0x00, 0x00, 0x00, 0x04, 0x00, 0x60, 0x08
   0x30, 0x00, 0x00, 0x00, 0x40, 0x20, 0x00, 0x64, 0x00, 0x34, 0x02, 0x00,
   0x01, 0x00, 0x00, 0x00, 0x60, 0x01, 0x30, 0x08, 0x00, 0x00, 0x04, 0x00,
   0x20, 0x60, 0x08, 0x30, 0x00, 0x00, 0x40, 0x00, 0x40, 0x00, 0x60, 0x00,
   0x34, 0x40, 0x10, 0x00, 0x00, 0x04, 0x00, 0x60, 0x02, 0x30, 0x00, 0x00,
   0x00, 0x10, 0x20, 0x00, 0x60, 0x10, 0x30, 0x02, 0x00, 0x01, 0x00, 0x00,
   0x10, 0x64, 0x01, 0x34, 0x00, 0x00, 0x10, 0x40, 0x00, 0x00, 0x60, 0x00
   0x30, 0x00, 0x00, 0x00, 0x00, 0x40, 0x00, 0x60, 0x08, 0x30, 0x40, 0x00,
   0x00, 0x00, 0x04, 0x00, 0x60, 0x01, 0x84, 0x03, 0x00, 0x0c, 0x00, 0x00,
   0x00, 0x0e, 0x00, 0x20, 0xf0, 0x00, 0x80, 0x00, 0x00, 0x38, 0x10, 0x04,
   0x00, 0x09, 0xf8, 0xff, 0xff, 0xff, 0x22, 0x81, 0x00, 0x04, 0x40, 0x02,
   0x00, 0x00, 0x22, 0x00, 0x08, 0x10};
