#define spil_0n_width 50
#define spil_0n_height 50
static char spil_0n_bits[] = {
   0x00, 0x00, 0x00, 0x00, 0x00, 0x00, 0x00, 0x00, 0x00, 0x00, 0x00, 0x00,
   0x00, 0x00, 0x00, 0x00, 0x00, 0x00, 0x00, 0x00, 0x00, 0x00, 0x00, 0x00,
   0x00, 0x00, 0x00, 0x00, 0x00, 0x00, 0x00, 0x00, 0x00, 0x00, 0x00, 0x00,
   0x00, 0x00, 0x00, 0x00, 0x00, 0x00, 0x00, 0x00, 0x00, 0x00, 0x00, 0x00,
   0x00, 0x00, 0x00, 0x00, 0x00, 0x00, 0x00, 0x00 0x00, 0x00, 0x00, 0x00,
   0x00, 0x00, 0x00, 0x00, 0x00, 0xc0, 0x18, 0x00, 0x00, 0x00, 0x00, 0x00,
   0xc0, 0x1a, 0x00, 0x00, 0x00, 0x00, 0x00, 0xc0, 0x18, 0x00, 0x00, 0x00,
   0x00, 0x00, 0xc0, 0x1a, 0x00, 0x00, 0x00, 0x00, 0x00, 0xc0, 0x18, 0x00,
   0x00, 0x00, 0x00, 0x00, 0xc0, 0x1a, 0x00, 0x00, 0x00, 0x00, 0x00, 0xc0,
   0x18, 0x00, 0x00, 0x00 0x00, 0x00, 0xc0, 0x1a, 0x00, 0x00, 0x00, 0x00,
   0x00, 0xc0, 0x18, 0x00, 0x00, 0x00, 0x00, 0x00, 0xc0, 0x1a, 0x00, 0x00,
   0x00, 0x00, 0x00, 0xc0, 0x18, 0x00, 0x00, 0x00, 0x00, 0x00, 0xc0, 0x1a,
   0x00, 0x00, 0x00, 0x00, 0x00, 0xc0, 0x18, 0x00, 0x00, 0x00, 0x00, 0x00,
   0xc0, 0x1a, 0x00, 0x00, 0x00, 0x00, 0x00, 0xc0, 0x18, 0x00, 0x00, 0x00
   0x00, 0x00, 0xc0, 0x1a, 0x00, 0x00, 0x00, 0x00, 0x00, 0xc0, 0x18, 0x00,
   0x00, 0x00, 0x00, 0x00, 0xc0, 0x1a, 0x00, 0x00, 0x00, 0x00, 0x00, 0xc0,
   0x18, 0x00, 0x00, 0x00, 0x00, 0x00, 0xc0, 0x1a, 0x00, 0x00, 0x00, 0x00,
   0x00, 0xc0, 0x18, 0x00, 0x00, 0x00, 0x00, 0x00, 0xc0, 0x1a, 0x00, 0x00,
   0x00, 0xff, 0xff, 0xff, 0xf8, 0xff, 0xff, 0x03 0xff, 0xff, 0xff, 0xfa,
   0xff, 0xff, 0x03, 0x00, 0x00, 0x01, 0x00, 0x00, 0x00, 0x00, 0x00, 0xc0,
   0x00, 0x00, 0x00, 0x00, 0x00, 0x00, 0x70, 0x00, 0x00, 0x00, 0x00, 0x00,
   0x00, 0xfc, 0xff, 0xff, 0xff, 0x07, 0x00, 0x00, 0x70, 0x00, 0x00, 0x00,
   0x00, 0x00, 0x00, 0xc0, 0x00, 0x00, 0x00, 0x00, 0x00, 0x00, 0x00, 0x01,
   0x00, 0x00, 0x00, 0x00 0xff, 0xff, 0xff, 0xff, 0xff, 0xff, 0x03, 0xff,
   0xff, 0xff, 0xff, 0xff, 0xff, 0x03, 0x00, 0x00, 0x00, 0x00, 0x00, 0x00,
   0x00, 0x00, 0x00, 0x00, 0x00, 0x00, 0x00, 0x00, 0x00, 0x00, 0x00, 0x00,
   0x00, 0x00, 0x00, 0x00, 0x00, 0x00, 0x00, 0x00, 0x00, 0x00, 0x00, 0x00,
   0x00, 0x00, 0x00, 0x00, 0x00, 0x00, 0x00, 0x00, 0x00, 0x00, 0x00, 0x00
   0x00, 0x00, 0x00, 0x00, 0x00, 0x00, 0x00, 0x00, 0x00, 0x00, 0x00, 0x00,
   0x00, 0x00};
