#define staz_0n_width 75
#define staz_0n_height 50
static char staz_0n_bits[] = {
   0x00, 0x00, 0x00, 0x00, 0x00, 0x00, 0x00, 0x00, 0x80, 0x07, 0x00, 0x00,
   0x00, 0x00, 0x00, 0x00, 0x00, 0x00, 0xe0, 0x07, 0x00, 0x00, 0x00, 0x00,
   0x00, 0x00, 0x00, 0x00, 0x30, 0x06, 0x00, 0x00, 0x00, 0x00, 0x00, 0x00,
   0x00, 0x00, 0x18, 0x06, 0x00, 0x00, 0x00, 0x00, 0x00, 0x00, 0x00, 0x00,
   0x0e, 0x06, 0x00, 0x00, 0x00, 0x00, 0x00, 0x00, 0x00, 0x00, 0x03, 0x06,
   0x00, 0x00, 0x00, 0x00, 0x00, 0x00, 0x00, 0xc0, 0x01, 0x06, 0x00, 0xf8,
   0x00, 0x00, 0x00, 0x00, 0x00, 0xe0, 0x00, 0x06 0x00, 0xfe, 0x03, 0x00,
   0x00, 0x00, 0x00, 0x38, 0x00, 0x06, 0x00, 0x07, 0x07, 0x00, 0x00, 0x00,
   0x00, 0x1c, 0x00, 0x06, 0x00, 0x03, 0x06, 0x00, 0x00, 0x00, 0x00, 0x0e,
   0x00, 0x06, 0x80, 0x01, 0x0c, 0x00, 0x00, 0x00, 0x80, 0x03, 0x00, 0x06,
   0x80, 0x01, 0x0c, 0x00, 0x00, 0x00, 0xc0, 0x01, 0x00, 0x06, 0x80, 0xff,
   0x0f, 0x00, 0x00, 0x00, 0xc0, 0x00, 0x00, 0x06, 0x80, 0xff, 0x0f, 0x00,
   0x00, 0x00, 0xc0, 0x00, 0x00, 0x06, 0x00, 0x70, 0x00, 0x00, 0x00, 0x00,
   0xc0, 0x00, 0x00, 0x06 0x00, 0x70, 0x00, 0x80, 0x01, 0x00, 0xc0, 0x00,
   0x00, 0x06, 0x70, 0x70, 0x70, 0x80, 0x07, 0x00, 0xc0, 0x00, 0x00, 0x06,
   0xf0, 0x70, 0x78, 0x00, 0x1e, 0x00, 0xc0, 0x00, 0x00, 0x06, 0xb0, 0x71,
   0x6c, 0x00, 0x78, 0x00, 0xc0, 0x00, 0x00, 0x06, 0x30, 0x73, 0x66, 0x00,
   0xe0, 0x03, 0xc0, 0x00, 0x00, 0x06, 0x30, 0x76, 0x63, 0x00, 0x80, 0xff,
   0xc1, 0x00, 0x00, 0x06, 0x30, 0xfc, 0x61, 0x00, 0x00, 0xfc, 0xc1, 0x00,
   0x00, 0x06, 0x3f, 0xf8, 0xe0, 0x07, 0x00, 0x00, 0xc0, 0x00, 0x00, 0x06
   0x3f, 0x70, 0xe0, 0x07, 0x00, 0x00, 0xc0, 0x00, 0x00, 0x06, 0x3f, 0xf8,
   0xe0, 0x07, 0x00, 0x00, 0xc0, 0x00, 0x00, 0x06, 0x30, 0x8c, 0x61, 0x00,
   0x00, 0xfc, 0xc1, 0x00, 0x00, 0x06, 0x30, 0x06, 0x63, 0x00, 0x80, 0xff,
   0xc1, 0x00, 0x00, 0x06, 0x30, 0x03, 0x66, 0x00, 0xe0, 0x03, 0xc0, 0x00,
   0x00, 0x06, 0xb0, 0x01, 0x6c, 0x00, 0x78, 0x00, 0xc0, 0x00, 0x00, 0x06,
   0xf0, 0x00, 0x78, 0x00, 0x1e, 0x00, 0xc0, 0x00, 0x00, 0x06, 0x70, 0x00,
   0x70, 0x80, 0x07, 0x00, 0xc0, 0x00, 0x00, 0x06 0x00, 0x00, 0x00, 0x80,
   0x01, 0x00, 0xc0, 0x00, 0x00, 0x06, 0x00, 0x00, 0x00, 0x00, 0x00, 0x00,
   0xc0, 0x00, 0x00, 0x06, 0x00, 0x00, 0x00, 0x00, 0x00, 0x00, 0xc0, 0x00,
   0x00, 0x06, 0x00, 0x00, 0x00, 0x00, 0x00, 0x00, 0xc0, 0x00, 0x00, 0x06,
   0x00, 0x00, 0x00, 0x00, 0x00, 0x00, 0xc0, 0x00, 0x00, 0x06, 0x00, 0x00,
   0x00, 0x00, 0x00, 0x00, 0xc0, 0x01, 0x00, 0x06, 0x00, 0x00, 0x00, 0x00,
   0x00, 0x00, 0x80, 0x03, 0x00, 0x06, 0x00, 0x00, 0x00, 0x00, 0x00, 0x00,
   0x00, 0x0e, 0x00, 0x06 0x00, 0x00, 0x00, 0x00, 0x00, 0x00, 0x00, 0x1c,
   0x00, 0x06, 0x00, 0x00, 0x00, 0x00, 0x00, 0x00, 0x00, 0x38, 0x00, 0x06,
   0x00, 0x00, 0x00, 0x00, 0x00, 0x00, 0x00, 0xe0, 0x00, 0x06, 0x00, 0x00,
   0x00, 0x00, 0x00, 0x00, 0x00, 0xc0, 0x01, 0x06, 0x00, 0x00, 0x00, 0x00,
   0x00, 0x00, 0x00, 0x00, 0x03, 0x06, 0x00, 0x00, 0x00, 0x00, 0x00, 0x00,
   0x00, 0x00, 0x0e, 0x06, 0x00, 0x00, 0x00, 0x00, 0x00, 0x00, 0x00, 0x00,
   0x18, 0x06, 0x00, 0x00, 0x00, 0x00, 0x00, 0x00, 0x00, 0x00, 0x30, 0x06
   0x00, 0x00, 0x00, 0x00, 0x00, 0x00, 0x00, 0x00, 0xe0, 0x07, 0x00, 0x00,
   0x00, 0x00, 0x00, 0x00, 0x00, 0x00, 0x80, 0x07};
