#define tra3_1n_width 60
#define tra3_1n_height 60
static char tra3_1n_bits[] = {
   0x00, 0x00, 0x00, 0x00, 0x00, 0x00, 0x00, 0x00, 0x00, 0x00, 0x00, 0x00,
   0x00, 0x00, 0x00, 0x00, 0x48, 0x92, 0x24, 0x49, 0x92, 0x24, 0x49, 0x02,
   0x00, 0x00, 0x00, 0x00, 0x00, 0x00, 0x00, 0x00, 0x00, 0x00, 0x00, 0x00,
   0x00, 0x00, 0x00, 0x00, 0x24, 0x49, 0x92, 0x24, 0x49, 0x92, 0x24, 0x01,
   0x00, 0x00, 0x00, 0x00, 0x00, 0x00, 0x00, 0x00, 0x00, 0x00, 0x00, 0x00,
   0x7f, 0x00, 0x00, 0x04 0x24, 0x49, 0x92, 0x24, 0xff, 0x25, 0x49, 0x00,
   0x00, 0x00, 0x00, 0x20, 0x00, 0x0c, 0x00, 0x00, 0x00, 0x00, 0x00, 0x18,
   0x00, 0x10, 0x00, 0x01, 0x24, 0x49, 0x92, 0x0c, 0x00, 0x90, 0x24, 0x00,
   0x00, 0x00, 0x00, 0x04, 0x00, 0x60, 0x00, 0x04, 0x00, 0x00, 0x00, 0x03,
   0x00, 0x00, 0x80, 0x00, 0x24, 0x49, 0x92, 0x03, 0x00, 0x80, 0x12, 0x00,
   0x00, 0xc0, 0xe3, 0x00, 0x00, 0x80, 0x00, 0x04 0x00, 0x30, 0x80, 0x07,
   0x00, 0x00, 0x40, 0x00, 0x24, 0x19, 0x80, 0x04, 0x00, 0x00, 0x12, 0x00,
   0x00, 0x06, 0x80, 0x18, 0x00, 0x00, 0x01, 0x02, 0x00, 0x00, 0x80, 0x20,
   0x00, 0x00, 0x83, 0x00, 0x24, 0x01, 0x80, 0x20, 0x00, 0x00, 0x0b, 0x00,
   0x00, 0x01, 0x80, 0x40, 0x00, 0x00, 0x03, 0x00, 0xc0, 0x00, 0x80, 0xc0,
   0x00, 0x00, 0x21, 0x01, 0xe4, 0x00, 0x80, 0xc0, 0x38, 0x00, 0x05, 0x08
   0xc0, 0x00, 0x80, 0xc0, 0x01, 0x06, 0x00, 0x00, 0x40, 0x00, 0x00, 0x20,
   0x00, 0x90, 0x90, 0x00, 0x44, 0x00, 0x00, 0x18, 0x00, 0x90, 0x02, 0x04,
   0x20, 0x00, 0x00, 0x07, 0x01, 0x60, 0x00, 0x00, 0x00, 0x00, 0x00, 0x04,
   0x01, 0xe0, 0x48, 0x00, 0x04, 0x00, 0x00, 0x06, 0x01, 0xe0, 0x02, 0x02,
   0x40, 0x00, 0x00, 0x1b, 0x00, 0x10, 0x01, 0x00, 0xd0, 0x00, 0x00, 0xa0,
   0x00, 0x0c, 0x23, 0x00 0xc4, 0x00, 0x00, 0xe0, 0x00, 0x02, 0x0b, 0x01,
   0x80, 0x00, 0x80, 0xc0, 0x7e, 0x00, 0x02, 0x04, 0x40, 0x01, 0x80, 0x00,
   0x00, 0x00, 0x00, 0x00, 0x04, 0x01, 0x80, 0x20, 0x00, 0x00, 0x90, 0x00,
   0x00, 0x06, 0x80, 0x10, 0x00, 0x00, 0x04, 0x00, 0x90, 0x08, 0x80, 0x08,
   0x00, 0x00, 0x04, 0x02, 0x04, 0x08, 0x80, 0x04, 0x00, 0x00, 0x94, 0x00,
   0x00, 0x72, 0x80, 0x03, 0x00, 0x00, 0x00, 0x00 0x40, 0x80, 0xff, 0x00,
   0x00, 0x00, 0x02, 0x04, 0x08, 0x48, 0x9c, 0x00, 0x00, 0x00, 0x4b, 0x00,
   0x00, 0x02, 0x00, 0x01, 0x00, 0x00, 0x03, 0x00, 0x44, 0x00, 0x22, 0x03,
   0x00, 0x00, 0x80, 0x04, 0x00, 0x20, 0x00, 0x03, 0x00, 0x00, 0x12, 0x00,
   0x10, 0x02, 0x84, 0x04, 0x00, 0x80, 0x00, 0x00, 0x04, 0x80, 0x20, 0x08,
   0x00, 0x60, 0x40, 0x02, 0x80, 0x08, 0x00, 0x1c, 0x00, 0x20, 0x12, 0x00
   0x00, 0x40, 0x04, 0x61, 0x00, 0x8c, 0x00, 0x00, 0x08, 0x02, 0x20, 0x00,
   0xc7, 0x03, 0x00, 0x01, 0x40, 0x10, 0x00, 0x40, 0xff, 0x11, 0x48, 0x00,
   0x04, 0x00, 0x09, 0x12, 0x00, 0x80, 0x00, 0x08, 0x00, 0x41, 0x40, 0x00,
   0x00, 0x01, 0x00, 0x02, 0x10, 0x08, 0x00, 0x00, 0x49, 0x48, 0x92, 0x00,
   0x04, 0x02, 0x12, 0x22, 0x00, 0x00, 0x00, 0x00, 0x40, 0x80, 0x80, 0x00,
   0x00, 0x02, 0x00, 0x00 0x00, 0x20, 0x00, 0x10, 0x49, 0x90, 0x24, 0x02,
   0x08, 0x02, 0x08, 0x04, 0x00, 0x00, 0x00, 0x00, 0x40, 0x00, 0x42, 0x00,
   0x00, 0x01, 0x80, 0x00, 0x04, 0x48, 0x00, 0x40, 0x12, 0x48, 0x12, 0x04};
