#define tren_0n_width 50
#define tren_0n_height 50
static char tren_0n_bits[] = {
   0x00, 0x00, 0x00, 0xf0, 0x07, 0x00, 0x00, 0x00, 0x00, 0x00, 0xfe, 0x07,
   0x00, 0x00, 0x00, 0x00, 0x80, 0xff, 0x07, 0x00, 0x00, 0x00, 0x00, 0xf0,
   0xff, 0x07, 0x00, 0x00, 0x00, 0x00, 0xfc, 0x3f, 0x07, 0x00, 0x00, 0x00,
   0x00, 0xff, 0x8f, 0x07, 0x00, 0x00, 0x00, 0xe0, 0xff, 0x23, 0x07, 0x00,
   0x00, 0x00, 0xf8, 0x7f, 0x08, 0x07, 0x00, 0x00 0x00, 0xff, 0x1f, 0x41,
   0x07, 0x00, 0x00, 0xc0, 0xff, 0x47, 0x14, 0x07, 0x00, 0x00, 0xf0, 0xff,
   0x10, 0x80, 0x07, 0x00, 0x00, 0xf0, 0x3f, 0x82, 0x12, 0x07, 0x00, 0x00,
   0xf0, 0x8f, 0x28, 0x40, 0x07, 0x00, 0x00, 0xf0, 0x23, 0x00, 0x05, 0x07,
   0x00, 0x00, 0xf0, 0x08, 0x25, 0x50, 0x07, 0x00, 0x00, 0xf0, 0x42, 0x80,
   0x04, 0x07, 0x00, 0x00 0xf0, 0x10, 0x12, 0x20, 0x07, 0x00, 0x00, 0xf0,
   0x84, 0x40, 0x89, 0x07, 0x00, 0x00, 0xf0, 0x22, 0x14, 0x20, 0x07, 0x00,
   0x00, 0xf0, 0x00, 0x81, 0x0a, 0x07, 0x00, 0x00, 0xf0, 0x4a, 0x08, 0x40,
   0x07, 0x00, 0x00, 0xf0, 0x00, 0xa1, 0x08, 0x07, 0x00, 0x00, 0xf0, 0x52,
   0x04, 0x22, 0x07, 0x00, 0x00, 0xf0, 0x00, 0x90, 0x80, 0x07, 0x08, 0x00
   0xf0, 0x4a, 0x01, 0x14, 0x07, 0x30, 0x00, 0xf0, 0x00, 0x54, 0x41, 0xc7,
   0xff, 0x00, 0xf0, 0x92, 0x00, 0x08, 0x07, 0x30, 0x00, 0xf0, 0x00, 0x92,
   0x20, 0x07, 0x08, 0x00, 0xf0, 0xaa, 0x00, 0x8a, 0x07, 0x00, 0x00, 0xf0,
   0x00, 0x54, 0x00, 0x07, 0x00, 0x00, 0xf0, 0x22, 0x01, 0x29, 0x07, 0x00,
   0x00, 0xf0, 0x08, 0x48, 0x80, 0x07, 0x00, 0x00 0xf0, 0x42, 0x02, 0x12,
   0x07, 0x00, 0x00, 0xf0, 0x10, 0x48, 0x40, 0x07, 0x00, 0x00, 0xf0, 0x42,
   0x01, 0x15, 0x07, 0x00, 0x00, 0xf0, 0x08, 0x54, 0x80, 0x07, 0x00, 0x00,
   0xf0, 0x23, 0x01, 0x22, 0x07, 0x00, 0x00, 0xf0, 0x1f, 0x90, 0x08, 0x07,
   0x00, 0x00, 0xf0, 0xff, 0x04, 0x40, 0x07, 0x00, 0x00, 0xf0, 0xff, 0x23,
   0x15, 0x07, 0x00, 0x00 0x80, 0xff, 0x0f, 0x80, 0x07, 0x00, 0x00, 0x00,
   0xfc, 0x7f, 0x09, 0x07, 0x00, 0x00, 0x00, 0xe0, 0xff, 0x21, 0x07, 0x00,
   0x00, 0x00, 0x80, 0xff, 0x87, 0x07, 0x00, 0x00, 0x00, 0x00, 0xfc, 0x3f,
   0x07, 0x00, 0x00, 0x00, 0x00, 0xe0, 0xff, 0x07, 0x00, 0x00, 0x00, 0x00,
   0x80, 0xff, 0x07, 0x00, 0x00, 0x00, 0x00, 0x00, 0xfc, 0x07, 0x00, 0x00
   0x00, 0x00, 0x00, 0xe0, 0x07, 0x00, 0x00, 0x00, 0x00, 0x00, 0x80, 0x07,
   0x00, 0x00};
