#define tren_1n_width 50
#define tren_1n_height 50
static char tren_1n_bits[] = {
   0x00, 0x80, 0x3f, 0x00, 0x00, 0x00, 0x00, 0x00, 0x80, 0xff, 0x01, 0x00,
   0x00, 0x00, 0x00, 0x80, 0xff, 0x07, 0x00, 0x00, 0x00, 0x00, 0x80, 0xff,
   0x3f, 0x00, 0x00, 0x00, 0x00, 0x80, 0xf3, 0xff, 0x00, 0x00, 0x00, 0x00,
   0x80, 0xc3, 0xff, 0x03, 0x00, 0x00, 0x00, 0x80, 0x2b, 0xff, 0x1f, 0x00,
   0x00, 0x00, 0x80, 0x03, 0xf8, 0x7f, 0x00, 0x00 0x00, 0x80, 0x4b, 0xe5,
   0xff, 0x03, 0x00, 0x00, 0x80, 0x03, 0x80, 0xff, 0x0f, 0x00, 0x00, 0x80,
   0x2b, 0x29, 0xfc, 0x3f, 0x00, 0x00, 0x80, 0x03, 0x80, 0xf2, 0x3f, 0x00,
   0x00, 0x80, 0x4b, 0x25, 0xc0, 0x3f, 0x00, 0x00, 0x80, 0x03, 0x00, 0x29,
   0x3f, 0x00, 0x00, 0x80, 0x2b, 0x29, 0x00, 0x3c, 0x00, 0x00, 0x80, 0x03,
   0x80, 0x4a, 0x3d, 0x00 0x00, 0x80, 0x4b, 0x25, 0x00, 0x3c, 0x00, 0x00,
   0x80, 0x03, 0x00, 0x29, 0x3d, 0x00, 0x00, 0x80, 0x2b, 0x29, 0x00, 0x3c,
   0x00, 0x00, 0x80, 0x03, 0x80, 0xa4, 0x3e, 0x00, 0x00, 0x80, 0x4b, 0x25,
   0x00, 0x3c, 0x00, 0x00, 0x80, 0x03, 0x00, 0x95, 0x3c, 0x00, 0x00, 0x80,
   0x2b, 0x29, 0x00, 0x3e, 0x00, 0x40, 0x80, 0x03, 0x80, 0xa4, 0x3c, 0x00
   0x30, 0x80, 0x4b, 0x25, 0x00, 0x3c, 0x00, 0xfc, 0x8f, 0x03, 0x00, 0x95,
   0x3c, 0x00, 0x30, 0x80, 0x2b, 0x49, 0x00, 0x3e, 0x00, 0x40, 0x80, 0x03,
   0x20, 0x52, 0x3c, 0x00, 0x00, 0x80, 0x4b, 0x0a, 0x00, 0x3d, 0x00, 0x00,
   0x80, 0x03, 0x41, 0x25, 0x3c, 0x00, 0x00, 0x80, 0x2b, 0x10, 0x80, 0x3c,
   0x00, 0x00, 0x80, 0x83, 0x84, 0x14, 0x3e, 0x00 0x00, 0x80, 0x0b, 0x20,
   0x40, 0x3c, 0x00, 0x00, 0x80, 0xa3, 0x0a, 0x09, 0x3d, 0x00, 0x00, 0x80,
   0x0b, 0x40, 0x20, 0x3c, 0x00, 0x00, 0x80, 0x43, 0x04, 0x85, 0x3c, 0x00,
   0x00, 0x80, 0x0b, 0x51, 0x10, 0x3f, 0x00, 0x00, 0x80, 0x23, 0x00, 0xe4,
   0x3f, 0x00, 0x00, 0x80, 0x8b, 0x94, 0xf8, 0x3f, 0x00, 0x00, 0x80, 0x03,
   0x00, 0xff, 0x3f, 0x00 0x00, 0x80, 0x2b, 0xe5, 0xff, 0x07, 0x00, 0x00,
   0x80, 0x03, 0xf0, 0xff, 0x00, 0x00, 0x00, 0x80, 0x4b, 0xff, 0x1f, 0x00,
   0x00, 0x00, 0x80, 0x83, 0xff, 0x07, 0x00, 0x00, 0x00, 0x80, 0xfb, 0xff,
   0x00, 0x00, 0x00, 0x00, 0x80, 0xff, 0x1f, 0x00, 0x00, 0x00, 0x00, 0x80,
   0xff, 0x07, 0x00, 0x00, 0x00, 0x00, 0x80, 0xff, 0x00, 0x00, 0x00, 0x00
   0x00, 0x80, 0x1f, 0x00, 0x00, 0x00, 0x00, 0x00, 0x80, 0x07, 0x00, 0x00,
   0x00, 0x00};
