#define tubg_0w_width 30
#define tubg_0w_height 70
static char tubg_0w_bits[] = {
   0x00, 0x00, 0x00, 0x00, 0x00, 0x00, 0x00, 0x00, 0x48, 0x92, 0x24, 0x09,
   0x00, 0x00, 0x00, 0x00, 0xf0, 0xff, 0xff, 0x01, 0xf4, 0xff, 0xff, 0x09,
   0x00, 0x78, 0x00, 0x00, 0x08, 0x78, 0x00, 0x02 0x0c, 0x78, 0x00, 0x06,
   0x88, 0x78, 0x00, 0x02, 0x00, 0x78, 0x00, 0x10, 0x00, 0x78, 0x21, 0x00,
   0x04, 0x78, 0x00, 0x04, 0x04, 0x78, 0x00, 0x14, 0x14, 0x7a, 0x08, 0x04,
   0x04, 0x1c, 0x00, 0x04 0x02, 0x0e, 0x00, 0x10, 0x00, 0x07, 0x00, 0x01,
   0x00, 0x03, 0x80, 0x00, 0x82, 0x03, 0x00, 0x08, 0x82, 0x03, 0x01, 0x08,
   0x82, 0x03, 0x00, 0x18, 0x02, 0x07, 0x00, 0x08, 0x02, 0x0e, 0x00, 0x08
   0x82, 0x1c, 0x00, 0x08, 0x02, 0x78, 0xc0, 0x08, 0x0a, 0xe0, 0xc4, 0x08,
   0x0a, 0xc0, 0xc3, 0x18, 0x42, 0x80, 0xe3, 0x09, 0x02, 0x00, 0xe7, 0x09,
   0x02, 0x04, 0xc6, 0x08, 0x06, 0x00, 0xc7, 0x08 0x02, 0x80, 0xc7, 0x08,
   0x02, 0xc0, 0xc1, 0x08, 0x02, 0xe8, 0xc0, 0x28, 0x02, 0x78, 0xc0, 0x08,
   0x02, 0x1d, 0xc4, 0x08, 0x02, 0x0e, 0xc0, 0x08, 0x42, 0x27, 0xc0, 0x08,
   0x82, 0x03, 0xc0, 0x2c 0x82, 0x01, 0xc0, 0x08, 0x82, 0x01, 0xc0, 0x08,
   0x92, 0x43, 0xc8, 0x08, 0x82, 0x03, 0x00, 0x08, 0x02, 0x07, 0x00, 0x2a,
   0x02, 0x27, 0x04, 0x08, 0x22, 0x8e, 0x10, 0x08, 0x02, 0x1c, 0x00, 0x08
   0x00, 0x38, 0x42, 0x10, 0x00, 0x7c, 0x00, 0x00, 0x00, 0x78, 0x00, 0x00,
   0x04, 0x78, 0x00, 0x05, 0x84, 0x78, 0x00, 0x14, 0x04, 0x78, 0x21, 0x04,
   0x04, 0x78, 0x00, 0x00, 0x00, 0x78, 0x00, 0x08 0x00, 0x78, 0x00, 0x01,
   0x08, 0x78, 0x00, 0x02, 0x8c, 0x78, 0x00, 0x0a, 0x08, 0x78, 0x00, 0x02,
   0x00, 0x78, 0x00, 0x00, 0xf0, 0xff, 0xff, 0x05, 0xf4, 0xff, 0xff, 0x01,
   0x00, 0x00, 0x00, 0x10 0x90, 0x24, 0x49, 0x02, 0x04, 0x00, 0x00, 0x00,
   0x00, 0x00, 0x00, 0x08, 0x40, 0x92, 0x24, 0x01, 0x04, 0x00, 0x00, 0x00,
   0x00, 0x00, 0x00, 0x08};
