#define tubg_0e_width 30
#define tubg_0e_height 70
static char tubg_0e_bits[] = {
   0x00, 0x00, 0x00, 0x00, 0x00, 0x00, 0x00, 0x00, 0x48, 0x92, 0x24, 0x09,
   0x00, 0x00, 0x00, 0x00, 0x00, 0x00, 0x00, 0x00, 0x24, 0x49, 0x92, 0x04,
   0x00, 0x00, 0x00, 0x00, 0xe0, 0xff, 0xff, 0x13 0xe4, 0xff, 0xff, 0x03,
   0x00, 0x80, 0x07, 0x00, 0x10, 0x80, 0x07, 0x0c, 0x14, 0x80, 0x47, 0x04,
   0x10, 0x80, 0x07, 0x04, 0x20, 0x80, 0x07, 0x00, 0x04, 0x80, 0x07, 0x10,
   0x00, 0x80, 0x07, 0x00 0x08, 0xa1, 0x07, 0x08, 0x0c, 0x80, 0x47, 0x08,
   0x28, 0x80, 0x07, 0x08, 0x00, 0x80, 0x07, 0x20, 0x00, 0x80, 0x0f, 0x00,
   0x84, 0x10, 0x07, 0x00, 0x04, 0x00, 0x0e, 0x10, 0x04, 0x42, 0x1c, 0x11
   0x04, 0x08, 0x39, 0x10, 0x14, 0x00, 0x38, 0x10, 0x04, 0x00, 0x70, 0x10,
   0xc4, 0x84, 0x70, 0x12, 0xc4, 0x00, 0x60, 0x10, 0xc4, 0x00, 0x60, 0x10,
   0xcc, 0x00, 0x70, 0x10, 0xc4, 0x00, 0xb9, 0x10 0xc6, 0x00, 0x1c, 0x10,
   0xc4, 0x08, 0x2e, 0x10, 0xc4, 0x80, 0x07, 0x10, 0xc4, 0xc0, 0x05, 0x10,
   0xc4, 0xe0, 0x00, 0x10, 0xc4, 0x78, 0x00, 0x10, 0xc4, 0x38, 0x00, 0x18,
   0xc4, 0x18, 0x08, 0x10 0xe4, 0x39, 0x00, 0x10, 0xe4, 0x71, 0x80, 0x10,
   0xc6, 0xf0, 0x00, 0x14, 0xc4, 0xc8, 0x01, 0x14, 0xc4, 0x80, 0x07, 0x10,
   0x04, 0x00, 0x4e, 0x10, 0x04, 0x00, 0x1c, 0x10, 0x04, 0x00, 0x38, 0x10
   0x04, 0x00, 0x70, 0x10, 0x04, 0x20, 0x70, 0x10, 0x04, 0x00, 0x70, 0x10,
   0x44, 0x00, 0x30, 0x00, 0x20, 0x00, 0x38, 0x00, 0x00, 0x00, 0x1c, 0x10,
   0x08, 0x00, 0x0e, 0x08, 0x0c, 0x84, 0x17, 0x0a 0x08, 0x80, 0x07, 0x08,
   0x08, 0x80, 0x07, 0x08, 0x00, 0xa1, 0x07, 0x10, 0x04, 0x80, 0x07, 0x00,
   0x10, 0x80, 0x47, 0x04, 0x10, 0x80, 0x07, 0x04, 0x14, 0x80, 0x07, 0x14,
   0x00, 0x80, 0x07, 0x00 0xe0, 0xff, 0xff, 0x0b, 0xe4, 0xff, 0xff, 0x03,
   0x20, 0x00, 0x00, 0x00, 0x00, 0x49, 0x92, 0x04, 0x04, 0x00, 0x00, 0x00,
   0x20, 0x00, 0x00, 0x10};
