#define tubo_3w_width 50
#define tubo_3w_height 75
static char tubo_3w_bits[] = {
   0x00, 0x00, 0x00, 0x07, 0x00, 0x00, 0x00, 0x00, 0x00, 0x00, 0x07, 0x00,
   0x00, 0x00, 0x00, 0x00, 0x00, 0x07, 0x00, 0x00, 0x00, 0x00, 0x00, 0x00,
   0x07, 0x00, 0x00, 0x00, 0x00, 0x00, 0x00, 0x07, 0x00, 0x00, 0x00, 0x00,
   0xf8, 0xff, 0xff, 0xff, 0x00, 0x00, 0x00, 0xf8, 0xff, 0xff, 0xff, 0x00,
   0x00, 0x00, 0xf8, 0xff, 0xff, 0xff, 0x00, 0x00 0x00, 0x38, 0x00, 0x00,
   0xe0, 0x00, 0x00, 0x00, 0x38, 0x00, 0x00, 0xe0, 0x00, 0x00, 0x00, 0x38,
   0x00, 0x00, 0xe0, 0x00, 0x00, 0x00, 0x38, 0x00, 0x00, 0xe0, 0x00, 0x00,
   0x00, 0x38, 0xe0, 0x01, 0xe0, 0x00, 0x00, 0x00, 0x38, 0x00, 0x1e, 0xe0,
   0x00, 0x00, 0x00, 0x38, 0x00, 0x1c, 0xe0, 0x00, 0x00, 0x00, 0x38, 0xe0,
   0x03, 0xe0, 0x00, 0x00 0x00, 0x38, 0xe0, 0x00, 0xe0, 0x00, 0x00, 0x00,
   0x38, 0x00, 0x1f, 0xe0, 0x00, 0x00, 0x00, 0x38, 0x00, 0x1c, 0xe0, 0x00,
   0x00, 0x00, 0x38, 0xe0, 0x03, 0xe0, 0x00, 0x00, 0x00, 0x38, 0x00, 0x00,
   0xe0, 0x00, 0x00, 0x00, 0x38, 0x00, 0x02, 0xe0, 0x00, 0x00, 0x00, 0x38,
   0x00, 0x07, 0xe0, 0x00, 0x00, 0x00, 0x38, 0x80, 0x0f, 0xe0, 0x00, 0x00
   0x00, 0x38, 0xc0, 0x1a, 0xe0, 0x00, 0x00, 0x00, 0x38, 0x40, 0x12, 0xe0,
   0x00, 0x00, 0x00, 0x38, 0x00, 0x02, 0xe0, 0x00, 0x00, 0x00, 0x38, 0x00,
   0x02, 0xe0, 0x00, 0x00, 0x00, 0x38, 0x00, 0x02, 0xe0, 0x00, 0x00, 0x00,
   0x38, 0x00, 0x02, 0xe0, 0x00, 0x00, 0x00, 0x38, 0x00, 0x02, 0xe0, 0x00,
   0x00, 0x00, 0x38, 0x00, 0x02, 0xe0, 0x00, 0x00 0x00, 0x38, 0x00, 0x02,
   0xe0, 0x00, 0x00, 0x00, 0x38, 0x00, 0x02, 0xe0, 0x00, 0x00, 0x00, 0x38,
   0x00, 0x02, 0xe0, 0x00, 0x00, 0x00, 0x38, 0x00, 0x02, 0xe0, 0x00, 0x00,
   0x00, 0x38, 0x00, 0x02, 0xe0, 0x00, 0x00, 0x00, 0x38, 0x00, 0x02, 0xe0,
   0x00, 0x00, 0x00, 0x38, 0x00, 0x02, 0xe0, 0x00, 0x00, 0x00, 0x38, 0x00,
   0x02, 0xe0, 0x00, 0x00 0x00, 0x38, 0x00, 0x02, 0xe0, 0x00, 0x00, 0x00,
   0x38, 0x00, 0x02, 0xe0, 0x00, 0x00, 0x00, 0x38, 0x00, 0x02, 0xe0, 0x00,
   0x00, 0x00, 0x38, 0x00, 0x02, 0xe0, 0x00, 0x00, 0x00, 0x38, 0x00, 0x02,
   0xe0, 0x00, 0x00, 0x00, 0x38, 0x00, 0x02, 0xe0, 0x00, 0x00, 0x00, 0x38,
   0x00, 0x02, 0xe0, 0x00, 0x00, 0x00, 0x38, 0x00, 0x02, 0xe0, 0x00, 0x00
   0x00, 0x38, 0x00, 0x02, 0xe0, 0x00, 0x00, 0x00, 0x38, 0x00, 0x02, 0xe0,
   0x00, 0x00, 0x00, 0x38, 0x00, 0x02, 0xe0, 0x00, 0x00, 0x00, 0x38, 0x00,
   0x02, 0xe0, 0x00, 0x00, 0x00, 0x38, 0x00, 0x02, 0xe0, 0x00, 0x00, 0x00,
   0x38, 0x00, 0x00, 0xe0, 0x00, 0x00, 0x00, 0x38, 0x00, 0x00, 0xe0, 0x00,
   0x00, 0x00, 0x38, 0x00, 0x00, 0xe0, 0x00, 0x00 0x00, 0x38, 0x00, 0x00,
   0xe0, 0x00, 0x00, 0x00, 0x38, 0x00, 0x00, 0xe0, 0x00, 0x00, 0x00, 0x38,
   0x00, 0x00, 0xe0, 0x00, 0x00, 0x00, 0x38, 0x00, 0x00, 0xe0, 0x00, 0x00,
   0x00, 0x38, 0x00, 0x00, 0xe0, 0x00, 0x00, 0x00, 0x38, 0x00, 0x00, 0xe0,
   0x00, 0x00, 0x00, 0x38, 0x00, 0x00, 0xe0, 0x00, 0x00, 0x00, 0x38, 0x00,
   0x00, 0xe0, 0x00, 0x00 0x00, 0x38, 0x00, 0x00, 0xe0, 0x00, 0x00, 0x00,
   0x38, 0x00, 0x00, 0xe0, 0x00, 0x00, 0x00, 0x38, 0x00, 0x00, 0xe0, 0x00,
   0x00, 0x00, 0xf8, 0xff, 0xff, 0xff, 0x00, 0x00, 0x00, 0xf8, 0xff, 0xff,
   0xff, 0x00, 0x00, 0x00, 0xf8, 0xff, 0xff, 0xff, 0x00, 0x00, 0x00, 0x00,
   0x00, 0x07, 0x00, 0x00, 0x00, 0x00, 0x00, 0x00, 0x07, 0x00, 0x00, 0x00
   0x00, 0x00, 0x00, 0x07, 0x00, 0x00, 0x00, 0x00, 0x00, 0x00, 0x07, 0x00,
   0x00, 0x00, 0x00, 0x00, 0x00, 0x07, 0x00, 0x00, 0x00};
