#define tubo_3e_width 50
#define tubo_3e_height 75
static char tubo_3e_bits[] = {
   0x00, 0x00, 0x80, 0x03, 0x00, 0x00, 0x00, 0x00, 0x00, 0x80, 0x03, 0x00,
   0x00, 0x00, 0x00, 0x00, 0x80, 0x03, 0x00, 0x00, 0x00, 0x00, 0x00, 0x80,
   0x03, 0x00, 0x00, 0x00, 0x00, 0x00, 0x80, 0x03, 0x00, 0x00, 0x00, 0x00,
   0xfc, 0xff, 0xff, 0x7f, 0x00, 0x00, 0x00, 0xfc, 0xff, 0xff, 0x7f, 0x00,
   0x00, 0x00, 0xfc, 0xff, 0xff, 0x7f, 0x00, 0x00 0x00, 0x1c, 0x00, 0x00,
   0x70, 0x00, 0x00, 0x00, 0x1c, 0x00, 0x00, 0x70, 0x00, 0x00, 0x00, 0x1c,
   0x00, 0x00, 0x70, 0x00, 0x00, 0x00, 0x1c, 0x00, 0x00, 0x70, 0x00, 0x00,
   0x00, 0x1c, 0x00, 0x00, 0x70, 0x00, 0x00, 0x00, 0x1c, 0x00, 0x00, 0x70,
   0x00, 0x00, 0x00, 0x1c, 0x00, 0x00, 0x70, 0x00, 0x00, 0x00, 0x1c, 0x00,
   0x00, 0x70, 0x00, 0x00 0x00, 0x1c, 0x00, 0x00, 0x70, 0x00, 0x00, 0x00,
   0x1c, 0x00, 0x00, 0x70, 0x00, 0x00, 0x00, 0x1c, 0x00, 0x00, 0x70, 0x00,
   0x00, 0x00, 0x1c, 0x00, 0x00, 0x70, 0x00, 0x00, 0x00, 0x1c, 0x00, 0x00,
   0x70, 0x00, 0x00, 0x00, 0x1c, 0x00, 0x00, 0x70, 0x00, 0x00, 0x00, 0x1c,
   0x00, 0x01, 0x70, 0x00, 0x00, 0x00, 0x1c, 0x00, 0x01, 0x70, 0x00, 0x00
   0x00, 0x1c, 0x00, 0x01, 0x70, 0x00, 0x00, 0x00, 0x1c, 0x00, 0x01, 0x70,
   0x00, 0x00, 0x00, 0x1c, 0x00, 0x01, 0x70, 0x00, 0x00, 0x00, 0x1c, 0x00,
   0x01, 0x70, 0x00, 0x00, 0x00, 0x1c, 0x00, 0x01, 0x70, 0x00, 0x00, 0x00,
   0x1c, 0x00, 0x01, 0x70, 0x00, 0x00, 0x00, 0x1c, 0x00, 0x01, 0x70, 0x00,
   0x00, 0x00, 0x1c, 0x00, 0x01, 0x70, 0x00, 0x00 0x00, 0x1c, 0x00, 0x01,
   0x70, 0x00, 0x00, 0x00, 0x1c, 0x00, 0x01, 0x70, 0x00, 0x00, 0x00, 0x1c,
   0x00, 0x01, 0x70, 0x00, 0x00, 0x00, 0x1c, 0x00, 0x01, 0x70, 0x00, 0x00,
   0x00, 0x1c, 0x00, 0x01, 0x70, 0x00, 0x00, 0x00, 0x1c, 0x00, 0x01, 0x70,
   0x00, 0x00, 0x00, 0x1c, 0x00, 0x01, 0x70, 0x00, 0x00, 0x00, 0x1c, 0x00,
   0x01, 0x70, 0x00, 0x00 0x00, 0x1c, 0x00, 0x01, 0x70, 0x00, 0x00, 0x00,
   0x1c, 0x00, 0x01, 0x70, 0x00, 0x00, 0x00, 0x1c, 0x00, 0x01, 0x70, 0x00,
   0x00, 0x00, 0x1c, 0x00, 0x01, 0x70, 0x00, 0x00, 0x00, 0x1c, 0x00, 0x01,
   0x70, 0x00, 0x00, 0x00, 0x1c, 0x00, 0x01, 0x70, 0x00, 0x00, 0x00, 0x1c,
   0x00, 0x01, 0x70, 0x00, 0x00, 0x00, 0x1c, 0x00, 0x01, 0x70, 0x00, 0x00
   0x00, 0x1c, 0x00, 0x01, 0x70, 0x00, 0x00, 0x00, 0x1c, 0x20, 0x09, 0x70,
   0x00, 0x00, 0x00, 0x1c, 0x60, 0x0d, 0x70, 0x00, 0x00, 0x00, 0x1c, 0xc0,
   0x07, 0x70, 0x00, 0x00, 0x00, 0x1c, 0x80, 0x03, 0x70, 0x00, 0x00, 0x00,
   0x1c, 0x00, 0x01, 0x70, 0x00, 0x00, 0x00, 0x1c, 0x00, 0x00, 0x70, 0x00,
   0x00, 0x00, 0x1c, 0x00, 0x1f, 0x70, 0x00, 0x00 0x00, 0x1c, 0xe0, 0x00,
   0x70, 0x00, 0x00, 0x00, 0x1c, 0xe0, 0x03, 0x70, 0x00, 0x00, 0x00, 0x1c,
   0x00, 0x1c, 0x70, 0x00, 0x00, 0x00, 0x1c, 0x00, 0x1f, 0x70, 0x00, 0x00,
   0x00, 0x1c, 0xe0, 0x00, 0x70, 0x00, 0x00, 0x00, 0x1c, 0xe0, 0x01, 0x70,
   0x00, 0x00, 0x00, 0x1c, 0x00, 0x1e, 0x70, 0x00, 0x00, 0x00, 0x1c, 0x00,
   0x00, 0x70, 0x00, 0x00 0x00, 0x1c, 0x00, 0x00, 0x70, 0x00, 0x00, 0x00,
   0x1c, 0x00, 0x00, 0x70, 0x00, 0x00, 0x00, 0x1c, 0x00, 0x00, 0x70, 0x00,
   0x00, 0x00, 0xfc, 0xff, 0xff, 0x7f, 0x00, 0x00, 0x00, 0xfc, 0xff, 0xff,
   0x7f, 0x00, 0x00, 0x00, 0xfc, 0xff, 0xff, 0x7f, 0x00, 0x00, 0x00, 0x00,
   0x80, 0x03, 0x00, 0x00, 0x00, 0x00, 0x00, 0x80, 0x03, 0x00, 0x00, 0x00
   0x00, 0x00, 0x80, 0x03, 0x00, 0x00, 0x00, 0x00, 0x00, 0x80, 0x03, 0x00,
   0x00, 0x00, 0x00, 0x00, 0x80, 0x03, 0x00, 0x00, 0x00};
