#define tubo_1w_width 50
#define tubo_1w_height 75
static char tubo_1w_bits[] = {
   0x00, 0x00, 0x00, 0x07, 0x00, 0x00, 0x00, 0x00, 0x00, 0x00, 0x07, 0x00,
   0x00, 0x00, 0x00, 0x00, 0x00, 0x07, 0x00, 0x00, 0x00, 0x00, 0x00, 0x00,
   0x07, 0x00, 0x00, 0x00, 0x00, 0x00, 0x00, 0x07, 0x00, 0x00, 0x00, 0x20,
   0xfa, 0xff, 0xff, 0xff, 0x11, 0x01, 0x00, 0xf8, 0xff, 0xff, 0xff, 0x00,
   0x00, 0x00, 0xf8, 0xff, 0xff, 0xff, 0x00, 0x00 0x00, 0x38, 0x00, 0x00,
   0xe0, 0x00, 0x00, 0x88, 0x38, 0x00, 0x00, 0xe0, 0x08, 0x00, 0x00, 0x38,
   0x00, 0x00, 0xe0, 0x02, 0x01, 0x00, 0x38, 0x00, 0x00, 0xe0, 0x00, 0x00,
   0x00, 0x38, 0x00, 0x00, 0xe0, 0x00, 0x00, 0x00, 0x3a, 0xf4, 0x00, 0xe0,
   0x00, 0x00, 0x10, 0x38, 0x10, 0x01, 0xe0, 0x40, 0x00, 0x00, 0x38, 0x12,
   0x01, 0xe0, 0x02, 0x00 0x00, 0x38, 0x10, 0x01, 0xe0, 0x00, 0x00, 0x80,
   0x38, 0xf0, 0x00, 0xe0, 0x00, 0x00, 0x20, 0x38, 0x10, 0x00, 0xe0, 0x10,
   0x00, 0x08, 0x38, 0x10, 0x00, 0xe0, 0x04, 0x00, 0x00, 0x38, 0x00, 0x00,
   0xe0, 0x00, 0x01, 0x00, 0x38, 0x00, 0x02, 0xe0, 0x00, 0x00, 0x00, 0x38,
   0x00, 0x07, 0xe0, 0x00, 0x00, 0x00, 0x3c, 0x80, 0x0f, 0xe0, 0x01, 0x00
   0x00, 0x38, 0xc0, 0x1a, 0xe0, 0x20, 0x00, 0x10, 0x39, 0x40, 0x12, 0xe0,
   0x00, 0x00, 0x00, 0x38, 0x00, 0x02, 0xe0, 0x00, 0x00, 0x00, 0x38, 0x00,
   0x02, 0xe0, 0x08, 0x00, 0x00, 0x38, 0x00, 0x02, 0xe0, 0x00, 0x00, 0x20,
   0x38, 0x00, 0x02, 0xe0, 0x02, 0x01, 0x08, 0x38, 0x00, 0x02, 0xe0, 0x00,
   0x00, 0x00, 0x3c, 0x00, 0x02, 0xe0, 0x00, 0x00 0x00, 0x38, 0x00, 0x02,
   0xe0, 0x40, 0x00, 0x00, 0x38, 0x00, 0x02, 0xe0, 0x00, 0x00, 0x00, 0x38,
   0x00, 0x02, 0xe0, 0x02, 0x00, 0x80, 0x38, 0x00, 0x02, 0xe0, 0x00, 0x00,
   0x10, 0x38, 0x00, 0x02, 0xe0, 0x20, 0x00, 0x00, 0x38, 0x00, 0x02, 0xe0,
   0x00, 0x00, 0x00, 0x38, 0x00, 0x02, 0xe0, 0x04, 0x00, 0x00, 0x3c, 0x00,
   0x02, 0xe0, 0x00, 0x00 0x00, 0x39, 0x00, 0x02, 0xe0, 0x00, 0x01, 0x08,
   0x38, 0x00, 0x02, 0xe0, 0x00, 0x00, 0x00, 0x38, 0x00, 0x02, 0xe0, 0x22,
   0x00, 0x00, 0x38, 0x00, 0x02, 0xe0, 0x00, 0x00, 0x40, 0x38, 0x00, 0x02,
   0xe0, 0x00, 0x00, 0x00, 0x38, 0x00, 0x02, 0xe0, 0x00, 0x00, 0x00, 0x38,
   0x00, 0x02, 0xe0, 0x08, 0x00, 0x10, 0x3c, 0x00, 0x02, 0xe0, 0x02, 0x01
   0x00, 0x38, 0x00, 0x02, 0xe0, 0x00, 0x00, 0x00, 0x38, 0x00, 0x02, 0xe0,
   0x00, 0x00, 0x00, 0x39, 0x00, 0x02, 0xe0, 0x00, 0x00, 0x20, 0x38, 0x00,
   0x02, 0xe0, 0x40, 0x00, 0x08, 0x38, 0x00, 0x02, 0xe0, 0x04, 0x00, 0x00,
   0x38, 0x00, 0x00, 0xe0, 0x00, 0x00, 0x00, 0x38, 0x00, 0x00, 0xe0, 0x00,
   0x00, 0x00, 0x38, 0x00, 0x00, 0xe0, 0x00, 0x00 0x00, 0x38, 0x00, 0x00,
   0xe0, 0x42, 0x00, 0x00, 0x39, 0x00, 0x00, 0xe0, 0x00, 0x00, 0x10, 0x38,
   0x00, 0x00, 0xe0, 0x00, 0x00, 0x00, 0x38, 0x00, 0x00, 0xe0, 0x00, 0x00,
   0x00, 0x38, 0x00, 0x00, 0xe0, 0x88, 0x00, 0x00, 0x3c, 0x00, 0x00, 0xe0,
   0x00, 0x00, 0x20, 0x38, 0x00, 0x00, 0xe0, 0x00, 0x00, 0x08, 0x38, 0x00,
   0x00, 0xe0, 0x02, 0x00 0x00, 0x38, 0x00, 0x00, 0xe0, 0x00, 0x00, 0x00,
   0x38, 0x00, 0x00, 0xe0, 0x40, 0x00, 0x00, 0x3a, 0x00, 0x00, 0xe0, 0x00,
   0x00, 0x00, 0xf8, 0xff, 0xff, 0xff, 0x10, 0x00, 0x40, 0xf8, 0xff, 0xff,
   0xff, 0x04, 0x00, 0x10, 0xf8, 0xff, 0xff, 0xff, 0x00, 0x00, 0x00, 0x00,
   0x00, 0x07, 0x00, 0x00, 0x00, 0x00, 0x00, 0x00, 0x07, 0x00, 0x00, 0x00
   0x00, 0x08, 0x21, 0x07, 0x21, 0x02, 0x00, 0x00, 0x00, 0x00, 0x27, 0x00,
   0x80, 0x00, 0x10, 0x01, 0x00, 0x07, 0x00, 0x00, 0x00};
