#define tubo_1e_width 50
#define tubo_1e_height 75
static char tubo_1e_bits[] = {
   0x00, 0x00, 0x80, 0x03, 0x00, 0x00, 0x00, 0x00, 0x00, 0x80, 0x03, 0x00,
   0x00, 0x00, 0x00, 0x00, 0x80, 0x03, 0x00, 0x00, 0x00, 0x00, 0x00, 0x80,
   0x03, 0x00, 0x00, 0x00, 0x00, 0x00, 0x80, 0x03, 0x00, 0x00, 0x00, 0x20,
   0xfe, 0xff, 0xff, 0xff, 0x88, 0x00, 0x00, 0xfc, 0xff, 0xff, 0x7f, 0x00,
   0x00, 0x00, 0xfc, 0xff, 0xff, 0x7f, 0x00, 0x00 0x00, 0x1c, 0x00, 0x00,
   0x70, 0x00, 0x00, 0x88, 0x1c, 0x00, 0x00, 0x70, 0x04, 0x00, 0x00, 0x1c,
   0x00, 0x00, 0x70, 0x81, 0x00, 0x00, 0x1c, 0x00, 0x00, 0x70, 0x00, 0x00,
   0x00, 0x1c, 0x00, 0x00, 0x70, 0x00, 0x00, 0x00, 0x1c, 0x00, 0x00, 0x70,
   0x00, 0x00, 0x10, 0x1d, 0x00, 0x00, 0x70, 0x20, 0x00, 0x00, 0x1c, 0x00,
   0x00, 0x70, 0x01, 0x00 0x00, 0x1c, 0x00, 0x00, 0x70, 0x00, 0x00, 0x00,
   0x1c, 0x00, 0x00, 0x70, 0x00, 0x00, 0x20, 0x1c, 0x00, 0x00, 0x70, 0x88,
   0x00, 0x08, 0x1c, 0x00, 0x00, 0x70, 0x02, 0x00, 0x00, 0x1c, 0x00, 0x00,
   0x70, 0x00, 0x00, 0x00, 0x1c, 0x00, 0x00, 0x70, 0x00, 0x00, 0x00, 0x1e,
   0x00, 0x01, 0x70, 0x00, 0x00, 0x00, 0x1c, 0x00, 0x01, 0xf0, 0x80, 0x00
   0x80, 0x1c, 0x00, 0x01, 0x70, 0x10, 0x00, 0x10, 0x1c, 0x00, 0x01, 0x70,
   0x00, 0x00, 0x00, 0x1c, 0x00, 0x01, 0x70, 0x00, 0x00, 0x00, 0x1c, 0x00,
   0x01, 0x70, 0x04, 0x00, 0x00, 0x1c, 0x00, 0x01, 0x70, 0x00, 0x00, 0x00,
   0x1c, 0x00, 0x01, 0x70, 0x01, 0x01, 0x88, 0x1c, 0x00, 0x01, 0x70, 0x00,
   0x00, 0x00, 0x1c, 0x00, 0x01, 0x70, 0x40, 0x00 0x00, 0x1c, 0x00, 0x01,
   0x70, 0x00, 0x00, 0x00, 0x1c, 0x00, 0x01, 0x70, 0x10, 0x00, 0x00, 0x1c,
   0x00, 0x01, 0x70, 0x01, 0x00, 0x10, 0x1d, 0x00, 0x01, 0x70, 0x00, 0x00,
   0x00, 0x1c, 0x00, 0x01, 0x70, 0x00, 0x00, 0x00, 0x1c, 0x00, 0x01, 0x70,
   0x00, 0x00, 0x00, 0x1c, 0x00, 0x01, 0x70, 0x44, 0x00, 0x20, 0x1c, 0x00,
   0x01, 0x70, 0x01, 0x00 0x08, 0x1c, 0x00, 0x01, 0x70, 0x00, 0x00, 0x00,
   0x1c, 0x00, 0x01, 0x70, 0x00, 0x00, 0x00, 0x1e, 0x00, 0x01, 0x70, 0x00,
   0x00, 0x00, 0x1c, 0x00, 0x01, 0x70, 0x40, 0x00, 0x00, 0x1c, 0x00, 0x01,
   0x70, 0x02, 0x00, 0x00, 0x1c, 0x00, 0x01, 0x70, 0x00, 0x00, 0x10, 0x1d,
   0x00, 0x01, 0x70, 0x00, 0x00, 0x00, 0x1c, 0x00, 0x01, 0x70, 0x10, 0x00
   0x00, 0x1c, 0x00, 0x01, 0x70, 0x01, 0x01, 0x00, 0x1c, 0x20, 0x09, 0x70,
   0x00, 0x00, 0x20, 0x1c, 0x60, 0x0d, 0x70, 0x00, 0x00, 0x08, 0x1c, 0xc0,
   0x07, 0x70, 0x00, 0x00, 0x00, 0x1c, 0x80, 0x03, 0x70, 0x44, 0x00, 0x00,
   0x1c, 0x00, 0x01, 0x70, 0x01, 0x00, 0x00, 0x1e, 0x00, 0xf4, 0x70, 0x00,
   0x00, 0x00, 0x1c, 0x00, 0x10, 0x71, 0x00, 0x00 0x80, 0x1c, 0x00, 0x10,
   0x71, 0x00, 0x00, 0x10, 0x1c, 0x00, 0x10, 0x71, 0x40, 0x00, 0x00, 0x1c,
   0x00, 0xf0, 0x70, 0x08, 0x00, 0x00, 0x1c, 0x00, 0x10, 0x70, 0x01, 0x00,
   0x00, 0x1c, 0x00, 0x10, 0x70, 0x00, 0x00, 0x00, 0x1c, 0x00, 0x00, 0x70,
   0x00, 0x00, 0x88, 0x1c, 0x00, 0x00, 0x70, 0x00, 0x00, 0x00, 0x1c, 0x00,
   0x00, 0x70, 0x40, 0x00 0x00, 0x1c, 0x00, 0x00, 0x70, 0x02, 0x00, 0x00,
   0x1c, 0x00, 0x00, 0x70, 0x00, 0x00, 0x00, 0x1c, 0x00, 0x00, 0x70, 0x00,
   0x00, 0x10, 0xfd, 0xff, 0xff, 0x7f, 0x10, 0x00, 0x00, 0xfc, 0xff, 0xff,
   0x7f, 0x02, 0x01, 0x00, 0xfc, 0xff, 0xff, 0x7f, 0x00, 0x00, 0x00, 0x00,
   0x80, 0x03, 0x00, 0x00, 0x00, 0x20, 0x00, 0x80, 0x03, 0x40, 0x00, 0x00
   0x08, 0x44, 0x84, 0x23, 0x02, 0x20, 0x00, 0x00, 0x00, 0x80, 0x0b, 0x00,
   0x08, 0x00, 0x00, 0x00, 0xc0, 0x03, 0x00, 0x02, 0x00};
