#define tubo_3n_width 75
#define tubo_3n_height 50
static char tubo_3n_bits[] = {
   0x00, 0x00, 0x00, 0x00, 0x00, 0x00, 0x00, 0x00, 0x00, 0x00, 0x00, 0x00,
   0x00, 0x00, 0x00, 0x00, 0x00, 0x00, 0x00, 0x00, 0x00, 0x00, 0x00, 0x00,
   0x00, 0x00, 0x00, 0x00, 0x00, 0x00, 0x00, 0x00, 0x00, 0x00, 0x00, 0x00,
   0x00, 0x00, 0x00, 0x00, 0x00, 0x00, 0x00, 0x00, 0x00, 0x00, 0x00, 0x00,
   0x00, 0x00, 0x00, 0x00, 0x00, 0x00, 0x00, 0x00, 0x00, 0x00, 0x00, 0x00,
   0x00, 0x00, 0x00, 0x00, 0x00, 0x00, 0x00, 0x00, 0x00, 0x00, 0x00, 0x00,
   0x00, 0x00, 0x00, 0x00, 0x00, 0x00, 0x00, 0x00 0x00, 0x00, 0x00, 0x00,
   0x00, 0x00, 0x00, 0x00, 0x00, 0x00, 0x00, 0x00, 0x00, 0x00, 0x00, 0x00,
   0x00, 0x00, 0x00, 0x00, 0x00, 0x00, 0x00, 0x00, 0x00, 0x00, 0x00, 0x00,
   0x00, 0x00, 0xe0, 0xff, 0xff, 0xff, 0xff, 0xff, 0xff, 0xff, 0x3f, 0x00,
   0xe0, 0xff, 0xff, 0xff, 0xff, 0xff, 0xff, 0xff, 0x3f, 0x00, 0xe0, 0xff,
   0xff, 0xff, 0xff, 0xff, 0xff, 0xff, 0x3f, 0x00, 0xe0, 0x00, 0x00, 0x00,
   0x00, 0x00, 0x00, 0x00, 0x38, 0x00, 0xe0, 0x00, 0x00, 0x00, 0x00, 0x00,
   0x00, 0x00, 0x38, 0x00 0xe0, 0x00, 0x00, 0x00, 0x00, 0x00, 0x00, 0x00,
   0x38, 0x00, 0xe0, 0x00, 0x00, 0x00, 0x00, 0x00, 0x00, 0x00, 0x38, 0x00,
   0xe0, 0x00, 0x00, 0x00, 0x00, 0x00, 0x00, 0x00, 0x38, 0x00, 0xe0, 0x00,
   0x00, 0x00, 0x00, 0x00, 0x00, 0x00, 0x38, 0x00, 0xe0, 0x00, 0x00, 0x00,
   0x00, 0x00, 0x00, 0x00, 0x38, 0x00, 0xe0, 0x00, 0x00, 0x00, 0x00, 0x00,
   0x80, 0x4c, 0x38, 0x00, 0xe0, 0x00, 0x00, 0x00, 0x00, 0x00, 0x86, 0x4c,
   0x38, 0x00, 0xe0, 0x00, 0x00, 0x00, 0x00, 0x00, 0x8c, 0x4c, 0x38, 0x00
   0xff, 0x00, 0x00, 0x00, 0x00, 0x00, 0x98, 0x4a, 0xf8, 0x07, 0xff, 0x00,
   0xc0, 0xff, 0xff, 0xff, 0xbf, 0x2a, 0xf8, 0x07, 0xff, 0x00, 0x00, 0x00,
   0x00, 0x00, 0x18, 0x33, 0xf8, 0x07, 0xe0, 0x00, 0x00, 0x00, 0x00, 0x00,
   0x0c, 0x33, 0x38, 0x00, 0xe0, 0x00, 0x00, 0x00, 0x00, 0x40, 0x06, 0x33,
   0x38, 0x00, 0xe0, 0x00, 0x00, 0x00, 0x0e, 0x40, 0x00, 0x00, 0x38, 0x00,
   0xe0, 0x00, 0xc0, 0x19, 0xd2, 0xd4, 0x00, 0x00, 0x38, 0x00, 0xe0, 0x00,
   0x40, 0x25, 0x2e, 0x55, 0x00, 0x00, 0x38, 0x00 0xe0, 0x00, 0x40, 0x25,
   0x22, 0x55, 0x00, 0x00, 0x38, 0x00, 0xe0, 0x00, 0x40, 0x19, 0xc2, 0xdc,
   0x00, 0x00, 0x38, 0x00, 0xe0, 0x00, 0x00, 0x00, 0x00, 0x00, 0x00, 0x00,
   0x38, 0x00, 0xe0, 0x00, 0x00, 0x00, 0x00, 0x00, 0x00, 0x00, 0x38, 0x00,
   0xe0, 0x00, 0x00, 0x00, 0x00, 0x00, 0x00, 0x00, 0x38, 0x00, 0xe0, 0xff,
   0xff, 0xff, 0xff, 0xff, 0xff, 0xff, 0x3f, 0x00, 0xe0, 0xff, 0xff, 0xff,
   0xff, 0xff, 0xff, 0xff, 0x3f, 0x00, 0xe0, 0xff, 0xff, 0xff, 0xff, 0xff,
   0xff, 0xff, 0x3f, 0x00 0x00, 0x00, 0x00, 0x00, 0x00, 0x00, 0x00, 0x00,
   0x00, 0x00, 0x00, 0x00, 0x00, 0x00, 0x00, 0x00, 0x00, 0x00, 0x00, 0x00,
   0x00, 0x00, 0x00, 0x00, 0x00, 0x00, 0x00, 0x00, 0x00, 0x00, 0x00, 0x00,
   0x00, 0x00, 0x00, 0x00, 0x00, 0x00, 0x00, 0x00, 0x00, 0x00, 0x00, 0x00,
   0x00, 0x00, 0x00, 0x00, 0x00, 0x00, 0x00, 0x00, 0x00, 0x00, 0x00, 0x00,
   0x00, 0x00, 0x00, 0x00, 0x00, 0x00, 0x00, 0x00, 0x00, 0x00, 0x00, 0x00,
   0x00, 0x00, 0x00, 0x00, 0x00, 0x00, 0x00, 0x00, 0x00, 0x00, 0x00, 0x00
   0x00, 0x00, 0x00, 0x00, 0x00, 0x00, 0x00, 0x00, 0x00, 0x00, 0x00, 0x00,
   0x00, 0x00, 0x00, 0x00, 0x00, 0x00, 0x00, 0x00};
