#define turg_1n_width 100
#define turg_1n_height 50
static char turg_1n_bits[] = {
   0x1f, 0x00, 0x00, 0x00, 0x00, 0x00, 0x00, 0x00, 0x00, 0x00, 0x00, 0xe0,
   0x0f, 0x7f, 0x00, 0x00, 0x00, 0x00, 0x00, 0x00, 0x00, 0x00, 0x00, 0x00,
   0xfe, 0x0f, 0xff, 0x01, 0x00, 0x00, 0x00, 0x00, 0x00, 0x00, 0x00, 0x00,
   0xe0, 0x7f, 0x0e, 0xe7, 0x07, 0x00, 0x00, 0x00, 0x00, 0x00, 0x00, 0x00,
   0x00, 0xfe, 0x0f, 0x0e, 0x87, 0x1f, 0x00, 0x00, 0x00, 0x00, 0x00, 0x00,
   0x00, 0xe0, 0xff, 0x00, 0x0e, 0x07, 0x7e, 0x11, 0x11, 0x11, 0x11, 0x11,
   0x11, 0x11, 0xff, 0x0f, 0x00, 0x0e, 0x07, 0xf8, 0x01, 0x00, 0x00, 0x00,
   0x00, 0x00, 0xe0, 0xff, 0x00, 0x00, 0x0e, 0x07, 0xe0, 0x07, 0x00, 0x00,
   0x00, 0x00, 0x00, 0xfe, 0x0f, 0x00, 0x00, 0x0e 0x07, 0x80, 0x1f, 0x00,
   0x00, 0x00, 0x00, 0xe0, 0xff, 0x00, 0x00, 0x00, 0x0e, 0x07, 0x00, 0x7e,
   0x04, 0x82, 0x40, 0x20, 0xfe, 0x0f, 0x00, 0x00, 0x00, 0x0e, 0x07, 0x00,
   0xf8, 0x41, 0x20, 0x08, 0xe4, 0xff, 0x00, 0x00, 0x00, 0x00, 0x0e, 0x07,
   0x00, 0xe0, 0x07, 0x00, 0x00, 0xfe, 0x0f, 0x00, 0x00, 0x00, 0x00, 0x0e,
   0x07, 0x00, 0x80, 0x3f, 0xfe, 0xc7, 0xff, 0x00, 0x00, 0x00, 0x00, 0x00,
   0x0e, 0x07, 0x00, 0x00, 0x3e, 0xfe, 0xc7, 0x0f, 0x00, 0x00, 0x00, 0x00,
   0x00, 0x0e, 0x07, 0x00, 0x00, 0x38, 0xfe, 0xc7, 0x01, 0x00, 0x00, 0x00,
   0x00, 0x00, 0x0e, 0x07, 0x00, 0x00, 0x38, 0x0e, 0xc7, 0x01, 0x00, 0x00,
   0x00, 0x00, 0x00, 0x0e 0x07, 0x00, 0x00, 0x38, 0x0f, 0xc7, 0x01, 0x00,
   0x00, 0x00, 0x00, 0x00, 0x0e, 0x07, 0x00, 0x00, 0x38, 0x0e, 0xc7, 0x01,
   0x00, 0x00, 0x00, 0x00, 0x00, 0x0e, 0x07, 0x00, 0x00, 0x38, 0x0e, 0xe7,
   0x01, 0x00, 0x00, 0x00, 0x00, 0x00, 0x0e, 0x07, 0x00, 0x00, 0x38, 0x0e,
   0xc7, 0x01, 0x00, 0x00, 0x00, 0x00, 0x00, 0x0e, 0x07, 0x00, 0x00, 0x38,
   0x0e, 0xc7, 0x01, 0x00, 0x00, 0x00, 0x00, 0x00, 0x0e, 0x07, 0x00, 0x00,
   0xb8, 0x0e, 0xc7, 0x01, 0x00, 0x00, 0x00, 0x00, 0x00, 0x0e, 0x07, 0x00,
   0x00, 0x38, 0x0e, 0xc7, 0x01, 0x00, 0x00, 0x00, 0x00, 0x00, 0x0e, 0x07,
   0x00, 0x00, 0xf8, 0x0f, 0xff, 0x01, 0x00, 0x00, 0x00, 0x00, 0x00, 0x0e
   0x07, 0x00, 0x00, 0xf8, 0x0f, 0xff, 0x01, 0x00, 0x00, 0x00, 0x00, 0x00,
   0x0e, 0x07, 0x00, 0x00, 0xf8, 0x0f, 0xff, 0x01, 0x00, 0x00, 0x00, 0x00,
   0x00, 0x0e, 0x07, 0x00, 0x00, 0xf8, 0x0f, 0xff, 0x01, 0x00, 0x00, 0x00,
   0x00, 0x00, 0x0e, 0x07, 0x00, 0x00, 0x38, 0x0e, 0xc7, 0x01, 0x00, 0x00,
   0x00, 0x00, 0x00, 0x0e, 0x07, 0x00, 0x00, 0x38, 0x0e, 0xc7, 0x01, 0x00,
   0x00, 0x00, 0x00, 0x00, 0x0e, 0x07, 0x00, 0x00, 0x38, 0x0e, 0xc7, 0x01,
   0x00, 0x00, 0x00, 0x00, 0x00, 0x0e, 0x07, 0x00, 0x00, 0x38, 0x0e, 0xe7,
   0x01, 0x00, 0x00, 0x00, 0x00, 0x00, 0x0e, 0x07, 0x00, 0x00, 0x38, 0x0f,
   0xc7, 0x01, 0x00, 0x00, 0x00, 0x00, 0x00, 0x0e 0x07, 0x00, 0x00, 0x38,
   0x0e, 0xc7, 0x01, 0x00, 0x00, 0x00, 0x00, 0x00, 0x0e, 0x07, 0x00, 0x00,
   0x38, 0x0e, 0xc7, 0x01, 0x00, 0x00, 0x00, 0x00, 0x00, 0x0e, 0x07, 0x00,
   0x00, 0x38, 0x0e, 0xc7, 0x01, 0x00, 0x00, 0x00, 0x00, 0x00, 0x0e, 0x07,
   0x00, 0x00, 0x38, 0xfe, 0xc7, 0x01, 0x00, 0x00, 0x00, 0x00, 0x00, 0x0e,
   0x07, 0x00, 0x00, 0x3e, 0xfe, 0xe7, 0x0f, 0x00, 0x00, 0x00, 0x00, 0x00,
   0x0e, 0x07, 0x00, 0x80, 0x3f, 0xff, 0xc7, 0xff, 0x00, 0x00, 0x00, 0x00,
   0x00, 0x0e, 0x07, 0x00, 0xe0, 0x07, 0x00, 0x00, 0xfe, 0x0f, 0x00, 0x00,
   0x00, 0x00, 0x0e, 0x07, 0x00, 0xf8, 0x01, 0x00, 0x00, 0xe0, 0xff, 0x00,
   0x00, 0x00, 0x00, 0x0e 0x07, 0x00, 0x7e, 0x00, 0x00, 0x02, 0x00, 0xfe,
   0x0f, 0x00, 0x00, 0x00, 0x0e, 0x07, 0x80, 0x1f, 0x20, 0x10, 0x20, 0x04,
   0xe0, 0xff, 0x00, 0x00, 0x00, 0x0e, 0x07, 0xe0, 0x07, 0x00, 0x02, 0x00,
   0x80, 0x00, 0xfe, 0x0f, 0x00, 0x00, 0x0e, 0x07, 0xf8, 0x01, 0x04, 0x00,
   0x00, 0x00, 0x00, 0xe0, 0xff, 0x00, 0x00, 0x0e, 0x07, 0x7e, 0x00, 0x00,
   0x00, 0x01, 0x00, 0x88, 0x00, 0xfe, 0x0f, 0x00, 0x0e, 0x87, 0x1f, 0x80,
   0x00, 0x00, 0x10, 0x11, 0x00, 0x00, 0xe0, 0xff, 0x00, 0x0e, 0xe7, 0x07,
   0x00, 0x80, 0x20, 0x00, 0x00, 0x00, 0x10, 0x00, 0xfe, 0x0f, 0x0e, 0xff,
   0x01, 0x10, 0x20, 0x00, 0x00, 0x00, 0x01, 0x00, 0x11, 0xe0, 0x7f, 0x0e
   0x7f, 0x00, 0x04, 0x00, 0x00, 0x00, 0x00, 0x40, 0x00, 0x00, 0x00, 0xfe,
   0x0f, 0x1f, 0x00, 0x01, 0x04, 0x00, 0x02, 0x04, 0x10, 0x04, 0x00, 0x11,
   0xe0, 0x0f};
