#define turg_0n_width 100
#define turg_0n_height 50
static char turg_0n_bits[] = {
   0x7f, 0x00, 0x00, 0x00, 0x00, 0x00, 0x00, 0x00, 0x00, 0x00, 0x00, 0x80,
   0x0f, 0xff, 0x07, 0x00, 0x00, 0x00, 0x00, 0x00, 0x00, 0x00, 0x00, 0x00,
   0xe0, 0x0f, 0xe7, 0x7f, 0x00, 0x00, 0x00, 0x00, 0x00, 0x00, 0x00, 0x00,
   0x00, 0xf8, 0x0f, 0x07, 0xff, 0x07, 0x00, 0x00, 0x00, 0x00, 0x00, 0x00,
   0x00, 0x00, 0x7e, 0x0e, 0x07, 0xf0, 0x7f, 0x00, 0x00, 0x00, 0x00, 0x00,
   0x00, 0x00, 0x80, 0x1f, 0x0e, 0x07, 0x00, 0xff, 0x8f, 0x88, 0x88, 0x88,
   0x88, 0x88, 0x88, 0xe8, 0x07, 0x0e, 0x07, 0x00, 0xf0, 0x7f, 0x00, 0x00,
   0x00, 0x00, 0x00, 0x00, 0xf8, 0x01, 0x0e, 0x07, 0x00, 0x00, 0xff, 0x07,
   0x00, 0x00, 0x00, 0x00, 0x00, 0x7e, 0x00, 0x0e 0x07, 0x00, 0x00, 0xf0,
   0x7f, 0x00, 0x00, 0x00, 0x00, 0x80, 0x1f, 0x00, 0x0e, 0x07, 0x00, 0x00,
   0x00, 0xff, 0x27, 0x10, 0x04, 0x02, 0xe1, 0x07, 0x00, 0x0e, 0x07, 0x00,
   0x00, 0x00, 0xf0, 0x7f, 0x02, 0x41, 0x20, 0xf8, 0x01, 0x00, 0x0e, 0x07,
   0x00, 0x00, 0x00, 0x00, 0xff, 0x07, 0x00, 0x00, 0x7e, 0x00, 0x00, 0x0e,
   0x07, 0x00, 0x00, 0x00, 0x00, 0xf0, 0x3f, 0xfe, 0xc7, 0x1f, 0x00, 0x00,
   0x0e, 0x07, 0x00, 0x00, 0x00, 0x00, 0x00, 0x3f, 0xfe, 0xc7, 0x07, 0x00,
   0x00, 0x0e, 0x07, 0x00, 0x00, 0x00, 0x00, 0x00, 0x38, 0xfe, 0xc7, 0x01,
   0x00, 0x00, 0x0e, 0x07, 0x00, 0x00, 0x00, 0x00, 0x00, 0x38, 0x0e, 0xc7,
   0x01, 0x00, 0x00, 0x0e 0x07, 0x00, 0x00, 0x00, 0x00, 0x00, 0x38, 0x0e,
   0xc7, 0x01, 0x00, 0x00, 0x0e, 0x07, 0x00, 0x00, 0x00, 0x00, 0x00, 0x38,
   0x0e, 0xe7, 0x01, 0x00, 0x00, 0x0e, 0x07, 0x00, 0x00, 0x00, 0x00, 0x00,
   0x38, 0x0f, 0xc7, 0x01, 0x00, 0x00, 0x0e, 0x07, 0x00, 0x00, 0x00, 0x00,
   0x00, 0x38, 0x0e, 0xc7, 0x01, 0x00, 0x00, 0x0e, 0x07, 0x00, 0x00, 0x00,
   0x00, 0x00, 0x38, 0x0e, 0xc7, 0x01, 0x00, 0x00, 0x0e, 0x07, 0x00, 0x00,
   0x00, 0x00, 0x00, 0x38, 0x0e, 0xc7, 0x01, 0x00, 0x00, 0x0e, 0x07, 0x00,
   0x00, 0x00, 0x00, 0x00, 0x38, 0x0e, 0xc7, 0x01, 0x00, 0x00, 0x0e, 0x07,
   0x00, 0x00, 0x00, 0x00, 0x00, 0xf8, 0x0f, 0xff, 0x01, 0x00, 0x00, 0x0e
   0x07, 0x00, 0x00, 0x00, 0x00, 0x00, 0xf8, 0x0f, 0xff, 0x01, 0x00, 0x00,
   0x0e, 0x07, 0x00, 0x00, 0x00, 0x00, 0x00, 0xf8, 0x0f, 0xff, 0x01, 0x00,
   0x00, 0x0e, 0x07, 0x00, 0x00, 0x00, 0x00, 0x00, 0xf8, 0x0f, 0xff, 0x01,
   0x00, 0x00, 0x0e, 0x07, 0x00, 0x00, 0x00, 0x00, 0x00, 0x38, 0x0e, 0xc7,
   0x01, 0x00, 0x00, 0x0e, 0x07, 0x00, 0x00, 0x00, 0x00, 0x00, 0x38, 0x0e,
   0xc7, 0x01, 0x00, 0x00, 0x0e, 0x07, 0x00, 0x00, 0x00, 0x00, 0x00, 0x38,
   0x0e, 0xc7, 0x01, 0x00, 0x00, 0x0e, 0x07, 0x00, 0x00, 0x00, 0x00, 0x00,
   0x38, 0x0f, 0xe7, 0x01, 0x00, 0x00, 0x0e, 0x07, 0x00, 0x00, 0x00, 0x00,
   0x00, 0x38, 0x0e, 0xc7, 0x01, 0x00, 0x00, 0x0e 0x07, 0x00, 0x00, 0x00,
   0x00, 0x00, 0x38, 0x0e, 0xc7, 0x01, 0x00, 0x00, 0x0e, 0x07, 0x00, 0x00,
   0x00, 0x00, 0x00, 0x38, 0x0e, 0xc7, 0x01, 0x00, 0x00, 0x0e, 0x07, 0x00,
   0x00, 0x00, 0x00, 0x00, 0x38, 0x0e, 0xc7, 0x01, 0x00, 0x00, 0x0e, 0x07,
   0x00, 0x00, 0x00, 0x00, 0x00, 0x38, 0xff, 0xe7, 0x01, 0x00, 0x00, 0x0e,
   0x07, 0x00, 0x00, 0x00, 0x00, 0x00, 0x3f, 0xfe, 0xc7, 0x07, 0x00, 0x00,
   0x0e, 0x07, 0x00, 0x00, 0x00, 0x00, 0xf0, 0x3f, 0xfe, 0xc7, 0x1f, 0x00,
   0x00, 0x0e, 0x07, 0x00, 0x00, 0x00, 0x00, 0xff, 0x07, 0x00, 0x00, 0x7e,
   0x00, 0x00, 0x0e, 0x07, 0x00, 0x00, 0x00, 0xf0, 0x7f, 0x40, 0x00, 0x08,
   0xf8, 0x01, 0x00, 0x0e 0x07, 0x00, 0x00, 0x00, 0xff, 0x07, 0x10, 0x00,
   0x01, 0xe0, 0x07, 0x00, 0x0e, 0x07, 0x00, 0x00, 0xf0, 0x7f, 0x00, 0x02,
   0x10, 0x00, 0x82, 0x1f, 0x00, 0x0e, 0x07, 0x00, 0x00, 0xff, 0x07, 0x40,
   0x00, 0x00, 0x80, 0x00, 0x7e, 0x00, 0x0e, 0x07, 0x00, 0xf0, 0x7f, 0x00,
   0x08, 0x00, 0x00, 0x00, 0x40, 0xf8, 0x01, 0x0e, 0x07, 0x00, 0xff, 0x07,
   0x00, 0x01, 0x00, 0x02, 0x20, 0x00, 0xe0, 0x07, 0x0e, 0x07, 0xf0, 0x7f,
   0x00, 0x20, 0x00, 0x00, 0x40, 0x04, 0x00, 0x80, 0x1f, 0x0e, 0x07, 0xff,
   0x07, 0x00, 0x08, 0x00, 0x40, 0x00, 0x00, 0x00, 0x04, 0x7e, 0x0e, 0xe7,
   0x7f, 0x00, 0x00, 0x01, 0x00, 0x04, 0x00, 0x00, 0x10, 0x41, 0xf8, 0x0f
   0xff, 0x07, 0x00, 0x20, 0x00, 0x80, 0x00, 0x10, 0x00, 0x00, 0x00, 0xe0,
   0x0f, 0x7f, 0x00, 0x00, 0x04, 0x00, 0x10, 0x00, 0x00, 0x00, 0x01, 0x00,
   0x88, 0x0f};
