#define vain_0n_width 50
#define vain_0n_height 50
static char vain_0n_bits[] = {
   0x00, 0x00, 0x00, 0x00, 0x00, 0x00, 0x00, 0x00, 0x00, 0x00, 0x00, 0x00,
   0x00, 0x00, 0x00, 0x00, 0x00, 0x00, 0x00, 0x00, 0x00, 0x00, 0x00, 0x00,
   0x00, 0x00, 0x00, 0x00, 0x00, 0x00, 0x00, 0x00, 0x00, 0x00, 0x00, 0x00,
   0x00, 0x00, 0x00, 0x00, 0x00, 0x00, 0x00, 0x00, 0x80, 0x0f, 0x00, 0x00,
   0x00, 0x00, 0x00, 0x60, 0x30, 0x00, 0x00, 0x00 0x00, 0x00, 0x10, 0x40,
   0x00, 0x00, 0x00, 0x00, 0x00, 0x10, 0x40, 0x00, 0x00, 0x00, 0x00, 0x00,
   0x08, 0x80, 0x00, 0x00, 0x00, 0x80, 0x01, 0x08, 0x80, 0x00, 0x0c, 0x00,
   0x80, 0x03, 0xf8, 0xff, 0x00, 0x0e, 0x00, 0x80, 0x07, 0x00, 0x02, 0x00,
   0x0f, 0x00, 0x80, 0x0d, 0x00, 0x02, 0x80, 0x0d, 0x00, 0x80, 0x19, 0x00,
   0x02, 0xc0, 0x0c, 0x00 0x80, 0x61, 0x00, 0x02, 0x30, 0x0c, 0x00, 0x80,
   0xc1, 0x00, 0x02, 0x18, 0x0c, 0x00, 0x80, 0x81, 0x01, 0x02, 0x0c, 0x0c,
   0x00, 0x80, 0x09, 0x03, 0x02, 0x86, 0x0c, 0x00, 0x80, 0x01, 0x06, 0x02,
   0x01, 0x0c, 0x00, 0x80, 0x01, 0x08, 0x82, 0x00, 0x0c, 0x00, 0x80, 0x21,
   0x10, 0x42, 0x20, 0x0c, 0x00, 0x80, 0x01, 0x60, 0x32, 0x00, 0x0c, 0x00
   0x80, 0x01, 0xc4, 0x1a, 0x01, 0x0c, 0x00, 0x80, 0x01, 0x00, 0x07, 0x00,
   0x0c, 0x00, 0xfc, 0x89, 0x20, 0x22, 0x88, 0xfc, 0x01, 0x80, 0x01, 0x00,
   0x05, 0x00, 0x0c, 0x00, 0x80, 0x01, 0xc4, 0x18, 0x01, 0x0c, 0x00, 0x80,
   0x01, 0x60, 0x30, 0x00, 0x0c, 0x00, 0x80, 0x21, 0x10, 0x40, 0x20, 0x0c,
   0x00, 0x80, 0x01, 0x08, 0x80, 0x00, 0x0c, 0x00 0x80, 0x01, 0x06, 0x00,
   0x03, 0x0c, 0x00, 0x80, 0x09, 0x03, 0x00, 0x86, 0x0c, 0x00, 0x80, 0x81,
   0x01, 0x00, 0x0c, 0x0c, 0x00, 0x80, 0xc1, 0x00, 0x00, 0x18, 0x0c, 0x00,
   0x80, 0x61, 0x00, 0x00, 0x30, 0x0c, 0x00, 0x80, 0x19, 0x00, 0x00, 0xc0,
   0x0c, 0x00, 0x80, 0x0d, 0x00, 0x00, 0x80, 0x0d, 0x00, 0x80, 0x07, 0x00,
   0x00, 0x00, 0x0f, 0x00 0x80, 0x03, 0x00, 0x00, 0x00, 0x0e, 0x00, 0x80,
   0x01, 0x00, 0x00, 0x00, 0x0c, 0x00, 0x00, 0x00, 0x00, 0x00, 0x00, 0x00,
   0x00, 0x00, 0x00, 0x00, 0x00, 0x00, 0x00, 0x00, 0x00, 0x00, 0x00, 0x00,
   0x00, 0x00, 0x00, 0x00, 0x00, 0x00, 0x00, 0x00, 0x00, 0x00, 0x00, 0x00,
   0x00, 0x00, 0x00, 0x00, 0x00, 0x00, 0x00, 0x00, 0x00, 0x00, 0x00, 0x00
   0x00, 0x00, 0x00, 0x00, 0x00, 0x00, 0x00, 0x00, 0x00, 0x00, 0x00, 0x00,
   0x00, 0x00};
