#define vain_1e_width 50
#define vain_1e_height 50
static char vain_1e_bits[] = {
   0x00, 0x00, 0x00, 0x00, 0x00, 0x00, 0x00, 0x00, 0x00, 0x80, 0x00, 0x00,
   0x00, 0x00, 0x00, 0x00, 0x80, 0x00, 0x00, 0x00, 0x00, 0x00, 0x00, 0x80,
   0x00, 0x00, 0x00, 0x00, 0x00, 0x00, 0x80, 0x00, 0x00, 0x00, 0x00, 0x00,
   0x00, 0x80, 0x00, 0x00, 0x00, 0x00, 0x00, 0xff, 0xff, 0xff, 0x7f, 0x00,
   0x00, 0x00, 0xff, 0xff, 0xff, 0x7f, 0x00, 0x00 0x00, 0x06, 0x00, 0x00,
   0x30, 0x00, 0x00, 0x00, 0x0c, 0x00, 0x00, 0x18, 0x00, 0x00, 0x00, 0x18,
   0x81, 0x40, 0x0c, 0x00, 0x00, 0x00, 0x10, 0x00, 0x00, 0x04, 0x00, 0x00,
   0x00, 0x20, 0x08, 0x08, 0x02, 0x00, 0x00, 0x00, 0x60, 0x00, 0x00, 0x03,
   0x00, 0x00, 0x00, 0xc0, 0x80, 0x80, 0x01, 0x00, 0x00, 0x00, 0x80, 0x01,
   0xc0, 0x00, 0x00, 0x00 0x60, 0x00, 0x03, 0x40, 0x00, 0x00, 0x00, 0x60,
   0x00, 0x22, 0x22, 0x00, 0x00, 0x00, 0x60, 0x00, 0x04, 0x10, 0xe0, 0x00,
   0x00, 0xf0, 0x00, 0x08, 0x08, 0x20, 0x03, 0x00, 0xf0, 0x00, 0x90, 0x04,
   0x20, 0x04, 0x00, 0xf8, 0x01, 0x30, 0x06, 0x20, 0x04, 0x00, 0x60, 0x00,
   0x20, 0x02, 0x20, 0x08, 0x00, 0x60, 0x00, 0x40, 0x01, 0x20, 0x08, 0x00
   0x60, 0x00, 0x80, 0xff, 0x3f, 0x08, 0x00, 0x60, 0x00, 0x40, 0x01, 0x20,
   0x08, 0x00, 0x60, 0x00, 0x20, 0x02, 0x20, 0x08, 0x00, 0x60, 0x00, 0x30,
   0x06, 0x20, 0x04, 0x00, 0x60, 0x00, 0x90, 0x04, 0x20, 0x04, 0x00, 0x60,
   0x00, 0x08, 0x08, 0x20, 0x03, 0x00, 0x60, 0x00, 0x04, 0x10, 0xe0, 0x00,
   0x00, 0x60, 0x00, 0x22, 0x22, 0x00, 0x00, 0x00 0x60, 0x00, 0x03, 0x60,
   0x00, 0x00, 0x00, 0x60, 0x80, 0x01, 0xc0, 0x00, 0x00, 0x00, 0x60, 0xc0,
   0x80, 0x80, 0x01, 0x00, 0x00, 0x00, 0x60, 0x00, 0x00, 0x03, 0x00, 0x00,
   0x00, 0x20, 0x08, 0x08, 0x02, 0x00, 0x00, 0x00, 0x10, 0x00, 0x00, 0x04,
   0x00, 0x00, 0x00, 0x18, 0x81, 0x40, 0x0c, 0x00, 0x00, 0x00, 0x0c, 0x00,
   0x00, 0x18, 0x00, 0x00 0x00, 0x06, 0x00, 0x00, 0x30, 0x00, 0x00, 0x00,
   0xff, 0xff, 0xff, 0x7f, 0x00, 0x00, 0x00, 0xff, 0xff, 0xff, 0x7f, 0x00,
   0x00, 0x00, 0x00, 0x80, 0x00, 0x00, 0x00, 0x00, 0x00, 0x00, 0x80, 0x00,
   0x00, 0x00, 0x00, 0x00, 0x00, 0x80, 0x00, 0x00, 0x00, 0x00, 0x00, 0x00,
   0x80, 0x00, 0x00, 0x00, 0x00, 0x00, 0x00, 0x80, 0x00, 0x00, 0x00, 0x00
   0x00, 0x00, 0x00, 0x00, 0x00, 0x00, 0x00, 0x00, 0x00, 0x00, 0x00, 0x00,
   0x00, 0x00};
