#define vain_1n_width 50
#define vain_1n_height 50
static char vain_1n_bits[] = {
   0x00, 0x00, 0x00, 0x00, 0x00, 0x00, 0x00, 0x00, 0x00, 0x00, 0x00, 0x00,
   0x00, 0x00, 0x00, 0x00, 0x00, 0x00, 0x00, 0x00, 0x00, 0x00, 0x00, 0x00,
   0x00, 0x00, 0x00, 0x00, 0x00, 0x00, 0x00, 0x00, 0x00, 0x00, 0x00, 0x00,
   0x00, 0x00, 0x00, 0x00, 0x00, 0x00, 0x00, 0x00, 0xc0, 0x07, 0x00, 0x00,
   0x00, 0x00, 0x00, 0x30, 0x18, 0x00, 0x00, 0x00 0x00, 0x00, 0x08, 0x20,
   0x00, 0x00, 0x00, 0x00, 0x00, 0x08, 0x20, 0x00, 0x00, 0x00, 0x00, 0x00,
   0x04, 0x40, 0x00, 0x00, 0x00, 0xc0, 0x00, 0x04, 0x40, 0x00, 0x06, 0x00,
   0xc0, 0x01, 0xfc, 0x7f, 0x00, 0x07, 0x00, 0xc0, 0x03, 0x00, 0x01, 0x80,
   0x07, 0x00, 0xc0, 0x06, 0x00, 0x01, 0xc0, 0x06, 0x00, 0xc0, 0x0c, 0x00,
   0x01, 0x60, 0x06, 0x00 0xc0, 0x30, 0x00, 0x01, 0x18, 0x06, 0x00, 0xc0,
   0x60, 0x00, 0x01, 0x0c, 0x06, 0x00, 0xc0, 0xc0, 0x00, 0x01, 0x06, 0x06,
   0x00, 0xc0, 0x84, 0x01, 0x01, 0x43, 0x06, 0x00, 0xc0, 0x00, 0x02, 0x81,
   0x01, 0x06, 0x00, 0xc0, 0x00, 0x04, 0x41, 0x00, 0x06, 0x00, 0xc0, 0x10,
   0x08, 0x21, 0x10, 0x06, 0x00, 0xc0, 0x00, 0x30, 0x19, 0x00, 0x06, 0x00
   0xc0, 0x00, 0x62, 0x8d, 0x00, 0x06, 0x00, 0xc0, 0x00, 0x80, 0x03, 0x00,
   0x06, 0x00, 0xfe, 0x44, 0x10, 0x11, 0x44, 0xfe, 0x00, 0xc0, 0x00, 0x80,
   0x02, 0x00, 0x06, 0x00, 0xc0, 0x00, 0x62, 0x8c, 0x00, 0x06, 0x00, 0xc0,
   0x00, 0x30, 0x18, 0x00, 0x06, 0x00, 0xc0, 0x10, 0x08, 0x20, 0x10, 0x06,
   0x00, 0xc0, 0x00, 0x04, 0x40, 0x00, 0x06, 0x00 0xc0, 0x00, 0x03, 0x80,
   0x01, 0x06, 0x00, 0xc0, 0x84, 0x01, 0x00, 0x43, 0x06, 0x00, 0xc0, 0xc0,
   0x00, 0x00, 0x06, 0x06, 0x00, 0xc0, 0x60, 0x00, 0x00, 0x0c, 0x06, 0x00,
   0xc0, 0x30, 0x00, 0x00, 0x18, 0x06, 0x00, 0xc0, 0x0c, 0x00, 0x00, 0x60,
   0x06, 0x00, 0xc0, 0x06, 0x00, 0x00, 0xc0, 0x06, 0x00, 0xc0, 0x03, 0x00,
   0x00, 0x80, 0x07, 0x00 0xc0, 0x01, 0x00, 0x00, 0x00, 0x07, 0x00, 0xc0,
   0x00, 0x20, 0x00, 0x00, 0x06, 0x00, 0x00, 0x00, 0x38, 0x00, 0x00, 0x00,
   0x00, 0x00, 0x00, 0xff, 0xff, 0x07, 0x00, 0x00, 0x00, 0x00, 0xff, 0xff,
   0x07, 0x00, 0x00, 0x00, 0x00, 0x38, 0x00, 0x00, 0x00, 0x00, 0x00, 0x00,
   0x20, 0x00, 0x00, 0x00, 0x00, 0x00, 0x00, 0x00, 0x00, 0x00, 0x00, 0x00
   0x00, 0x00, 0x00, 0x00, 0x00, 0x00, 0x00, 0x00, 0x00, 0x00, 0x00, 0x00,
   0x00, 0x00};
