#define vain_0w_width 50
#define vain_0w_height 50
static char vain_0w_bits[] = {
   0x00, 0x00, 0x00, 0x00, 0x00, 0x00, 0x00, 0x00, 0x00, 0x00, 0x04, 0x00,
   0x00, 0x00, 0x00, 0x00, 0x00, 0x04, 0x00, 0x00, 0x00, 0x00, 0x00, 0x00,
   0x04, 0x00, 0x00, 0x00, 0x00, 0x00, 0x00, 0x04, 0x00, 0x00, 0x00, 0x00,
   0x00, 0x00, 0x04, 0x00, 0x00, 0x00, 0x00, 0xf8, 0xff, 0xff, 0xff, 0x03,
   0x00, 0x00, 0xf8, 0xff, 0xff, 0xff, 0x03, 0x00 0x00, 0x30, 0x00, 0x00,
   0x80, 0x01, 0x00, 0x00, 0x60, 0x00, 0x00, 0xc0, 0x00, 0x00, 0x00, 0xc0,
   0x08, 0x04, 0x62, 0x00, 0x00, 0x00, 0x80, 0x00, 0x00, 0x20, 0x00, 0x00,
   0x00, 0x00, 0x41, 0x40, 0x10, 0x00, 0x00, 0x00, 0x00, 0x03, 0x00, 0x18,
   0x00, 0x00, 0x00, 0x00, 0x06, 0x04, 0x0c, 0x00, 0x00, 0x00, 0x00, 0x0c,
   0x00, 0x06, 0x00, 0x00 0x00, 0x00, 0x08, 0x00, 0x03, 0x00, 0x00, 0x00,
   0x00, 0x10, 0x11, 0x01, 0x00, 0x00, 0x00, 0x1c, 0x20, 0x80, 0x00, 0x00,
   0x00, 0x00, 0x13, 0x40, 0x40, 0x00, 0x00, 0x00, 0x80, 0x10, 0x80, 0x24,
   0x00, 0x00, 0x00, 0x80, 0x10, 0x80, 0x31, 0x00, 0x00, 0x00, 0x40, 0x10,
   0x00, 0x11, 0x00, 0x00, 0x00, 0x40, 0x10, 0x00, 0x0a, 0x00, 0x00, 0x00
   0x40, 0xf0, 0xff, 0x07, 0x00, 0x00, 0x00, 0x40, 0x10, 0x00, 0x0a, 0x00,
   0x00, 0x00, 0x40, 0x10, 0x00, 0x11, 0x00, 0x00, 0x00, 0x80, 0x10, 0x80,
   0x31, 0x00, 0x00, 0x00, 0x80, 0x10, 0x80, 0x24, 0x00, 0x00, 0x00, 0x00,
   0x13, 0x40, 0x40, 0x00, 0x00, 0x00, 0x00, 0x1c, 0x20, 0x80, 0x00, 0x00,
   0x00, 0x00, 0x00, 0x10, 0x11, 0x01, 0x00, 0x00 0x00, 0x00, 0x18, 0x00,
   0x03, 0x00, 0x00, 0x00, 0x00, 0x0c, 0x00, 0x06, 0x00, 0x00, 0x00, 0x00,
   0x06, 0x04, 0x0c, 0x00, 0x00, 0x00, 0x00, 0x03, 0x00, 0x18, 0x00, 0x00,
   0x00, 0x00, 0x41, 0x40, 0x10, 0x00, 0x00, 0x00, 0x80, 0x00, 0x00, 0x20,
   0x00, 0x00, 0x00, 0xc0, 0x08, 0x04, 0x62, 0x00, 0x00, 0x00, 0x60, 0x00,
   0x00, 0xc0, 0x00, 0x00 0x00, 0x30, 0x00, 0x00, 0x80, 0x01, 0x00, 0x00,
   0xf8, 0xff, 0xff, 0xff, 0x03, 0x00, 0x00, 0xf8, 0xff, 0xff, 0xff, 0x03,
   0x00, 0x00, 0x00, 0x00, 0x04, 0x00, 0x00, 0x00, 0x00, 0x00, 0x00, 0x04,
   0x00, 0x00, 0x00, 0x00, 0x00, 0x00, 0x04, 0x00, 0x00, 0x00, 0x00, 0x00,
   0x00, 0x04, 0x00, 0x00, 0x00, 0x00, 0x00, 0x00, 0x04, 0x00, 0x00, 0x00
   0x00, 0x00, 0x00, 0x00, 0x00, 0x00, 0x00, 0x00, 0x00, 0x00, 0x00, 0x00,
   0x00, 0x00};
