#define valv_1w_width 50
#define valv_1w_height 50
static char valv_1w_bits[] = {
   0x00, 0x00, 0x00, 0xc0, 0x01, 0x00, 0x00, 0x00, 0x00, 0x00, 0xc0, 0x01,
   0x00, 0x00, 0x00, 0x00, 0x00, 0xc0, 0x01, 0x00, 0x00, 0x00, 0x42, 0x00,
   0xc0, 0x01, 0x00, 0x00, 0x00, 0x45, 0x00, 0xc0, 0x01, 0x00, 0x00, 0x20,
   0x25, 0x44, 0xc4, 0x21, 0x22, 0x00, 0x20, 0x25, 0x01, 0xc0, 0x01, 0x00,
   0x00, 0xb0, 0x28, 0x00, 0xc0, 0x09, 0x00, 0x00 0xa0, 0x28, 0x00, 0xc0,
   0x01, 0x00, 0x00, 0x40, 0x10, 0x00, 0xc8, 0x01, 0x10, 0x01, 0x40, 0x14,
   0xf0, 0xff, 0xff, 0x07, 0x00, 0x00, 0x00, 0xf1, 0xff, 0xff, 0x07, 0x00,
   0x10, 0x00, 0xf0, 0xff, 0xff, 0x07, 0x00, 0x00, 0x00, 0x70, 0x00, 0x00,
   0x17, 0x00, 0x00, 0x42, 0xf0, 0x00, 0x80, 0x07, 0x00, 0x00, 0xf8, 0xe9,
   0x01, 0xc0, 0x43, 0x00 0x20, 0xfe, 0xc1, 0x03, 0xe0, 0xe1, 0x00, 0x08,
   0xff, 0x81, 0x07, 0xf0, 0xf4, 0x01, 0x80, 0xcf, 0x01, 0x0f, 0x78, 0x58,
   0x03, 0xc0, 0xc3, 0x41, 0x1e, 0x3c, 0x49, 0x02, 0xe0, 0xc1, 0x11, 0x3c,
   0x1e, 0x40, 0x00, 0xe0, 0xc0, 0x01, 0x78, 0x0f, 0x40, 0x01, 0xf0, 0xc0,
   0x01, 0xf0, 0x27, 0x40, 0x00, 0x70, 0xc0, 0x01, 0xf4, 0x03, 0x50, 0x00
   0x70, 0xc0, 0xff, 0xff, 0x01, 0x44, 0x00, 0x70, 0xc0, 0xff, 0xff, 0x05,
   0x40, 0x00, 0x78, 0xc0, 0xff, 0xff, 0x81, 0x40, 0x00, 0x70, 0xc0, 0x01,
   0xf0, 0x03, 0x40, 0x00, 0xf0, 0xc0, 0x11, 0xf1, 0x07, 0x40, 0x00, 0xe0,
   0xc0, 0x01, 0x78, 0x0f, 0x40, 0x00, 0xe0, 0xc1, 0x01, 0x3c, 0x5e, 0x48,
   0x01, 0xc0, 0xc3, 0x01, 0x1e, 0x3c, 0x40, 0x00 0x80, 0xcf, 0x45, 0x0f,
   0x78, 0x40, 0x00, 0x10, 0xff, 0x81, 0x07, 0xf0, 0x40, 0x00, 0x00, 0xfe,
   0xc1, 0x03, 0xe0, 0x49, 0x00, 0x00, 0xf8, 0xe1, 0x01, 0xc0, 0x43, 0x00,
   0x80, 0x00, 0xf0, 0x00, 0x80, 0x07, 0x01, 0x10, 0x00, 0x74, 0x00, 0x00,
   0x07, 0x00, 0x00, 0x88, 0xf0, 0xff, 0xff, 0x47, 0x00, 0x00, 0x00, 0xf0,
   0xff, 0xff, 0x07, 0x00 0x00, 0x00, 0xf0, 0xff, 0xff, 0x07, 0x00, 0x00,
   0x01, 0x00, 0xc0, 0x01, 0x10, 0x00, 0x08, 0x40, 0x00, 0xc0, 0x01, 0x04,
   0x00, 0x00, 0x00, 0x88, 0xd0, 0x11, 0x01, 0x00, 0x00, 0x08, 0x00, 0xc0,
   0x01, 0x00, 0x00, 0x40, 0x00, 0x00, 0xc0, 0x01, 0x00, 0x00, 0x00, 0x00,
   0x02, 0xc0, 0x01, 0x00, 0x01, 0x00, 0x00, 0x00, 0xc2, 0x45, 0x00, 0x00
   0x10, 0x44, 0x40, 0xc0, 0x01, 0x40, 0x00, 0x00, 0x00, 0x00, 0xe0, 0x01,
   0x08, 0x00};
