#define valv_2s_width 50
#define valv_2s_height 50
static char valv_2s_bits[] = {
   0x00, 0x00, 0x00, 0x00, 0x00, 0x00, 0x00, 0x00, 0x00, 0x00, 0x00, 0x00,
   0x00, 0x00, 0x00, 0x00, 0x00, 0x00, 0x00, 0x00, 0x00, 0x00, 0x00, 0x00,
   0x00, 0x00, 0x00, 0x00, 0x00, 0x00, 0x00, 0x00, 0x00, 0x00, 0x00, 0x20,
   0x22, 0x22, 0x22, 0x22, 0x22, 0x00, 0x00, 0x00, 0x00, 0x00, 0x00, 0x00,
   0x00, 0x00, 0x7c, 0x00, 0x00, 0xf0, 0x01, 0x00 0x00, 0xfc, 0x00, 0x00,
   0xf8, 0x01, 0x00, 0x88, 0xfc, 0x41, 0x10, 0xfc, 0x41, 0x00, 0x00, 0xdc,
   0x0b, 0x04, 0xdf, 0x09, 0x00, 0x00, 0x9c, 0x07, 0x00, 0xcf, 0x01, 0x00,
   0x00, 0x1c, 0x0f, 0x80, 0xc7, 0x01, 0x00, 0x00, 0x1c, 0x1e, 0xc0, 0xc3,
   0x01, 0x00, 0x10, 0x1d, 0x3c, 0xe0, 0xc1, 0x81, 0x00, 0x00, 0x1c, 0x78,
   0xf1, 0xc0, 0x09, 0x00 0x00, 0x1c, 0xf0, 0x78, 0xc0, 0x01, 0x00, 0xff,
   0x1f, 0xe0, 0x3f, 0xc0, 0xff, 0x03, 0xff, 0x1f, 0xc0, 0x1f, 0xc0, 0xff,
   0x03, 0xff, 0x1f, 0xe0, 0x3f, 0xc0, 0xff, 0x03, 0x00, 0x1c, 0xf0, 0x7f,
   0xc0, 0x01, 0x00, 0x00, 0x1c, 0xf8, 0xff, 0xc0, 0x01, 0x00, 0x20, 0x1e,
   0x3c, 0xe7, 0xc1, 0x11, 0x00, 0x00, 0x1c, 0x1e, 0xc7, 0xc3, 0x01, 0x01
   0x00, 0x1c, 0x0f, 0x87, 0xc7, 0x01, 0x00, 0x00, 0x9c, 0x47, 0x27, 0xcf,
   0x01, 0x00, 0x10, 0xdc, 0x03, 0x07, 0xde, 0x45, 0x00, 0x00, 0xfd, 0x01,
   0x07, 0xfc, 0x01, 0x00, 0x00, 0xfc, 0x08, 0x07, 0xf8, 0x01, 0x00, 0x00,
   0x7c, 0x00, 0x27, 0xf2, 0x01, 0x00, 0x10, 0x00, 0x00, 0x07, 0x00, 0x00,
   0x00, 0x00, 0x00, 0x81, 0x07, 0x00, 0x22, 0x00 0x00, 0x42, 0x20, 0x07,
   0x20, 0x00, 0x00, 0x80, 0x80, 0xff, 0xff, 0x0f, 0x00, 0x00, 0x20, 0x80,
   0xff, 0xff, 0x0f, 0x00, 0x00, 0x08, 0x80, 0xff, 0xff, 0x0f, 0x10, 0x01,
   0x00, 0x80, 0x43, 0x12, 0x4e, 0x04, 0x00, 0x00, 0xa0, 0x43, 0x12, 0x0e,
   0x00, 0x00, 0x00, 0x80, 0x43, 0x15, 0x0e, 0x00, 0x00, 0x00, 0x80, 0x43,
   0x15, 0x0e, 0x00, 0x00 0x00, 0x84, 0xc3, 0x18, 0x2e, 0x00, 0x00, 0x10,
   0x81, 0xc3, 0x18, 0x0e, 0x42, 0x00, 0x00, 0x80, 0x43, 0x10, 0x0e, 0x00,
   0x00, 0x00, 0x80, 0xff, 0xff, 0x0f, 0x00, 0x00, 0x00, 0xc0, 0xff, 0xff,
   0x0f, 0x00, 0x00, 0x20, 0x80, 0xff, 0xff, 0x4f, 0x44, 0x00, 0x08, 0x08,
   0x00, 0x00, 0x00, 0x00, 0x00, 0x00, 0x00, 0x00, 0x00, 0x00, 0x00, 0x00
   0x00, 0x00, 0x00, 0x00, 0x04, 0x00, 0x00, 0x00, 0x02, 0x44, 0x10, 0x81,
   0x20, 0x00};
