#define valv_2e_width 50
#define valv_2e_height 50
static char valv_2e_bits[] = {
   0x00, 0x00, 0x0e, 0x00, 0x00, 0x00, 0x00, 0x00, 0x00, 0x0e, 0x00, 0x00,
   0x00, 0x00, 0x00, 0x00, 0x0e, 0x00, 0x00, 0x00, 0x00, 0x00, 0x00, 0x0e,
   0x00, 0x00, 0x00, 0x00, 0x00, 0x00, 0x0e, 0x00, 0x00, 0x00, 0x00, 0x20,
   0x22, 0x0e, 0x11, 0x11, 0x11, 0x01, 0x00, 0x00, 0x0e, 0x00, 0x00, 0x00,
   0x00, 0x00, 0x00, 0x4e, 0x00, 0x00, 0x00, 0x00 0x00, 0x00, 0x0e, 0x00,
   0x00, 0x00, 0x00, 0x88, 0xff, 0xff, 0x3f, 0x82, 0x40, 0x00, 0x80, 0xff,
   0xff, 0xbf, 0x20, 0x08, 0x00, 0x80, 0xff, 0xff, 0x3f, 0x00, 0x00, 0x00,
   0x80, 0x03, 0x00, 0x38, 0x00, 0x00, 0x00, 0xa0, 0x07, 0x00, 0x3c, 0x00,
   0x00, 0x00, 0x00, 0x0f, 0x00, 0x1e, 0xfe, 0x3f, 0x00, 0x00, 0x1e, 0x00,
   0x0f, 0xfe, 0xbf, 0x00 0x00, 0x3c, 0x80, 0x47, 0xfe, 0x3f, 0x00, 0x88,
   0x78, 0xc0, 0x03, 0x0e, 0x38, 0x00, 0x00, 0xf0, 0xe0, 0x11, 0x0e, 0x38,
   0x00, 0x00, 0xe8, 0xf1, 0x04, 0x0e, 0x38, 0x00, 0x00, 0xc0, 0x7b, 0x00,
   0x0e, 0x38, 0x01, 0x00, 0x81, 0xbf, 0x00, 0xfe, 0x3f, 0x00, 0x10, 0x00,
   0x3f, 0x00, 0x0e, 0x3b, 0x00, 0x00, 0x40, 0xfe, 0xff, 0xcf, 0x38, 0x00
   0x00, 0x00, 0xfe, 0xff, 0x3f, 0xb8, 0x00, 0x00, 0x08, 0xfe, 0xff, 0xcf,
   0x38, 0x00, 0x20, 0x02, 0x3f, 0x00, 0x0e, 0x3b, 0x00, 0x08, 0x80, 0x3f,
   0x80, 0xfe, 0x3f, 0x00, 0x00, 0xc0, 0x7b, 0x11, 0x0e, 0x38, 0x00, 0x00,
   0xe0, 0xf1, 0x00, 0x0e, 0xb8, 0x00, 0x00, 0xf0, 0xe0, 0x01, 0x0e, 0x38,
   0x00, 0x00, 0x78, 0xc0, 0x03, 0x0e, 0x38, 0x00 0x80, 0x3c, 0x80, 0x07,
   0xfe, 0x3f, 0x00, 0x10, 0x1e, 0x00, 0x2f, 0xfe, 0x3f, 0x00, 0x00, 0x0f,
   0x00, 0x1e, 0xfe, 0xbf, 0x00, 0x80, 0x07, 0x00, 0x3c, 0x00, 0x00, 0x00,
   0x80, 0x03, 0x00, 0x38, 0x22, 0x22, 0x00, 0x80, 0xff, 0xff, 0x3f, 0x00,
   0x00, 0x00, 0x88, 0xff, 0xff, 0x3f, 0x00, 0x00, 0x00, 0x80, 0xff, 0xff,
   0x3f, 0x00, 0x00, 0x00 0x00, 0x00, 0x0e, 0x80, 0x08, 0x00, 0x00, 0x80,
   0x20, 0x4e, 0x10, 0x00, 0x11, 0x00, 0x20, 0x08, 0x0e, 0x04, 0x00, 0x00,
   0x01, 0x00, 0x00, 0x0e, 0x00, 0x00, 0x00, 0x00, 0x00, 0x00, 0x0e, 0x00,
   0x20, 0x00, 0x00, 0x00, 0x00, 0x1e, 0x00, 0x04, 0x04, 0x00, 0x08, 0x00,
   0x0e, 0x01, 0x01, 0x40, 0x00, 0x00, 0x41, 0x0e, 0x40, 0x00, 0x00, 0x00
   0x00, 0x10, 0x0e, 0x00, 0x00, 0x00, 0x00, 0x00, 0x00, 0x0e, 0x10, 0x00,
   0x01, 0x00};
