#define valv_0e_width 50
#define valv_0e_height 50
static char valv_0e_bits[] = {
   0x00, 0x00, 0x0e, 0x00, 0x00, 0x00, 0x00, 0x00, 0x00, 0x0e, 0x00, 0x00,
   0x00, 0x00, 0x00, 0x00, 0x0e, 0x00, 0x00, 0x00, 0x00, 0x00, 0x00, 0x0e,
   0x00, 0x00, 0x00, 0x00, 0x00, 0x00, 0x0e, 0x00, 0x00, 0x00, 0x00, 0x20,
   0x22, 0x0e, 0x11, 0x11, 0x11, 0x01, 0x00, 0x00, 0x0e, 0x00, 0x00, 0x00,
   0x00, 0x00, 0x00, 0x4e, 0x00, 0x00, 0x00, 0x00 0x00, 0x00, 0x0e, 0x00,
   0x00, 0x00, 0x00, 0x88, 0xff, 0xff, 0x3f, 0x82, 0x40, 0x00, 0x80, 0xff,
   0xff, 0xbf, 0x20, 0x08, 0x00, 0x80, 0xff, 0xff, 0x3f, 0x00, 0x00, 0x00,
   0x80, 0x03, 0x00, 0x38, 0x00, 0x00, 0x00, 0xa0, 0x07, 0x00, 0x3c, 0x00,
   0x00, 0x00, 0x08, 0x0f, 0x00, 0x1e, 0x7e, 0x00, 0x00, 0x08, 0x1e, 0x00,
   0x0f, 0xfe, 0x89, 0x00 0x08, 0x3c, 0x80, 0x47, 0xfe, 0x03, 0x00, 0x88,
   0x78, 0xc0, 0x03, 0xce, 0x07, 0x00, 0x28, 0xf0, 0xe0, 0x11, 0x0e, 0x0f,
   0x00, 0x08, 0xe8, 0xf1, 0x04, 0x0e, 0x1e, 0x00, 0x08, 0xc0, 0x7b, 0x00,
   0x0e, 0x5c, 0x00, 0x08, 0x80, 0xbf, 0x00, 0x0e, 0x3c, 0x00, 0x08, 0x00,
   0x3f, 0x00, 0x0e, 0x38, 0x00, 0x18, 0x21, 0xfe, 0xff, 0x0f, 0x38, 0x00
   0x08, 0x00, 0xfe, 0xff, 0x0f, 0x38, 0x00, 0x08, 0x00, 0xfe, 0xff, 0x0f,
   0x38, 0x00, 0x08, 0x00, 0x3f, 0x00, 0x0e, 0xb8, 0x00, 0x08, 0xc4, 0x3f,
   0x80, 0x0e, 0x3c, 0x00, 0x28, 0xc0, 0xfb, 0x08, 0x0e, 0x1c, 0x00, 0x08,
   0xe0, 0xf1, 0x00, 0x0e, 0x1e, 0x00, 0x49, 0xf0, 0xe0, 0x01, 0x0e, 0x4f,
   0x00, 0x6b, 0x7a, 0xc0, 0x03, 0xce, 0x07, 0x00 0x3e, 0x3c, 0x80, 0x47,
   0xfe, 0x13, 0x00, 0x1c, 0x1e, 0x00, 0x0f, 0xfe, 0x01, 0x00, 0x48, 0x0f,
   0x00, 0x1e, 0x7e, 0x04, 0x00, 0x80, 0x07, 0x00, 0x3c, 0x00, 0x01, 0x00,
   0x80, 0x03, 0x00, 0x38, 0x42, 0x00, 0x00, 0x90, 0xff, 0xff, 0xbf, 0x00,
   0x00, 0x01, 0x80, 0xff, 0xff, 0x3f, 0x00, 0x00, 0x00, 0x80, 0xff, 0xff,
   0x3f, 0x00, 0x00, 0x00 0x00, 0x00, 0x0e, 0x00, 0x00, 0x40, 0x00, 0x00,
   0x00, 0x0e, 0x00, 0x10, 0x10, 0x00, 0x88, 0x20, 0x8e, 0x88, 0x00, 0x01,
   0x00, 0x00, 0x08, 0x2e, 0x00, 0x00, 0x00, 0x00, 0x00, 0x00, 0x0e, 0x00,
   0x00, 0x00, 0x00, 0x00, 0x00, 0x0e, 0x00, 0x08, 0x00, 0x00, 0x00, 0x00,
   0x0e, 0x00, 0x01, 0x11, 0x00, 0x10, 0x01, 0x0e, 0x08, 0x00, 0x00, 0x00
   0x00, 0x20, 0x2e, 0x02, 0x00, 0x00, 0x01, 0x00, 0x00, 0x0e, 0x00, 0x40,
   0x00, 0x00};
