#define valv_2w_width 50
#define valv_2w_height 50
static char valv_2w_bits[] = {
   0x00, 0x00, 0x00, 0xc0, 0x01, 0x00, 0x00, 0x00, 0x00, 0x00, 0xc0, 0x01,
   0x00, 0x00, 0x00, 0x00, 0x00, 0xc0, 0x01, 0x00, 0x00, 0x00, 0x00, 0x00,
   0xc0, 0x01, 0x00, 0x00, 0x00, 0x00, 0x00, 0xc0, 0x01, 0x00, 0x00, 0x20,
   0x22, 0x22, 0xc2, 0x21, 0x22, 0x00, 0x00, 0x00, 0x00, 0xe0, 0x01, 0x00,
   0x00, 0x00, 0x00, 0x00, 0xc0, 0x01, 0x00, 0x00 0x00, 0x00, 0x00, 0xc0,
   0x09, 0x00, 0x00, 0x88, 0x40, 0x10, 0xc4, 0x01, 0x88, 0x00, 0x00, 0x08,
   0xf4, 0xff, 0xff, 0x07, 0x00, 0x00, 0x00, 0xf0, 0xff, 0xff, 0x07, 0x00,
   0x00, 0x00, 0xf0, 0xff, 0xff, 0x07, 0x00, 0x00, 0x00, 0x70, 0x00, 0x00,
   0x07, 0x00, 0x10, 0x01, 0xf1, 0x00, 0x80, 0x17, 0x00, 0xf0, 0xff, 0xe1,
   0x01, 0xc0, 0x03, 0x01 0xf0, 0xff, 0xc1, 0x03, 0xe0, 0x01, 0x00, 0xf0,
   0xff, 0x81, 0x07, 0xf0, 0x00, 0x00, 0x70, 0xc0, 0x01, 0x0f, 0x78, 0x04,
   0x00, 0x70, 0xc0, 0x09, 0x1e, 0x3c, 0x40, 0x00, 0x70, 0xc0, 0x81, 0x3c,
   0x1e, 0x00, 0x00, 0x78, 0xc0, 0x01, 0x78, 0x0f, 0x01, 0x00, 0xf0, 0xff,
   0x01, 0xf0, 0x07, 0x00, 0x00, 0x70, 0xc3, 0x09, 0xf0, 0x03, 0x00, 0x00
   0x70, 0xcc, 0xff, 0xff, 0x21, 0x90, 0x00, 0x70, 0xf0, 0xff, 0xff, 0x01,
   0x04, 0x00, 0x70, 0xcc, 0xff, 0xff, 0x01, 0x00, 0x00, 0x70, 0xc3, 0x01,
   0xf0, 0x0b, 0x00, 0x00, 0xf0, 0xff, 0x01, 0xf2, 0x07, 0x00, 0x00, 0x70,
   0xc0, 0x41, 0x78, 0x0f, 0x01, 0x00, 0x70, 0xc0, 0x09, 0x3c, 0x1e, 0x40,
   0x00, 0x78, 0xc0, 0x01, 0x1e, 0x3c, 0x10, 0x00 0x70, 0xc0, 0x01, 0x0f,
   0x78, 0x00, 0x00, 0xf0, 0xff, 0x81, 0x07, 0xf0, 0x04, 0x00, 0xf0, 0xff,
   0xc1, 0x03, 0xe0, 0x01, 0x00, 0xf0, 0xff, 0xe9, 0x01, 0xc0, 0x03, 0x00,
   0x00, 0x00, 0xf0, 0x00, 0x80, 0x07, 0x00, 0x00, 0x00, 0x70, 0x00, 0x00,
   0x07, 0x01, 0x10, 0x42, 0xf0, 0xff, 0xff, 0x47, 0x00, 0x00, 0x00, 0xf4,
   0xff, 0xff, 0x17, 0x00 0x00, 0x00, 0xf0, 0xff, 0xff, 0x07, 0x00, 0x80,
   0x00, 0x00, 0xc0, 0x01, 0x00, 0x00, 0x10, 0x10, 0x01, 0xc0, 0x01, 0x02,
   0x00, 0x00, 0x00, 0x80, 0xc8, 0x89, 0x00, 0x00, 0x00, 0x00, 0x20, 0xc0,
   0x01, 0x00, 0x00, 0x00, 0x00, 0x00, 0xc0, 0x01, 0x80, 0x00, 0x00, 0x42,
   0x00, 0xc0, 0x01, 0x00, 0x00, 0x88, 0x00, 0x08, 0xc0, 0x05, 0x10, 0x00
   0x00, 0x00, 0x00, 0xc8, 0x41, 0x00, 0x00, 0x00, 0x00, 0x00, 0xc2, 0x01,
   0x00, 0x00};
