#define valv_0w_width 50
#define valv_0w_height 50
static char valv_0w_bits[] = {
   0x00, 0x00, 0x00, 0xc0, 0x01, 0x00, 0x00, 0x00, 0x00, 0x00, 0xc0, 0x01,
   0x00, 0x00, 0x00, 0x00, 0x00, 0xc0, 0x01, 0x00, 0x00, 0x00, 0x00, 0x00,
   0xc0, 0x01, 0x00, 0x00, 0x00, 0x00, 0x00, 0xc0, 0x01, 0x00, 0x00, 0x20,
   0x22, 0x22, 0xc2, 0x21, 0x22, 0x00, 0x00, 0x00, 0x00, 0xe0, 0x01, 0x00,
   0x00, 0x00, 0x00, 0x00, 0xc0, 0x01, 0x00, 0x00 0x00, 0x00, 0x00, 0xc0,
   0x09, 0x00, 0x00, 0x88, 0x40, 0x10, 0xc4, 0x01, 0x88, 0x00, 0x00, 0x08,
   0xf4, 0xff, 0xff, 0x07, 0x00, 0x00, 0x00, 0xf0, 0xff, 0xff, 0x07, 0x00,
   0x00, 0x00, 0xf0, 0xff, 0xff, 0x07, 0x00, 0x00, 0x00, 0x70, 0x00, 0x00,
   0x07, 0x00, 0x10, 0x01, 0xf1, 0x00, 0x80, 0x17, 0x00, 0x00, 0xf8, 0xe1,
   0x01, 0xc0, 0x43, 0x01 0x00, 0xfe, 0xc1, 0x03, 0xe0, 0xe1, 0x00, 0x00,
   0xff, 0x81, 0x07, 0xf0, 0xf0, 0x01, 0xa0, 0xcf, 0x01, 0x0f, 0x78, 0x5c,
   0x03, 0xc8, 0xc3, 0x09, 0x1e, 0x3c, 0x48, 0x02, 0xe0, 0xc1, 0x81, 0x3c,
   0x1e, 0x40, 0x00, 0xe0, 0xc0, 0x01, 0x78, 0x0f, 0x41, 0x00, 0xf0, 0xc0,
   0x01, 0xf0, 0x07, 0x40, 0x00, 0x70, 0xc0, 0x05, 0xf0, 0x03, 0xc0, 0x00
   0x70, 0xc0, 0xff, 0xff, 0x21, 0x50, 0x00, 0x70, 0xc0, 0xff, 0xff, 0x01,
   0x40, 0x00, 0x70, 0xc0, 0xff, 0xff, 0x01, 0x42, 0x00, 0x70, 0xc0, 0x01,
   0xf0, 0x0b, 0x40, 0x00, 0xf0, 0xc0, 0x01, 0xf1, 0x07, 0x40, 0x00, 0xe8,
   0xc0, 0x21, 0x78, 0x0f, 0x40, 0x00, 0xe0, 0xc1, 0x09, 0x3c, 0x1e, 0x41,
   0x00, 0xc0, 0xc3, 0x01, 0x1e, 0x3c, 0x50, 0x01 0x80, 0xcf, 0x01, 0x0f,
   0x78, 0x40, 0x00, 0x00, 0xff, 0x81, 0x07, 0xf0, 0x40, 0x00, 0x20, 0xfe,
   0xc1, 0x03, 0xe0, 0x41, 0x00, 0x00, 0xf8, 0xf1, 0x01, 0xc0, 0x4b, 0x00,
   0x00, 0x00, 0xf4, 0x00, 0x80, 0x07, 0x00, 0x08, 0x02, 0x70, 0x00, 0x00,
   0x07, 0x00, 0x00, 0x40, 0xf0, 0xff, 0xff, 0x87, 0x00, 0x00, 0x00, 0xf0,
   0xff, 0xff, 0x07, 0x00 0x80, 0x00, 0xf0, 0xff, 0xff, 0x27, 0x00, 0x00,
   0x10, 0x00, 0xc0, 0x01, 0x00, 0x00, 0x10, 0x00, 0x02, 0xc0, 0x11, 0x02,
   0x00, 0x00, 0x00, 0x00, 0xc0, 0x05, 0x00, 0x00, 0x00, 0x00, 0x20, 0xe2,
   0x01, 0x00, 0x00, 0x00, 0x42, 0x00, 0xc0, 0x01, 0x20, 0x00, 0x40, 0x00,
   0x00, 0xc0, 0x01, 0x02, 0x00, 0x10, 0x00, 0x04, 0xc0, 0x81, 0x00, 0x00
   0x00, 0x00, 0x00, 0xc0, 0x01, 0x00, 0x00, 0x00, 0x10, 0x40, 0xe2, 0x11,
   0x80, 0x00};
