#define valv_3n_width 50
#define valv_3n_height 50
static char valv_3n_bits[] = {
   0x00, 0x00, 0x00, 0x00, 0x00, 0x00, 0x00, 0x00, 0x00, 0x00, 0x00, 0x00,
   0x00, 0x00, 0x00, 0x00, 0x00, 0x00, 0x00, 0x00, 0x00, 0x00, 0x00, 0x00,
   0x00, 0x00, 0x00, 0x00, 0x00, 0x00, 0xe0, 0x0f, 0x00, 0x00, 0x00, 0x20,
   0x22, 0xfa, 0x7f, 0x44, 0x44, 0x00, 0x00, 0x00, 0xfc, 0x7f, 0x00, 0x00,
   0x00, 0x00, 0x00, 0x3e, 0xf8, 0x00, 0x00, 0x00 0x00, 0x00, 0x0f, 0xe0,
   0x01, 0x00, 0x00, 0x88, 0xc0, 0x07, 0xc0, 0x83, 0x20, 0x00, 0x00, 0x88,
   0x03, 0x80, 0x13, 0x08, 0x00, 0x00, 0xc0, 0x03, 0x80, 0x07, 0x00, 0x00,
   0x00, 0xc0, 0x01, 0x00, 0x07, 0x00, 0x00, 0x00, 0xc0, 0x01, 0x00, 0x07,
   0x00, 0x00, 0x10, 0xc1, 0xff, 0xff, 0x07, 0x01, 0x00, 0x00, 0xc0, 0xff,
   0xff, 0x27, 0x40, 0x00 0x00, 0xd0, 0xff, 0xff, 0x07, 0x00, 0x00, 0x00,
   0x00, 0x80, 0x03, 0x00, 0x10, 0x00, 0x20, 0x00, 0x80, 0x43, 0x08, 0x00,
   0x00, 0x08, 0x02, 0x80, 0x13, 0x00, 0x04, 0x00, 0x00, 0xbe, 0xc4, 0x03,
   0xf8, 0x00, 0x00, 0x00, 0x7e, 0x80, 0x03, 0xfc, 0x00, 0x00, 0x00, 0xfe,
   0x80, 0x03, 0xfe, 0x00, 0x01, 0x00, 0xee, 0x81, 0x03, 0xef, 0x42, 0x00
   0x00, 0xce, 0x83, 0xa3, 0xe7, 0x00, 0x00, 0x10, 0x8f, 0xa7, 0xc3, 0xe3,
   0x00, 0x00, 0x00, 0x0e, 0x8f, 0xe3, 0xe1, 0x00, 0x00, 0x00, 0x0e, 0x9e,
   0xf3, 0xe0, 0x10, 0x00, 0x00, 0x0e, 0xfc, 0x7f, 0xe0, 0x04, 0x00, 0x20,
   0x0e, 0xf8, 0x3f, 0xe0, 0x00, 0x00, 0xff, 0x0f, 0xf0, 0x1f, 0xe0, 0xff,
   0x03, 0xff, 0x0f, 0xe0, 0x0f, 0xe0, 0xff, 0x03 0xff, 0x0f, 0xf0, 0x1f,
   0xe0, 0xff, 0x03, 0x00, 0x0e, 0x78, 0x3c, 0xe0, 0x00, 0x00, 0x00, 0x0e,
   0x3c, 0x78, 0xe0, 0x00, 0x00, 0x00, 0x0e, 0x1e, 0xf0, 0xe0, 0x04, 0x00,
   0x20, 0x0e, 0x0f, 0xe1, 0xe1, 0x40, 0x00, 0x00, 0x8e, 0x47, 0xc8, 0xe3,
   0x00, 0x00, 0x00, 0xce, 0xa3, 0xc8, 0xe7, 0x00, 0x00, 0x00, 0xef, 0xa5,
   0x04, 0xef, 0x02, 0x00 0x08, 0xfe, 0xa4, 0x04, 0xfe, 0x40, 0x00, 0x00,
   0x7e, 0x14, 0x05, 0xfc, 0x00, 0x00, 0x00, 0x3e, 0x14, 0x05, 0xf8, 0x00,
   0x00, 0x40, 0x00, 0x08, 0xe2, 0x00, 0x08, 0x00, 0x00, 0x80, 0x88, 0x82,
   0x85, 0x00, 0x00, 0x00, 0x10, 0x00, 0x00, 0x03, 0x00, 0x01, 0x10, 0xc4,
   0xff, 0xff, 0x07, 0x00, 0x00, 0x00, 0x00, 0x00, 0x00, 0x03, 0x20, 0x00
   0x00, 0x00, 0x10, 0x80, 0x21, 0x04, 0x00, 0x00, 0x01, 0x04, 0xc4, 0x08,
   0x00, 0x00};
