#define valv_2n_width 50
#define valv_2n_height 50
static char valv_2n_bits[] = {
   0x00, 0x00, 0x00, 0x00, 0x00, 0x00, 0x00, 0x00, 0x00, 0x00, 0x00, 0x00,
   0x00, 0x00, 0x00, 0x00, 0x00, 0x00, 0x00, 0x00, 0x00, 0x00, 0x00, 0x00,
   0x00, 0x00, 0x00, 0x00, 0x00, 0xc0, 0xff, 0xff, 0x07, 0x00, 0x00, 0x20,
   0xe2, 0xff, 0xff, 0x17, 0x11, 0x01, 0x00, 0xc0, 0xff, 0xff, 0x07, 0x00,
   0x00, 0x00, 0xc0, 0x21, 0x08, 0x07, 0x00, 0x00 0x00, 0xc0, 0x61, 0x0c,
   0x07, 0x00, 0x00, 0x88, 0xc0, 0x61, 0x0c, 0x47, 0x20, 0x00, 0x00, 0xc8,
   0xa1, 0x0a, 0x17, 0x04, 0x00, 0x00, 0xc0, 0xa1, 0x0a, 0x07, 0x00, 0x00,
   0x00, 0xc0, 0x21, 0x09, 0x07, 0x00, 0x00, 0x00, 0xc0, 0x21, 0x09, 0x07,
   0x00, 0x00, 0x10, 0xc1, 0xff, 0xff, 0x07, 0x80, 0x00, 0x00, 0xd0, 0xff,
   0xff, 0x17, 0x22, 0x00 0x00, 0xc0, 0xff, 0xff, 0x07, 0x00, 0x00, 0x00,
   0x00, 0x80, 0x03, 0x00, 0x00, 0x00, 0x20, 0x00, 0x80, 0x13, 0x01, 0x00,
   0x00, 0x08, 0x82, 0x88, 0x03, 0x40, 0x04, 0x00, 0x00, 0x3e, 0x80, 0x03,
   0xf8, 0x00, 0x00, 0x00, 0x7e, 0x80, 0x07, 0xfc, 0x40, 0x00, 0x00, 0xfe,
   0xc0, 0x03, 0xfe, 0x00, 0x00, 0x00, 0xee, 0x91, 0x83, 0xef, 0x00, 0x00
   0x00, 0xce, 0x83, 0x83, 0xe7, 0x08, 0x00, 0x10, 0x8f, 0x87, 0xc3, 0xe3,
   0x00, 0x00, 0x00, 0x0e, 0x8f, 0xe3, 0xe1, 0x80, 0x00, 0x00, 0x0e, 0x9e,
   0xf3, 0xe0, 0x02, 0x00, 0x00, 0x0e, 0xfc, 0x7f, 0xe0, 0x00, 0x00, 0x20,
   0x0e, 0xf8, 0x3f, 0xe0, 0x00, 0x00, 0xff, 0x0f, 0xf0, 0x1f, 0xe0, 0xff,
   0x03, 0xff, 0x0f, 0xe0, 0x0f, 0xe0, 0xff, 0x03 0xff, 0x0f, 0xf0, 0x1f,
   0xe0, 0xff, 0x03, 0x00, 0x0e, 0x78, 0x3c, 0xe0, 0x00, 0x00, 0x00, 0x0e,
   0x3c, 0x78, 0xe0, 0x10, 0x01, 0x00, 0x0e, 0x1e, 0xf1, 0xe0, 0x04, 0x00,
   0x20, 0x0e, 0x0f, 0xe0, 0xe1, 0x00, 0x00, 0x00, 0x8e, 0x47, 0xc0, 0xe3,
   0x00, 0x00, 0x00, 0xce, 0x03, 0x90, 0xe7, 0x00, 0x00, 0x00, 0xef, 0x01,
   0x00, 0xef, 0x00, 0x00 0x08, 0xfe, 0x08, 0x00, 0xfe, 0x22, 0x00, 0x00,
   0x7e, 0x00, 0x02, 0xfd, 0x00, 0x00, 0x00, 0x3e, 0x00, 0x40, 0xf8, 0x00,
   0x00, 0x40, 0x00, 0x41, 0x00, 0x00, 0x00, 0x00, 0x00, 0x00, 0x00, 0x00,
   0x00, 0x88, 0x00, 0x00, 0x10, 0x00, 0x10, 0x20, 0x01, 0x00, 0x10, 0x04,
   0x08, 0x00, 0x00, 0x00, 0x00, 0x00, 0x00, 0x00, 0x02, 0x08, 0x00, 0x00
   0x00, 0x00, 0x02, 0x00, 0x02, 0x00, 0x00, 0x00, 0x01, 0x80, 0x00, 0x00,
   0x40, 0x00};
