#define vens_0n_width 65
#define vens_0n_height 65
static char vens_0n_bits[] = {
   0x00, 0x00, 0x00, 0x00, 0x00, 0x00, 0x00, 0x00, 0x00, 0x00, 0x00, 0x00,
   0x00, 0x00, 0x00, 0x00, 0x00, 0x00, 0x00, 0x00, 0x00, 0x00, 0x00, 0x00,
   0x00, 0x00, 0x00, 0x00, 0x00, 0x00, 0x00, 0x00, 0x00, 0x00, 0x00, 0x00,
   0x00, 0x00, 0x00, 0xf8, 0x0f, 0x00, 0x00, 0x00, 0x00, 0x00, 0x00, 0x80,
   0x07, 0xf0, 0x00, 0x00, 0x00, 0x00, 0x00, 0x00, 0x60, 0x00, 0x00, 0x03,
   0x00, 0x00, 0x00, 0x00, 0x00, 0x18, 0xfc, 0x1f, 0x0c, 0x00, 0x00, 0x00
   0x00, 0x00, 0x86, 0xf3, 0xe7, 0x30, 0x00, 0x00, 0x00, 0x00, 0x00, 0x61,
   0xf0, 0x07, 0x43, 0x00, 0x00, 0x00, 0x00, 0x80, 0x18, 0xf0, 0x07, 0x8e,
   0x00, 0x00, 0x00, 0x00, 0x40, 0x04, 0xf0, 0x07, 0x10, 0x01, 0x00, 0x00,
   0x00, 0x20, 0x0e, 0xe0, 0x03, 0x30, 0x02, 0x00, 0x00, 0x00, 0x10, 0x1f,
   0xe0, 0x03, 0x78, 0x04, 0x00, 0x00, 0x00, 0x88, 0x1f, 0xe0, 0x03, 0xfc,
   0x08, 0x00, 0x00, 0x00, 0xc8, 0x3f, 0xe0, 0x03, 0xfe, 0x09, 0x00, 0x00
   0x00, 0xe4, 0x7f, 0xe0, 0x03, 0xfe, 0x13, 0x00, 0x00, 0x00, 0xa4, 0xff,
   0xe0, 0x03, 0xff, 0x12, 0x00, 0x00, 0x00, 0x12, 0xff, 0xe0, 0x83, 0x3f,
   0x24, 0x00, 0x00, 0x00, 0x12, 0xfc, 0xc1, 0xc1, 0x1f, 0x24, 0x00, 0x00,
   0x00, 0x09, 0xf8, 0xc3, 0xe1, 0x07, 0x48, 0x00, 0x00, 0x00, 0x09, 0xf0,
   0xc7, 0xe1, 0x03, 0x48, 0x00, 0x00, 0x00, 0x09, 0xc0, 0xc7, 0xf1, 0x00,
   0x48, 0x00, 0x00, 0x00, 0x05, 0x80, 0xef, 0x7b, 0x00, 0x50, 0x00, 0x00
   0x80, 0x04, 0x00, 0x1f, 0x1c, 0x00, 0x90, 0x00, 0x00, 0x80, 0x7c, 0x00,
   0xcc, 0x09, 0x00, 0x9f, 0x00, 0x00, 0x80, 0xfc, 0x3f, 0x24, 0x12, 0xfe,
   0x9f, 0x00, 0x00, 0x80, 0xfc, 0xff, 0x17, 0xf4, 0xff, 0x9f, 0x00, 0x00,
   0x80, 0xfc, 0xff, 0x17, 0xf4, 0xff, 0x9f, 0x00, 0x00, 0x80, 0xfc, 0xff,
   0x17, 0xf4, 0xff, 0x9f, 0x00, 0x00, 0x80, 0xfc, 0x3f, 0x24, 0x12, 0xfe,
   0x9f, 0x00, 0x00, 0x80, 0x7c, 0x00, 0xcc, 0x19, 0x00, 0x9f, 0x00, 0x00
   0x80, 0x04, 0x00, 0x1e, 0x3c, 0x00, 0x90, 0x00, 0x00, 0x00, 0x05, 0x80,
   0xef, 0xfb, 0x00, 0x50, 0x00, 0x00, 0x00, 0x09, 0xc0, 0xc7, 0xf1, 0x01,
   0x48, 0x00, 0x00, 0x00, 0x09, 0xe0, 0xc3, 0xf1, 0x03, 0x48, 0x00, 0x00,
   0x00, 0x09, 0xf8, 0xc3, 0xe1, 0x07, 0x48, 0x00, 0x00, 0x00, 0x12, 0xfc,
   0xc1, 0xc1, 0x0f, 0x24, 0x00, 0x00, 0x00, 0x12, 0xfe, 0xe0, 0x83, 0x3f,
   0x24, 0x00, 0x00, 0x00, 0xa4, 0x7f, 0xe0, 0x83, 0x7f, 0x12, 0x00, 0x00
   0x00, 0xe4, 0x3f, 0xe0, 0x03, 0xff, 0x12, 0x00, 0x00, 0x00, 0xc8, 0x1f,
   0xe0, 0x03, 0xfe, 0x09, 0x00, 0x00, 0x00, 0x88, 0x1f, 0xe0, 0x03, 0xfc,
   0x08, 0x00, 0x00, 0x00, 0x10, 0x0f, 0xe0, 0x03, 0x7c, 0x04, 0x00, 0x00,
   0x00, 0x20, 0x06, 0xe0, 0x03, 0x38, 0x02, 0x00, 0x00, 0x00, 0x40, 0x04,
   0xf0, 0x07, 0x10, 0x01, 0x00, 0x00, 0x00, 0x80, 0x18, 0xf0, 0x07, 0x8c,
   0x00, 0x00, 0x00, 0x00, 0x00, 0x61, 0xf0, 0x07, 0x43, 0x00, 0x00, 0x00
   0x00, 0x00, 0x86, 0xf3, 0xe7, 0x30, 0x00, 0x00, 0x00, 0x00, 0x00, 0x18,
   0xfc, 0x1f, 0x0c, 0x00, 0x00, 0x00, 0x00, 0x00, 0x60, 0x00, 0x00, 0x03,
   0x00, 0x00, 0x00, 0x00, 0x00, 0x80, 0x07, 0xf0, 0x00, 0x00, 0x00, 0x00,
   0x00, 0x00, 0x00, 0xf8, 0x0f, 0x00, 0x00, 0x00, 0x00, 0x00, 0x00, 0x00,
   0x00, 0x00, 0x00, 0x00, 0x00, 0x00, 0x00, 0x00, 0x00, 0x00, 0x00, 0x00,
   0x00, 0x00, 0x00, 0x00, 0x00, 0x00, 0x00, 0x00, 0x00, 0x00, 0x00, 0x00
   0x00, 0x00, 0x00, 0x00, 0x00, 0x00, 0x00, 0x00, 0x00, 0x00, 0x00, 0x00,
   0x00, 0x00, 0x00, 0x00, 0x00, 0x00, 0x00, 0x00, 0x00, 0x00, 0x00, 0x00,
   0x00, 0x00, 0x00, 0x00, 0x00, 0x00, 0x00, 0x00, 0x00, 0x00, 0x00, 0x00,
   0x00, 0x00, 0x00, 0x00, 0x00, 0x00, 0x00, 0x00, 0x00, 0x00, 0x00, 0x00,
   0x00, 0x00, 0x00, 0x00, 0x00, 0x00, 0x00, 0x00, 0x00, 0x00, 0x00, 0x00,
   0x00, 0x00, 0x00, 0x00, 0x00, 0x00, 0x00, 0x00, 0x00, 0x00, 0x00, 0x00
   0x00, 0x00, 0x00, 0x00, 0x00, 0x00, 0x00, 0x00, 0x00};
