#define vent_3n_width 70
#define vent_3n_height 50
static char vent_3n_bits[] = {
   0xff, 0xff, 0xff, 0xff, 0xff, 0x0f, 0x00, 0x00, 0x00, 0xff, 0xff, 0xff,
   0xff, 0xff, 0xff, 0x00, 0x00, 0x00, 0xff, 0xff, 0xff, 0xff, 0xff, 0xff,
   0x03, 0x00, 0x00, 0x07, 0x00, 0x00, 0x00, 0x00, 0xf0, 0x0f, 0x00, 0x00,
   0x07, 0x00, 0x00, 0x00, 0x00, 0x00, 0x3f, 0x00, 0x00, 0x07, 0x3c, 0x00,
   0x00, 0x00, 0x00, 0x7c, 0x00, 0x00, 0x07, 0x44, 0x00, 0x00, 0x00, 0x00,
   0xf0, 0x00, 0x00, 0x07, 0x44, 0x4e, 0x44, 0x4e, 0x01, 0xe0, 0x01, 0x00
   0x07, 0x44, 0x51, 0x4a, 0xd1, 0x00, 0xc0, 0x03, 0x00, 0x07, 0x3c, 0x91,
   0x2a, 0x5f, 0x00, 0x80, 0x07, 0x00, 0x07, 0x04, 0x91, 0x2a, 0x41, 0x00,
   0x00, 0x0f, 0x00, 0x07, 0x04, 0x11, 0x11, 0x51, 0x00, 0x00, 0x0e, 0x00,
   0x07, 0x04, 0x0e, 0x11, 0x4e, 0x00, 0x00, 0x1c, 0x00, 0x07, 0x00, 0x00,
   0x00, 0x00, 0x00, 0x00, 0x1c, 0x00, 0x07, 0x00, 0x00, 0x00, 0x00, 0x00,
   0x00, 0x38, 0x00, 0x07, 0x00, 0x00, 0x00, 0x00, 0x00, 0x00, 0x38, 0x00
   0xff, 0xff, 0x07, 0x00, 0x00, 0x00, 0x00, 0x70, 0x00, 0xff, 0xff, 0x07,
   0x00, 0x00, 0x00, 0x00, 0x70, 0x00, 0xff, 0xff, 0x07, 0x00, 0x00, 0x00,
   0x00, 0x70, 0x00, 0x00, 0x00, 0x07, 0x00, 0xe0, 0x03, 0x00, 0x70, 0x00,
   0x00, 0x80, 0x03, 0x00, 0xf0, 0x07, 0x00, 0xe0, 0x00, 0x00, 0x80, 0x03,
   0x00, 0x18, 0x0c, 0x00, 0xe0, 0x00, 0x00, 0x80, 0x03, 0x00, 0x0c, 0x18,
   0x00, 0xe0, 0x00, 0x00, 0x80, 0x03, 0x00, 0x0c, 0x18, 0x00, 0xe0, 0x00
   0x00, 0x80, 0x03, 0x00, 0x0c, 0x18, 0x00, 0xe0, 0x00, 0x00, 0x80, 0x03,
   0x00, 0x0c, 0x18, 0x00, 0xe0, 0x00, 0x00, 0x80, 0x03, 0x00, 0x0c, 0x18,
   0x00, 0xe0, 0x00, 0x00, 0x80, 0x03, 0x00, 0x18, 0x0c, 0x00, 0xe0, 0x00,
   0x00, 0x80, 0x03, 0x00, 0xf0, 0x07, 0x00, 0xe0, 0x00, 0x00, 0x00, 0x07,
   0x00, 0xe0, 0x03, 0x00, 0x70, 0x00, 0x00, 0x00, 0x07, 0x00, 0x00, 0x00,
   0x00, 0x70, 0x00, 0x00, 0x00, 0x07, 0x00, 0x00, 0x00, 0x00, 0x70, 0x00
   0x00, 0x00, 0x07, 0x00, 0x00, 0x00, 0x00, 0x70, 0x00, 0x00, 0x00, 0x0e,
   0x00, 0x00, 0x00, 0x00, 0xf8, 0x3f, 0x00, 0x00, 0x0e, 0x00, 0x00, 0x00,
   0x00, 0xf8, 0x3f, 0x00, 0x00, 0x1e, 0x00, 0x00, 0x00, 0x00, 0xfc, 0x3f,
   0x00, 0x00, 0x1c, 0x00, 0x00, 0x00, 0x00, 0x1c, 0x38, 0x00, 0x00, 0x38,
   0x00, 0x00, 0x00, 0x00, 0x0e, 0x38, 0x00, 0x00, 0x78, 0x00, 0x00, 0x00,
   0x00, 0x0f, 0x38, 0x00, 0x00, 0xf0, 0x00, 0x00, 0x00, 0x80, 0x07, 0x38
   0x00, 0x00, 0xe0, 0x01, 0x00, 0x00, 0xc0, 0x03, 0x38, 0x00, 0x00, 0xc0,
   0x03, 0x00, 0x00, 0xe0, 0x01, 0x38, 0x00, 0x00, 0x80, 0x07, 0x00, 0x00,
   0xf0, 0x00, 0x38, 0x00, 0x00, 0x00, 0x1f, 0x00, 0x00, 0x7c, 0x00, 0x38,
   0x00, 0x00, 0x00, 0x7e, 0x00, 0x00, 0x3f, 0x00, 0x38, 0x00, 0x00, 0x00,
   0xf8, 0x07, 0xf0, 0x0f, 0x00, 0x38, 0x00, 0x00, 0x00, 0xe0, 0xff, 0xff,
   0xff, 0xff, 0x3f, 0x00, 0x00, 0x00, 0x80, 0xff, 0xff, 0xff, 0xff, 0x3f
   0x00, 0x00, 0x00, 0x00, 0xf8, 0xff, 0xff, 0xff, 0x3f, 0x00, 0x00, 0x00,
   0x00, 0x00, 0x00, 0x00, 0x00, 0x00};
