#define vent_2n_width 70
#define vent_2n_height 50
static char vent_2n_bits[] = {
   0x00, 0x00, 0x00, 0xfc, 0xff, 0xff, 0xff, 0xff, 0x3f, 0x00, 0x00, 0xc0,
   0xff, 0xff, 0xff, 0xff, 0xff, 0x3f, 0x00, 0x00, 0xf0, 0xff, 0xff, 0xff,
   0xff, 0xff, 0x3f, 0x00, 0x00, 0xfc, 0x03, 0x00, 0x00, 0x00, 0x00, 0x38,
   0x00, 0x00, 0x3f, 0x00, 0x00, 0x00, 0x00, 0x00, 0x38, 0x00, 0x80, 0x0f,
   0xe0, 0x01, 0x00, 0x00, 0x00, 0x38, 0x00, 0xc0, 0x03, 0x20, 0x02, 0x00,
   0x00, 0x00, 0x38, 0x00, 0xe0, 0x01, 0x20, 0x72, 0x22, 0x72, 0x0a, 0x38
   0x00, 0xf0, 0x00, 0x20, 0x8a, 0x52, 0x8a, 0x06, 0x38, 0x00, 0x78, 0x00,
   0xe0, 0x89, 0x54, 0xf9, 0x02, 0x38, 0x00, 0x3c, 0x00, 0x20, 0x88, 0x54,
   0x09, 0x02, 0x38, 0x00, 0x1c, 0x00, 0x20, 0x88, 0x88, 0x88, 0x02, 0x38,
   0x00, 0x0e, 0x00, 0x20, 0x70, 0x88, 0x70, 0x02, 0x38, 0x00, 0x0e, 0x00,
   0x00, 0x00, 0x00, 0x00, 0x00, 0x38, 0x00, 0x07, 0x00, 0x00, 0x00, 0x00,
   0x00, 0x00, 0x38, 0x00, 0x07, 0x00, 0x00, 0x00, 0x00, 0x00, 0x00, 0x38
   0x80, 0x03, 0x00, 0x00, 0x00, 0x00, 0xf8, 0xff, 0x3f, 0x80, 0x03, 0x00,
   0x00, 0x00, 0x00, 0xf8, 0xff, 0x3f, 0x80, 0x03, 0x00, 0x00, 0x00, 0x00,
   0xf8, 0xff, 0x3f, 0x80, 0x03, 0x00, 0xf0, 0x01, 0x00, 0x38, 0x00, 0x00,
   0xc0, 0x01, 0x00, 0xf8, 0x03, 0x00, 0x30, 0x00, 0x00, 0xc0, 0x01, 0x00,
   0x0c, 0x06, 0x00, 0x70, 0x00, 0x00, 0xc0, 0x01, 0x00, 0x06, 0x0c, 0x00,
   0x70, 0x00, 0x00, 0xc0, 0x01, 0x00, 0x06, 0x0c, 0x00, 0x70, 0x00, 0x00
   0xc0, 0x01, 0x00, 0x06, 0x0c, 0x00, 0x70, 0x00, 0x00, 0xc0, 0x01, 0x00,
   0x06, 0x0c, 0x00, 0x70, 0x00, 0x00, 0xc0, 0x01, 0x00, 0x06, 0x0c, 0x00,
   0x70, 0x00, 0x00, 0xc0, 0x01, 0x00, 0x0c, 0x06, 0x00, 0x70, 0x00, 0x00,
   0xc0, 0x01, 0x00, 0xf8, 0x03, 0x00, 0x70, 0x00, 0x00, 0x80, 0x03, 0x00,
   0xf0, 0x01, 0x00, 0x38, 0x00, 0x00, 0x80, 0x03, 0x00, 0x00, 0x00, 0x00,
   0x38, 0x00, 0x00, 0x80, 0x03, 0x00, 0x00, 0x00, 0x00, 0x38, 0x00, 0x00
   0x80, 0x03, 0x00, 0x00, 0x00, 0x00, 0x38, 0x00, 0x00, 0xff, 0x07, 0x00,
   0x00, 0x00, 0x00, 0x1c, 0x00, 0x00, 0xff, 0x07, 0x00, 0x00, 0x00, 0x00,
   0x1c, 0x00, 0x00, 0xff, 0x0f, 0x00, 0x00, 0x00, 0x00, 0x0e, 0x00, 0x00,
   0x07, 0x0e, 0x00, 0x00, 0x00, 0x00, 0x0e, 0x00, 0x00, 0x07, 0x1c, 0x00,
   0x00, 0x00, 0x00, 0x07, 0x00, 0x00, 0x07, 0x3c, 0x00, 0x00, 0x00, 0x80,
   0x07, 0x00, 0x00, 0x07, 0x78, 0x00, 0x00, 0x00, 0xc0, 0x03, 0x00, 0x00
   0x07, 0xf0, 0x00, 0x00, 0x00, 0xe0, 0x01, 0x00, 0x00, 0x07, 0xe0, 0x01,
   0x00, 0x00, 0xf0, 0x00, 0x00, 0x00, 0x07, 0xc0, 0x03, 0x00, 0x00, 0x78,
   0x00, 0x00, 0x00, 0x07, 0x80, 0x0f, 0x00, 0x00, 0x3e, 0x00, 0x00, 0x00,
   0x07, 0x00, 0x3f, 0x00, 0x80, 0x1f, 0x00, 0x00, 0x00, 0x07, 0x00, 0xfc,
   0x03, 0xf8, 0x07, 0x00, 0x00, 0x00, 0xff, 0xff, 0xff, 0xff, 0xff, 0x01,
   0x00, 0x00, 0x00, 0xff, 0xff, 0xff, 0xff, 0x7f, 0x00, 0x00, 0x00, 0x00
   0xff, 0xff, 0xff, 0xff, 0x07, 0x00, 0x00, 0x00, 0x00, 0x00, 0x00, 0x00,
   0x00, 0x00, 0x00, 0x00, 0x00, 0x00};
