#define zavo_0n_width 30
#define zavo_0n_height 70
static char zavo_0n_bits[] = {
   0x00, 0x00, 0x00, 0x00, 0x00, 0x00, 0x00, 0x00, 0x00, 0x00, 0x00, 0x00,
   0x00, 0xff, 0xff, 0x00, 0x00, 0xff, 0xff, 0x00, 0x00, 0xff, 0xff, 0x00,
   0x00, 0xff, 0xff, 0x00, 0x00, 0xc0, 0x01, 0x00 0x00, 0xc0, 0x01, 0x00,
   0x00, 0xc0, 0x01, 0x00, 0x00, 0xc0, 0x01, 0x00, 0x00, 0xff, 0x7f, 0x00,
   0x00, 0xff, 0x7f, 0x00, 0x00, 0xff, 0x7f, 0x00, 0x00, 0x01, 0x60, 0x00,
   0x00, 0x01, 0x60, 0x00 0x00, 0x01, 0x60, 0x00, 0x00, 0x01, 0x60, 0x00,
   0x00, 0x01, 0xe0, 0x3f, 0x00, 0x01, 0xe0, 0x3f, 0x00, 0x01, 0x60, 0x3f,
   0x00, 0x01, 0x60, 0x3c, 0x00, 0x01, 0x60, 0x3e, 0x00, 0x01, 0x60, 0x37
   0x00, 0x01, 0xe0, 0x33, 0x00, 0x01, 0xe0, 0x21, 0x00, 0x01, 0xf0, 0x00,
   0x00, 0x01, 0x78, 0x00, 0x00, 0x01, 0x7c, 0x00, 0x00, 0x01, 0x6e, 0x00,
   0x00, 0x01, 0x67, 0x00, 0x00, 0x81, 0x63, 0x00 0x00, 0xc1, 0x61, 0x00,
   0x00, 0xe1, 0x60, 0x00, 0x00, 0xf1, 0x60, 0x00, 0x00, 0x79, 0x60, 0x00,
   0x00, 0x1d, 0x60, 0x00, 0x00, 0x0f, 0x60, 0x00, 0x80, 0x07, 0x60, 0x00,
   0xc0, 0x01, 0x60, 0x00 0xe0, 0x01, 0x60, 0x00, 0x70, 0x01, 0x60, 0x00,
   0xf8, 0x01, 0x60, 0x00, 0x3c, 0x01, 0x60, 0x00, 0x0c, 0x01, 0x60, 0x00,
   0x00, 0x01, 0x60, 0x00, 0x00, 0x01, 0x60, 0x00, 0x00, 0x01, 0x60, 0x00
   0x00, 0x01, 0x60, 0x00, 0x00, 0x01, 0x60, 0x00, 0x00, 0x01, 0x60, 0x00,
   0x00, 0x01, 0x60, 0x00, 0x00, 0x01, 0x60, 0x00, 0x00, 0xff, 0x7f, 0x00,
   0x00, 0xff, 0x7f, 0x00, 0x00, 0xff, 0x7f, 0x00 0x00, 0xc0, 0x03, 0x00,
   0x00, 0xc0, 0x03, 0x00, 0x00, 0xc0, 0x03, 0x00, 0x00, 0xc0, 0x03, 0x00,
   0x00, 0xf8, 0x1f, 0x00, 0x00, 0xf8, 0x1f, 0x00, 0x00, 0xf8, 0x1f, 0x00,
   0x00, 0xf0, 0x0f, 0x00 0x00, 0xc0, 0x03, 0x00, 0x00, 0xc0, 0x03, 0x00,
   0x00, 0x00, 0x00, 0x00, 0x00, 0x00, 0x00, 0x00, 0x00, 0x00, 0x00, 0x00,
   0x00, 0x00, 0x00, 0x00};
