#define actconn_width 12
#define actconn_height 12
static char actconn_bits[] = {
 0xf0,0xf0,0xfc,0xf3,0x0e,0xf7,0x06,0xf6,0x03,0xfc,0x03,0xfc,0x03,0xfc,0x03,
 0xfc,0x06,0xf6,0x0e,0xf7,0xfc,0xf3,0xf0,0xf0};
