#define yconn_n_width 12
#define yconn_n_height 12
static char yconn_n_bits[] = {
 0x00,0xf0,0x60,0xf0,0xf0,0xf0,0x98,0xf1,0x0c,0xf3,0x06,0xf6,0x06,0xf6,0x06,
 0xf6,0x06,0xf6,0xfe,0xf7,0xfe,0xf7,0x00,0xf0};
