#define yconn_e_width 12
#define yconn_e_height 12
static char yconn_e_bits[] = {
 0x00,0xf0,0x7e,0xf0,0xfe,0xf0,0x86,0xf1,0x06,0xf3,0x06,0xf6,0x06,0xf6,0x06,
 0xf3,0x86,0xf1,0xfe,0xf0,0x7e,0xf0,0x00,0xf0};
