#define gconnW_width 12
#define gconnW_height 12
static char gconnW_bits[] = {
 0x00,0x00,0xe0,0x07,0xf0,0x07,0x18,0x06,0x0c,0x06,0x06,0x06,0x06,0x06,0x0c,
 0x06,0x18,0x06,0xf0,0x07,0xe0,0x07,0x00,0x00};
