/*
   modulo circle.bm
   tipo 
   release 5.1
   data 11/13/95
   reserved @(#)circle.bm	5.1
*/
#define circle_width 32
#define circle_height 32
static char circle_bits[] = {
   0x00, 0x00, 0x00, 0x00, 0x00, 0x00, 0x00, 0x00, 0x00, 0x00, 0x00, 0x00,
   0x00, 0x00, 0x00, 0x00, 0x00, 0x00, 0x00, 0x00, 0x00, 0xf0, 0x07, 0x00,
   0x00, 0x0c, 0x18, 0x00, 0x00, 0x02, 0x20, 0x00, 0x00, 0x01, 0x40, 0x00,
   0x80, 0x00, 0x80, 0x00, 0x40, 0x00, 0x00, 0x01, 0x40, 0x00, 0x00, 0x01,
   0x20, 0x00, 0x00, 0x02, 0x20, 0x00, 0x00, 0x02, 0x20, 0x00, 0x00, 0x02,
   0x20, 0x00, 0x00, 0x02, 0x20, 0x00, 0x00, 0x02, 0x20, 0x00, 0x00, 0x02,
   0x20, 0x00, 0x00, 0x02, 0x40, 0x00, 0x00, 0x01, 0x40, 0x00, 0x00, 0x01,
   0x80, 0x00, 0x80, 0x00, 0x00, 0x01, 0x40, 0x00, 0x00, 0x02, 0x20, 0x00,
   0x00, 0x0c, 0x18, 0x00, 0x00, 0xf0, 0x07, 0x00, 0x00, 0x00, 0x00, 0x00,
   0x00, 0x00, 0x00, 0x00, 0x00, 0x00, 0x00, 0x00, 0x00, 0x00, 0x00, 0x00,
   0x00, 0x00, 0x00, 0x00, 0x00, 0x00, 0x00, 0x00};
