/*
   modulo poli.bm
   tipo 
   release 5.1
   data 11/13/95
   reserved @(#)poli.bm	5.1
*/
#define poli_width 32
#define poli_height 32
static char poli_bits[] = {
   0x00, 0x00, 0x00, 0x00, 0x00, 0x00, 0x00, 0x00, 0x00, 0x00, 0x00, 0x00,
   0x00, 0x00, 0x00, 0x00, 0x00, 0x00, 0x00, 0x00, 0x00, 0xfe, 0xff, 0x00,
   0x00, 0x01, 0x80, 0x00, 0x80, 0x00, 0x00, 0x01, 0x40, 0x00, 0x00, 0x01,
   0x40, 0x00, 0x00, 0x01, 0x20, 0x00, 0x00, 0x01, 0x10, 0x00, 0x00, 0x02,
   0x08, 0x00, 0x00, 0x02, 0x04, 0x00, 0x00, 0x02, 0x08, 0x00, 0x00, 0x02,
   0x10, 0x00, 0x00, 0x04, 0x20, 0x00, 0x00, 0x04, 0x40, 0x00, 0x00, 0x04,
   0x80, 0x00, 0x00, 0x02, 0x00, 0x01, 0x00, 0x01, 0x00, 0x02, 0x80, 0x00,
   0x00, 0x04, 0x80, 0x00, 0x00, 0x08, 0x40, 0x00, 0x00, 0x10, 0x20, 0x00,
   0x00, 0x20, 0x10, 0x00, 0x00, 0xc0, 0x0f, 0x00, 0x00, 0x00, 0x00, 0x00,
   0x00, 0x00, 0x00, 0x00, 0x00, 0x00, 0x00, 0x00, 0x00, 0x00, 0x00, 0x00,
   0x00, 0x00, 0x00, 0x00, 0x00, 0x00, 0x00, 0x00};
